{"accessors":[{"bufferView":0,"componentType":5121,"count":6,"max":[3],"min":[0],"type":"SCALAR"},{"bufferView":1,"componentType":5126,"count":4,"max":[1.0,0.0,1.0],"min":[-1.0,0.0,-1.0],"type":"VEC3"},{"bufferView":2,"componentType":5126,"count":4,"max":[0.0,1.0,-0.0],"min":[0.0,1.0,-0.0],"type":"VEC3"},{"bufferView":3,"componentType":5126,"count":4,"max":[1.0,0.0,-0.0,1.0],"min":[1.0,0.0,-0.0,1.0],"type":"VEC4"},{"bufferView":4,"componentType":5126,"count":4,"max":[1.0,1.0],"min":[0.0,0.0],"type":"VEC2"},{"bufferView":5,"componentType":5121,"count":6,"max":[3],"min":[0],"type":"SCALAR"},{"bufferView":6,"componentType":5126,"count":4,"max":[1.0,0.0,1.0],"min":[-1.0,0.0,-1.0],"type":"VEC3"},{"bufferView":7,"componentType":5126,"count":4,"max":[0.0,1.0,-0.0],"min":[0.0,1.0,-0.0],"type":"VEC3"},{"bufferView":8,"componentType":5126,"count":4,"max":[1.0,1.0],"min":[0.0,0.0],"type":"VEC2"},{"bufferView":9,"componentType":5121,"count":6,"max":[3],"min":[0],"type":"SCALAR"},{"bufferView":10,"componentType":5126,"count":4,"max":[1.0,0.0,1.0],"min":[-1.0,0.0,-1.0],"type":"VEC3"},{"bufferView":11,"componentType":5126,"count":4,"max":[0.0,1.0,-0.0],"min":[0.0,1.0,-0.0],"type":"VEC3"},{"bufferView":12,"componentType":5126,"count":4,"max":[1.0,0.0,-0.0,1.0],"min":[1.0,0.0,-0.0,1.0],"type":"VEC4"},{"bufferView":13,"componentType":5126,"count":4,"max":[1.0,1.0],"min":[0.0,0.0],"type":"VEC2"},{"bufferView":14,"componentType":5121,"count":24,"max":[11],"min":[0],"type":"SCALAR"},{"bufferView":15,"componentType":5126,"count":12,"max":[6.468577673501841e-09,1.1649187392492877e-08,0.007399829104542732],"min":[-0.010297410190105438,-0.0008896340732462704,-0.007239002268761396],"type":"VEC3"},{"bufferView":16,"componentType":5126,"count":12,"max":[0.09415704011917114,1.0,0.0],"min":[-0.49669313430786133,-0.9955573678016663,-1.0000003385357559e-06],"type":"VEC3"},{"bufferView":17,"componentType":5126,"count":12,"max":[0.9181796312332153,1.0],"min":[0.08182041347026825,0.0],"type":"VEC2"},{"bufferView":18,"componentType":5123,"count":27918,"max":[5348],"min":[0],"type":"SCALAR"},{"bufferView":19,"componentType":5126,"count":5349,"max":[23.700611114501953,91.92555236816406,27.974903106689453],"min":[-23.700613021850586,41.78376007080078,-29.355154037475586],"type":"VEC3"},{"bufferView":20,"componentType":5126,"count":5349,"max":[0.9996680021286011,0.9999544620513916,0.9999171495437622],"min":[-0.9996680021286011,-0.9999750256538391,-0.9999845623970032],"type":"VEC3"},{"bufferView":21,"componentType":5126,"count":5349,"max":[0.9999949932098389,0.9999814033508301,0.9999704957008362,1.0],"min":[-0.9997769594192505,-0.999911904335022,-0.9975645542144775,1.0],"type":"VEC4"},{"bufferView":22,"componentType":5126,"count":5349,"max":[0.8991032242774963,0.99951171875],"min":[0.00048828125,0.00048828125],"type":"VEC2"},{"bufferView":23,"componentType":5123,"count":31200,"max":[6715],"min":[0],"type":"SCALAR"},{"bufferView":24,"componentType":5126,"count":6716,"max":[26.01036834716797,40.730865478515625,29.179393768310547],"min":[-26.06220245361328,-0.06728553771972656,-22.522796630859375],"type":"VEC3"},{"bufferView":25,"componentType":5126,"count":6716,"max":[0.9838025569915771,0.9999992251396179,0.9976521730422974],"min":[-0.9999770522117615,-1.0,-0.9835793972015381],"type":"VEC3"},{"bufferView":26,"componentType":5126,"count":6716,"max":[0.9999986290931702,0.9998545050621033,0.9893453121185303,1.0],"min":[-0.9608011245727539,-0.9990015625953674,-0.9996429085731506,1.0],"type":"VEC4"},{"bufferView":27,"componentType":5126,"count":6716,"max":[0.9313023686408997,0.99951171875],"min":[0.00048828122089616954,0.08031553030014038],"type":"VEC2"},{"bufferView":28,"componentType":5123,"count":39528,"max":[8988],"min":[0],"type":"SCALAR"},{"bufferView":29,"componentType":5126,"count":8989,"max":[5.783989429473877,41.93133544921875,8.790322303771973],"min":[-5.783989429473877,38.379737854003906,-2.77636981010437],"type":"VEC3"},{"bufferView":30,"componentType":5126,"count":8989,"max":[1.0,0.9999859929084778,0.9999905228614807],"min":[-1.0,-0.9999996423721313,-0.9999906420707703],"type":"VEC3"},{"bufferView":31,"componentType":5126,"count":8989,"max":[0.9999999403953552,0.9998226165771484,0.9999997019767761,1.0],"min":[-0.9999999403953552,-0.99979567527771,-0.9999988675117493,-1.0],"type":"VEC4"},{"bufferView":32,"componentType":5126,"count":8989,"max":[0.9671642780303955,0.99951171875],"min":[0.00048828125,0.46905165910720825],"type":"VEC2"},{"bufferView":33,"componentType":5123,"count":21348,"max":[4385],"min":[0],"type":"SCALAR"},{"bufferView":34,"componentType":5126,"count":4386,"max":[5.783989429473877,42.586734771728516,8.74887752532959],"min":[-5.783989429473877,41.119606018066406,-2.8216326236724854],"type":"VEC3"},{"bufferView":35,"componentType":5126,"count":4386,"max":[1.0,0.9999992251396179,0.9996671080589294],"min":[-1.0,-0.9999849796295166,-0.9997425079345703],"type":"VEC3"},{"bufferView":36,"componentType":5126,"count":4386,"max":[0.9989798665046692,0.99998539686203,0.9999962449073792,1.0],"min":[-0.9992149472236633,-0.9998296499252319,-0.9823099970817566,-1.0],"type":"VEC4"},{"bufferView":37,"componentType":5126,"count":4386,"max":[0.9641662836074829,0.9995108842849731],"min":[0.00048828125,0.4563528299331665],"type":"VEC2"},{"bufferView":38,"componentType":5126,"count":69,"max":[2.9000000953674316],"min":[0.0],"type":"SCALAR"},{"bufferView":39,"componentType":5126,"count":69,"max":[0.0,0.7071067690849304,-0.0,1.0],"min":[0.0,-0.7071067690849304,-0.0,0.7071067690849304],"type":"VEC4"}],"animations":[{"channels":[{"sampler":0,"target":{"node":6,"path":"rotation"}}],"extensions":{"S8S_v3d_animation":{"auto":true,"loop":"REPEAT","offset":0.0,"repeatCount":1.0,"repeatInfinite":true}},"name":"Empty","samplers":[{"input":38,"interpolation":"LINEAR","output":39}]}],"asset":{"generator":"Verge3D for Blender v4.8.0","version":"2.0"},"bufferViews":[{"buffer":0,"byteLength":6,"byteOffset":0,"target":34963},{"buffer":0,"byteLength":48,"byteOffset":8,"target":34962},{"buffer":0,"byteLength":48,"byteOffset":56,"target":34962},{"buffer":0,"byteLength":64,"byteOffset":104,"target":34962},{"buffer":0,"byteLength":32,"byteOffset":168,"target":34962},{"buffer":0,"byteLength":6,"byteOffset":200,"target":34963},{"buffer":0,"byteLength":48,"byteOffset":208,"target":34962},{"buffer":0,"byteLength":48,"byteOffset":256,"target":34962},{"buffer":0,"byteLength":32,"byteOffset":304,"target":34962},{"buffer":0,"byteLength":6,"byteOffset":336,"target":34963},{"buffer":0,"byteLength":48,"byteOffset":344,"target":34962},{"buffer":0,"byteLength":48,"byteOffset":392,"target":34962},{"buffer":0,"byteLength":64,"byteOffset":440,"target":34962},{"buffer":0,"byteLength":32,"byteOffset":504,"target":34962},{"buffer":0,"byteLength":24,"byteOffset":536,"target":34963},{"buffer":0,"byteLength":144,"byteOffset":560,"target":34962},{"buffer":0,"byteLength":144,"byteOffset":704,"target":34962},{"buffer":0,"byteLength":96,"byteOffset":848,"target":34962},{"buffer":0,"byteLength":55836,"byteOffset":944,"target":34963},{"buffer":0,"byteLength":64188,"byteOffset":56780,"target":34962},{"buffer":0,"byteLength":64188,"byteOffset":120968,"target":34962},{"buffer":0,"byteLength":85584,"byteOffset":185156,"target":34962},{"buffer":0,"byteLength":42792,"byteOffset":270740,"target":34962},{"buffer":0,"byteLength":62400,"byteOffset":313532,"target":34963},{"buffer":0,"byteLength":80592,"byteOffset":375932,"target":34962},{"buffer":0,"byteLength":80592,"byteOffset":456524,"target":34962},{"buffer":0,"byteLength":107456,"byteOffset":537116,"target":34962},{"buffer":0,"byteLength":53728,"byteOffset":644572,"target":34962},{"buffer":0,"byteLength":79056,"byteOffset":698300,"target":34963},{"buffer":0,"byteLength":107868,"byteOffset":777356,"target":34962},{"buffer":0,"byteLength":107868,"byteOffset":885224,"target":34962},{"buffer":0,"byteLength":143824,"byteOffset":993092,"target":34962},{"buffer":0,"byteLength":71912,"byteOffset":1136916,"target":34962},{"buffer":0,"byteLength":42696,"byteOffset":1208828,"target":34963},{"buffer":0,"byteLength":52632,"byteOffset":1251524,"target":34962},{"buffer":0,"byteLength":52632,"byteOffset":1304156,"target":34962},{"buffer":0,"byteLength":70176,"byteOffset":1356788,"target":34962},{"buffer":0,"byteLength":35088,"byteOffset":1426964,"target":34962},{"buffer":0,"byteLength":276,"byteOffset":1462052},{"buffer":0,"byteLength":1104,"byteOffset":1462328}],"buffers":[{"byteLength":1463432,"uri":"Tablacasa-Chaise-Adeline.bin"}],"cameras":[{"extensions":{"S8S_v3d_camera":{"controls":"ORBIT","enablePan":false,"moveSpeed":1.0,"orbitMaxDistance":4.0,"orbitMaxPolarAngle":3.1415927410125732,"orbitMaxZoom":100.0,"orbitMinDistance":1.0,"orbitMinPolarAngle":0.0,"orbitMinZoom":0.009999999776482582,"orbitTarget":[0.0,0.375,-0.0],"rotateSpeed":1.0,"viewportFitInitialAspect":1.7777777777777777,"viewportFitType":"AUTO"}},"name":"Camera.001","perspective":{"aspectRatio":1.7777777777777777,"yfov":0.39959652046304894,"zfar":1000.0,"znear":0.10000000149011612},"type":"perspective"}],"extensions":{"S8S_v3d_materials":{"nodeGraphs":[{"edges":[],"name":"glTF Material Output","nodes":[{"inputs":[],"is_active_output":true,"name":"Group Output","outputs":[],"type":"GROUP_OUTPUT_BL"},{"inputs":[],"is_active_output":false,"name":"Group Input","outputs":[0.0,0.0],"type":"GROUP_INPUT_BL"}]},{"edges":[],"name":"glTF Material Output.003","nodes":[{"inputs":[],"is_active_output":true,"name":"Group Output","outputs":[],"type":"GROUP_OUTPUT_BL"},{"inputs":[],"is_active_output":false,"name":"Group Input","outputs":[0.0,0.0],"type":"GROUP_INPUT_BL"}]},{"edges":[],"name":"gltf settings","nodes":[{"inputs":[],"is_active_output":true,"name":"Group Output","outputs":[],"type":"GROUP_OUTPUT_BL"},{"inputs":[],"is_active_output":false,"name":"Group Input","outputs":[0.0],"type":"GROUP_INPUT_BL"}]},{"edges":[{"fromNode":21,"fromOutput":1,"toInput":6,"toNode":0},{"fromNode":21,"fromOutput":9,"toInput":7,"toNode":0},{"fromNode":21,"fromOutput":4,"toInput":6,"toNode":1},{"fromNode":21,"fromOutput":5,"toInput":6,"toNode":2},{"fromNode":21,"fromOutput":15,"toInput":7,"toNode":2},{"fromNode":0,"fromOutput":2,"toInput":0,"toNode":18},{"fromNode":1,"fromOutput":2,"toInput":3,"toNode":18},{"fromNode":2,"fromOutput":2,"toInput":6,"toNode":18},{"fromNode":21,"fromOutput":16,"toInput":7,"toNode":3},{"fromNode":3,"fromOutput":2,"toInput":7,"toNode":18},{"fromNode":21,"fromOutput":12,"toInput":7,"toNode":1},{"fromNode":21,"fromOutput":6,"toInput":6,"toNode":3},{"fromNode":21,"fromOutput":3,"toInput":6,"toNode":6},{"fromNode":21,"fromOutput":11,"toInput":7,"toNode":6},{"fromNode":6,"fromOutput":2,"toInput":2,"toNode":18},{"fromNode":21,"fromOutput":0,"toInput":0,"toNode":7},{"fromNode":7,"fromOutput":0,"toInput":0,"toNode":8},{"fromNode":8,"fromOutput":0,"toInput":0,"toNode":0},{"fromNode":8,"fromOutput":0,"toInput":0,"toNode":9},{"fromNode":9,"fromOutput":0,"toInput":0,"toNode":4},{"fromNode":9,"fromOutput":0,"toInput":0,"toNode":10},{"fromNode":10,"fromOutput":0,"toInput":0,"toNode":5},{"fromNode":10,"fromOutput":0,"toInput":0,"toNode":11},{"fromNode":11,"fromOutput":0,"toInput":0,"toNode":6},{"fromNode":11,"fromOutput":0,"toInput":0,"toNode":12},{"fromNode":12,"fromOutput":0,"toInput":0,"toNode":1},{"fromNode":12,"fromOutput":0,"toInput":0,"toNode":16},{"fromNode":13,"fromOutput":0,"toInput":0,"toNode":2},{"fromNode":13,"fromOutput":0,"toInput":0,"toNode":14},{"fromNode":14,"fromOutput":0,"toInput":0,"toNode":3},{"fromNode":16,"fromOutput":0,"toInput":0,"toNode":17},{"fromNode":17,"fromOutput":0,"toInput":0,"toNode":13},{"fromNode":17,"fromOutput":0,"toInput":0,"toNode":20},{"fromNode":16,"fromOutput":0,"toInput":0,"toNode":19},{"fromNode":21,"fromOutput":2,"toInput":6,"toNode":4},{"fromNode":21,"fromOutput":10,"toInput":7,"toNode":4},{"fromNode":4,"fromOutput":2,"toInput":1,"toNode":18},{"fromNode":21,"fromOutput":7,"toInput":6,"toNode":19},{"fromNode":21,"fromOutput":8,"toInput":6,"toNode":20},{"fromNode":21,"fromOutput":13,"toInput":7,"toNode":19},{"fromNode":21,"fromOutput":14,"toInput":7,"toNode":20},{"fromNode":19,"fromOutput":2,"toInput":4,"toNode":18},{"fromNode":20,"fromOutput":2,"toInput":5,"toNode":18}],"name":"Poliigon_Mixer","nodes":[{"blendType":"MIX","clampFactor":true,"clampResult":false,"dataType":"RGBA","factorMode":"UNIFORM","inputs":[0.5,[0.5,0.5,0.5],0.0,0.0,[0.0,0.0,0.0],[0.0,0.0,0.0],[0.5,0.5,0.5,1.0],[0.5,0.5,0.5,1.0],0,0],"is_active_output":false,"name":"Mix","outputs":[0.0,[0.0,0.0,0.0],[0.0,0.0,0.0,0.0],0],"type":"MIX_BL"},{"blendType":"MIX","clampFactor":true,"clampResult":false,"dataType":"RGBA","factorMode":"UNIFORM","inputs":[0.5,[0.5,0.5,0.5],0.0,0.0,[0.0,0.0,0.0],[0.0,0.0,0.0],[0.5,0.5,0.5,1.0],[0.5,0.5,0.5,1.0],0,0],"is_active_output":false,"name":"Mix.002","outputs":[0.0,[0.0,0.0,0.0],[0.0,0.0,0.0,0.0],0],"type":"MIX_BL"},{"blendType":"MIX","clampFactor":true,"clampResult":false,"dataType":"RGBA","factorMode":"UNIFORM","inputs":[0.5,[0.5,0.5,0.5],0.0,0.0,[0.0,0.0,0.0],[0.0,0.0,0.0],[0.5,0.5,0.5,1.0],[0.5,0.5,0.5,1.0],0,0],"is_active_output":false,"name":"Mix.003","outputs":[0.0,[0.0,0.0,0.0],[0.0,0.0,0.0,0.0],0],"type":"MIX_BL"},{"blendType":"MIX","clampFactor":true,"clampResult":false,"dataType":"RGBA","factorMode":"UNIFORM","inputs":[0.5,[0.5,0.5,0.5],0.0,0.0,[0.0,0.0,0.0],[0.0,0.0,0.0],[0.5,0.5,0.5,1.0],[0.5,0.5,0.5,1.0],0,0],"is_active_output":false,"name":"Mix.004","outputs":[0.0,[0.0,0.0,0.0],[0.0,0.0,0.0,0.0],0],"type":"MIX_BL"},{"blendType":"MIX","clampFactor":true,"clampResult":false,"dataType":"RGBA","factorMode":"UNIFORM","inputs":[0.5,[0.5,0.5,0.5],0.0,0.0,[0.0,0.0,0.0],[0.0,0.0,0.0],[0.5,0.5,0.5,1.0],[0.5,0.5,0.5,1.0],0,0],"is_active_output":false,"name":"Mix.005","outputs":[0.0,[0.0,0.0,0.0],[0.0,0.0,0.0,0.0],0],"type":"MIX_BL"},{"blendType":"MIX","clampFactor":true,"clampResult":false,"dataType":"RGBA","factorMode":"UNIFORM","inputs":[0.5,[0.5,0.5,0.5],0.0,0.0,[0.0,0.0,0.0],[0.0,0.0,0.0],[0.5,0.5,0.5,1.0],[0.5,0.5,0.5,1.0],0,0],"is_active_output":false,"name":"Mix.006","outputs":[0.0,[0.0,0.0,0.0],[0.0,0.0,0.0,0.0],0],"type":"MIX_BL"},{"blendType":"MIX","clampFactor":true,"clampResult":false,"dataType":"RGBA","factorMode":"UNIFORM","inputs":[0.5,[0.5,0.5,0.5],0.0,0.0,[0.0,0.0,0.0],[0.0,0.0,0.0],[0.5,0.5,0.5,1.0],[0.5,0.5,0.5,1.0],0,0],"is_active_output":false,"name":"Mix.007","outputs":[0.0,[0.0,0.0,0.0],[0.0,0.0,0.0,0.0],0],"type":"MIX_BL"},{"inputs":[0.0],"is_active_output":false,"name":"Reroute","outputs":[0.0],"type":"REROUTE_BL"},{"inputs":[0.0],"is_active_output":false,"name":"Reroute.002","outputs":[0.0],"type":"REROUTE_BL"},{"inputs":[0.0],"is_active_output":false,"name":"Reroute.003","outputs":[0.0],"type":"REROUTE_BL"},{"inputs":[0.0],"is_active_output":false,"name":"Reroute.004","outputs":[0.0],"type":"REROUTE_BL"},{"inputs":[0.0],"is_active_output":false,"name":"Reroute.005","outputs":[0.0],"type":"REROUTE_BL"},{"inputs":[0.0],"is_active_output":false,"name":"Reroute.007","outputs":[0.0],"type":"REROUTE_BL"},{"inputs":[0.0],"is_active_output":false,"name":"Reroute.008","outputs":[0.0],"type":"REROUTE_BL"},{"inputs":[0.0],"is_active_output":false,"name":"Reroute.009","outputs":[0.0],"type":"REROUTE_BL"},{"inputs":[0.0],"is_active_output":false,"name":"Reroute.010","outputs":[0.0],"type":"REROUTE_BL"},{"inputs":[0.0],"is_active_output":false,"name":"Reroute.011","outputs":[0.0],"type":"REROUTE_BL"},{"inputs":[0.0],"is_active_output":false,"name":"Reroute.012","outputs":[0.0],"type":"REROUTE_BL"},{"inputs":[[0.5,0.5,0.5,1.0],0.0,0.0,0.5,0.0,0.0,[0.0,0.0,0.0],0.5],"is_active_output":true,"name":"Group Output","outputs":[],"type":"GROUP_OUTPUT_BL"},{"blendType":"MIX","clampFactor":true,"clampResult":false,"dataType":"RGBA","factorMode":"UNIFORM","inputs":[0.5,[0.5,0.5,0.5],0.0,0.0,[0.0,0.0,0.0],[0.0,0.0,0.0],[0.5,0.5,0.5,1.0],[0.5,0.5,0.5,1.0],0,0],"is_active_output":false,"name":"Mix.008","outputs":[0.0,[0.0,0.0,0.0],[0.0,0.0,0.0,0.0],0],"type":"MIX_BL"},{"blendType":"MIX","clampFactor":true,"clampResult":false,"dataType":"RGBA","factorMode":"UNIFORM","inputs":[0.5,[0.5,0.5,0.5],0.0,0.0,[0.0,0.0,0.0],[0.0,0.0,0.0],[0.5,0.5,0.5,1.0],[0.5,0.5,0.5,1.0],0,0],"is_active_output":false,"name":"Mix.009","outputs":[0.0,[0.0,0.0,0.0],[0.0,0.0,0.0,0.0],0],"type":"MIX_BL"},{"inputs":[],"is_active_output":false,"name":"Group Input","outputs":[0.0,[0.0,0.0,0.0,1.0],0.0,0.0,0.0,[0.0,0.0,0.0],0.0,0.0,0.0,[0.0,0.0,0.0,1.0],0.0,0.0,0.0,0.0,0.0,[0.0,0.0,0.0],0.0],"type":"GROUP_INPUT_BL"}]}]}},"extensionsUsed":["S8S_v3d_texture","S8S_v3d_materials","S8S_v3d_camera","S8S_v3d_mesh","S8S_v3d_node","S8S_v3d_animation","S8S_v3d_scene"],"images":[{"uri":"MAT_FEET_METALWOOD_normal (5).jpg"},{"uri":"MAT_FEET_METALWOOD_occlusionRoughnessMetallic2.jpg"},{"uri":"MAT_FEET_METALWOOD_baseColor.jpg"},{"uri":"logotype.jpg"},{"uri":"Fast_Normal.jpg"},{"uri":"Fast_ORM.jpg"},{"uri":"Fast_Basecolor.jpg"},{"uri":"Shadow.png"},{"uri":"MAT_FEET_METALWOOD_occlusionRoughnessMetallic (5).jpg"},{"uri":"MAT_FEETALWAYSMETAL_normal (2).jpg"},{"uri":"MAT_FEETALWAYSMETAL_occlusionRoughnessMetallic (2).jpg"},{"uri":"Christmas_living_room.hdr"}],"materials":[{"alphaMode":"BLEND","extensions":{"S8S_v3d_materials":{"alphaToCoverage":true,"gtaoVisible":true,"materialIndex":0,"nodeGraph":{"edges":[{"fromNode":0,"fromOutput":0,"toInput":0,"toNode":1},{"fromNode":13,"fromOutput":2,"toInput":1,"toNode":0},{"fromNode":13,"fromOutput":1,"toInput":2,"toNode":0},{"fromNode":10,"fromOutput":0,"toInput":0,"toNode":13},{"fromNode":2,"fromOutput":0,"toInput":5,"toNode":0},{"fromNode":7,"fromOutput":0,"toInput":1,"toNode":2},{"fromNode":8,"fromOutput":0,"toInput":0,"toNode":3},{"fromNode":4,"fromOutput":0,"toInput":6,"toNode":5},{"fromNode":9,"fromOutput":0,"toInput":4,"toNode":4},{"fromNode":12,"fromOutput":2,"toInput":0,"toNode":0},{"fromNode":3,"fromOutput":0,"toInput":0,"toNode":6},{"fromNode":5,"fromOutput":2,"toInput":6,"toNode":12},{"fromNode":13,"fromOutput":0,"toInput":7,"toNode":12}],"nodes":[{"inputs":[[0.800000011920929,0.800000011920929,0.800000011920929,1.0],0.0,0.5,1.5,1.0,[0.0,0.0,0.0],0.0,[1.0,0.20000000298023224,0.10000000149011612],0.05000000074505806,1.399999976158142,0.0,0.5,[1.0,1.0,1.0,1.0],0.0,0.0,[0.0,0.0,0.0],0.0,0.0,0.029999999329447746,1.5,[1.0,1.0,1.0,1.0],[0.0,0.0,0.0],0.0,0.5,[1.0,1.0,1.0,1.0],[1.0,1.0,1.0,1.0],0.0],"is_active_output":false,"name":"Principled BSDF","outputs":[[0,0,0,0]],"type":"BSDF_PRINCIPLED_BL"},{"inputs":[[0,0,0,0],[0,0,0,0],[0.0,0.0,0.0],0.0],"is_active_output":true,"name":"Material Output","outputs":[],"type":"OUTPUT_MATERIAL_BL"},{"inputs":[1.0,[0.5,0.5,1.0,1.0]],"is_active_output":false,"name":"Normal Map","outputs":[[0.0,0.0,0.0]],"type":"NORMAL_MAP_BL","uvLayer":"UVMap"},{"inputs":[[0.800000011920929,0.800000011920929,0.800000011920929,1.0]],"is_active_output":false,"mode":"RGB","name":"Separate Color.001","outputs":[0.0,0.0,0.0],"type":"SEPARATE_COLOR_BL"},{"inputs":[0.5,1.0,0.75,1.0,[0.800000011920929,0.800000011920929,0.800000011920929,1.0]],"is_active_output":false,"name":"Hue/Saturation/Value","outputs":[[0.0,0.0,0.0,0.0]],"type":"HUE_SAT_BL"},{"blendType":"COLOR","clampFactor":true,"clampResult":false,"dataType":"RGBA","factorMode":"UNIFORM","inputs":[1.0,[0.5,0.5,0.5],0.0,0.0,[0.0,0.0,0.0],[0.0,0.0,0.0],[0.5,0.5,0.5,1.0],[1.0,0.7474360466003418,0.5,1.0],0,0],"is_active_output":false,"name":"Mix","outputs":[0.0,[0.0,0.0,0.0],[0.0,0.0,0.0,0.0],0],"type":"MIX_BL"},{"inputs":[0.0],"is_active_output":false,"name":"Group.001","nodeGraph":2,"outputs":[],"type":"GROUP_BL"},{"alphaMode":"CHANNEL_PACKED","inputs":[[0.0,0.0,0.0]],"is_active_output":false,"name":"Image Texture.002","outputs":[[0.800000011920929,0.800000011920929,0.800000011920929,1.0],0.0],"projection":"FLAT","projectionBlend":0.0,"texture":0,"type":"TEX_IMAGE_BL"},{"alphaMode":"CHANNEL_PACKED","inputs":[[0.0,0.0,0.0]],"is_active_output":false,"name":"Image Texture.003","outputs":[[0.800000011920929,0.800000011920929,0.800000011920929,1.0],0.0],"projection":"FLAT","projectionBlend":0.0,"texture":1,"type":"TEX_IMAGE_BL"},{"alphaMode":"STRAIGHT","inputs":[[0.0,0.0,0.0]],"is_active_output":false,"name":"Image Texture","outputs":[[0.800000011920929,0.800000011920929,0.800000011920929,1.0],0.0],"projection":"FLAT","projectionBlend":0.0,"texture":2,"type":"TEX_IMAGE_BL"},{"alphaMode":"CHANNEL_PACKED","inputs":[[0.0,0.0,0.0]],"is_active_output":false,"name":"Image Texture.001","outputs":[[0.800000011920929,0.800000011920929,0.800000011920929,1.0],0.0],"projection":"FLAT","projectionBlend":0.0,"texture":1,"type":"TEX_IMAGE_BL"},{"inputs":[0.0,[1.0,1.0,1.0,1.0],0.0,0.0,0.0,[0.0,0.0,0.0],0.0,0.0,0.0,[0.05378136783838272,0.05378136783838272,0.05378136783838272,1.0],0.0,0.0,0.0,0.0,0.0,[0.0,0.0,0.0],0.0],"is_active_output":false,"name":"Poliigon_Mixer","nodeGraph":3,"outputs":[[0.5,0.5,0.5,1.0],0.0,0.0,0.5,0.0,0.0,[0.0,0.0,0.0],0.5],"type":"GROUP_BL"},{"blendType":"MULTIPLY","clampFactor":true,"clampResult":false,"dataType":"RGBA","factorMode":"UNIFORM","inputs":[1.0,[0.5,0.5,0.5],0.0,0.0,[0.0,0.0,0.0],[0.0,0.0,0.0],[0.5,0.5,0.5,1.0],[0.5,0.5,0.5,1.0],0,0],"is_active_output":false,"name":"Mix.001","outputs":[0.0,[0.0,0.0,0.0],[0.0,0.0,0.0,0.0],0],"type":"MIX_BL"},{"inputs":[[0.800000011920929,0.800000011920929,0.800000011920929,1.0]],"is_active_output":false,"mode":"RGB","name":"Separate Color","outputs":[0.0,0.0,0.0],"type":"SEPARATE_COLOR_BL"}]}}},"name":"Bois"},{"alphaMode":"OPAQUE","extensions":{"S8S_v3d_materials":{"gtaoVisible":true,"materialIndex":0,"nodeGraph":{"edges":[{"fromNode":0,"fromOutput":0,"toInput":0,"toNode":1},{"fromNode":2,"fromOutput":0,"toInput":0,"toNode":0}],"nodes":[{"inputs":[[0.800000011920929,0.800000011920929,0.800000011920929,1.0],0.0,1.0,1.4500000476837158,1.0,[0.0,0.0,0.0],0.0,[1.0,0.20000000298023224,0.10000000149011612],0.05000000074505806,1.399999976158142,0.0,0.5,[1.0,1.0,1.0,1.0],0.0,0.0,[0.0,0.0,0.0],0.0,0.0,0.029999999329447746,1.5,[1.0,1.0,1.0,1.0],[0.0,0.0,0.0],0.0,0.5,[1.0,1.0,1.0,1.0],[1.0,1.0,1.0,1.0],0.0],"is_active_output":false,"name":"Principled BSDF","outputs":[[0,0,0,0]],"type":"BSDF_PRINCIPLED_BL"},{"inputs":[[0,0,0,0],[0,0,0,0],[0.0,0.0,0.0],0.0],"is_active_output":true,"name":"Material Output","outputs":[],"type":"OUTPUT_MATERIAL_BL"},{"alphaMode":"STRAIGHT","inputs":[[0.0,0.0,0.0]],"is_active_output":false,"name":"Image Texture","outputs":[[0.0,0.0,0.0,0.0],0.0],"projection":"FLAT","projectionBlend":0.0,"texture":4,"type":"TEX_IMAGE_BL"}]}}},"name":"logotype"},{"alphaMode":"OPAQUE","extensions":{"S8S_v3d_materials":{"gtaoVisible":true,"materialIndex":0,"nodeGraph":{"edges":[{"fromNode":9,"fromOutput":2,"toInput":0,"toNode":20},{"fromNode":7,"fromOutput":2,"toInput":1,"toNode":20},{"fromNode":8,"fromOutput":0,"toInput":2,"toNode":20},{"fromNode":5,"fromOutput":0,"toInput":0,"toNode":7},{"fromNode":2,"fromOutput":0,"toInput":5,"toNode":20},{"fromNode":3,"fromOutput":0,"toInput":1,"toNode":2},{"fromNode":4,"fromOutput":0,"toInput":0,"toNode":0},{"fromNode":6,"fromOutput":0,"toInput":0,"toNode":4},{"fromNode":7,"fromOutput":0,"toInput":7,"toNode":9},{"fromNode":7,"fromOutput":1,"toInput":0,"toNode":8},{"fromNode":13,"fromOutput":0,"toInput":0,"toNode":11},{"fromNode":11,"fromOutput":0,"toInput":0,"toNode":12},{"fromNode":12,"fromOutput":0,"toInput":0,"toNode":17},{"fromNode":13,"fromOutput":0,"toInput":4,"toNode":15},{"fromNode":13,"fromOutput":0,"toInput":4,"toNode":14},{"fromNode":28,"fromOutput":0,"toInput":1,"toNode":17},{"fromNode":27,"fromOutput":0,"toInput":2,"toNode":17},{"fromNode":17,"fromOutput":0,"toInput":0,"toNode":18},{"fromNode":12,"fromOutput":0,"toInput":0,"toNode":16},{"fromNode":22,"fromOutput":2,"toInput":1,"toNode":16},{"fromNode":23,"fromOutput":2,"toInput":2,"toNode":16},{"fromNode":16,"fromOutput":0,"toInput":0,"toNode":19},{"fromNode":18,"fromOutput":0,"toInput":6,"toNode":22},{"fromNode":18,"fromOutput":0,"toInput":6,"toNode":23},{"fromNode":19,"fromOutput":0,"toInput":6,"toNode":9},{"fromNode":20,"fromOutput":0,"toInput":0,"toNode":1},{"fromNode":26,"fromOutput":0,"toInput":2,"toNode":14},{"fromNode":21,"fromOutput":0,"toInput":2,"toNode":15},{"fromNode":25,"fromOutput":0,"toInput":7,"toNode":22},{"fromNode":24,"fromOutput":0,"toInput":7,"toNode":23},{"fromNode":15,"fromOutput":0,"toInput":0,"toNode":27},{"fromNode":14,"fromOutput":0,"toInput":0,"toNode":28}],"nodes":[{"inputs":[0.0,0.0],"is_active_output":false,"name":"Group","nodeGraph":0,"outputs":[],"type":"GROUP_BL"},{"inputs":[[0,0,0,0],[0,0,0,0],[0.0,0.0,0.0],0.0],"is_active_output":true,"name":"Material Output","outputs":[],"type":"OUTPUT_MATERIAL_BL"},{"inputs":[1.0,[0.5,0.5,1.0,1.0]],"is_active_output":false,"name":"Normal Map","outputs":[[0.0,0.0,0.0]],"type":"NORMAL_MAP_BL","uvLayer":"UVMap"},{"alphaMode":"CHANNEL_PACKED","inputs":[[0.0,0.0,0.0]],"is_active_output":false,"name":"Image Texture.002","outputs":[[0.0,0.0,0.0,0.0],0.0],"projection":"FLAT","projectionBlend":0.0,"texture":5,"type":"TEX_IMAGE_BL"},{"inputs":[[0.800000011920929,0.800000011920929,0.800000011920929,1.0]],"is_active_output":false,"mode":"RGB","name":"Separate Color.001","outputs":[0.0,0.0,0.0],"type":"SEPARATE_COLOR_BL"},{"alphaMode":"CHANNEL_PACKED","inputs":[[0.0,0.0,0.0]],"is_active_output":false,"name":"Image Texture.001","outputs":[[0.0,0.0,0.0,0.0],0.0],"projection":"FLAT","projectionBlend":0.0,"texture":6,"type":"TEX_IMAGE_BL"},{"alphaMode":"CHANNEL_PACKED","inputs":[[0.0,0.0,0.0]],"is_active_output":false,"name":"Image Texture.003","outputs":[[0.0,0.0,0.0,0.0],0.0],"projection":"FLAT","projectionBlend":0.0,"texture":6,"type":"TEX_IMAGE_BL"},{"inputs":[[0.800000011920929,0.800000011920929,0.800000011920929,1.0]],"is_active_output":false,"mode":"RGB","name":"Separate Color","outputs":[0.0,0.0,0.0],"type":"SEPARATE_COLOR_BL"},{"curve":{"input":[0.0,0.6409094333648682],"interpolation":"LINEAR","output":[0.0,0.0,0.0,1.0,1.0,1.0,1.0,1.0]},"inputs":[0.5],"is_active_output":false,"name":"Color Ramp","outputs":[[0.0,0.0,0.0,0.0],0.0],"type":"VALTORGB_BL"},{"blendType":"MULTIPLY","clampFactor":true,"clampResult":false,"dataType":"RGBA","factorMode":"UNIFORM","inputs":[1.0,[0.5,0.5,0.5],0.0,0.0,[0.0,0.0,0.0],[0.0,0.0,0.0],[0.5,0.5,0.5,1.0],[0.5,0.5,0.5,1.0],0,0],"is_active_output":false,"name":"Mix","outputs":[0.0,[0.0,0.0,0.0],[0.0,0.0,0.0,0.0],0],"type":"MIX_BL"},{"inputs":[0.5,1.2000000476837158,1.0,1.0,[0.800000011920929,0.800000011920929,0.800000011920929,1.0]],"is_active_output":false,"name":"Hue/Saturation/Value","outputs":[[0.0,0.0,0.0,0.0]],"type":"HUE_SAT_BL"},{"inputs":[[0.800000011920929,0.800000011920929,0.800000011920929,1.0]],"is_active_output":false,"mode":"RGB","name":"Separate Color.002","outputs":[0.0,0.0,0.0],"type":"SEPARATE_COLOR_BL"},{"curve":{"input":[0.05000000074505806,0.05454587936401367],"interpolation":"LINEAR","output":[0.0,0.0,0.0,1.0,1.0,1.0,1.0,1.0]},"inputs":[0.5],"is_active_output":false,"name":"Color Ramp.001","outputs":[[0.0,0.0,0.0,0.0],0.0],"type":"VALTORGB_BL"},{"alphaMode":"STRAIGHT","inputs":[[0.0,0.0,0.0]],"is_active_output":false,"name":"Image Texture","outputs":[[0.0,0.0,0.0,0.0],0.0],"projection":"FLAT","projectionBlend":0.0,"texture":8,"type":"TEX_IMAGE_BL"},{"inputs":[0.5,1.0,1.0,1.0,[0.800000011920929,0.800000011920929,0.800000011920929,1.0]],"is_active_output":false,"name":"Hue/Saturation/Value.002","outputs":[[0.0,0.0,0.0,0.0]],"type":"HUE_SAT_BL"},{"inputs":[0.5,1.0,1.0,1.0,[0.800000011920929,0.800000011920929,0.800000011920929,1.0]],"is_active_output":false,"name":"Hue/Saturation/Value.001","outputs":[[0.0,0.0,0.0,0.0]],"type":"HUE_SAT_BL"},{"inputs":[0.5,[0,0,0,0],[0,0,0,0]],"is_active_output":false,"name":"Mix Shader.001","outputs":[[0,0,0,0]],"type":"MIX_SHADER_BL"},{"inputs":[0.5,[0,0,0,0],[0,0,0,0]],"is_active_output":false,"name":"Mix Shader","outputs":[[0,0,0,0]],"type":"MIX_SHADER_BL"},{"inputs":[[0,0,0,0]],"is_active_output":false,"name":"Shader to RGB","outputs":[[0.0,0.0,0.0,0.0],0.0],"type":"SHADERTORGB_BL"},{"inputs":[[0,0,0,0]],"is_active_output":false,"name":"Shader to RGB.001","outputs":[[0.0,0.0,0.0,0.0],0.0],"type":"SHADERTORGB_BL"},{"inputs":[[0.800000011920929,0.800000011920929,0.800000011920929,1.0],0.0,0.5,1.5,1.0,[0.0,0.0,0.0],0.0,[1.0,0.20000000298023224,0.10000000149011612],0.05000000074505806,1.399999976158142,0.0,0.5,[1.0,1.0,1.0,1.0],0.0,0.0,[0.0,0.0,0.0],0.0,0.0,0.029999999329447746,1.5,[1.0,1.0,1.0,1.0],[0.0,0.0,0.0],0.0,0.5,[1.0,1.0,1.0,1.0],[1.0,1.0,1.0,1.0],0.0],"is_active_output":false,"name":"Principled BSDF","outputs":[[0,0,0,0]],"type":"BSDF_PRINCIPLED_BL"},{"inputs":[],"is_active_output":false,"name":"Value.001","outputs":[0.75],"type":"VALUE_BL"},{"blendType":"COLOR","clampFactor":true,"clampResult":false,"dataType":"RGBA","factorMode":"UNIFORM","inputs":[1.0,[0.5,0.5,0.5],0.0,0.0,[0.0,0.0,0.0],[0.0,0.0,0.0],[0.5,0.5,0.5,1.0],[0.5,0.5,0.5,1.0],0,0],"is_active_output":false,"name":"Mix.001","outputs":[0.0,[0.0,0.0,0.0],[0.0,0.0,0.0,0.0],0],"type":"MIX_BL"},{"blendType":"COLOR","clampFactor":true,"clampResult":false,"dataType":"RGBA","factorMode":"UNIFORM","inputs":[1.0,[0.5,0.5,0.5],0.0,0.0,[0.0,0.0,0.0],[0.0,0.0,0.0],[0.5,0.5,0.5,1.0],[0.5,0.5,0.5,1.0],0,0],"is_active_output":false,"name":"Mix.002","outputs":[0.0,[0.0,0.0,0.0],[0.0,0.0,0.0,0.0],0],"type":"MIX_BL"},{"inputs":[],"is_active_output":false,"name":"RGB.001","outputs":[[0.21226660907268524,0.10422222316265106,0.03714665770530701,1.0]],"type":"RGB_BL"},{"inputs":[],"is_active_output":false,"name":"RGB","outputs":[[1.0,0.8089144229888916,0.75,1.0]],"type":"RGB_BL"},{"inputs":[],"is_active_output":false,"name":"Value","outputs":[1.0],"type":"VALUE_BL"},{"inputs":[[1.0,1.0,1.0,1.0],0.0,-0.05000000074505806],"is_active_output":false,"name":"Brightness/Contrast","outputs":[[0.0,0.0,0.0,0.0]],"type":"BRIGHTCONTRAST_BL"},{"inputs":[[1.0,1.0,1.0,1.0],0.0,-0.02500000037252903],"is_active_output":false,"name":"Brightness/Contrast.001","outputs":[[0.0,0.0,0.0,0.0]],"type":"BRIGHTCONTRAST_BL"}]}}},"name":"MAT_ASSISE"},{"alphaMode":"BLEND","extensions":{"S8S_v3d_materials":{"depthPrepass":true,"gtaoVisible":false,"materialIndex":0,"nodeGraph":{"edges":[{"fromNode":3,"fromOutput":2,"toInput":4,"toNode":1},{"fromNode":1,"fromOutput":0,"toInput":0,"toNode":0},{"fromNode":2,"fromOutput":0,"toInput":6,"toNode":3}],"nodes":[{"inputs":[[0,0,0,0],[0,0,0,0],[0.0,0.0,0.0],0.0],"is_active_output":true,"name":"Material Output","outputs":[],"type":"OUTPUT_MATERIAL_BL"},{"inputs":[[0.0,0.0,0.0,1.0],0.0,1.0,1.4500000476837158,1.0,[0.0,0.0,0.0],0.0,[1.0,0.20000000298023224,0.10000000149011612],0.05000000074505806,1.399999976158142,0.0,0.0,[1.0,1.0,1.0,1.0],0.0,0.0,[0.0,0.0,0.0],0.0,0.0,0.029999999329447746,1.5,[1.0,1.0,1.0,1.0],[0.0,0.0,0.0],0.0,0.5,[1.0,1.0,1.0,1.0],[1.0,1.0,1.0,1.0],0.0],"is_active_output":false,"name":"Principled BSDF","outputs":[[0,0,0,0]],"type":"BSDF_PRINCIPLED_BL"},{"alphaMode":"CHANNEL_PACKED","inputs":[[0.0,0.0,0.0]],"is_active_output":false,"name":"Image Texture","outputs":[[0.0,0.0,0.0,0.0],0.0],"projection":"FLAT","projectionBlend":0.0,"texture":9,"type":"TEX_IMAGE_BL"},{"blendType":"MIX","clampFactor":true,"clampResult":false,"dataType":"RGBA","factorMode":"UNIFORM","inputs":[0.5,[0.5,0.5,0.5],0.0,0.0,[0.0,0.0,0.0],[0.0,0.0,0.0],[0.5,0.5,0.5,1.0],[0.0,0.0,0.0,1.0],0,0],"is_active_output":false,"name":"Mix","outputs":[0.0,[0.0,0.0,0.0],[0.0,0.0,0.0,0.0],0],"type":"MIX_BL"}]}}},"name":"Material"},{"alphaMode":"BLEND","extensions":{"S8S_v3d_materials":{"alphaToCoverage":true,"gtaoVisible":true,"materialIndex":0,"nodeGraph":{"edges":[{"fromNode":3,"fromOutput":1,"toInput":2,"toNode":6},{"fromNode":7,"fromOutput":0,"toInput":0,"toNode":3},{"fromNode":8,"fromOutput":0,"toInput":1,"toNode":1},{"fromNode":5,"fromOutput":0,"toInput":0,"toNode":2},{"fromNode":1,"fromOutput":0,"toInput":5,"toNode":6},{"fromNode":2,"fromOutput":0,"toInput":0,"toNode":4},{"fromNode":6,"fromOutput":0,"toInput":0,"toNode":0},{"fromNode":9,"fromOutput":0,"toInput":6,"toNode":10},{"fromNode":3,"fromOutput":0,"toInput":7,"toNode":10},{"fromNode":10,"fromOutput":2,"toInput":0,"toNode":6}],"nodes":[{"inputs":[[0,0,0,0],[0,0,0,0],[0.0,0.0,0.0],0.0],"is_active_output":true,"name":"Material Output","outputs":[],"type":"OUTPUT_MATERIAL_BL"},{"inputs":[1.0,[0.5,0.5,1.0,1.0]],"is_active_output":false,"name":"Normal Map","outputs":[[0.0,0.0,0.0]],"type":"NORMAL_MAP_BL","uvLayer":"UVMap"},{"inputs":[[0.800000011920929,0.800000011920929,0.800000011920929,1.0]],"is_active_output":false,"mode":"RGB","name":"Separate Color.001","outputs":[0.0,0.0,0.0],"type":"SEPARATE_COLOR_BL"},{"inputs":[[0.800000011920929,0.800000011920929,0.800000011920929,1.0]],"is_active_output":false,"mode":"RGB","name":"Separate Color","outputs":[0.0,0.0,0.0],"type":"SEPARATE_COLOR_BL"},{"inputs":[0.0],"is_active_output":false,"name":"Group.001","nodeGraph":2,"outputs":[],"type":"GROUP_BL"},{"alphaMode":"CHANNEL_PACKED","inputs":[[0.0,0.0,0.0]],"is_active_output":false,"name":"Image Texture.003","outputs":[[0.800000011920929,0.800000011920929,0.800000011920929,1.0],0.0],"projection":"FLAT","projectionBlend":0.0,"texture":10,"type":"TEX_IMAGE_BL"},{"inputs":[[0.07170773297548294,0.07170773297548294,0.07170773297548294,1.0],1.0,0.5,1.5,1.0,[0.0,0.0,0.0],0.0,[1.0,0.20000000298023224,0.10000000149011612],0.05000000074505806,1.399999976158142,0.0,0.5,[1.0,1.0,1.0,1.0],0.0,0.0,[0.0,0.0,0.0],0.0,0.0,0.029999999329447746,1.5,[1.0,1.0,1.0,1.0],[0.0,0.0,0.0],0.0,0.5,[1.0,1.0,1.0,1.0],[1.0,1.0,1.0,1.0],0.0],"is_active_output":false,"name":"Principled BSDF","outputs":[[0,0,0,0]],"type":"BSDF_PRINCIPLED_BL"},{"alphaMode":"CHANNEL_PACKED","inputs":[[0.0,0.0,0.0]],"is_active_output":false,"name":"Image Texture.001","outputs":[[0.800000011920929,0.800000011920929,0.800000011920929,1.0],0.0],"projection":"FLAT","projectionBlend":0.0,"texture":10,"type":"TEX_IMAGE_BL"},{"alphaMode":"CHANNEL_PACKED","inputs":[[0.0,0.0,0.0]],"is_active_output":false,"name":"Image Texture.002","outputs":[[0.800000011920929,0.800000011920929,0.800000011920929,1.0],0.0],"projection":"FLAT","projectionBlend":0.0,"texture":0,"type":"TEX_IMAGE_BL"},{"inputs":[],"is_active_output":false,"name":"RGB","outputs":[[0.07228399813175201,0.07226869463920593,0.07226663827896118,1.0]],"type":"RGB_BL"},{"blendType":"MULTIPLY","clampFactor":true,"clampResult":false,"dataType":"RGBA","factorMode":"UNIFORM","inputs":[1.0,[0.5,0.5,0.5],0.0,0.0,[0.0,0.0,0.0],[0.0,0.0,0.0],[0.5,0.5,0.5,1.0],[0.5,0.5,0.5,1.0],0,0],"is_active_output":false,"name":"Mix","outputs":[0.0,[0.0,0.0,0.0],[0.0,0.0,0.0,0.0],0],"type":"MIX_BL"}]}}},"name":"noir"},{"alphaMode":"BLEND","extensions":{"S8S_v3d_materials":{"alphaToCoverage":true,"gtaoVisible":true,"materialIndex":0,"nodeGraph":{"edges":[{"fromNode":0,"fromOutput":0,"toInput":0,"toNode":1},{"fromNode":2,"fromOutput":1,"toInput":2,"toNode":0},{"fromNode":8,"fromOutput":0,"toInput":0,"toNode":2},{"fromNode":3,"fromOutput":0,"toInput":5,"toNode":0},{"fromNode":4,"fromOutput":0,"toInput":1,"toNode":3},{"fromNode":5,"fromOutput":0,"toInput":0,"toNode":7},{"fromNode":6,"fromOutput":0,"toInput":0,"toNode":5}],"nodes":[{"inputs":[[0.039545975625514984,0.03954627364873886,0.03954625502228737,1.0],1.0,0.5,1.5,1.0,[0.0,0.0,0.0],0.0,[1.0,0.20000000298023224,0.10000000149011612],0.05000000074505806,1.399999976158142,0.0,0.5,[1.0,1.0,1.0,1.0],0.0,0.0,[0.0,0.0,0.0],0.0,0.0,0.029999999329447746,1.5,[1.0,1.0,1.0,1.0],[0.0,0.0,0.0],0.0,0.5,[1.0,1.0,1.0,1.0],[1.0,1.0,1.0,1.0],0.0],"is_active_output":false,"name":"Principled BSDF","outputs":[[0,0,0,0]],"type":"BSDF_PRINCIPLED_BL"},{"inputs":[[0,0,0,0],[0,0,0,0],[0.0,0.0,0.0],0.0],"is_active_output":true,"name":"Material Output","outputs":[],"type":"OUTPUT_MATERIAL_BL"},{"inputs":[[0.800000011920929,0.800000011920929,0.800000011920929,1.0]],"is_active_output":false,"mode":"RGB","name":"Separate Color","outputs":[0.0,0.0,0.0],"type":"SEPARATE_COLOR_BL"},{"inputs":[1.0,[0.5,0.5,1.0,1.0]],"is_active_output":false,"name":"Normal Map","outputs":[[0.0,0.0,0.0]],"type":"NORMAL_MAP_BL","uvLayer":"UVMap"},{"alphaMode":"CHANNEL_PACKED","inputs":[[0.0,0.0,0.0]],"is_active_output":false,"name":"Image Texture.002","outputs":[[0.800000011920929,0.800000011920929,0.800000011920929,1.0],0.0],"projection":"FLAT","projectionBlend":0.0,"texture":13,"type":"TEX_IMAGE_BL"},{"inputs":[[0.800000011920929,0.800000011920929,0.800000011920929,1.0]],"is_active_output":false,"mode":"RGB","name":"Separate Color.001","outputs":[0.0,0.0,0.0],"type":"SEPARATE_COLOR_BL"},{"alphaMode":"CHANNEL_PACKED","inputs":[[0.0,0.0,0.0]],"is_active_output":false,"name":"Image Texture.003","outputs":[[0.800000011920929,0.800000011920929,0.800000011920929,1.0],0.0],"projection":"FLAT","projectionBlend":0.0,"texture":14,"type":"TEX_IMAGE_BL"},{"inputs":[0.0,0.0],"is_active_output":false,"name":"Group","nodeGraph":1,"outputs":[],"type":"GROUP_BL"},{"alphaMode":"CHANNEL_PACKED","inputs":[[0.0,0.0,0.0]],"is_active_output":false,"name":"Image Texture.001","outputs":[[0.800000011920929,0.800000011920929,0.800000011920929,1.0],0.0],"projection":"FLAT","projectionBlend":0.0,"texture":14,"type":"TEX_IMAGE_BL"}]}}},"name":"Pivotant"},{"alphaMode":"OPAQUE","extensions":{"S8S_v3d_materials":{"gtaoVisible":true,"materialIndex":0,"nodeGraph":{"edges":[{"fromNode":2,"fromOutput":0,"toInput":0,"toNode":0},{"fromNode":1,"fromOutput":0,"toInput":0,"toNode":2}],"nodes":[{"inputs":[[0,0,0,0],[0,0,0,0]],"is_active_output":true,"name":"World Output","outputs":[],"type":"OUTPUT_WORLD_BL"},{"inputs":[[0.0,0.0,0.0]],"is_active_output":false,"name":"Environment Texture.001","outputs":[[0.0,0.0,0.0,0.0]],"projection":"EQUIRECTANGULAR","texture":16,"type":"TEX_ENVIRONMENT_BL"},{"inputs":[[0.05087608844041824,0.05087608844041824,0.05087608844041824,1.0],1.0],"is_active_output":false,"name":"Background","outputs":[[0,0,0,0]],"type":"BACKGROUND_BL"}]}}},"name":"Verge3D_Environment_World.001"}],"meshes":[{"extensions":{"S8S_v3d_mesh":{"colorLayers":{},"uvLayers":{"UVMap":"TEXCOORD_0"}}},"name":"Plane","primitives":[{"attributes":{"NORMAL":2,"POSITION":1,"TANGENT":3,"TEXCOORD_0":4},"indices":0,"material":0,"mode":4}]},{"extensions":{"S8S_v3d_mesh":{"colorLayers":{},"uvLayers":{"UVMap":"TEXCOORD_0"}}},"name":"Plane.001","primitives":[{"attributes":{"NORMAL":7,"POSITION":6,"TEXCOORD_0":8},"indices":5,"material":3,"mode":4}]},{"extensions":{"S8S_v3d_mesh":{"colorLayers":{},"uvLayers":{"UVMap":"TEXCOORD_0"}}},"name":"Plane.002","primitives":[{"attributes":{"NORMAL":11,"POSITION":10,"TANGENT":12,"TEXCOORD_0":13},"indices":9,"material":4,"mode":4}]},{"extensions":{"S8S_v3d_mesh":{"colorLayers":{},"uvLayers":{"UVMap":"TEXCOORD_0"}}},"name":"Plane.003","primitives":[{"attributes":{"NORMAL":16,"POSITION":15,"TEXCOORD_0":17},"indices":14,"material":1,"mode":4}]},{"extensions":{"S8S_v3d_mesh":{"colorLayers":{},"uvLayers":{"UVMap":"TEXCOORD_0"}}},"name":"sm_fast.001","primitives":[{"attributes":{"NORMAL":20,"POSITION":19,"TANGENT":21,"TEXCOORD_0":22},"indices":18,"material":2,"mode":4}]},{"extensions":{"S8S_v3d_mesh":{"colorLayers":{},"uvLayers":{"UVMap":"TEXCOORD_0"}}},"name":"sm_feet.002","primitives":[{"attributes":{"NORMAL":25,"POSITION":24,"TANGENT":26,"TEXCOORD_0":27},"indices":23,"material":4,"mode":4}]},{"extensions":{"S8S_v3d_mesh":{"colorLayers":{},"uvLayers":{"UVMap":"TEXCOORD_0"}}},"name":"sm_feet.003","primitives":[{"attributes":{"NORMAL":30,"POSITION":29,"TANGENT":31,"TEXCOORD_0":32},"indices":28,"material":5,"mode":4}]},{"extensions":{"S8S_v3d_mesh":{"colorLayers":{},"uvLayers":{"UVMap":"TEXCOORD_0"}}},"name":"sm_feet.004","primitives":[{"attributes":{"NORMAL":35,"POSITION":34,"TANGENT":36,"TEXCOORD_0":37},"indices":33,"material":5,"mode":4}]}],"nodes":[{"camera":0,"extensions":{"S8S_v3d_node":{"frustumCulling":true,"groupNames":[],"hidden":false,"hidpiCompositing":false,"objectColor":[1.0,1.0,1.0,1.0],"objectIndex":0,"renderOrder":0}},"name":"Camera","rotation":[-0.12820470333099365,-0.32824593782424927,-0.04501935839653015,0.9347680807113647],"scale":[1.0,0.9999999403953552,0.9999997615814209],"translation":[-1.8704807758331299,1.2113816738128662,2.3349359035491943]},{"extensions":{"S8S_v3d_node":{"frustumCulling":true,"groupNames":[],"hidden":false,"hidpiCompositing":false,"objectColor":[1.0,1.0,1.0,1.0],"objectIndex":0,"renderOrder":0}},"mesh":3,"name":"logotype","rotation":[0.073817677795887,-0.028975244611501694,0.2509653568267822,0.9647423624992371],"scale":[0.9999999403953552,1.0,1.0],"translation":[-0.22884522378444672,0.5342633724212646,0.035996560007333755]},{"children":[1],"name":"v3d_Proxy_Node_0_logotype","translation":[-1.8626451075975936e-11,-0.40764057636260986,-0.030036339536309242]},{"extensions":{"S8S_v3d_node":{"frustumCulling":true,"groupNames":[],"hidden":false,"hidpiCompositing":false,"objectColor":[1.0,1.0,1.0,1.0],"objectIndex":0,"renderOrder":0}},"mesh":6,"name":"Pivotant Bas","scale":[0.009999999776482582,0.009999999776482582,0.009999999776482582]},{"extensions":{"S8S_v3d_node":{"frustumCulling":true,"groupNames":["pietement color"],"hidden":false,"hidpiCompositing":false,"objectColor":[1.0,1.0,1.0,1.0],"objectIndex":0,"renderOrder":0}},"mesh":0,"name":"Pietement color","scale":[0.010566351003944874,0.010566351003944874,0.010566351003944874],"translation":[0.0,0.40144383907318115,0.027416108176112175]},{"extensions":{"S8S_v3d_node":{"frustumCulling":true,"groupNames":[],"hidden":false,"hidpiCompositing":false,"objectColor":[1.0,1.0,1.0,1.0],"objectIndex":0,"renderOrder":0}},"mesh":1,"name":"Shadow","rotation":[0.0,1.0,-0.0,1.6292068494294654e-07],"scale":[0.3298780024051666,0.3298780024051666,0.3298780024051666],"translation":[-0.001711157034151256,0.00275031547062099,0.0348326601088047]},{"children":[11,2,9],"extensions":{"S8S_v3d_node":{"frustumCulling":true,"groupNames":[],"hidden":false,"hidpiCompositing":false,"objectColor":[1.0,1.0,1.0,1.0],"objectIndex":0,"renderOrder":0}},"name":"Empty","translation":[1.8626451075975936e-11,0.40764057636260986,0.030036339536309242]},{"extensions":{"S8S_v3d_node":{"frustumCulling":true,"groupNames":[],"hidden":false,"hidpiCompositing":false,"objectColor":[1.0,1.0,1.0,1.0],"objectIndex":0,"renderOrder":0}},"mesh":5,"name":"Pietement","scale":[0.009999999776482582,0.009999999776482582,0.009999999776482582]},{"extensions":{"S8S_v3d_node":{"frustumCulling":true,"groupNames":[],"hidden":false,"hidpiCompositing":false,"objectColor":[1.0,1.0,1.0,1.0],"objectIndex":0,"renderOrder":0}},"mesh":7,"name":"Pivotant Haut","scale":[0.009999999776482582,0.009999999776482582,0.009999999776482582]},{"children":[8],"name":"v3d_Proxy_Node_0_Pivotant Haut","translation":[-1.8626451075975936e-11,-0.40764057636260986,-0.030036339536309242]},{"extensions":{"S8S_v3d_node":{"frustumCulling":true,"groupNames":[],"hidden":false,"hidpiCompositing":false,"objectColor":[1.0,1.0,1.0,1.0],"objectIndex":0,"renderOrder":0}},"mesh":4,"name":"Assise","scale":[0.009999999776482582,0.009999999776482582,0.009999999776482582]},{"children":[10],"name":"v3d_Proxy_Node_0_Assise","translation":[-1.8626451075975936e-11,-0.40764057636260986,-0.030036339536309242]},{"extensions":{"S8S_v3d_node":{"frustumCulling":true,"groupNames":["pietement color"],"hidden":false,"hidpiCompositing":false,"objectColor":[1.0,1.0,1.0,1.0],"objectIndex":0,"renderOrder":0}},"mesh":2,"name":"Pietement color 2","scale":[0.010566351003944874,0.010566351003944874,0.010566351003944874],"translation":[0.0,0.39764276146888733,0.027416108176112175]}],"samplers":[{}],"scene":0,"scenes":[{"extensions":{"S8S_v3d_scene":{"aaMethod":"AUTO","iblEnvironmentMode":"PMREM","physicallyCorrectLights":true,"pmremMaxTileSize":512,"toneMapping":{"look":"NONE","type":"agxBlender"},"worldMaterial":6}},"extras":{"animFrameRate":30,"coordSystem":"Z_UP_RIGHT"},"name":"Scene","nodes":[0,5,6,7,3,4,12]}],"textures":[{"extensions":{"S8S_v3d_texture":{"colorSpace":"non-color"}},"name":"MAT_FEET_METALWOOD_normal (5).jpg","sampler":0,"source":0},{"extensions":{"S8S_v3d_texture":{"colorSpace":"non-color"}},"name":"MAT_FEET_METALWOOD_occlusionRoughnessMetallic2.jpg","sampler":0,"source":1},{"extensions":{"S8S_v3d_texture":{"colorSpace":"srgb"}},"name":"MAT_FEET_METALWOOD_baseColor.jpg","sampler":0,"source":2},{"extensions":{"S8S_v3d_texture":{"colorSpace":"non-color"}},"name":"MAT_FEET_METALWOOD_occlusionRoughnessMetallic2.jpg","sampler":0,"source":1},{"extensions":{"S8S_v3d_texture":{"colorSpace":"srgb"}},"name":"logotype.jpg","sampler":0,"source":3},{"extensions":{"S8S_v3d_texture":{"colorSpace":"non-color"}},"name":"Fast_Normal.jpg","sampler":0,"source":4},{"extensions":{"S8S_v3d_texture":{"colorSpace":"non-color"}},"name":"Fast_ORM.jpg","sampler":0,"source":5},{"extensions":{"S8S_v3d_texture":{"colorSpace":"non-color"}},"name":"Fast_ORM.jpg","sampler":0,"source":5},{"extensions":{"S8S_v3d_texture":{"colorSpace":"srgb"}},"name":"Fast_Basecolor.jpg","sampler":0,"source":6},{"extensions":{"S8S_v3d_texture":{"colorSpace":"non-color"}},"name":"Shadow.png.001","sampler":0,"source":7},{"extensions":{"S8S_v3d_texture":{"colorSpace":"non-color"}},"name":"MAT_FEET_METALWOOD_occlusionRoughnessMetallic (5).jpg","sampler":0,"source":8},{"extensions":{"S8S_v3d_texture":{"colorSpace":"non-color"}},"name":"MAT_FEET_METALWOOD_occlusionRoughnessMetallic (5).jpg","sampler":0,"source":8},{"extensions":{"S8S_v3d_texture":{"colorSpace":"non-color"}},"name":"MAT_FEET_METALWOOD_normal (5).jpg","sampler":0,"source":0},{"extensions":{"S8S_v3d_texture":{"colorSpace":"non-color"}},"name":"MAT_FEETALWAYSMETAL_normal (2).jpg","sampler":0,"source":9},{"extensions":{"S8S_v3d_texture":{"colorSpace":"non-color"}},"name":"MAT_FEETALWAYSMETAL_occlusionRoughnessMetallic (2).jpg","sampler":0,"source":10},{"extensions":{"S8S_v3d_texture":{"colorSpace":"non-color"}},"name":"MAT_FEETALWAYSMETAL_occlusionRoughnessMetallic (2).jpg","sampler":0,"source":10},{"extensions":{"S8S_v3d_texture":{"colorSpace":"linear rec.709","source":11}},"name":"Christmas_living_room.hdr","sampler":0}]}
