{"accessors":[{"bufferView":0,"componentType":5121,"count":6,"max":[3],"min":[0],"type":"SCALAR"},{"bufferView":1,"componentType":5126,"count":4,"max":[1.0,0.0,1.0],"min":[-1.0,0.0,-1.0],"type":"VEC3"},{"bufferView":2,"componentType":5126,"count":4,"max":[0.0,1.0,-0.0],"min":[0.0,1.0,-0.0],"type":"VEC3"},{"bufferView":3,"componentType":5126,"count":4,"max":[1.0,1.0],"min":[0.0,0.0],"type":"VEC2"},{"bufferView":4,"componentType":5121,"count":6,"max":[3],"min":[0],"type":"SCALAR"},{"bufferView":5,"componentType":5126,"count":4,"max":[0.3281669616699219,0.00275031547062099,0.3647107779979706],"min":[-0.3315892815589905,0.00275031547062099,-0.2950454652309418],"type":"VEC3"},{"bufferView":6,"componentType":5126,"count":4,"max":[-0.0,1.0,-0.0],"min":[-0.0,1.0,-0.0],"type":"VEC3"},{"bufferView":7,"componentType":5126,"count":4,"max":[1.0,1.0],"min":[0.0,0.0],"type":"VEC2"},{"bufferView":8,"componentType":5121,"count":6,"max":[3],"min":[0],"type":"SCALAR"},{"bufferView":9,"componentType":5126,"count":4,"max":[1.0,0.0,1.0],"min":[-1.0,0.0,-1.0],"type":"VEC3"},{"bufferView":10,"componentType":5126,"count":4,"max":[0.0,1.0,-0.0],"min":[0.0,1.0,-0.0],"type":"VEC3"},{"bufferView":11,"componentType":5126,"count":4,"max":[1.0,0.0,-0.0,1.0],"min":[1.0,0.0,-0.0,1.0],"type":"VEC4"},{"bufferView":12,"componentType":5126,"count":4,"max":[1.0,1.0],"min":[0.0,0.0],"type":"VEC2"},{"bufferView":13,"componentType":5121,"count":24,"max":[11],"min":[0],"type":"SCALAR"},{"bufferView":14,"componentType":5126,"count":12,"max":[6.468577673501841e-09,1.1649187392492877e-08,0.007399829104542732],"min":[-0.010297410190105438,-0.0008896340732462704,-0.007239002268761396],"type":"VEC3"},{"bufferView":15,"componentType":5126,"count":12,"max":[0.09415704011917114,1.0,0.0],"min":[-0.49669313430786133,-0.9955573678016663,-1.0000003385357559e-06],"type":"VEC3"},{"bufferView":16,"componentType":5126,"count":12,"max":[0.9181796312332153,1.0],"min":[0.08182041347026825,0.0],"type":"VEC2"},{"bufferView":17,"componentType":5123,"count":18054,"max":[3332],"min":[0],"type":"SCALAR"},{"bufferView":18,"componentType":5126,"count":3333,"max":[20.713817596435547,84.26468658447266,27.125516891479492],"min":[-20.713815689086914,41.650203704833984,-30.84157943725586],"type":"VEC3"},{"bufferView":19,"componentType":5126,"count":3333,"max":[0.9999428987503052,0.9998499751091003,0.9999053478240967],"min":[-0.9999428987503052,-0.9997778534889221,-0.9985719919204712],"type":"VEC3"},{"bufferView":20,"componentType":5126,"count":3333,"max":[1.0,0.9829646944999695,0.9989343285560608,1.0],"min":[-1.0,-0.987068235874176,-0.9936476945877075,1.0],"type":"VEC4"},{"bufferView":21,"componentType":5126,"count":3333,"max":[0.9479101300239563,0.9995104670524597],"min":[0.00048828125,0.00048828125],"type":"VEC2"},{"bufferView":22,"componentType":5123,"count":31200,"max":[6715],"min":[0],"type":"SCALAR"},{"bufferView":23,"componentType":5126,"count":6716,"max":[26.01036834716797,40.730865478515625,29.179393768310547],"min":[-26.06220245361328,-0.06728553771972656,-22.522796630859375],"type":"VEC3"},{"bufferView":24,"componentType":5126,"count":6716,"max":[0.9838025569915771,0.9999992251396179,0.9976521730422974],"min":[-0.9999770522117615,-1.0,-0.9835793972015381],"type":"VEC3"},{"bufferView":25,"componentType":5126,"count":6716,"max":[0.9999986290931702,0.9998545050621033,0.9893453121185303,1.0],"min":[-0.9608011245727539,-0.9990015625953674,-0.9996429085731506,1.0],"type":"VEC4"},{"bufferView":26,"componentType":5126,"count":6716,"max":[0.9313023686408997,0.99951171875],"min":[0.00048828122089616954,0.08031553030014038],"type":"VEC2"},{"bufferView":27,"componentType":5123,"count":39528,"max":[8923],"min":[0],"type":"SCALAR"},{"bufferView":28,"componentType":5126,"count":8924,"max":[5.783989429473877,41.93133544921875,8.790322303771973],"min":[-5.783989429473877,38.379737854003906,-2.77636981010437],"type":"VEC3"},{"bufferView":29,"componentType":5126,"count":8924,"max":[1.0,0.9999859929084778,0.9999905228614807],"min":[-1.0,-0.9999996423721313,-0.9999906420707703],"type":"VEC3"},{"bufferView":30,"componentType":5126,"count":8924,"max":[0.9671642780303955,0.99951171875],"min":[0.00048828125,0.46905165910720825],"type":"VEC2"},{"bufferView":31,"componentType":5123,"count":21348,"max":[4385],"min":[0],"type":"SCALAR"},{"bufferView":32,"componentType":5126,"count":4386,"max":[5.783989429473877,42.586734771728516,8.74887752532959],"min":[-5.783989429473877,41.119606018066406,-2.8216326236724854],"type":"VEC3"},{"bufferView":33,"componentType":5126,"count":4386,"max":[1.0,0.9999992251396179,0.9996671080589294],"min":[-1.0,-0.9999849796295166,-0.9997425079345703],"type":"VEC3"},{"bufferView":34,"componentType":5126,"count":4386,"max":[0.9641662836074829,0.9995108842849731],"min":[0.00048828125,0.4563528299331665],"type":"VEC2"},{"bufferView":35,"componentType":5126,"count":69,"max":[2.9000000953674316],"min":[0.0],"type":"SCALAR"},{"bufferView":36,"componentType":5126,"count":69,"max":[0.0,0.7071067690849304,-0.0,1.0],"min":[0.0,-0.7071067690849304,-0.0,0.7071067690849304],"type":"VEC4"}],"animations":[{"channels":[{"sampler":0,"target":{"node":7,"path":"rotation"}}],"extensions":{"S8S_v3d_animation":{"auto":true,"loop":"REPEAT","offset":0.0,"repeatCount":1.0,"repeatInfinite":true}},"name":"Empty","samplers":[{"input":35,"interpolation":"LINEAR","output":36}]}],"asset":{"generator":"Verge3D for Blender v4.8.0","version":"2.0"},"bufferViews":[{"buffer":0,"byteLength":6,"byteOffset":0,"target":34963},{"buffer":0,"byteLength":48,"byteOffset":8,"target":34962},{"buffer":0,"byteLength":48,"byteOffset":56,"target":34962},{"buffer":0,"byteLength":32,"byteOffset":104,"target":34962},{"buffer":0,"byteLength":6,"byteOffset":136,"target":34963},{"buffer":0,"byteLength":48,"byteOffset":144,"target":34962},{"buffer":0,"byteLength":48,"byteOffset":192,"target":34962},{"buffer":0,"byteLength":32,"byteOffset":240,"target":34962},{"buffer":0,"byteLength":6,"byteOffset":272,"target":34963},{"buffer":0,"byteLength":48,"byteOffset":280,"target":34962},{"buffer":0,"byteLength":48,"byteOffset":328,"target":34962},{"buffer":0,"byteLength":64,"byteOffset":376,"target":34962},{"buffer":0,"byteLength":32,"byteOffset":440,"target":34962},{"buffer":0,"byteLength":24,"byteOffset":472,"target":34963},{"buffer":0,"byteLength":144,"byteOffset":496,"target":34962},{"buffer":0,"byteLength":144,"byteOffset":640,"target":34962},{"buffer":0,"byteLength":96,"byteOffset":784,"target":34962},{"buffer":0,"byteLength":36108,"byteOffset":880,"target":34963},{"buffer":0,"byteLength":39996,"byteOffset":36988,"target":34962},{"buffer":0,"byteLength":39996,"byteOffset":76984,"target":34962},{"buffer":0,"byteLength":53328,"byteOffset":116980,"target":34962},{"buffer":0,"byteLength":26664,"byteOffset":170308,"target":34962},{"buffer":0,"byteLength":62400,"byteOffset":196972,"target":34963},{"buffer":0,"byteLength":80592,"byteOffset":259372,"target":34962},{"buffer":0,"byteLength":80592,"byteOffset":339964,"target":34962},{"buffer":0,"byteLength":107456,"byteOffset":420556,"target":34962},{"buffer":0,"byteLength":53728,"byteOffset":528012,"target":34962},{"buffer":0,"byteLength":79056,"byteOffset":581740,"target":34963},{"buffer":0,"byteLength":107088,"byteOffset":660796,"target":34962},{"buffer":0,"byteLength":107088,"byteOffset":767884,"target":34962},{"buffer":0,"byteLength":71392,"byteOffset":874972,"target":34962},{"buffer":0,"byteLength":42696,"byteOffset":946364,"target":34963},{"buffer":0,"byteLength":52632,"byteOffset":989060,"target":34962},{"buffer":0,"byteLength":52632,"byteOffset":1041692,"target":34962},{"buffer":0,"byteLength":35088,"byteOffset":1094324,"target":34962},{"buffer":0,"byteLength":276,"byteOffset":1129412},{"buffer":0,"byteLength":1104,"byteOffset":1129688}],"buffers":[{"byteLength":1130792,"uri":"Tablacasa-Chaise-Adeline.bin"}],"cameras":[{"extensions":{"S8S_v3d_camera":{"controls":"ORBIT","enablePan":false,"moveSpeed":1.0,"orbitMaxDistance":4.0,"orbitMaxPolarAngle":3.1415927410125732,"orbitMaxZoom":100.0,"orbitMinDistance":1.0,"orbitMinPolarAngle":0.0,"orbitMinZoom":0.009999999776482582,"orbitTarget":[0.0,0.375,-0.0],"rotateSpeed":1.0,"viewportFitInitialAspect":1.7777777777777777,"viewportFitType":"AUTO"}},"name":"Camera.001","perspective":{"aspectRatio":1.7777777777777777,"yfov":0.39959652046304894,"zfar":1000.0,"znear":0.10000000149011612},"type":"perspective"}],"extensionsUsed":["S8S_v3d_texture","S8S_v3d_materials","S8S_v3d_camera","S8S_v3d_mesh","S8S_v3d_node","S8S_v3d_animation","S8S_v3d_scene"],"images":[{"uri":"MAT_FEET_METALWOOD_occlusionRoughnessMetallic2.jpg"},{"uri":"MAT_FEET_METALWOOD_baseColor.jpg"},{"uri":"logotype.jpg"},{"uri":"Alice_ORM.jpg"},{"uri":"Alice_Normal.jpg"},{"uri":"Alice_Basecolor.jpg"},{"uri":"Shadow.png"},{"uri":"Noise_Optimized.jpg"},{"uri":"Christmas_living_room.hdr"}],"materials":[{"alphaMode":"BLEND","extensions":{"S8S_v3d_materials":{"alphaToCoverage":true,"gtaoVisible":true,"materialIndex":0,"nodeGraph":{"edges":[{"fromNode":3,"fromOutput":2,"toInput":1,"toNode":6},{"fromNode":3,"fromOutput":1,"toInput":2,"toNode":6},{"fromNode":2,"fromOutput":0,"toInput":0,"toNode":3},{"fromNode":1,"fromOutput":0,"toInput":6,"toNode":4},{"fromNode":7,"fromOutput":0,"toInput":4,"toNode":1},{"fromNode":5,"fromOutput":2,"toInput":0,"toNode":6},{"fromNode":4,"fromOutput":2,"toInput":6,"toNode":5},{"fromNode":3,"fromOutput":0,"toInput":7,"toNode":5},{"fromNode":6,"fromOutput":0,"toInput":0,"toNode":0}],"nodes":[{"inputs":[[0,0,0,0],[0,0,0,0],[0.0,0.0,0.0],0.0],"is_active_output":true,"name":"Material Output","outputs":[],"type":"OUTPUT_MATERIAL_BL"},{"inputs":[0.5,1.0,0.75,1.0,[0.800000011920929,0.800000011920929,0.800000011920929,1.0]],"is_active_output":false,"name":"Hue/Saturation/Value","outputs":[[0.0,0.0,0.0,0.0]],"type":"HUE_SAT_BL"},{"alphaMode":"CHANNEL_PACKED","inputs":[[0.0,0.0,0.0]],"is_active_output":false,"name":"Image Texture.001","outputs":[[0.800000011920929,0.800000011920929,0.800000011920929,1.0],0.0],"projection":"FLAT","projectionBlend":0.0,"texture":0,"type":"TEX_IMAGE_BL"},{"inputs":[[0.800000011920929,0.800000011920929,0.800000011920929,1.0]],"is_active_output":false,"mode":"RGB","name":"Separate Color","outputs":[0.0,0.0,0.0],"type":"SEPARATE_COLOR_BL"},{"blendType":"COLOR","clampFactor":true,"clampResult":false,"dataType":"RGBA","factorMode":"UNIFORM","inputs":[1.0,[0.5,0.5,0.5],0.0,0.0,[0.0,0.0,0.0],[0.0,0.0,0.0],[0.5,0.5,0.5,1.0],[1.0,0.7474360466003418,0.5,1.0],0,0],"is_active_output":false,"name":"Mix","outputs":[0.0,[0.0,0.0,0.0],[0.0,0.0,0.0,0.0],0],"type":"MIX_BL"},{"blendType":"MULTIPLY","clampFactor":true,"clampResult":false,"dataType":"RGBA","factorMode":"UNIFORM","inputs":[1.0,[0.5,0.5,0.5],0.0,0.0,[0.0,0.0,0.0],[0.0,0.0,0.0],[0.5,0.5,0.5,1.0],[0.5,0.5,0.5,1.0],0,0],"is_active_output":false,"name":"Mix.001","outputs":[0.0,[0.0,0.0,0.0],[0.0,0.0,0.0,0.0],0],"type":"MIX_BL"},{"inputs":[[0.800000011920929,0.800000011920929,0.800000011920929,1.0],0.0,0.5,1.5,1.0,[0.0,0.0,0.0],0.0,[1.0,0.20000000298023224,0.10000000149011612],0.05000000074505806,1.399999976158142,0.0,0.5,[1.0,1.0,1.0,1.0],0.0,0.0,[0.0,0.0,0.0],0.0,0.0,0.029999999329447746,1.5,[1.0,1.0,1.0,1.0],[0.0,0.0,0.0],0.0,0.5,[1.0,1.0,1.0,1.0],[1.0,1.0,1.0,1.0],0.0],"is_active_output":false,"name":"Principled BSDF","outputs":[[0,0,0,0]],"type":"BSDF_PRINCIPLED_BL"},{"alphaMode":"STRAIGHT","inputs":[[0.0,0.0,0.0]],"is_active_output":false,"name":"Image Texture","outputs":[[0.800000011920929,0.800000011920929,0.800000011920929,1.0],0.0],"projection":"FLAT","projectionBlend":0.0,"texture":1,"type":"TEX_IMAGE_BL"}]}}},"name":"Bois"},{"alphaMode":"OPAQUE","extensions":{"S8S_v3d_materials":{"gtaoVisible":true,"materialIndex":0,"nodeGraph":{"edges":[{"fromNode":0,"fromOutput":0,"toInput":0,"toNode":1},{"fromNode":2,"fromOutput":0,"toInput":0,"toNode":0}],"nodes":[{"inputs":[[0.800000011920929,0.800000011920929,0.800000011920929,1.0],0.0,1.0,1.4500000476837158,1.0,[0.0,0.0,0.0],0.0,[1.0,0.20000000298023224,0.10000000149011612],0.05000000074505806,1.399999976158142,0.0,0.5,[1.0,1.0,1.0,1.0],0.0,0.0,[0.0,0.0,0.0],0.0,0.0,0.029999999329447746,1.5,[1.0,1.0,1.0,1.0],[0.0,0.0,0.0],0.0,0.5,[1.0,1.0,1.0,1.0],[1.0,1.0,1.0,1.0],0.0],"is_active_output":false,"name":"Principled BSDF","outputs":[[0,0,0,0]],"type":"BSDF_PRINCIPLED_BL"},{"inputs":[[0,0,0,0],[0,0,0,0],[0.0,0.0,0.0],0.0],"is_active_output":true,"name":"Material Output","outputs":[],"type":"OUTPUT_MATERIAL_BL"},{"alphaMode":"STRAIGHT","inputs":[[0.0,0.0,0.0]],"is_active_output":false,"name":"Image Texture","outputs":[[0.0,0.0,0.0,0.0],0.0],"projection":"FLAT","projectionBlend":0.0,"texture":2,"type":"TEX_IMAGE_BL"}]}}},"name":"logotype"},{"alphaMode":"OPAQUE","extensions":{"S8S_v3d_materials":{"gtaoVisible":true,"materialIndex":0,"nodeGraph":{"edges":[{"fromNode":4,"fromOutput":0,"toInput":6,"toNode":3},{"fromNode":2,"fromOutput":0,"toInput":7,"toNode":3},{"fromNode":1,"fromOutput":0,"toInput":2,"toNode":4},{"fromNode":6,"fromOutput":0,"toInput":6,"toNode":7},{"fromNode":8,"fromOutput":0,"toInput":7,"toNode":7},{"fromNode":5,"fromOutput":0,"toInput":2,"toNode":6},{"fromNode":9,"fromOutput":0,"toInput":5,"toNode":17},{"fromNode":10,"fromOutput":0,"toInput":7,"toNode":13},{"fromNode":15,"fromOutput":0,"toInput":0,"toNode":17},{"fromNode":12,"fromOutput":0,"toInput":6,"toNode":11},{"fromNode":11,"fromOutput":2,"toInput":6,"toNode":13},{"fromNode":24,"fromOutput":0,"toInput":7,"toNode":11},{"fromNode":23,"fromOutput":0,"toInput":2,"toNode":12},{"fromNode":13,"fromOutput":2,"toInput":4,"toNode":15},{"fromNode":14,"fromOutput":0,"toInput":0,"toNode":16},{"fromNode":18,"fromOutput":0,"toInput":3,"toNode":15},{"fromNode":17,"fromOutput":0,"toInput":0,"toNode":0},{"fromNode":16,"fromOutput":0,"toInput":1,"toNode":18},{"fromNode":20,"fromOutput":0,"toInput":1,"toNode":9},{"fromNode":19,"fromOutput":0,"toInput":0,"toNode":10},{"fromNode":21,"fromOutput":0,"toInput":4,"toNode":12},{"fromNode":22,"fromOutput":0,"toInput":2,"toNode":15}],"nodes":[{"inputs":[[0,0,0,0],[0,0,0,0],[0.0,0.0,0.0],0.0],"is_active_output":true,"name":"Material Output","outputs":[],"type":"OUTPUT_MATERIAL_BL"},{"inputs":[],"is_active_output":false,"name":"Brightness.001","outputs":[0.20000000298023224],"type":"VALUE_BL"},{"inputs":[],"is_active_output":false,"name":"color.001","outputs":[[0.18768703937530518,0.129949688911438,0.11261222511529922,1.0]],"type":"RGB_BL"},{"blendType":"COLOR","clampFactor":true,"clampResult":false,"dataType":"RGBA","factorMode":"UNIFORM","inputs":[1.0,[0.5,0.5,0.5],0.0,0.0,[0.0,0.0,0.0],[0.0,0.0,0.0],[0.5,0.5,0.5,1.0],[0.151402086019516,0.02959439530968666,0.0,1.0],0,0],"is_active_output":false,"name":"Mix.001","outputs":[0.0,[0.0,0.0,0.0],[0.0,0.0,0.0,0.0],0],"type":"MIX_BL"},{"inputs":[0.5,1.0,1.0,1.0,[0.800000011920929,0.800000011920929,0.800000011920929,1.0]],"is_active_output":false,"name":"Hue/Saturation/Value.001","outputs":[[0.0,0.0,0.0,0.0]],"type":"HUE_SAT_BL"},{"inputs":[],"is_active_output":false,"name":"Brightness.004","outputs":[1.25],"type":"VALUE_BL"},{"inputs":[0.5,1.0,1.0,1.0,[0.800000011920929,0.800000011920929,0.800000011920929,1.0]],"is_active_output":false,"name":"Hue/Saturation/Value.004","outputs":[[0.0,0.0,0.0,0.0]],"type":"HUE_SAT_BL"},{"blendType":"COLOR","clampFactor":true,"clampResult":false,"dataType":"RGBA","factorMode":"UNIFORM","inputs":[1.0,[0.5,0.5,0.5],0.0,0.0,[0.0,0.0,0.0],[0.0,0.0,0.0],[0.5,0.5,0.5,1.0],[0.151402086019516,0.02959439530968666,0.0,1.0],0,0],"is_active_output":false,"name":"Mix.004","outputs":[0.0,[0.0,0.0,0.0],[0.0,0.0,0.0,0.0],0],"type":"MIX_BL"},{"inputs":[],"is_active_output":false,"name":"color.004","outputs":[[1.0,0.2873179316520691,0.0,1.0]],"type":"RGB_BL"},{"inputs":[1.0,[0.5,0.5,1.0,1.0]],"is_active_output":false,"name":"Normal Map","outputs":[[0.0,0.0,0.0]],"type":"NORMAL_MAP_BL","uvLayer":""},{"inputs":[[0.800000011920929,0.800000011920929,0.800000011920929,1.0]],"is_active_output":false,"mode":"RGB","name":"Separate Color","outputs":[0.0,0.0,0.0],"type":"SEPARATE_COLOR_BL"},{"blendType":"COLOR","clampFactor":true,"clampResult":false,"dataType":"RGBA","factorMode":"UNIFORM","inputs":[1.0,[0.5,0.5,0.5],0.0,0.0,[0.0,0.0,0.0],[0.0,0.0,0.0],[0.5,0.5,0.5,1.0],[0.5,0.5,0.5,1.0],0,0],"is_active_output":false,"name":"Mix.002","outputs":[0.0,[0.0,0.0,0.0],[0.0,0.0,0.0,0.0],0],"type":"MIX_BL"},{"inputs":[0.5,1.0,1.0,1.0,[0.800000011920929,0.800000011920929,0.800000011920929,1.0]],"is_active_output":false,"name":"Hue/Saturation/Value","outputs":[[0.0,0.0,0.0,0.0]],"type":"HUE_SAT_BL"},{"blendType":"MULTIPLY","clampFactor":true,"clampResult":false,"dataType":"RGBA","factorMode":"UNIFORM","inputs":[1.0,[0.5,0.5,0.5],0.0,0.0,[0.0,0.0,0.0],[0.0,0.0,0.0],[0.5,0.5,0.5,1.0],[0.5,0.5,0.5,1.0],0,0],"is_active_output":false,"name":"Mix","outputs":[0.0,[0.0,0.0,0.0],[0.0,0.0,0.0,0.0],0],"type":"MIX_BL"},{"dispersionFactor":1.0,"falloffFactor":0.0,"inputs":[[0.0,0.0,0.0],0.0,7.78000020980835,5.489999771118164,1.0,1.2400000095367432,0.0],"is_active_output":false,"name":"Noise Texture","outputs":[0.0,[0.0,0.0,0.0,0.0]],"type":"TEX_NOISE_BL"},{"inputs":[0.5,1.0,0.8999999761581421,1.0,[0.800000011920929,0.800000011920929,0.800000011920929,1.0]],"is_active_output":false,"name":"Hue/Saturation/Value.002","outputs":[[0.0,0.0,0.0,0.0]],"type":"HUE_SAT_BL"},{"curve":{"input":[0.34999993443489075,0.6181821227073669],"interpolation":"LINEAR","output":[0.0,0.0,0.0,1.0,1.0,1.0,1.0,1.0]},"inputs":[0.5],"is_active_output":false,"name":"Color Ramp","outputs":[[0.0,0.0,0.0,0.0],0.0],"type":"VALTORGB_BL"},{"inputs":[[0.8002434968948364,0.0,0.00041603503632359207,1.0],0.0,1.0,1.5,1.0,[0.0,0.0,0.0],0.0,[1.0,0.20000000298023224,0.10000000149011612],0.05000000074505806,1.399999976158142,0.0,0.5,[1.0,1.0,1.0,1.0],0.0,0.0,[0.0,0.0,0.0],0.0,0.0,0.029999999329447746,1.5,[1.0,1.0,1.0,1.0],[0.0,0.0,0.0],0.0,0.5,[1.0,1.0,1.0,1.0],[1.0,1.0,1.0,1.0],0.0],"is_active_output":false,"name":"Principled BSDF","outputs":[[0,0,0,0]],"type":"BSDF_PRINCIPLED_BL"},{"inputs":[1.0,[0.0,0.0,0.0,1.0]],"is_active_output":false,"name":"Invert Color","outputs":[[0.0,0.0,0.0,0.0]],"type":"INVERT_BL"},{"alphaMode":"CHANNEL_PACKED","inputs":[[0.0,0.0,0.0]],"is_active_output":false,"name":"Image Texture.001","outputs":[[0.0,0.0,0.0,0.0],0.0],"projection":"FLAT","projectionBlend":0.0,"texture":3,"type":"TEX_IMAGE_BL"},{"alphaMode":"CHANNEL_PACKED","inputs":[[0.0,0.0,0.0]],"is_active_output":false,"name":"Image Texture.002","outputs":[[0.0,0.0,0.0,0.0],0.0],"projection":"FLAT","projectionBlend":0.0,"texture":4,"type":"TEX_IMAGE_BL"},{"alphaMode":"STRAIGHT","inputs":[[0.0,0.0,0.0]],"is_active_output":false,"name":"Image Texture","outputs":[[0.0,0.0,0.0,0.0],0.0],"projection":"FLAT","projectionBlend":0.0,"texture":5,"type":"TEX_IMAGE_BL"},{"inputs":[],"is_active_output":false,"name":"Noise","outputs":[0.8999999761581421],"type":"VALUE_BL"},{"inputs":[],"is_active_output":false,"name":"Brightness","outputs":[0.699999988079071],"type":"VALUE_BL"},{"inputs":[],"is_active_output":false,"name":"RGB","outputs":[[0.13845491409301758,0.1301308125257492,0.12476280331611633,1.0]],"type":"RGB_BL"}]}}},"name":"MAT_ASSISE"},{"alphaMode":"BLEND","extensions":{"S8S_v3d_materials":{"depthPrepass":true,"gtaoVisible":false,"materialIndex":0,"nodeGraph":{"edges":[{"fromNode":3,"fromOutput":2,"toInput":4,"toNode":2},{"fromNode":2,"fromOutput":0,"toInput":0,"toNode":0},{"fromNode":1,"fromOutput":0,"toInput":6,"toNode":3}],"nodes":[{"inputs":[[0,0,0,0],[0,0,0,0],[0.0,0.0,0.0],0.0],"is_active_output":true,"name":"Material Output","outputs":[],"type":"OUTPUT_MATERIAL_BL"},{"alphaMode":"CHANNEL_PACKED","inputs":[[0.0,0.0,0.0]],"is_active_output":false,"name":"Image Texture","outputs":[[0.0,0.0,0.0,0.0],0.0],"projection":"FLAT","projectionBlend":0.0,"texture":6,"type":"TEX_IMAGE_BL"},{"inputs":[[0.0,0.0,0.0,1.0],0.0,1.0,1.4500000476837158,1.0,[0.0,0.0,0.0],0.0,[1.0,0.20000000298023224,0.10000000149011612],0.05000000074505806,1.399999976158142,0.0,0.0,[1.0,1.0,1.0,1.0],0.0,0.0,[0.0,0.0,0.0],0.0,0.0,0.029999999329447746,1.5,[1.0,1.0,1.0,1.0],[0.0,0.0,0.0],0.0,0.5,[1.0,1.0,1.0,1.0],[1.0,1.0,1.0,1.0],0.0],"is_active_output":false,"name":"Principled BSDF","outputs":[[0,0,0,0]],"type":"BSDF_PRINCIPLED_BL"},{"blendType":"MIX","clampFactor":true,"clampResult":false,"dataType":"RGBA","factorMode":"UNIFORM","inputs":[0.574999988079071,[0.5,0.5,0.5],0.0,0.0,[0.0,0.0,0.0],[0.0,0.0,0.0],[0.5,0.5,0.5,1.0],[0.0,0.0,0.0,1.0],0,0],"is_active_output":false,"name":"Mix","outputs":[0.0,[0.0,0.0,0.0],[0.0,0.0,0.0,0.0],0],"type":"MIX_BL"}]}}},"name":"Material"},{"alphaMode":"BLEND","extensions":{"S8S_v3d_materials":{"alphaToCoverage":true,"gtaoVisible":true,"materialIndex":0,"nodeGraph":{"edges":[{"fromNode":1,"fromOutput":0,"toInput":0,"toNode":0},{"fromNode":5,"fromOutput":0,"toInput":1,"toNode":2},{"fromNode":2,"fromOutput":0,"toInput":5,"toNode":1},{"fromNode":3,"fromOutput":0,"toInput":0,"toNode":5},{"fromNode":4,"fromOutput":2,"toInput":0,"toNode":3}],"nodes":[{"inputs":[[0,0,0,0],[0,0,0,0],[0.0,0.0,0.0],0.0],"is_active_output":true,"name":"Material Output","outputs":[],"type":"OUTPUT_MATERIAL_BL"},{"inputs":[[0.05353328585624695,0.05353328585624695,0.05353328585624695,1.0],1.0,0.5,1.5,1.0,[0.0,0.0,0.0],0.0,[1.0,0.20000000298023224,0.10000000149011612],0.05000000074505806,1.399999976158142,0.0,0.5,[1.0,1.0,1.0,1.0],0.0,0.0,[0.0,0.0,0.0],0.0,0.0,0.029999999329447746,1.5,[1.0,1.0,1.0,1.0],[0.0,0.0,0.0],0.0,0.5,[1.0,1.0,1.0,1.0],[1.0,1.0,1.0,1.0],0.0],"is_active_output":false,"name":"Principled BSDF","outputs":[[0,0,0,0]],"type":"BSDF_PRINCIPLED_BL"},{"inputs":[1.0,[0.5,0.5,1.0,1.0]],"is_active_output":false,"name":"Normal Map","outputs":[[0.0,0.0,0.0]],"type":"NORMAL_MAP_BL","uvLayer":""},{"inputs":[[0.0,0.0,0.0],[0.0,0.0,0.0],[0.0,0.0,0.0],[10.0,10.0,10.0]],"is_active_output":false,"name":"Mapping","outputs":[[0.0,0.0,0.0]],"type":"MAPPING_BL","vectorType":"POINT"},{"inputs":[],"is_active_output":false,"name":"Texture Coordinate","object":-1,"outputs":[[0.0,0.0,0.0],[0.0,0.0,0.0],[0.0,0.0,0.0],[0.0,0.0,0.0],[0.0,0.0,0.0],[0.0,0.0,0.0],[0.0,0.0,0.0]],"type":"TEX_COORD_BL"},{"alphaMode":"CHANNEL_PACKED","inputs":[[0.0,0.0,0.0]],"is_active_output":false,"name":"Image Texture","outputs":[[0.0,0.0,0.0,0.0],0.0],"projection":"FLAT","projectionBlend":0.0,"texture":7,"type":"TEX_IMAGE_BL"}]}}},"name":"noir"},{"alphaMode":"BLEND","extensions":{"S8S_v3d_materials":{"alphaToCoverage":true,"gtaoVisible":true,"materialIndex":0,"nodeGraph":{"edges":[{"fromNode":1,"fromOutput":0,"toInput":0,"toNode":0}],"nodes":[{"inputs":[[0,0,0,0],[0,0,0,0],[0.0,0.0,0.0],0.0],"is_active_output":true,"name":"Material Output","outputs":[],"type":"OUTPUT_MATERIAL_BL"},{"inputs":[[0.039545975625514984,0.03954627364873886,0.03954625502228737,1.0],1.0,0.25,1.5,1.0,[0.0,0.0,0.0],0.0,[1.0,0.20000000298023224,0.10000000149011612],0.05000000074505806,1.399999976158142,0.0,0.5,[1.0,1.0,1.0,1.0],0.0,0.0,[0.0,0.0,0.0],0.0,0.0,0.029999999329447746,1.5,[1.0,1.0,1.0,1.0],[0.0,0.0,0.0],0.0,0.5,[1.0,1.0,1.0,1.0],[1.0,1.0,1.0,1.0],0.0],"is_active_output":false,"name":"Principled BSDF","outputs":[[0,0,0,0]],"type":"BSDF_PRINCIPLED_BL"}]}}},"name":"Pivotant"},{"alphaMode":"OPAQUE","extensions":{"S8S_v3d_materials":{"gtaoVisible":true,"materialIndex":0,"nodeGraph":{"edges":[{"fromNode":2,"fromOutput":0,"toInput":0,"toNode":0},{"fromNode":1,"fromOutput":0,"toInput":0,"toNode":2}],"nodes":[{"inputs":[[0,0,0,0],[0,0,0,0]],"is_active_output":true,"name":"World Output","outputs":[],"type":"OUTPUT_WORLD_BL"},{"inputs":[[0.0,0.0,0.0]],"is_active_output":false,"name":"Environment Texture.001","outputs":[[0.0,0.0,0.0,0.0]],"projection":"EQUIRECTANGULAR","texture":8,"type":"TEX_ENVIRONMENT_BL"},{"inputs":[[0.05087608844041824,0.05087608844041824,0.05087608844041824,1.0],1.0],"is_active_output":false,"name":"Background","outputs":[[0,0,0,0]],"type":"BACKGROUND_BL"}]}}},"name":"Verge3D_Environment_World.001"}],"meshes":[{"extensions":{"S8S_v3d_mesh":{"colorLayers":{},"uvLayers":{"UVMap":"TEXCOORD_0"}}},"name":"Plane","primitives":[{"attributes":{"NORMAL":2,"POSITION":1,"TEXCOORD_0":3},"indices":0,"material":0,"mode":4}]},{"extensions":{"S8S_v3d_mesh":{"colorLayers":{},"uvLayers":{"UVMap":"TEXCOORD_0"}}},"name":"Plane.001","primitives":[{"attributes":{"NORMAL":6,"POSITION":5,"TEXCOORD_0":7},"indices":4,"material":3,"mode":4}]},{"extensions":{"S8S_v3d_mesh":{"colorLayers":{},"uvLayers":{"UVMap":"TEXCOORD_0"}}},"name":"Plane.002","primitives":[{"attributes":{"NORMAL":10,"POSITION":9,"TANGENT":11,"TEXCOORD_0":12},"indices":8,"material":4,"mode":4}]},{"extensions":{"S8S_v3d_mesh":{"colorLayers":{},"uvLayers":{"UVMap":"TEXCOORD_0"}}},"name":"Plane.003","primitives":[{"attributes":{"NORMAL":15,"POSITION":14,"TEXCOORD_0":16},"indices":13,"material":1,"mode":4}]},{"extensions":{"S8S_v3d_mesh":{"colorLayers":{},"uvLayers":{"UVMap":"TEXCOORD_0"}}},"name":"SM_ADELINE","primitives":[{"attributes":{"NORMAL":19,"POSITION":18,"TANGENT":20,"TEXCOORD_0":21},"indices":17,"material":2,"mode":4}]},{"extensions":{"S8S_v3d_mesh":{"colorLayers":{},"uvLayers":{"UVMap":"TEXCOORD_0"}}},"name":"sm_feet.002","primitives":[{"attributes":{"NORMAL":24,"POSITION":23,"TANGENT":25,"TEXCOORD_0":26},"indices":22,"material":4,"mode":4}]},{"extensions":{"S8S_v3d_mesh":{"colorLayers":{},"uvLayers":{"UVMap":"TEXCOORD_0"}}},"name":"sm_feet.003","primitives":[{"attributes":{"NORMAL":29,"POSITION":28,"TEXCOORD_0":30},"indices":27,"material":5,"mode":4}]},{"extensions":{"S8S_v3d_mesh":{"colorLayers":{},"uvLayers":{"UVMap":"TEXCOORD_0"}}},"name":"sm_feet.004","primitives":[{"attributes":{"NORMAL":33,"POSITION":32,"TEXCOORD_0":34},"indices":31,"material":5,"mode":4}]}],"nodes":[{"camera":0,"extensions":{"S8S_v3d_node":{"frustumCulling":true,"groupNames":[],"hidden":false,"hidpiCompositing":false,"objectColor":[1.0,1.0,1.0,1.0],"objectIndex":0,"renderOrder":0}},"name":"Camera","rotation":[-0.12820470333099365,-0.32824593782424927,-0.04501935839653015,0.9347680807113647],"scale":[1.0,0.9999999403953552,0.9999997615814209],"translation":[-1.8704807758331299,1.2113816738128662,2.3349359035491943]},{"extensions":{"S8S_v3d_node":{"frustumCulling":true,"groupNames":[],"hidden":false,"hidpiCompositing":false,"objectColor":[1.0,1.0,1.0,1.0],"objectIndex":0,"renderOrder":0}},"mesh":1,"name":"Shadow"},{"extensions":{"S8S_v3d_node":{"frustumCulling":true,"groupNames":[],"hidden":false,"hidpiCompositing":false,"objectColor":[1.0,1.0,1.0,1.0],"objectIndex":0,"renderOrder":0}},"mesh":0,"name":"Pietement color","scale":[0.010566351003944874,0.010566351003944874,0.010566351003944874],"translation":[0.0,0.40144383907318115,0.027416108176112175]},{"extensions":{"S8S_v3d_node":{"frustumCulling":true,"groupNames":[],"hidden":false,"hidpiCompositing":false,"objectColor":[1.0,1.0,1.0,1.0],"objectIndex":0,"renderOrder":0}},"mesh":3,"name":"logotype","rotation":[-0.0030507948249578476,-0.01139085739850998,0.2586929500102997,0.9658876061439514],"translation":[-0.19918392598628998,0.47435644268989563,0.10246918350458145]},{"children":[3],"name":"v3d_Proxy_Node_0_logotype","translation":[-1.8626451075975936e-11,-0.40764057636260986,-0.030036339536309242]},{"extensions":{"S8S_v3d_node":{"frustumCulling":true,"groupNames":[],"hidden":false,"hidpiCompositing":false,"objectColor":[1.0,1.0,1.0,1.0],"objectIndex":0,"renderOrder":0}},"mesh":6,"name":"Pivotant Bas","scale":[0.009999999776482582,0.009999999776482582,0.009999999776482582]},{"extensions":{"S8S_v3d_node":{"frustumCulling":true,"groupNames":[],"hidden":false,"hidpiCompositing":false,"objectColor":[1.0,1.0,1.0,1.0],"objectIndex":0,"renderOrder":0}},"mesh":2,"name":"Pietement color 2","scale":[0.010566351003944874,0.010566351003944874,0.010566351003944874],"translation":[0.0,0.39764276146888733,0.027416108176112175]},{"children":[13,4,11],"extensions":{"S8S_v3d_node":{"frustumCulling":true,"groupNames":[],"hidden":false,"hidpiCompositing":false,"objectColor":[1.0,1.0,1.0,1.0],"objectIndex":0,"renderOrder":0}},"name":"Empty","translation":[1.8626451075975936e-11,0.40764057636260986,0.030036339536309242]},{"extensions":{"S8S_v3d_node":{"frustumCulling":true,"groupNames":[],"hidden":false,"hidpiCompositing":false,"objectColor":[1.0,1.0,1.0,1.0],"objectIndex":0,"renderOrder":0}},"name":"RootNode"},{"extensions":{"S8S_v3d_node":{"frustumCulling":true,"groupNames":[],"hidden":false,"hidpiCompositing":false,"objectColor":[1.0,1.0,1.0,1.0],"objectIndex":0,"renderOrder":0}},"mesh":5,"name":"Pietement","scale":[0.009999999776482582,0.009999999776482582,0.009999999776482582]},{"extensions":{"S8S_v3d_node":{"frustumCulling":true,"groupNames":[],"hidden":false,"hidpiCompositing":false,"objectColor":[1.0,1.0,1.0,1.0],"objectIndex":0,"renderOrder":0}},"mesh":7,"name":"Pivotant Haut","scale":[0.009999999776482582,0.009999999776482582,0.009999999776482582]},{"children":[10],"name":"v3d_Proxy_Node_0_Pivotant Haut","translation":[-1.8626451075975936e-11,-0.40764057636260986,-0.030036339536309242]},{"extensions":{"S8S_v3d_node":{"frustumCulling":true,"groupNames":[],"hidden":false,"hidpiCompositing":false,"objectColor":[1.0,1.0,1.0,1.0],"objectIndex":0,"renderOrder":0}},"mesh":4,"name":"Assise","scale":[0.009999999776482582,0.009999999776482582,0.009999999776482582]},{"children":[12],"name":"v3d_Proxy_Node_0_Assise","translation":[-1.8626451075975936e-11,-0.40764057636260986,-0.030036339536309242]}],"samplers":[{}],"scene":0,"scenes":[{"extensions":{"S8S_v3d_scene":{"aaMethod":"AUTO","iblEnvironmentMode":"PMREM","physicallyCorrectLights":true,"pmremMaxTileSize":512,"worldMaterial":6}},"extras":{"animFrameRate":30,"coordSystem":"Z_UP_RIGHT"},"name":"Scene","nodes":[0,2,1,6,7,8,9,5]}],"textures":[{"extensions":{"S8S_v3d_texture":{"colorSpace":"non-color"}},"name":"MAT_FEET_METALWOOD_occlusionRoughnessMetallic2.jpg","sampler":0,"source":0},{"extensions":{"S8S_v3d_texture":{"colorSpace":"srgb"}},"name":"MAT_FEET_METALWOOD_baseColor.jpg","sampler":0,"source":1},{"extensions":{"S8S_v3d_texture":{"colorSpace":"srgb"}},"name":"logotype.jpg","sampler":0,"source":2},{"extensions":{"S8S_v3d_texture":{"colorSpace":"non-color"}},"name":"Alice_ORM.jpg","sampler":0,"source":3},{"extensions":{"S8S_v3d_texture":{"colorSpace":"non-color"}},"name":"Alice_Normal.jpg","sampler":0,"source":4},{"extensions":{"S8S_v3d_texture":{"colorSpace":"srgb"}},"name":"Alice_Basecolor.jpg","sampler":0,"source":5},{"extensions":{"S8S_v3d_texture":{"colorSpace":"non-color"}},"name":"Shadow.png.001","sampler":0,"source":6},{"extensions":{"S8S_v3d_texture":{"colorSpace":"non-color"}},"name":"Noise_Optimized.jpg","sampler":0,"source":7},{"extensions":{"S8S_v3d_texture":{"colorSpace":"linear rec.709","source":8}},"name":"Christmas_living_room.hdr","sampler":0}]}
