{"accessors":[{"bufferView":0,"componentType":5121,"count":6,"max":[3],"min":[0],"type":"SCALAR"},{"bufferView":1,"componentType":5126,"count":4,"max":[1.0,0.0,1.0],"min":[-1.0,0.0,-1.0],"type":"VEC3"},{"bufferView":2,"componentType":5126,"count":4,"max":[0.0,1.0,-0.0],"min":[0.0,1.0,-0.0],"type":"VEC3"},{"bufferView":3,"componentType":5126,"count":4,"max":[1.0,1.0],"min":[0.0,0.0],"type":"VEC2"},{"bufferView":4,"componentType":5121,"count":6,"max":[3],"min":[0],"type":"SCALAR"},{"bufferView":5,"componentType":5126,"count":4,"max":[1.0,0.0,1.0],"min":[-1.0,0.0,-1.0],"type":"VEC3"},{"bufferView":6,"componentType":5126,"count":4,"max":[0.0,1.0,-0.0],"min":[0.0,1.0,-0.0],"type":"VEC3"},{"bufferView":7,"componentType":5126,"count":4,"max":[1.0,1.0],"min":[0.0,0.0],"type":"VEC2"},{"bufferView":8,"componentType":5121,"count":6,"max":[3],"min":[0],"type":"SCALAR"},{"bufferView":9,"componentType":5126,"count":4,"max":[1.0,0.0,1.0],"min":[-1.0,0.0,-1.0],"type":"VEC3"},{"bufferView":10,"componentType":5126,"count":4,"max":[0.0,1.0,-0.0],"min":[0.0,1.0,-0.0],"type":"VEC3"},{"bufferView":11,"componentType":5126,"count":4,"max":[1.0,0.0,-0.0,1.0],"min":[1.0,0.0,-0.0,1.0],"type":"VEC4"},{"bufferView":12,"componentType":5126,"count":4,"max":[1.0,1.0],"min":[0.0,0.0],"type":"VEC2"},{"bufferView":13,"componentType":5121,"count":24,"max":[11],"min":[0],"type":"SCALAR"},{"bufferView":14,"componentType":5126,"count":12,"max":[6.468577673501841e-09,1.1649187392492877e-08,0.007399829104542732],"min":[-0.010297410190105438,-0.0008896340732462704,-0.007239002268761396],"type":"VEC3"},{"bufferView":15,"componentType":5126,"count":12,"max":[0.09415704011917114,1.0,0.0],"min":[-0.49669313430786133,-0.9955573678016663,-1.0000003385357559e-06],"type":"VEC3"},{"bufferView":16,"componentType":5126,"count":12,"max":[0.9181796312332153,1.0],"min":[0.08182041347026825,0.0],"type":"VEC2"},{"bufferView":17,"componentType":5123,"count":31200,"max":[6006],"min":[0],"type":"SCALAR"},{"bufferView":18,"componentType":5126,"count":6007,"max":[26.01036834716797,40.730865478515625,29.179393768310547],"min":[-26.06220245361328,-0.06728553771972656,-22.522796630859375],"type":"VEC3"},{"bufferView":19,"componentType":5126,"count":6007,"max":[0.9809238910675049,0.9999996423721313,0.9999077320098877],"min":[-0.9988657832145691,-1.0,-0.9747216701507568],"type":"VEC3"},{"bufferView":20,"componentType":5126,"count":6007,"max":[0.9999954700469971,0.9992721676826477,0.9896137118339539,1.0],"min":[-0.9965365529060364,-0.9924197793006897,-0.9990557432174683,1.0],"type":"VEC4"},{"bufferView":21,"componentType":5126,"count":6007,"max":[0.9313023686408997,0.99951171875],"min":[0.00048828122089616954,0.08031553030014038],"type":"VEC2"},{"bufferView":22,"componentType":5123,"count":39528,"max":[8219],"min":[0],"type":"SCALAR"},{"bufferView":23,"componentType":5126,"count":8220,"max":[5.783989429473877,41.93133544921875,8.790322303771973],"min":[-5.783989429473877,38.379737854003906,-2.77636981010437],"type":"VEC3"},{"bufferView":24,"componentType":5126,"count":8220,"max":[1.0,0.9999980926513672,0.9999905824661255],"min":[-1.0,-0.9999996423721313,-0.9999906420707703],"type":"VEC3"},{"bufferView":25,"componentType":5126,"count":8220,"max":[0.9999999403953552,0.9998565912246704,0.9999952912330627,1.0],"min":[-0.9999999403953552,-0.9998056292533875,-0.9999996423721313,-1.0],"type":"VEC4"},{"bufferView":26,"componentType":5126,"count":8220,"max":[0.9671642780303955,0.99951171875],"min":[0.00048828125,0.46905165910720825],"type":"VEC2"},{"bufferView":27,"componentType":5123,"count":21348,"max":[4385],"min":[0],"type":"SCALAR"},{"bufferView":28,"componentType":5126,"count":4386,"max":[5.783989429473877,42.586734771728516,8.74887752532959],"min":[-5.783989429473877,41.119606018066406,-2.8216326236724854],"type":"VEC3"},{"bufferView":29,"componentType":5126,"count":4386,"max":[1.0,0.9999992251396179,0.9996671080589294],"min":[-1.0,-0.9999995231628418,-0.9997425079345703],"type":"VEC3"},{"bufferView":30,"componentType":5126,"count":4386,"max":[0.9901264309883118,0.9999654293060303,0.9999975562095642,1.0],"min":[-0.9994717240333557,-0.9998290538787842,-0.9861018657684326,-1.0],"type":"VEC4"},{"bufferView":31,"componentType":5126,"count":4386,"max":[0.9641662836074829,0.9995108842849731],"min":[0.00048828125,0.4563528299331665],"type":"VEC2"},{"bufferView":32,"componentType":5123,"count":27918,"max":[5348],"min":[0],"type":"SCALAR"},{"bufferView":33,"componentType":5126,"count":5349,"max":[23.700611114501953,91.92555236816406,27.974903106689453],"min":[-23.700613021850586,41.78376007080078,-29.355154037475586],"type":"VEC3"},{"bufferView":34,"componentType":5126,"count":5349,"max":[0.9996680021286011,0.9999544620513916,0.9999171495437622],"min":[-0.9996680021286011,-0.9999750256538391,-0.9999845623970032],"type":"VEC3"},{"bufferView":35,"componentType":5126,"count":5349,"max":[0.9999949932098389,0.9999814033508301,0.9999704957008362,1.0],"min":[-0.9997769594192505,-0.999911904335022,-0.9975645542144775,1.0],"type":"VEC4"},{"bufferView":36,"componentType":5126,"count":5349,"max":[0.8991032242774963,0.99951171875],"min":[0.00048828125,0.00048828125],"type":"VEC2"},{"bufferView":37,"componentType":5126,"count":69,"max":[2.9000000953674316],"min":[0.0],"type":"SCALAR"},{"bufferView":38,"componentType":5126,"count":69,"max":[0.0,0.7071067690849304,-0.0,1.0],"min":[0.0,-0.7071067690849304,-0.0,0.7071067690849304],"type":"VEC4"}],"animations":[{"channels":[{"sampler":0,"target":{"node":0,"path":"rotation"}}],"extensions":{"S8S_v3d_animation":{"auto":true,"loop":"REPEAT","offset":0.0,"repeatCount":1.0,"repeatInfinite":true}},"name":"Empty","samplers":[{"input":37,"interpolation":"LINEAR","output":38}]}],"asset":{"generator":"Verge3D for Blender v4.8.0","version":"2.0"},"bufferViews":[{"buffer":0,"byteLength":6,"byteOffset":0,"target":34963},{"buffer":0,"byteLength":48,"byteOffset":8,"target":34962},{"buffer":0,"byteLength":48,"byteOffset":56,"target":34962},{"buffer":0,"byteLength":32,"byteOffset":104,"target":34962},{"buffer":0,"byteLength":6,"byteOffset":136,"target":34963},{"buffer":0,"byteLength":48,"byteOffset":144,"target":34962},{"buffer":0,"byteLength":48,"byteOffset":192,"target":34962},{"buffer":0,"byteLength":32,"byteOffset":240,"target":34962},{"buffer":0,"byteLength":6,"byteOffset":272,"target":34963},{"buffer":0,"byteLength":48,"byteOffset":280,"target":34962},{"buffer":0,"byteLength":48,"byteOffset":328,"target":34962},{"buffer":0,"byteLength":64,"byteOffset":376,"target":34962},{"buffer":0,"byteLength":32,"byteOffset":440,"target":34962},{"buffer":0,"byteLength":24,"byteOffset":472,"target":34963},{"buffer":0,"byteLength":144,"byteOffset":496,"target":34962},{"buffer":0,"byteLength":144,"byteOffset":640,"target":34962},{"buffer":0,"byteLength":96,"byteOffset":784,"target":34962},{"buffer":0,"byteLength":62400,"byteOffset":880,"target":34963},{"buffer":0,"byteLength":72084,"byteOffset":63280,"target":34962},{"buffer":0,"byteLength":72084,"byteOffset":135364,"target":34962},{"buffer":0,"byteLength":96112,"byteOffset":207448,"target":34962},{"buffer":0,"byteLength":48056,"byteOffset":303560,"target":34962},{"buffer":0,"byteLength":79056,"byteOffset":351616,"target":34963},{"buffer":0,"byteLength":98640,"byteOffset":430672,"target":34962},{"buffer":0,"byteLength":98640,"byteOffset":529312,"target":34962},{"buffer":0,"byteLength":131520,"byteOffset":627952,"target":34962},{"buffer":0,"byteLength":65760,"byteOffset":759472,"target":34962},{"buffer":0,"byteLength":42696,"byteOffset":825232,"target":34963},{"buffer":0,"byteLength":52632,"byteOffset":867928,"target":34962},{"buffer":0,"byteLength":52632,"byteOffset":920560,"target":34962},{"buffer":0,"byteLength":70176,"byteOffset":973192,"target":34962},{"buffer":0,"byteLength":35088,"byteOffset":1043368,"target":34962},{"buffer":0,"byteLength":55836,"byteOffset":1078456,"target":34963},{"buffer":0,"byteLength":64188,"byteOffset":1134292,"target":34962},{"buffer":0,"byteLength":64188,"byteOffset":1198480,"target":34962},{"buffer":0,"byteLength":85584,"byteOffset":1262668,"target":34962},{"buffer":0,"byteLength":42792,"byteOffset":1348252,"target":34962},{"buffer":0,"byteLength":276,"byteOffset":1391044},{"buffer":0,"byteLength":1104,"byteOffset":1391320}],"buffers":[{"byteLength":1392424,"uri":"Tablacasa-Chaise-Adeline.bin"}],"cameras":[{"extensions":{"S8S_v3d_camera":{"controls":"ORBIT","enablePan":false,"moveSpeed":1.0,"orbitMaxDistance":4.0,"orbitMaxPolarAngle":3.1415927410125732,"orbitMaxZoom":100.0,"orbitMinDistance":1.0,"orbitMinPolarAngle":0.0,"orbitMinZoom":0.009999999776482582,"orbitTarget":[0.0,0.375,-0.0],"rotateSpeed":1.0,"viewportFitInitialAspect":1.7777777777777777,"viewportFitType":"AUTO"}},"name":"Camera.001","perspective":{"aspectRatio":1.7777777777777777,"yfov":0.39959652046304894,"zfar":1000.0,"znear":0.10000000149011612},"type":"perspective"}],"extensions":{"S8S_v3d_materials":{"nodeGraphs":[{"edges":[],"name":"glTF Material Output.003","nodes":[{"inputs":[],"is_active_output":true,"name":"Group Output","outputs":[],"type":"GROUP_OUTPUT_BL"},{"inputs":[],"is_active_output":false,"name":"Group Input","outputs":[0.0,0.0],"type":"GROUP_INPUT_BL"}]}]}},"extensionsUsed":["S8S_v3d_texture","S8S_v3d_materials","S8S_v3d_camera","S8S_v3d_mesh","S8S_v3d_node","S8S_v3d_animation","S8S_v3d_scene"],"images":[{"uri":"MAT_FEET_METALWOOD_baseColor.jpg"},{"uri":"MAT_FEET_METALWOOD_occlusionRoughnessMetallic2.jpg"},{"uri":"logotype.jpg"},{"uri":"Fugace_ORM_2.jpg"},{"uri":"Fugace_Normal2.jpg"},{"uri":"Fugace_Basecolor2.jpg"},{"uri":"Shadow.png"},{"uri":"Noise_Optimized.jpg"},{"uri":"MAT_FEETALWAYSMETAL_normal (2).jpg"},{"uri":"MAT_FEETALWAYSMETAL_occlusionRoughnessMetallic (2).jpg"},{"uri":"Christmas_living_room.hdr"}],"materials":[{"alphaMode":"BLEND","extensions":{"S8S_v3d_materials":{"alphaToCoverage":true,"gtaoVisible":true,"materialIndex":0,"nodeGraph":{"edges":[{"fromNode":0,"fromOutput":0,"toInput":0,"toNode":1},{"fromNode":7,"fromOutput":2,"toInput":1,"toNode":0},{"fromNode":7,"fromOutput":1,"toInput":2,"toNode":0},{"fromNode":5,"fromOutput":0,"toInput":0,"toNode":7},{"fromNode":2,"fromOutput":0,"toInput":6,"toNode":3},{"fromNode":4,"fromOutput":0,"toInput":4,"toNode":2},{"fromNode":6,"fromOutput":2,"toInput":0,"toNode":0},{"fromNode":3,"fromOutput":2,"toInput":6,"toNode":6},{"fromNode":7,"fromOutput":0,"toInput":7,"toNode":6}],"nodes":[{"inputs":[[0.800000011920929,0.800000011920929,0.800000011920929,1.0],0.0,0.5,1.5,1.0,[0.0,0.0,0.0],0.0,[1.0,0.20000000298023224,0.10000000149011612],0.05000000074505806,1.399999976158142,0.0,0.5,[1.0,1.0,1.0,1.0],0.0,0.0,[0.0,0.0,0.0],0.0,0.0,0.029999999329447746,1.5,[1.0,1.0,1.0,1.0],[0.0,0.0,0.0],0.0,0.5,[1.0,1.0,1.0,1.0],[1.0,1.0,1.0,1.0],0.0],"is_active_output":false,"name":"Principled BSDF","outputs":[[0,0,0,0]],"type":"BSDF_PRINCIPLED_BL"},{"inputs":[[0,0,0,0],[0,0,0,0],[0.0,0.0,0.0],0.0],"is_active_output":true,"name":"Material Output","outputs":[],"type":"OUTPUT_MATERIAL_BL"},{"inputs":[0.5,1.0,0.75,1.0,[0.800000011920929,0.800000011920929,0.800000011920929,1.0]],"is_active_output":false,"name":"Hue/Saturation/Value","outputs":[[0.0,0.0,0.0,0.0]],"type":"HUE_SAT_BL"},{"blendType":"COLOR","clampFactor":true,"clampResult":false,"dataType":"RGBA","factorMode":"UNIFORM","inputs":[1.0,[0.5,0.5,0.5],0.0,0.0,[0.0,0.0,0.0],[0.0,0.0,0.0],[0.5,0.5,0.5,1.0],[1.0,0.7474360466003418,0.5,1.0],0,0],"is_active_output":false,"name":"Mix","outputs":[0.0,[0.0,0.0,0.0],[0.0,0.0,0.0,0.0],0],"type":"MIX_BL"},{"alphaMode":"STRAIGHT","inputs":[[0.0,0.0,0.0]],"is_active_output":false,"name":"Image Texture","outputs":[[0.800000011920929,0.800000011920929,0.800000011920929,1.0],0.0],"projection":"FLAT","projectionBlend":0.0,"texture":0,"type":"TEX_IMAGE_BL"},{"alphaMode":"CHANNEL_PACKED","inputs":[[0.0,0.0,0.0]],"is_active_output":false,"name":"Image Texture.001","outputs":[[0.800000011920929,0.800000011920929,0.800000011920929,1.0],0.0],"projection":"FLAT","projectionBlend":0.0,"texture":1,"type":"TEX_IMAGE_BL"},{"blendType":"MULTIPLY","clampFactor":true,"clampResult":false,"dataType":"RGBA","factorMode":"UNIFORM","inputs":[1.0,[0.5,0.5,0.5],0.0,0.0,[0.0,0.0,0.0],[0.0,0.0,0.0],[0.5,0.5,0.5,1.0],[0.5,0.5,0.5,1.0],0,0],"is_active_output":false,"name":"Mix.001","outputs":[0.0,[0.0,0.0,0.0],[0.0,0.0,0.0,0.0],0],"type":"MIX_BL"},{"inputs":[[0.800000011920929,0.800000011920929,0.800000011920929,1.0]],"is_active_output":false,"mode":"RGB","name":"Separate Color","outputs":[0.0,0.0,0.0],"type":"SEPARATE_COLOR_BL"}]}}},"name":"Bois"},{"alphaMode":"OPAQUE","extensions":{"S8S_v3d_materials":{"gtaoVisible":true,"materialIndex":0,"nodeGraph":{"edges":[{"fromNode":0,"fromOutput":0,"toInput":0,"toNode":1},{"fromNode":2,"fromOutput":0,"toInput":0,"toNode":0}],"nodes":[{"inputs":[[0.800000011920929,0.800000011920929,0.800000011920929,1.0],0.0,1.0,1.4500000476837158,1.0,[0.0,0.0,0.0],0.0,[1.0,0.20000000298023224,0.10000000149011612],0.05000000074505806,1.399999976158142,0.0,0.5,[1.0,1.0,1.0,1.0],0.0,0.0,[0.0,0.0,0.0],0.0,0.0,0.029999999329447746,1.5,[1.0,1.0,1.0,1.0],[0.0,0.0,0.0],0.0,0.5,[1.0,1.0,1.0,1.0],[1.0,1.0,1.0,1.0],0.0],"is_active_output":false,"name":"Principled BSDF","outputs":[[0,0,0,0]],"type":"BSDF_PRINCIPLED_BL"},{"inputs":[[0,0,0,0],[0,0,0,0],[0.0,0.0,0.0],0.0],"is_active_output":true,"name":"Material Output","outputs":[],"type":"OUTPUT_MATERIAL_BL"},{"alphaMode":"STRAIGHT","inputs":[[0.0,0.0,0.0]],"is_active_output":false,"name":"Image Texture","outputs":[[0.0,0.0,0.0,0.0],0.0],"projection":"FLAT","projectionBlend":0.0,"texture":2,"type":"TEX_IMAGE_BL"}]}}},"name":"logotype"},{"alphaMode":"OPAQUE","extensions":{"S8S_v3d_materials":{"gtaoVisible":true,"materialIndex":0,"nodeGraph":{"edges":[{"fromNode":1,"fromOutput":2,"toInput":1,"toNode":20},{"fromNode":18,"fromOutput":0,"toInput":2,"toNode":20},{"fromNode":2,"fromOutput":0,"toInput":0,"toNode":1},{"fromNode":3,"fromOutput":0,"toInput":5,"toNode":20},{"fromNode":10,"fromOutput":0,"toInput":1,"toNode":3},{"fromNode":9,"fromOutput":0,"toInput":1,"toNode":5},{"fromNode":17,"fromOutput":0,"toInput":2,"toNode":5},{"fromNode":5,"fromOutput":0,"toInput":0,"toNode":8},{"fromNode":8,"fromOutput":0,"toInput":6,"toNode":19},{"fromNode":16,"fromOutput":0,"toInput":7,"toNode":6},{"fromNode":8,"fromOutput":0,"toInput":6,"toNode":6},{"fromNode":6,"fromOutput":2,"toInput":1,"toNode":7},{"fromNode":19,"fromOutput":2,"toInput":2,"toNode":7},{"fromNode":7,"fromOutput":0,"toInput":0,"toNode":13},{"fromNode":21,"fromOutput":0,"toInput":0,"toNode":11},{"fromNode":12,"fromOutput":0,"toInput":0,"toNode":5},{"fromNode":12,"fromOutput":0,"toInput":0,"toNode":7},{"fromNode":21,"fromOutput":0,"toInput":4,"toNode":4},{"fromNode":21,"fromOutput":0,"toInput":0,"toNode":9},{"fromNode":1,"fromOutput":1,"toInput":0,"toNode":18},{"fromNode":11,"fromOutput":0,"toInput":0,"toNode":12},{"fromNode":1,"fromOutput":0,"toInput":7,"toNode":14},{"fromNode":14,"fromOutput":2,"toInput":0,"toNode":20},{"fromNode":13,"fromOutput":0,"toInput":6,"toNode":14},{"fromNode":4,"fromOutput":0,"toInput":0,"toNode":17},{"fromNode":15,"fromOutput":0,"toInput":1,"toNode":9},{"fromNode":20,"fromOutput":0,"toInput":0,"toNode":0},{"fromNode":23,"fromOutput":0,"toInput":2,"toNode":4},{"fromNode":22,"fromOutput":0,"toInput":7,"toNode":19}],"nodes":[{"inputs":[[0,0,0,0],[0,0,0,0],[0.0,0.0,0.0],0.0],"is_active_output":true,"name":"Material Output","outputs":[],"type":"OUTPUT_MATERIAL_BL"},{"inputs":[[0.800000011920929,0.800000011920929,0.800000011920929,1.0]],"is_active_output":false,"mode":"RGB","name":"Separate Color","outputs":[0.0,0.0,0.0],"type":"SEPARATE_COLOR_BL"},{"alphaMode":"CHANNEL_PACKED","inputs":[[0.0,0.0,0.0]],"is_active_output":false,"name":"Image Texture.001","outputs":[[0.0,0.0,0.0,0.0],0.0],"projection":"FLAT","projectionBlend":0.0,"texture":3,"type":"TEX_IMAGE_BL"},{"inputs":[1.0,[0.5,0.5,1.0,1.0]],"is_active_output":false,"name":"Normal Map","outputs":[[0.0,0.0,0.0]],"type":"NORMAL_MAP_BL","uvLayer":"UVMap"},{"inputs":[0.5,1.0,0.05999999865889549,1.0,[0.800000011920929,0.800000011920929,0.800000011920929,1.0]],"is_active_output":false,"name":"Hue/Saturation/Value.003","outputs":[[0.0,0.0,0.0,0.0]],"type":"HUE_SAT_BL"},{"inputs":[0.5,[0,0,0,0],[0,0,0,0]],"is_active_output":false,"name":"Mix Shader.003","outputs":[[0,0,0,0]],"type":"MIX_SHADER_BL"},{"blendType":"COLOR","clampFactor":true,"clampResult":false,"dataType":"RGBA","factorMode":"UNIFORM","inputs":[1.0,[0.5,0.5,0.5],0.0,0.0,[0.0,0.0,0.0],[0.0,0.0,0.0],[0.5,0.5,0.5,1.0],[0.5,0.5,0.5,1.0],0,0],"is_active_output":false,"name":"Mix.003","outputs":[0.0,[0.0,0.0,0.0],[0.0,0.0,0.0,0.0],0],"type":"MIX_BL"},{"inputs":[0.5,[0,0,0,0],[0,0,0,0]],"is_active_output":false,"name":"Mix Shader.004","outputs":[[0,0,0,0]],"type":"MIX_SHADER_BL"},{"inputs":[[0,0,0,0]],"is_active_output":false,"name":"Shader to RGB.002","outputs":[[0.0,0.0,0.0,0.0],0.0],"type":"SHADERTORGB_BL"},{"inputs":[[1.0,1.0,1.0,1.0],0.0,0.0],"is_active_output":false,"name":"Brightness/Contrast","outputs":[[0.0,0.0,0.0,0.0]],"type":"BRIGHTCONTRAST_BL"},{"alphaMode":"CHANNEL_PACKED","inputs":[[0.0,0.0,0.0]],"is_active_output":false,"name":"Image Texture.002","outputs":[[0.0,0.0,0.0,0.0],0.0],"projection":"FLAT","projectionBlend":0.0,"texture":4,"type":"TEX_IMAGE_BL"},{"inputs":[[0.800000011920929,0.800000011920929,0.800000011920929,1.0]],"is_active_output":false,"mode":"RGB","name":"Separate Color.003","outputs":[0.0,0.0,0.0],"type":"SEPARATE_COLOR_BL"},{"curve":{"input":[0.072727270424366,0.07272779941558838],"interpolation":"LINEAR","output":[0.0,0.0,0.0,1.0,1.0,1.0,1.0,1.0]},"inputs":[0.5],"is_active_output":false,"name":"Color Ramp.002","outputs":[[0.0,0.0,0.0,0.0],0.0],"type":"VALTORGB_BL"},{"inputs":[[0,0,0,0]],"is_active_output":false,"name":"Shader to RGB.001","outputs":[[0.0,0.0,0.0,0.0],0.0],"type":"SHADERTORGB_BL"},{"blendType":"MULTIPLY","clampFactor":true,"clampResult":false,"dataType":"RGBA","factorMode":"UNIFORM","inputs":[1.0,[0.5,0.5,0.5],0.0,0.0,[0.0,0.0,0.0],[0.0,0.0,0.0],[0.5,0.5,0.5,1.0],[0.5,0.5,0.5,1.0],0,0],"is_active_output":false,"name":"Mix","outputs":[0.0,[0.0,0.0,0.0],[0.0,0.0,0.0,0.0],0],"type":"MIX_BL"},{"inputs":[],"is_active_output":false,"name":"Value1","outputs":[0.04999899864196777],"type":"VALUE_BL"},{"inputs":[],"is_active_output":false,"name":"RGB-1","outputs":[[1.0,0.5026909708976746,0.30000001192092896,1.0]],"type":"RGB_BL"},{"inputs":[[1.0,1.0,1.0,1.0],0.13999998569488525,0.30000001192092896],"is_active_output":false,"name":"Brightness/Contrast.001","outputs":[[0.0,0.0,0.0,0.0]],"type":"BRIGHTCONTRAST_BL"},{"curve":{"input":[0.0,0.7000002861022949],"interpolation":"LINEAR","output":[0.0,0.0,0.0,1.0,1.0,1.0,1.0,1.0]},"inputs":[0.5],"is_active_output":false,"name":"Color Ramp","outputs":[[0.0,0.0,0.0,0.0],0.0],"type":"VALTORGB_BL"},{"blendType":"COLOR","clampFactor":true,"clampResult":false,"dataType":"RGBA","factorMode":"UNIFORM","inputs":[1.0,[0.5,0.5,0.5],0.0,0.0,[0.0,0.0,0.0],[0.0,0.0,0.0],[0.5,0.5,0.5,1.0],[0.5,0.5,0.5,1.0],0,0],"is_active_output":false,"name":"Mix.004","outputs":[0.0,[0.0,0.0,0.0],[0.0,0.0,0.0,0.0],0],"type":"MIX_BL"},{"inputs":[[0.800000011920929,0.800000011920929,0.800000011920929,1.0],0.0,0.5,1.5,1.0,[0.0,0.0,0.0],0.0,[1.0,0.20000000298023224,0.10000000149011612],0.05000000074505806,1.399999976158142,0.0,0.5,[1.0,1.0,1.0,1.0],0.0,0.0,[0.0,0.0,0.0],0.0,0.0,0.029999999329447746,1.5,[1.0,1.0,1.0,1.0],[0.0,0.0,0.0],0.0,0.5,[1.0,1.0,1.0,1.0],[1.0,1.0,1.0,1.0],0.0],"is_active_output":false,"name":"Principled BSDF","outputs":[[0,0,0,0]],"type":"BSDF_PRINCIPLED_BL"},{"alphaMode":"STRAIGHT","inputs":[[0.0,0.0,0.0]],"is_active_output":false,"name":"Image Texture","outputs":[[0.0,0.0,0.0,0.0],0.0],"projection":"FLAT","projectionBlend":0.0,"texture":5,"type":"TEX_IMAGE_BL"},{"inputs":[],"is_active_output":false,"name":"RGB-2","outputs":[[0.031901419162750244,0.02217291295528412,0.01370109524577856,1.0]],"type":"RGB_BL"},{"inputs":[],"is_active_output":false,"name":"Value2","outputs":[0.22499999403953552],"type":"VALUE_BL"}]}}},"name":"MAT_ASSISE"},{"alphaMode":"BLEND","extensions":{"S8S_v3d_materials":{"depthPrepass":true,"gtaoVisible":false,"materialIndex":0,"nodeGraph":{"edges":[{"fromNode":3,"fromOutput":2,"toInput":4,"toNode":2},{"fromNode":1,"fromOutput":0,"toInput":6,"toNode":3},{"fromNode":2,"fromOutput":0,"toInput":0,"toNode":0}],"nodes":[{"inputs":[[0,0,0,0],[0,0,0,0],[0.0,0.0,0.0],0.0],"is_active_output":true,"name":"Material Output","outputs":[],"type":"OUTPUT_MATERIAL_BL"},{"alphaMode":"CHANNEL_PACKED","inputs":[[0.0,0.0,0.0]],"is_active_output":false,"name":"Image Texture","outputs":[[0.0,0.0,0.0,0.0],0.0],"projection":"FLAT","projectionBlend":0.0,"texture":6,"type":"TEX_IMAGE_BL"},{"inputs":[[0.0,0.0,0.0,1.0],0.0,1.0,1.4500000476837158,1.0,[0.0,0.0,0.0],0.0,[1.0,0.20000000298023224,0.10000000149011612],0.05000000074505806,1.399999976158142,0.0,0.0,[1.0,1.0,1.0,1.0],0.0,0.0,[0.0,0.0,0.0],0.0,0.0,0.029999999329447746,1.5,[1.0,1.0,1.0,1.0],[0.0,0.0,0.0],0.0,0.5,[1.0,1.0,1.0,1.0],[1.0,1.0,1.0,1.0],0.0],"is_active_output":false,"name":"Principled BSDF","outputs":[[0,0,0,0]],"type":"BSDF_PRINCIPLED_BL"},{"blendType":"MIX","clampFactor":true,"clampResult":false,"dataType":"RGBA","factorMode":"UNIFORM","inputs":[0.4000000059604645,[0.5,0.5,0.5],0.0,0.0,[0.0,0.0,0.0],[0.0,0.0,0.0],[0.5,0.5,0.5,1.0],[0.0,0.0,0.0,1.0],0,0],"is_active_output":false,"name":"Mix","outputs":[0.0,[0.0,0.0,0.0],[0.0,0.0,0.0,0.0],0],"type":"MIX_BL"}]}}},"name":"Material"},{"alphaMode":"BLEND","extensions":{"S8S_v3d_materials":{"alphaToCoverage":true,"gtaoVisible":true,"materialIndex":0,"nodeGraph":{"edges":[{"fromNode":1,"fromOutput":0,"toInput":0,"toNode":0},{"fromNode":5,"fromOutput":0,"toInput":1,"toNode":2},{"fromNode":2,"fromOutput":0,"toInput":5,"toNode":1},{"fromNode":3,"fromOutput":0,"toInput":0,"toNode":5},{"fromNode":4,"fromOutput":2,"toInput":0,"toNode":3}],"nodes":[{"inputs":[[0,0,0,0],[0,0,0,0],[0.0,0.0,0.0],0.0],"is_active_output":true,"name":"Material Output","outputs":[],"type":"OUTPUT_MATERIAL_BL"},{"inputs":[[0.035597991198301315,0.035597991198301315,0.035597991198301315,1.0],1.0,0.5,1.5,1.0,[0.0,0.0,0.0],0.0,[1.0,0.20000000298023224,0.10000000149011612],0.05000000074505806,1.399999976158142,0.0,0.5,[1.0,1.0,1.0,1.0],0.0,0.0,[0.0,0.0,0.0],0.0,0.0,0.029999999329447746,1.5,[1.0,1.0,1.0,1.0],[0.0,0.0,0.0],0.0,0.5,[1.0,1.0,1.0,1.0],[1.0,1.0,1.0,1.0],0.0],"is_active_output":false,"name":"Principled BSDF","outputs":[[0,0,0,0]],"type":"BSDF_PRINCIPLED_BL"},{"inputs":[1.0,[0.5,0.5,1.0,1.0]],"is_active_output":false,"name":"Normal Map","outputs":[[0.0,0.0,0.0]],"type":"NORMAL_MAP_BL","uvLayer":""},{"inputs":[[0.0,0.0,0.0],[0.0,0.0,0.0],[0.0,0.0,0.0],[10.0,10.0,10.0]],"is_active_output":false,"name":"Mapping","outputs":[[0.0,0.0,0.0]],"type":"MAPPING_BL","vectorType":"POINT"},{"inputs":[],"is_active_output":false,"name":"Texture Coordinate","object":-1,"outputs":[[0.0,0.0,0.0],[0.0,0.0,0.0],[0.0,0.0,0.0],[0.0,0.0,0.0],[0.0,0.0,0.0],[0.0,0.0,0.0],[0.0,0.0,0.0]],"type":"TEX_COORD_BL"},{"alphaMode":"CHANNEL_PACKED","inputs":[[0.0,0.0,0.0]],"is_active_output":false,"name":"Image Texture","outputs":[[0.0,0.0,0.0,0.0],0.0],"projection":"FLAT","projectionBlend":0.0,"texture":7,"type":"TEX_IMAGE_BL"}]}}},"name":"noir"},{"alphaMode":"BLEND","extensions":{"S8S_v3d_materials":{"alphaToCoverage":true,"gtaoVisible":true,"materialIndex":0,"nodeGraph":{"edges":[{"fromNode":0,"fromOutput":0,"toInput":0,"toNode":1},{"fromNode":2,"fromOutput":1,"toInput":2,"toNode":0},{"fromNode":8,"fromOutput":0,"toInput":0,"toNode":2},{"fromNode":3,"fromOutput":0,"toInput":5,"toNode":0},{"fromNode":4,"fromOutput":0,"toInput":1,"toNode":3},{"fromNode":5,"fromOutput":0,"toInput":0,"toNode":7},{"fromNode":6,"fromOutput":0,"toInput":0,"toNode":5}],"nodes":[{"inputs":[[0.039545975625514984,0.03954627364873886,0.03954625502228737,1.0],1.0,0.5,1.5,1.0,[0.0,0.0,0.0],0.0,[1.0,0.20000000298023224,0.10000000149011612],0.05000000074505806,1.399999976158142,0.0,0.5,[1.0,1.0,1.0,1.0],0.0,0.0,[0.0,0.0,0.0],0.0,0.0,0.029999999329447746,1.5,[1.0,1.0,1.0,1.0],[0.0,0.0,0.0],0.0,0.5,[1.0,1.0,1.0,1.0],[1.0,1.0,1.0,1.0],0.0],"is_active_output":false,"name":"Principled BSDF","outputs":[[0,0,0,0]],"type":"BSDF_PRINCIPLED_BL"},{"inputs":[[0,0,0,0],[0,0,0,0],[0.0,0.0,0.0],0.0],"is_active_output":true,"name":"Material Output","outputs":[],"type":"OUTPUT_MATERIAL_BL"},{"inputs":[[0.800000011920929,0.800000011920929,0.800000011920929,1.0]],"is_active_output":false,"mode":"RGB","name":"Separate Color","outputs":[0.0,0.0,0.0],"type":"SEPARATE_COLOR_BL"},{"inputs":[1.0,[0.5,0.5,1.0,1.0]],"is_active_output":false,"name":"Normal Map","outputs":[[0.0,0.0,0.0]],"type":"NORMAL_MAP_BL","uvLayer":"UVMap"},{"alphaMode":"CHANNEL_PACKED","inputs":[[0.0,0.0,0.0]],"is_active_output":false,"name":"Image Texture.002","outputs":[[0.800000011920929,0.800000011920929,0.800000011920929,1.0],0.0],"projection":"FLAT","projectionBlend":0.0,"texture":8,"type":"TEX_IMAGE_BL"},{"inputs":[[0.800000011920929,0.800000011920929,0.800000011920929,1.0]],"is_active_output":false,"mode":"RGB","name":"Separate Color.001","outputs":[0.0,0.0,0.0],"type":"SEPARATE_COLOR_BL"},{"alphaMode":"CHANNEL_PACKED","inputs":[[0.0,0.0,0.0]],"is_active_output":false,"name":"Image Texture.003","outputs":[[0.800000011920929,0.800000011920929,0.800000011920929,1.0],0.0],"projection":"FLAT","projectionBlend":0.0,"texture":9,"type":"TEX_IMAGE_BL"},{"inputs":[0.0,0.0],"is_active_output":false,"name":"Group","nodeGraph":0,"outputs":[],"type":"GROUP_BL"},{"alphaMode":"CHANNEL_PACKED","inputs":[[0.0,0.0,0.0]],"is_active_output":false,"name":"Image Texture.001","outputs":[[0.800000011920929,0.800000011920929,0.800000011920929,1.0],0.0],"projection":"FLAT","projectionBlend":0.0,"texture":9,"type":"TEX_IMAGE_BL"}]}}},"name":"Pivotant"},{"alphaMode":"OPAQUE","extensions":{"S8S_v3d_materials":{"gtaoVisible":true,"materialIndex":0,"nodeGraph":{"edges":[{"fromNode":2,"fromOutput":0,"toInput":0,"toNode":0},{"fromNode":1,"fromOutput":0,"toInput":0,"toNode":2}],"nodes":[{"inputs":[[0,0,0,0],[0,0,0,0]],"is_active_output":true,"name":"World Output","outputs":[],"type":"OUTPUT_WORLD_BL"},{"inputs":[[0.0,0.0,0.0]],"is_active_output":false,"name":"Environment Texture.001","outputs":[[0.0,0.0,0.0,0.0]],"projection":"EQUIRECTANGULAR","texture":11,"type":"TEX_ENVIRONMENT_BL"},{"inputs":[[0.05087608844041824,0.05087608844041824,0.05087608844041824,1.0],1.0],"is_active_output":false,"name":"Background","outputs":[[0,0,0,0]],"type":"BACKGROUND_BL"}]}}},"name":"Verge3D_Environment_World.001"}],"meshes":[{"extensions":{"S8S_v3d_mesh":{"colorLayers":{},"uvLayers":{"UVMap":"TEXCOORD_0"}}},"name":"Plane","primitives":[{"attributes":{"NORMAL":2,"POSITION":1,"TEXCOORD_0":3},"indices":0,"material":0,"mode":4}]},{"extensions":{"S8S_v3d_mesh":{"colorLayers":{},"uvLayers":{"UVMap":"TEXCOORD_0"}}},"name":"Plane.001","primitives":[{"attributes":{"NORMAL":6,"POSITION":5,"TEXCOORD_0":7},"indices":4,"material":3,"mode":4}]},{"extensions":{"S8S_v3d_mesh":{"colorLayers":{},"uvLayers":{"UVMap":"TEXCOORD_0"}}},"name":"Plane.002","primitives":[{"attributes":{"NORMAL":10,"POSITION":9,"TANGENT":11,"TEXCOORD_0":12},"indices":8,"material":4,"mode":4}]},{"extensions":{"S8S_v3d_mesh":{"colorLayers":{},"uvLayers":{"UVMap":"TEXCOORD_0"}}},"name":"Plane.003","primitives":[{"attributes":{"NORMAL":15,"POSITION":14,"TEXCOORD_0":16},"indices":13,"material":1,"mode":4}]},{"extensions":{"S8S_v3d_mesh":{"colorLayers":{},"uvLayers":{"UVMap":"TEXCOORD_0"}}},"name":"sm_feet.002","primitives":[{"attributes":{"NORMAL":19,"POSITION":18,"TANGENT":20,"TEXCOORD_0":21},"indices":17,"material":4,"mode":4}]},{"extensions":{"S8S_v3d_mesh":{"colorLayers":{},"uvLayers":{"UVMap":"TEXCOORD_0"}}},"name":"sm_feet.003","primitives":[{"attributes":{"NORMAL":24,"POSITION":23,"TANGENT":25,"TEXCOORD_0":26},"indices":22,"material":5,"mode":4}]},{"extensions":{"S8S_v3d_mesh":{"colorLayers":{},"uvLayers":{"UVMap":"TEXCOORD_0"}}},"name":"sm_feet.004","primitives":[{"attributes":{"NORMAL":29,"POSITION":28,"TANGENT":30,"TEXCOORD_0":31},"indices":27,"material":5,"mode":4}]},{"extensions":{"S8S_v3d_mesh":{"colorLayers":{},"uvLayers":{"UVMap":"TEXCOORD_0"}}},"name":"sm_fugace.001","primitives":[{"attributes":{"NORMAL":34,"POSITION":33,"TANGENT":35,"TEXCOORD_0":36},"indices":32,"material":2,"mode":4}]}],"nodes":[{"children":[4,7,10],"extensions":{"S8S_v3d_node":{"frustumCulling":true,"groupNames":[],"hidden":false,"hidpiCompositing":false,"objectColor":[1.0,1.0,1.0,1.0],"objectIndex":0,"renderOrder":0}},"name":"Empty","translation":[1.8626451075975936e-11,0.40764057636260986,0.030036339536309242]},{"extensions":{"S8S_v3d_node":{"frustumCulling":true,"groupNames":[],"hidden":false,"hidpiCompositing":false,"objectColor":[1.0,1.0,1.0,1.0],"objectIndex":0,"renderOrder":0}},"mesh":4,"name":"Pietement","scale":[0.009999999776482582,0.009999999776482582,0.009999999776482582]},{"extensions":{"S8S_v3d_node":{"frustumCulling":true,"groupNames":[],"hidden":false,"hidpiCompositing":false,"objectColor":[1.0,1.0,1.0,1.0],"objectIndex":0,"renderOrder":0}},"mesh":5,"name":"Pivotant Bas","scale":[0.009999999776482582,0.009999999776482582,0.009999999776482582]},{"extensions":{"S8S_v3d_node":{"frustumCulling":true,"groupNames":[],"hidden":false,"hidpiCompositing":false,"objectColor":[1.0,1.0,1.0,1.0],"objectIndex":0,"renderOrder":0}},"mesh":7,"name":"Assise","scale":[0.009999999776482582,0.009999999776482582,0.009999999776482582]},{"children":[3],"name":"v3d_Proxy_Node_0_Assise","translation":[-1.8626451075975936e-11,-0.40764057636260986,-0.030036339536309242]},{"camera":0,"extensions":{"S8S_v3d_node":{"frustumCulling":true,"groupNames":[],"hidden":false,"hidpiCompositing":false,"objectColor":[1.0,1.0,1.0,1.0],"objectIndex":0,"renderOrder":0}},"name":"Camera","rotation":[-0.12820470333099365,-0.32824593782424927,-0.04501935839653015,0.9347680807113647],"scale":[1.0,0.9999999403953552,0.9999997615814209],"translation":[-1.8704807758331299,1.2113816738128662,2.3349359035491943]},{"extensions":{"S8S_v3d_node":{"frustumCulling":true,"groupNames":[],"hidden":false,"hidpiCompositing":false,"objectColor":[1.0,1.0,1.0,1.0],"objectIndex":0,"renderOrder":0}},"mesh":3,"name":"logotype","rotation":[-0.000538187799975276,-0.051403895020484924,0.2577533721923828,0.9648422598838806],"scale":[1.0,0.9999999403953552,1.0],"translation":[-0.2185644656419754,0.49154651165008545,0.047533754259347916]},{"children":[6],"name":"v3d_Proxy_Node_0_logotype","translation":[-1.8626451075975936e-11,-0.40764057636260986,-0.030036339536309242]},{"extensions":{"S8S_v3d_node":{"frustumCulling":true,"groupNames":[],"hidden":false,"hidpiCompositing":false,"objectColor":[1.0,1.0,1.0,1.0],"objectIndex":0,"renderOrder":0}},"mesh":1,"name":"Shadow","rotation":[0.0,1.0,-0.0,1.6292068494294654e-07],"scale":[0.3298780024051666,0.3298780024051666,0.3298780024051666],"translation":[-0.001711157034151256,0.00275031547062099,0.0348326601088047]},{"extensions":{"S8S_v3d_node":{"frustumCulling":true,"groupNames":[],"hidden":false,"hidpiCompositing":false,"objectColor":[1.0,1.0,1.0,1.0],"objectIndex":0,"renderOrder":0}},"mesh":6,"name":"Pivotant Haut","scale":[0.009999999776482582,0.009999999776482582,0.009999999776482582]},{"children":[9],"name":"v3d_Proxy_Node_0_Pivotant Haut","translation":[-1.8626451075975936e-11,-0.40764057636260986,-0.030036339536309242]},{"extensions":{"S8S_v3d_node":{"frustumCulling":true,"groupNames":["pietement color"],"hidden":false,"hidpiCompositing":false,"objectColor":[1.0,1.0,1.0,1.0],"objectIndex":0,"renderOrder":0}},"mesh":0,"name":"Pietement color","scale":[0.010566351003944874,0.010566351003944874,0.010566351003944874],"translation":[0.0,0.40144383907318115,0.027416108176112175]},{"extensions":{"S8S_v3d_node":{"frustumCulling":true,"groupNames":["pietement color"],"hidden":false,"hidpiCompositing":false,"objectColor":[1.0,1.0,1.0,1.0],"objectIndex":0,"renderOrder":0}},"mesh":2,"name":"Pietement color 2","scale":[0.010566351003944874,0.010566351003944874,0.010566351003944874],"translation":[0.0,0.39764276146888733,0.027416108176112175]}],"samplers":[{}],"scene":0,"scenes":[{"extensions":{"S8S_v3d_scene":{"aaMethod":"AUTO","iblEnvironmentMode":"PMREM","physicallyCorrectLights":true,"pmremMaxTileSize":512,"toneMapping":{"look":"NONE","type":"agxBlender"},"worldMaterial":6}},"extras":{"animFrameRate":30,"coordSystem":"Z_UP_RIGHT"},"name":"Scene","nodes":[5,8,0,1,2,11,12]}],"textures":[{"extensions":{"S8S_v3d_texture":{"colorSpace":"srgb"}},"name":"MAT_FEET_METALWOOD_baseColor.jpg","sampler":0,"source":0},{"extensions":{"S8S_v3d_texture":{"colorSpace":"non-color"}},"name":"MAT_FEET_METALWOOD_occlusionRoughnessMetallic2.jpg","sampler":0,"source":1},{"extensions":{"S8S_v3d_texture":{"colorSpace":"srgb"}},"name":"logotype.jpg","sampler":0,"source":2},{"extensions":{"S8S_v3d_texture":{"colorSpace":"non-color"}},"name":"Fugace_ORM_2.jpg","sampler":0,"source":3},{"extensions":{"S8S_v3d_texture":{"colorSpace":"non-color"}},"name":"Fugace_Normal2.jpg","sampler":0,"source":4},{"extensions":{"S8S_v3d_texture":{"colorSpace":"srgb"}},"name":"Fugace_Basecolor2.jpg","sampler":0,"source":5},{"extensions":{"S8S_v3d_texture":{"colorSpace":"non-color"}},"name":"Shadow.png.001","sampler":0,"source":6},{"extensions":{"S8S_v3d_texture":{"colorSpace":"non-color"}},"name":"Noise_Optimized.jpg","sampler":0,"source":7},{"extensions":{"S8S_v3d_texture":{"colorSpace":"non-color"}},"name":"MAT_FEETALWAYSMETAL_normal (2).jpg","sampler":0,"source":8},{"extensions":{"S8S_v3d_texture":{"colorSpace":"non-color"}},"name":"MAT_FEETALWAYSMETAL_occlusionRoughnessMetallic (2).jpg","sampler":0,"source":9},{"extensions":{"S8S_v3d_texture":{"colorSpace":"non-color"}},"name":"MAT_FEETALWAYSMETAL_occlusionRoughnessMetallic (2).jpg","sampler":0,"source":9},{"extensions":{"S8S_v3d_texture":{"colorSpace":"linear rec.709","source":10}},"name":"Christmas_living_room.hdr","sampler":0}]}
