{"accessors":[{"bufferView":0,"componentType":5121,"count":6,"max":[3],"min":[0],"type":"SCALAR"},{"bufferView":1,"componentType":5126,"count":4,"max":[1.0,0.0,1.0],"min":[-1.0,0.0,-1.0],"type":"VEC3"},{"bufferView":2,"componentType":5126,"count":4,"max":[0.0,1.0,-0.0],"min":[0.0,1.0,-0.0],"type":"VEC3"},{"bufferView":3,"componentType":5126,"count":4,"max":[1.0,1.0],"min":[0.0,0.0],"type":"VEC2"},{"bufferView":4,"componentType":5121,"count":24,"max":[11],"min":[0],"type":"SCALAR"},{"bufferView":5,"componentType":5126,"count":12,"max":[6.468577673501841e-09,1.1649187392492877e-08,0.007399829104542732],"min":[-0.010297410190105438,-0.0008896340732462704,-0.007239002268761396],"type":"VEC3"},{"bufferView":6,"componentType":5126,"count":12,"max":[0.09415704011917114,1.0,0.0],"min":[-0.49669313430786133,-0.9955573678016663,-1.0000003385357559e-06],"type":"VEC3"},{"bufferView":7,"componentType":5126,"count":12,"max":[0.9181796312332153,1.0],"min":[0.08182041347026825,0.0],"type":"VEC2"},{"bufferView":8,"componentType":5123,"count":2640,"max":[651],"min":[0],"type":"SCALAR"},{"bufferView":9,"componentType":5126,"count":652,"max":[24.51094627380371,43.467769622802734,29.721912384033203],"min":[-24.51094627380371,0.0,-26.690187454223633],"type":"VEC3"},{"bufferView":10,"componentType":5126,"count":652,"max":[0.9997860193252563,0.5050478577613831,0.9936946630477905],"min":[-0.9997860193252563,-1.0,-0.9936947822570801],"type":"VEC3"},{"bufferView":11,"componentType":5126,"count":652,"max":[0.9826892018318176,0.99951171875],"min":[0.00048828125,0.00048828125],"type":"VEC2"},{"bufferView":12,"componentType":5123,"count":16956,"max":[3074],"min":[0],"type":"SCALAR"},{"bufferView":13,"componentType":5126,"count":3075,"max":[21.445480346679688,90.60169982910156,27.784929275512695],"min":[-21.445480346679688,39.934112548828125,-27.329673767089844],"type":"VEC3"},{"bufferView":14,"componentType":5126,"count":3075,"max":[0.9999139904975891,0.9999967813491821,0.9999709725379944],"min":[-0.99991375207901,-0.9999688863754272,-0.999738872051239],"type":"VEC3"},{"bufferView":15,"componentType":5126,"count":3075,"max":[1.0,0.8977642059326172,0.9999967217445374,1.0],"min":[-1.0,-0.9997599720954895,-0.999596118927002,-1.0],"type":"VEC4"},{"bufferView":16,"componentType":5126,"count":3075,"max":[0.9992712736129761,0.99951171875],"min":[0.00048828125,0.00048828125],"type":"VEC2"}],"asset":{"generator":"Verge3D for Blender v4.8.0","version":"2.0"},"bufferViews":[{"buffer":0,"byteLength":6,"byteOffset":0,"target":34963},{"buffer":0,"byteLength":48,"byteOffset":8,"target":34962},{"buffer":0,"byteLength":48,"byteOffset":56,"target":34962},{"buffer":0,"byteLength":32,"byteOffset":104,"target":34962},{"buffer":0,"byteLength":24,"byteOffset":136,"target":34963},{"buffer":0,"byteLength":144,"byteOffset":160,"target":34962},{"buffer":0,"byteLength":144,"byteOffset":304,"target":34962},{"buffer":0,"byteLength":96,"byteOffset":448,"target":34962},{"buffer":0,"byteLength":5280,"byteOffset":544,"target":34963},{"buffer":0,"byteLength":7824,"byteOffset":5824,"target":34962},{"buffer":0,"byteLength":7824,"byteOffset":13648,"target":34962},{"buffer":0,"byteLength":5216,"byteOffset":21472,"target":34962},{"buffer":0,"byteLength":33912,"byteOffset":26688,"target":34963},{"buffer":0,"byteLength":36900,"byteOffset":60600,"target":34962},{"buffer":0,"byteLength":36900,"byteOffset":97500,"target":34962},{"buffer":0,"byteLength":49200,"byteOffset":134400,"target":34962},{"buffer":0,"byteLength":24600,"byteOffset":183600,"target":34962}],"buffers":[{"byteLength":208200,"uri":"Tablacasa-Chaise-Adeline.bin"}],"cameras":[{"extensions":{"S8S_v3d_camera":{"controls":"ORBIT","enablePan":false,"moveSpeed":1.0,"orbitMaxDistance":4.0,"orbitMaxPolarAngle":3.1415927410125732,"orbitMaxZoom":100.0,"orbitMinDistance":1.0,"orbitMinPolarAngle":0.0,"orbitMinZoom":0.009999999776482582,"orbitTarget":[0.0,0.375,-0.0],"rotateSpeed":1.0,"viewportFitInitialAspect":1.7777777777777777,"viewportFitType":"AUTO"}},"name":"Camera.001","perspective":{"aspectRatio":1.7777777777777777,"yfov":0.39959652046304894,"zfar":1000.0,"znear":0.10000000149011612},"type":"perspective"}],"extensionsUsed":["S8S_v3d_texture","S8S_v3d_materials","S8S_v3d_camera","S8S_v3d_mesh","S8S_v3d_node","S8S_v3d_scene"],"images":[{"uri":"logotype.jpg"},{"uri":"Linky_ORM.jpg"},{"uri":"Linky_Normal.jpg"},{"uri":"Linky_Basecolor.jpg"},{"uri":"Mask.jpg"},{"uri":"Shadows.jpg"},{"uri":"neutral.hdr"}],"materials":[{"alphaMode":"OPAQUE","extensions":{"S8S_v3d_materials":{"gtaoVisible":true,"materialIndex":0,"nodeGraph":{"edges":[{"fromNode":0,"fromOutput":0,"toInput":0,"toNode":1},{"fromNode":2,"fromOutput":0,"toInput":0,"toNode":0}],"nodes":[{"inputs":[[0.800000011920929,0.800000011920929,0.800000011920929,1.0],0.0,1.0,1.4500000476837158,1.0,[0.0,0.0,0.0],0.0,[1.0,0.20000000298023224,0.10000000149011612],0.05000000074505806,1.399999976158142,0.0,0.5,[1.0,1.0,1.0,1.0],0.0,0.0,[0.0,0.0,0.0],0.0,0.0,0.029999999329447746,1.5,[1.0,1.0,1.0,1.0],[0.0,0.0,0.0],0.0,0.5,[1.0,1.0,1.0,1.0],[1.0,1.0,1.0,1.0],0.0],"is_active_output":false,"name":"Principled BSDF","outputs":[[0,0,0,0]],"type":"BSDF_PRINCIPLED_BL"},{"inputs":[[0,0,0,0],[0,0,0,0],[0.0,0.0,0.0],0.0],"is_active_output":true,"name":"Material Output","outputs":[],"type":"OUTPUT_MATERIAL_BL"},{"alphaMode":"STRAIGHT","inputs":[[0.0,0.0,0.0]],"is_active_output":false,"name":"Image Texture","outputs":[[0.0,0.0,0.0,0.0],0.0],"projection":"FLAT","projectionBlend":0.0,"texture":0,"type":"TEX_IMAGE_BL"}]},"useCastShadows":true}},"name":"logotype"},{"alphaMode":"BLEND","extensions":{"S8S_v3d_materials":{"alphaToCoverage":true,"gtaoVisible":true,"materialIndex":0,"nodeGraph":{"edges":[{"fromNode":15,"fromOutput":2,"toInput":1,"toNode":17},{"fromNode":15,"fromOutput":1,"toInput":2,"toNode":17},{"fromNode":1,"fromOutput":0,"toInput":5,"toNode":17},{"fromNode":3,"fromOutput":0,"toInput":1,"toNode":1},{"fromNode":2,"fromOutput":0,"toInput":0,"toNode":15},{"fromNode":7,"fromOutput":0,"toInput":6,"toNode":10},{"fromNode":5,"fromOutput":0,"toInput":4,"toNode":7},{"fromNode":11,"fromOutput":0,"toInput":2,"toNode":7},{"fromNode":6,"fromOutput":0,"toInput":0,"toNode":4},{"fromNode":12,"fromOutput":0,"toInput":2,"toNode":9},{"fromNode":5,"fromOutput":0,"toInput":4,"toNode":9},{"fromNode":4,"fromOutput":0,"toInput":0,"toNode":16},{"fromNode":9,"fromOutput":0,"toInput":6,"toNode":8},{"fromNode":8,"fromOutput":2,"toInput":2,"toNode":4},{"fromNode":10,"fromOutput":2,"toInput":1,"toNode":4},{"fromNode":14,"fromOutput":0,"toInput":7,"toNode":10},{"fromNode":13,"fromOutput":0,"toInput":7,"toNode":8},{"fromNode":15,"fromOutput":0,"toInput":7,"toNode":18},{"fromNode":16,"fromOutput":0,"toInput":6,"toNode":18},{"fromNode":18,"fromOutput":2,"toInput":0,"toNode":17},{"fromNode":17,"fromOutput":0,"toInput":0,"toNode":0}],"nodes":[{"inputs":[[0,0,0,0],[0,0,0,0],[0.0,0.0,0.0],0.0],"is_active_output":true,"name":"Material Output","outputs":[],"type":"OUTPUT_MATERIAL_BL"},{"inputs":[1.0,[0.5,0.5,1.0,1.0]],"is_active_output":false,"name":"Normal Map","outputs":[[0.0,0.0,0.0]],"type":"NORMAL_MAP_BL","uvLayer":"UVMap"},{"alphaMode":"CHANNEL_PACKED","inputs":[[0.0,0.0,0.0]],"is_active_output":false,"name":"Image Texture.005","outputs":[[0.800000011920929,0.800000011920929,0.800000011920929,1.0],0.0],"projection":"FLAT","projectionBlend":0.0,"texture":1,"type":"TEX_IMAGE_BL"},{"alphaMode":"CHANNEL_PACKED","inputs":[[0.0,0.0,0.0]],"is_active_output":false,"name":"Image Texture.006","outputs":[[0.800000011920929,0.800000011920929,0.800000011920929,1.0],0.0],"projection":"FLAT","projectionBlend":0.0,"texture":2,"type":"TEX_IMAGE_BL"},{"inputs":[0.5,[0,0,0,0],[0,0,0,0]],"is_active_output":false,"name":"Mix Shader","outputs":[[0,0,0,0]],"type":"MIX_SHADER_BL"},{"alphaMode":"STRAIGHT","inputs":[[0.0,0.0,0.0]],"is_active_output":false,"name":"Image Texture.004","outputs":[[0.800000011920929,0.800000011920929,0.800000011920929,1.0],0.0],"projection":"FLAT","projectionBlend":0.0,"texture":3,"type":"TEX_IMAGE_BL"},{"alphaMode":"CHANNEL_PACKED","inputs":[[0.0,0.0,0.0]],"is_active_output":false,"name":"Image Texture","outputs":[[0.0,0.0,0.0,0.0],0.0],"projection":"FLAT","projectionBlend":0.0,"texture":4,"type":"TEX_IMAGE_BL"},{"inputs":[0.5,1.0,1.0,1.0,[0.800000011920929,0.800000011920929,0.800000011920929,1.0]],"is_active_output":false,"name":"Hue/Saturation/Value","outputs":[[0.800000011920929,0.800000011920929,0.800000011920929,1.0]],"type":"HUE_SAT_BL"},{"blendType":"COLOR","clampFactor":true,"clampResult":false,"dataType":"RGBA","factorMode":"UNIFORM","inputs":[1.0,[0.5,0.5,0.5],0.0,0.0,[0.0,0.0,0.0],[0.0,0.0,0.0],[0.5,0.5,0.5,1.0],[0.4995810389518738,0.4995810389518738,0.4995810389518738,1.0],0,0],"is_active_output":false,"name":"Mix.001","outputs":[0.0,[0.0,0.0,0.0],[0.800000011920929,0.800000011920929,0.800000011920929,1.0],0],"type":"MIX_BL"},{"inputs":[0.5,1.0,1.0,1.0,[0.800000011920929,0.800000011920929,0.800000011920929,1.0]],"is_active_output":false,"name":"Hue/Saturation/Value.001","outputs":[[0.800000011920929,0.800000011920929,0.800000011920929,1.0]],"type":"HUE_SAT_BL"},{"blendType":"COLOR","clampFactor":true,"clampResult":false,"dataType":"RGBA","factorMode":"UNIFORM","inputs":[1.0,[0.5,0.5,0.5],0.0,0.0,[0.0,0.0,0.0],[0.0,0.0,0.0],[0.5,0.5,0.5,1.0],[0.4995810389518738,0.4995810389518738,0.4995810389518738,1.0],0,0],"is_active_output":false,"name":"Mix","outputs":[0.0,[0.0,0.0,0.0],[0.800000011920929,0.800000011920929,0.800000011920929,1.0],0],"type":"MIX_BL"},{"inputs":[],"is_active_output":false,"name":"Brightness-2","outputs":[1.0],"type":"VALUE_BL"},{"inputs":[],"is_active_output":false,"name":"Brightness-1","outputs":[1.0],"type":"VALUE_BL"},{"inputs":[],"is_active_output":false,"name":"RGB-1","outputs":[[1.0001678466796875,1.0001678466796875,1.0001678466796875,1.0]],"type":"RGB_BL"},{"inputs":[],"is_active_output":false,"name":"RGB-2","outputs":[[1.0001678466796875,1.0001678466796875,1.0001678466796875,1.0]],"type":"RGB_BL"},{"inputs":[[0.800000011920929,0.800000011920929,0.800000011920929,1.0]],"is_active_output":false,"mode":"RGB","name":"Separate Color","outputs":[0.0,0.0,0.0],"type":"SEPARATE_COLOR_BL"},{"inputs":[[0,0,0,0]],"is_active_output":false,"name":"Shader to RGB","outputs":[[0.0,0.0,0.0,0.0],0.0],"type":"SHADERTORGB_BL"},{"inputs":[[0.800000011920929,0.800000011920929,0.800000011920929,1.0],0.0,0.5,1.5,1.0,[0.0,0.0,0.0],0.0,[1.0,0.20000000298023224,0.10000000149011612],0.05000000074505806,1.399999976158142,0.0,0.5,[1.0,1.0,1.0,1.0],0.0,0.0,[0.0,0.0,0.0],0.0,0.0,0.029999999329447746,1.5,[1.0,1.0,1.0,1.0],[0.0,0.0,0.0],0.0,0.5,[1.0,1.0,1.0,1.0],[1.0,1.0,1.0,1.0],0.0],"is_active_output":false,"name":"Principled BSDF","outputs":[[0,0,0,0]],"type":"BSDF_PRINCIPLED_BL"},{"blendType":"MULTIPLY","clampFactor":true,"clampResult":false,"dataType":"RGBA","factorMode":"UNIFORM","inputs":[1.0,[0.5,0.5,0.5],0.0,0.0,[0.0,0.0,0.0],[0.0,0.0,0.0],[0.5,0.5,0.5,1.0],[0.5,0.5,0.5,1.0],0,0],"is_active_output":false,"name":"Mix.002","outputs":[0.0,[0.0,0.0,0.0],[0.0,0.0,0.0,0.0],0],"type":"MIX_BL"},{"inputs":[],"is_active_output":false,"name":"RGB","outputs":[[0.31404200196266174,0.023151999339461327,0.02842400036752224,1.0]],"type":"RGB_BL"}]},"useCastShadows":true}},"name":"MAT_ASSISE"},{"alphaMode":"BLEND","extensions":{"S8S_v3d_materials":{"alphaToCoverage":true,"gtaoVisible":true,"materialIndex":0,"nodeGraph":{"edges":[{"fromNode":0,"fromOutput":0,"toInput":0,"toNode":1}],"nodes":[{"inputs":[[0.0388077087700367,0.0388077087700367,0.0388077087700367,1.0],1.0,0.5,1.5,1.0,[0.0,0.0,0.0],0.0,[1.0,0.20000000298023224,0.10000000149011612],0.05000000074505806,1.399999976158142,0.0,0.5,[1.0,1.0,1.0,1.0],0.0,0.0,[0.0,0.0,0.0],0.0,0.0,0.029999999329447746,1.5,[1.0,1.0,1.0,1.0],[0.0,0.0,0.0],0.0,0.5,[1.0,1.0,1.0,1.0],[1.0,1.0,1.0,1.0],0.0],"is_active_output":false,"name":"Principled BSDF","outputs":[[0,0,0,0]],"type":"BSDF_PRINCIPLED_BL"},{"inputs":[[0,0,0,0],[0,0,0,0],[0.0,0.0,0.0],0.0],"is_active_output":true,"name":"Material Output","outputs":[],"type":"OUTPUT_MATERIAL_BL"}]},"useCastShadows":true}},"name":"MAT_ROUNDFEETMETAL"},{"alphaMode":"BLEND","extensions":{"S8S_v3d_materials":{"depthPrepass":true,"gtaoVisible":false,"materialIndex":0,"nodeGraph":{"edges":[{"fromNode":3,"fromOutput":2,"toInput":4,"toNode":1},{"fromNode":1,"fromOutput":0,"toInput":0,"toNode":0},{"fromNode":2,"fromOutput":0,"toInput":6,"toNode":3}],"nodes":[{"inputs":[[0,0,0,0],[0,0,0,0],[0.0,0.0,0.0],0.0],"is_active_output":true,"name":"Material Output","outputs":[],"type":"OUTPUT_MATERIAL_BL"},{"inputs":[[0.0,0.0,0.0,1.0],0.0,1.0,1.4500000476837158,1.0,[0.0,0.0,0.0],0.0,[1.0,0.20000000298023224,0.10000000149011612],0.05000000074505806,1.399999976158142,0.0,0.5,[1.0,1.0,1.0,1.0],0.0,0.0,[0.0,0.0,0.0],0.0,0.0,0.029999999329447746,1.5,[1.0,1.0,1.0,1.0],[0.0,0.0,0.0],0.0,0.5,[1.0,1.0,1.0,1.0],[1.0,1.0,1.0,1.0],0.0],"is_active_output":false,"name":"Principled BSDF","outputs":[[0,0,0,0]],"type":"BSDF_PRINCIPLED_BL"},{"alphaMode":"CHANNEL_PACKED","inputs":[[0.0,0.0,0.0]],"is_active_output":false,"name":"Image Texture","outputs":[[0.0,0.0,0.0,0.0],0.0],"projection":"FLAT","projectionBlend":0.0,"texture":5,"type":"TEX_IMAGE_BL"},{"blendType":"MIX","clampFactor":true,"clampResult":false,"dataType":"RGBA","factorMode":"UNIFORM","inputs":[0.5,[0.5,0.5,0.5],0.0,0.0,[0.0,0.0,0.0],[0.0,0.0,0.0],[0.5,0.5,0.5,1.0],[0.0,0.0,0.0,1.0],0,0],"is_active_output":false,"name":"Mix","outputs":[0.0,[0.0,0.0,0.0],[0.0,0.0,0.0,0.0],0],"type":"MIX_BL"}]},"useCastShadows":true}},"name":"Material"},{"alphaMode":"OPAQUE","extensions":{"S8S_v3d_materials":{"gtaoVisible":true,"materialIndex":0,"nodeGraph":{"edges":[{"fromNode":1,"fromOutput":0,"toInput":0,"toNode":0},{"fromNode":2,"fromOutput":0,"toInput":0,"toNode":1}],"nodes":[{"inputs":[[0,0,0,0],[0,0,0,0]],"is_active_output":true,"name":"World Output","outputs":[],"type":"OUTPUT_WORLD_BL"},{"inputs":[[0.05087608844041824,0.05087608844041824,0.05087608844041824,1.0],1.350000023841858],"is_active_output":false,"name":"Background","outputs":[[0,0,0,0]],"type":"BACKGROUND_BL"},{"inputs":[[0.0,0.0,0.0]],"is_active_output":false,"name":"Environment Texture","outputs":[[0.0,0.0,0.0,0.0]],"projection":"EQUIRECTANGULAR","texture":6,"type":"TEX_ENVIRONMENT_BL"}]},"useCastShadows":true}},"name":"Verge3D_Environment_World.001"}],"meshes":[{"extensions":{"S8S_v3d_mesh":{"colorLayers":{},"uvLayers":{"UVMap":"TEXCOORD_0"}}},"name":"Plane.001","primitives":[{"attributes":{"NORMAL":2,"POSITION":1,"TEXCOORD_0":3},"indices":0,"material":3,"mode":4}]},{"extensions":{"S8S_v3d_mesh":{"colorLayers":{},"uvLayers":{"UVMap":"TEXCOORD_0"}}},"name":"Plane.003","primitives":[{"attributes":{"NORMAL":6,"POSITION":5,"TEXCOORD_0":7},"indices":4,"material":0,"mode":4}]},{"extensions":{"S8S_v3d_mesh":{"colorLayers":{},"uvLayers":{"UVMap":"TEXCOORD_0"}}},"name":"sm_linky_01_low","primitives":[{"attributes":{"NORMAL":10,"POSITION":9,"TEXCOORD_0":11},"indices":8,"material":2,"mode":4}]},{"extensions":{"S8S_v3d_mesh":{"colorLayers":{},"uvLayers":{"UVMap":"TEXCOORD_0"}}},"name":"sm_linky_low","primitives":[{"attributes":{"NORMAL":14,"POSITION":13,"TANGENT":15,"TEXCOORD_0":16},"indices":12,"material":1,"mode":4}]}],"nodes":[{"extensions":{"S8S_v3d_node":{"frustumCulling":true,"groupNames":[],"hidden":false,"hidpiCompositing":false,"objectColor":[1.0,1.0,1.0,1.0],"objectIndex":0,"renderOrder":0,"useShadows":true}},"mesh":2,"name":"sm_linky_01_low.001","scale":[0.009999999776482582,0.009999999776482582,0.009999999776482582]},{"extensions":{"S8S_v3d_node":{"frustumCulling":true,"groupNames":[],"hidden":false,"hidpiCompositing":false,"objectColor":[1.0,1.0,1.0,1.0],"objectIndex":0,"renderOrder":0,"useShadows":true}},"mesh":1,"name":"logotype","rotation":[-0.019433213397860527,-0.04224107414484024,0.2575121819972992,0.9651557207107544],"translation":[-0.20067831873893738,0.49114805459976196,0.019946664571762085]},{"camera":0,"extensions":{"S8S_v3d_node":{"frustumCulling":true,"groupNames":[],"hidden":false,"hidpiCompositing":false,"objectColor":[1.0,1.0,1.0,1.0],"objectIndex":0,"renderOrder":0}},"name":"Camera","rotation":[-0.12820470333099365,-0.32824593782424927,-0.04501935839653015,0.9347680807113647],"scale":[1.0,0.9999999403953552,0.9999997615814209],"translation":[-1.8704807758331299,1.2113816738128662,2.3349359035491943]},{"extensions":{"S8S_v3d_node":{"frustumCulling":true,"groupNames":[],"hidden":false,"hidpiCompositing":false,"objectColor":[1.0,1.0,1.0,1.0],"objectIndex":0,"renderOrder":0,"useShadows":true}},"mesh":3,"name":"sm_linky_low.002","scale":[0.009999999776482582,0.009999999776482582,0.009999999776482582]},{"extensions":{"S8S_v3d_node":{"frustumCulling":true,"groupNames":[],"hidden":false,"hidpiCompositing":false,"objectColor":[1.0,1.0,1.0,1.0],"objectIndex":0,"renderOrder":0,"useShadows":true}},"mesh":0,"name":"Shadow","rotation":[0.0,1.0,-0.0,1.6292068494294654e-07],"scale":[0.3409600555896759,0.3409600555896759,0.3409600555896759],"translation":[0.00012785941362380981,-0.0006569824181497097,0.013826649636030197]}],"samplers":[{}],"scene":0,"scenes":[{"extensions":{"S8S_v3d_scene":{"aaMethod":"AUTO","iblEnvironmentMode":"PMREM","physicallyCorrectLights":true,"pmremMaxTileSize":512,"shadowMap":{"esmDistanceScale":1.0,"renderReverseSided":false,"renderSingleSided":true,"type":"PCFPOISSON"},"worldMaterial":4}},"extras":{"animFrameRate":30,"coordSystem":"Z_UP_RIGHT"},"name":"Scene","nodes":[2,4,1,0,3]}],"textures":[{"extensions":{"S8S_v3d_texture":{"colorSpace":"srgb"}},"name":"logotype.jpg","sampler":0,"source":0},{"extensions":{"S8S_v3d_texture":{"colorSpace":"non-color"}},"name":"Linky_ORM.jpg","sampler":0,"source":1},{"extensions":{"S8S_v3d_texture":{"colorSpace":"non-color"}},"name":"Linky_Normal.jpg","sampler":0,"source":2},{"extensions":{"S8S_v3d_texture":{"colorSpace":"srgb"}},"name":"Linky_Basecolor.jpg","sampler":0,"source":3},{"extensions":{"S8S_v3d_texture":{"colorSpace":"non-color"}},"name":"Mask.jpg","sampler":0,"source":4},{"extensions":{"S8S_v3d_texture":{"anisotropy":16,"colorSpace":"non-color"}},"name":"Shadows.jpg","sampler":0,"source":5},{"extensions":{"S8S_v3d_texture":{"colorSpace":"linear rec.709","source":6}},"name":"neutral.hdr.001","sampler":0}]}
