{"accessors":[{"bufferView":0,"componentType":5123,"count":2628,"max":[939],"min":[0],"type":"SCALAR"},{"bufferView":1,"componentType":5126,"count":940,"max":[3.3496952056884766,4.8647332191467285,1.7634069919586182],"min":[-3.3496952056884766,0.5096175670623779,-1.763406753540039],"type":"VEC3"},{"bufferView":2,"componentType":5126,"count":940,"max":[1.0,1.0,1.0],"min":[-1.0,-1.0,-1.0],"type":"VEC3"},{"bufferView":3,"componentType":5126,"count":940,"max":[0.9260404109954834,0.9987318515777588,1.0,1.0],"min":[-0.9260138273239136,-1.0,-1.0,1.0],"type":"VEC4"},{"bufferView":4,"componentType":5126,"count":940,"max":[8.0,7.998603343963623],"min":[-7.0,-6.998403549194336],"type":"VEC2"},{"bufferView":5,"componentType":5123,"count":4920,"max":[1679],"min":[0],"type":"SCALAR"},{"bufferView":6,"componentType":5126,"count":1680,"max":[78.56263732910156,21.605932235717773,48.52116394042969],"min":[-2.0328049659729004,-1.0,-2.032806873321533],"type":"VEC3"},{"bufferView":7,"componentType":5126,"count":1680,"max":[1.0,1.0,1.0],"min":[-1.0,-1.0,-1.0],"type":"VEC3"},{"bufferView":8,"componentType":5126,"count":1680,"max":[1.0,0.9900000095367432],"min":[0.0,0.0],"type":"VEC2"},{"bufferView":9,"componentType":5123,"count":1536,"max":[395],"min":[0],"type":"SCALAR"},{"bufferView":10,"componentType":5126,"count":396,"max":[79.1142807006836,23.62132453918457,49.07280731201172],"min":[-2.584449052810669,21.605932235717773,-2.58445143699646],"type":"VEC3"},{"bufferView":11,"componentType":5126,"count":396,"max":[0.9842767715454102,-0.1766289621591568,0.9842758774757385],"min":[-0.9842760562896729,-0.3475160598754883,-0.9842770099639893],"type":"VEC3"},{"bufferView":12,"componentType":5126,"count":396,"max":[1.0,0.0],"min":[0.0,0.0],"type":"VEC2"},{"bufferView":13,"componentType":5123,"count":1128,"max":[391],"min":[0],"type":"SCALAR"},{"bufferView":14,"componentType":5126,"count":392,"max":[0.7476234436035156,0.6891091465950012,0.9112809300422668],"min":[-0.6779605746269226,0.03586062788963318,-0.015522956848144531],"type":"VEC3"},{"bufferView":15,"componentType":5126,"count":392,"max":[0.9992082118988037,0.8474897146224976,0.9980046153068542],"min":[-0.9992082118988037,-1.0,-0.9980047345161438],"type":"VEC3"},{"bufferView":16,"componentType":5126,"count":392,"max":[1.0,0.8457913398742676,1.0,1.0],"min":[-1.0,-0.8458021879196167,-1.0,1.0],"type":"VEC4"},{"bufferView":17,"componentType":5126,"count":392,"max":[5.474600315093994,8.0],"min":[-4.7902750968933105,-7.0],"type":"VEC2"},{"bufferView":18,"componentType":5121,"count":240,"max":[62],"min":[0],"type":"SCALAR"},{"bufferView":19,"componentType":5126,"count":63,"max":[0.9510578513145447,1.0,0.9999999403953552],"min":[-0.9510578513145447,-1.0,-0.9999999403953552],"type":"VEC3"},{"bufferView":20,"componentType":5126,"count":63,"max":[0.9510571956634521,1.0,1.0],"min":[-0.9510571956634521,-1.0,-1.0],"type":"VEC3"},{"bufferView":21,"componentType":5126,"count":63,"max":[1.0,1.0],"min":[0.0,0.5276179909706116],"type":"VEC2"},{"bufferView":22,"componentType":5121,"count":6,"max":[3],"min":[0],"type":"SCALAR"},{"bufferView":23,"componentType":5126,"count":4,"max":[1.0,0.0,1.0],"min":[-1.0,0.0,-1.0],"type":"VEC3"},{"bufferView":24,"componentType":5126,"count":4,"max":[0.0,1.0,-0.0],"min":[0.0,1.0,-0.0],"type":"VEC3"},{"bufferView":25,"componentType":5126,"count":4,"max":[1.0,1.0],"min":[0.0,0.0],"type":"VEC2"},{"bufferView":26,"componentType":5123,"count":1476,"max":[421],"min":[0],"type":"SCALAR"},{"bufferView":27,"componentType":5126,"count":422,"max":[0.6843999624252319,0.0702810287475586,0.21173301339149475],"min":[-0.6843998432159424,0.0,-0.21173298358917236],"type":"VEC3"},{"bufferView":28,"componentType":5126,"count":422,"max":[1.0,1.0,1.0],"min":[-1.0,-1.0,-1.0],"type":"VEC3"},{"bufferView":29,"componentType":5126,"count":422,"max":[1.0,0.9968079328536987,1.0,1.0],"min":[-1.0,-1.0,-1.0,-1.0],"type":"VEC4"},{"bufferView":30,"componentType":5126,"count":422,"max":[7.598509788513184,8.0],"min":[-7.0,-6.999999523162842],"type":"VEC2"},{"bufferView":31,"componentType":5123,"count":936,"max":[455],"min":[0],"type":"SCALAR"},{"bufferView":32,"componentType":5126,"count":456,"max":[0.4557764530181885,0.022715993225574493,0.20984283089637756],"min":[-0.4557764530181885,0.019469566643238068,-0.20984283089637756],"type":"VEC3"},{"bufferView":33,"componentType":5126,"count":456,"max":[1.0,0.0,1.0],"min":[-1.0,-1.0,-1.0],"type":"VEC3"},{"bufferView":34,"componentType":5126,"count":456,"max":[1.0,3.4603126550791785e-06,1.0,1.0],"min":[-1.0,-2.084653488054755e-06,-1.0,-1.0],"type":"VEC4"},{"bufferView":35,"componentType":5126,"count":456,"max":[8.0,7.84999942779541],"min":[-7.0,-7.0],"type":"VEC2"},{"bufferView":36,"componentType":5123,"count":936,"max":[455],"min":[0],"type":"SCALAR"},{"bufferView":37,"componentType":5126,"count":456,"max":[0.454021692276001,0.021863915026187897,0.14902251958847046],"min":[-0.454021692276001,0.019868696108460426,-0.14902251958847046],"type":"VEC3"},{"bufferView":38,"componentType":5126,"count":456,"max":[1.0,0.0,1.0],"min":[-1.0,-1.0,-1.0],"type":"VEC3"},{"bufferView":39,"componentType":5126,"count":456,"max":[1.0,3.1640645374864107e-06,1.0,1.0],"min":[-1.0,-3.8099401535873767e-06,-1.0,-1.0],"type":"VEC4"},{"bufferView":40,"componentType":5126,"count":456,"max":[8.0,7.84999942779541],"min":[-7.0,-7.0],"type":"VEC2"},{"bufferView":41,"componentType":5121,"count":6,"max":[3],"min":[0],"type":"SCALAR"},{"bufferView":42,"componentType":5126,"count":4,"max":[1.0,0.0,1.0],"min":[-1.0,0.0,-1.0],"type":"VEC3"},{"bufferView":43,"componentType":5126,"count":4,"max":[0.0,1.0,-0.0],"min":[0.0,1.0,-0.0],"type":"VEC3"},{"bufferView":44,"componentType":5126,"count":4,"max":[1.0,1.0],"min":[0.0,0.0],"type":"VEC2"},{"bufferView":45,"componentType":5121,"count":6,"max":[3],"min":[0],"type":"SCALAR"},{"bufferView":46,"componentType":5126,"count":4,"max":[1.0,0.0,1.0],"min":[-1.0,0.0,-1.0],"type":"VEC3"},{"bufferView":47,"componentType":5126,"count":4,"max":[0.0,1.0,-0.0],"min":[0.0,1.0,-0.0],"type":"VEC3"},{"bufferView":48,"componentType":5126,"count":4,"max":[1.0,1.0],"min":[0.0,0.0],"type":"VEC2"},{"bufferView":49,"componentType":5121,"count":6,"max":[3],"min":[0],"type":"SCALAR"},{"bufferView":50,"componentType":5126,"count":4,"max":[1.0,0.0,1.0],"min":[-1.0,0.0,-1.0],"type":"VEC3"},{"bufferView":51,"componentType":5126,"count":4,"max":[0.0,1.0,-0.0],"min":[0.0,1.0,-0.0],"type":"VEC3"},{"bufferView":52,"componentType":5126,"count":4,"max":[1.0,1.0],"min":[0.0,0.0],"type":"VEC2"},{"bufferView":53,"componentType":5121,"count":6,"max":[3],"min":[0],"type":"SCALAR"},{"bufferView":54,"componentType":5126,"count":4,"max":[1.0,0.0,1.0],"min":[-1.0,0.0,-1.0],"type":"VEC3"},{"bufferView":55,"componentType":5126,"count":4,"max":[0.0,1.0,-0.0],"min":[0.0,1.0,-0.0],"type":"VEC3"},{"bufferView":56,"componentType":5126,"count":4,"max":[1.0,1.0],"min":[0.0,0.0],"type":"VEC2"},{"bufferView":57,"componentType":5121,"count":84,"max":[59],"min":[0],"type":"SCALAR"},{"bufferView":58,"componentType":5126,"count":60,"max":[0.3284103274345398,0.019338812679052353,0.20086759328842163],"min":[-0.27274101972579956,-0.019338812679052353,-0.20086759328842163],"type":"VEC3"},{"bufferView":59,"componentType":5126,"count":60,"max":[1.0,1.0,1.0],"min":[-1.0,-1.0,-1.0],"type":"VEC3"},{"bufferView":60,"componentType":5126,"count":60,"max":[0.07273237407207489,0.0,1.0,1.0],"min":[-0.07273237407207489,-1.0,-1.0,1.0],"type":"VEC4"},{"bufferView":61,"componentType":5126,"count":60,"max":[8.0,6.419206619262695],"min":[-7.0,-5.193378448486328],"type":"VEC2"},{"bufferView":62,"componentType":5123,"count":4920,"max":[1423],"min":[0],"type":"SCALAR"},{"bufferView":63,"componentType":5126,"count":1424,"max":[-0.09312847256660461,0.038009487092494965,0.21084259450435638],"min":[-0.2668831944465637,0.019483018666505814,-0.21084265410900116],"type":"VEC3"},{"bufferView":64,"componentType":5126,"count":1424,"max":[1.0,0.7301282286643982,1.0],"min":[-1.0,-0.6859421133995056,-1.0],"type":"VEC3"},{"bufferView":65,"componentType":5126,"count":1424,"max":[1.0,0.7276727557182312,1.0,1.0],"min":[-1.0,-0.7276739478111267,-1.0,-1.0],"type":"VEC4"},{"bufferView":66,"componentType":5126,"count":1424,"max":[1.0,0.9900000095367432],"min":[0.0,0.0],"type":"VEC2"},{"bufferView":67,"componentType":5123,"count":1536,"max":[395],"min":[0],"type":"SCALAR"},{"bufferView":68,"componentType":5126,"count":396,"max":[-0.08822641521692276,0.040862154215574265,0.21580350399017334],"min":[-0.2717851996421814,0.03800944238901138,-0.2158035784959793],"type":"VEC3"},{"bufferView":69,"componentType":5126,"count":396,"max":[0.663815975189209,-0.7478922009468079,0.6593782901763916],"min":[-0.663820207118988,-0.9204348921775818,-0.6593778133392334],"type":"VEC3"},{"bufferView":70,"componentType":5126,"count":396,"max":[1.0,0.0,-0.0,-1.0],"min":[1.0,0.0,-0.0,-1.0],"type":"VEC4"},{"bufferView":71,"componentType":5126,"count":396,"max":[1.0,0.0],"min":[0.0,0.0],"type":"VEC2"},{"bufferView":72,"componentType":5123,"count":798,"max":[531],"min":[0],"type":"SCALAR"},{"bufferView":73,"componentType":5126,"count":532,"max":[0.20000001788139343,0.004999998025596142,0.5000000596046448],"min":[-0.19999998807907104,0.0039999959990382195,-0.4999999403953552],"type":"VEC3"},{"bufferView":74,"componentType":5126,"count":532,"max":[0.9914513826370239,1.0,0.9914408922195435],"min":[-0.9914513826370239,0.12467195838689804,-0.9914593696594238],"type":"VEC3"},{"bufferView":75,"componentType":5126,"count":532,"max":[0.17540645599365234,0.9553465843200684],"min":[0.013579719699919224,0.04257386922836304],"type":"VEC2"},{"bufferView":76,"componentType":5123,"count":966,"max":[643],"min":[0],"type":"SCALAR"},{"bufferView":77,"componentType":5126,"count":644,"max":[0.20000001788139343,0.0039999959990382195,0.5000000596046448],"min":[-0.19999998807907104,-0.00500000175088644,-0.4999999403953552],"type":"VEC3"},{"bufferView":78,"componentType":5126,"count":644,"max":[1.0,0.0,1.0],"min":[-1.0,-1.0,-1.0],"type":"VEC3"},{"bufferView":79,"componentType":5126,"count":644,"max":[1.0000001192092896,1.0],"min":[0.0,-1.1920928955078125e-07],"type":"VEC2"},{"bufferView":80,"componentType":5121,"count":84,"max":[59],"min":[0],"type":"SCALAR"},{"bufferView":81,"componentType":5126,"count":60,"max":[0.30391860008239746,0.019338810816407204,0.20086759328842163],"min":[-0.29723262786865234,-0.019338810816407204,-0.20086756348609924],"type":"VEC3"},{"bufferView":82,"componentType":5126,"count":60,"max":[1.0,1.0,1.0],"min":[-1.0,-1.0,-1.0],"type":"VEC3"},{"bufferView":83,"componentType":5126,"count":60,"max":[0.07273159921169281,0.0,1.0,-1.0],"min":[-0.07273159921169281,-1.0,-1.0,-1.0],"type":"VEC4"},{"bufferView":84,"componentType":5126,"count":60,"max":[8.0,8.0],"min":[-7.0,-3.6125850677490234],"type":"VEC2"},{"bufferView":85,"componentType":5123,"count":4920,"max":[1423],"min":[0],"type":"SCALAR"},{"bufferView":86,"componentType":5126,"count":1424,"max":[0.2980610430240631,0.038009509444236755,0.21084262430667877],"min":[0.1243063285946846,0.019483042880892754,-0.21084262430667877],"type":"VEC3"},{"bufferView":87,"componentType":5126,"count":1424,"max":[1.0,0.7301296591758728,1.0],"min":[-1.0,-0.6859451532363892,-1.0],"type":"VEC3"},{"bufferView":88,"componentType":5126,"count":1424,"max":[1.0,0.7276728749275208,1.0,1.0],"min":[-1.0,-0.7276889681816101,-1.0,-1.0],"type":"VEC4"},{"bufferView":89,"componentType":5126,"count":1424,"max":[1.0,0.9900000095367432],"min":[0.0,0.0],"type":"VEC2"},{"bufferView":90,"componentType":5123,"count":1536,"max":[395],"min":[0],"type":"SCALAR"},{"bufferView":91,"componentType":5126,"count":396,"max":[0.30296313762664795,0.040862180292606354,0.21580353379249573],"min":[0.1194043755531311,0.038009464740753174,-0.21580356359481812],"type":"VEC3"},{"bufferView":92,"componentType":5126,"count":396,"max":[0.6638270616531372,-0.7478851675987244,0.6593751311302185],"min":[-0.6638281941413879,-0.9204348921775818,-0.6593820452690125],"type":"VEC3"},{"bufferView":93,"componentType":5126,"count":396,"max":[1.0,0.0,-0.0,-1.0],"min":[1.0,0.0,-0.0,-1.0],"type":"VEC4"},{"bufferView":94,"componentType":5126,"count":396,"max":[1.0,0.0],"min":[0.0,0.0],"type":"VEC2"},{"bufferView":95,"componentType":5121,"count":798,"max":[151],"min":[0],"type":"SCALAR"},{"bufferView":96,"componentType":5126,"count":152,"max":[0.20000052452087402,0.0049999975599348545,0.5],"min":[-0.19999957084655762,0.003999995533376932,-0.5],"type":"VEC3"},{"bufferView":97,"componentType":5126,"count":152,"max":[0.995510458946228,1.0,0.9955147504806519],"min":[-0.9955108761787415,0.06271801143884659,-0.9955160021781921],"type":"VEC3"},{"bufferView":98,"componentType":5126,"count":152,"max":[0.9856208562850952,0.9553465843200684],"min":[0.8237942457199097,0.04257386922836304],"type":"VEC2"},{"bufferView":99,"componentType":5121,"count":966,"max":[179],"min":[0],"type":"SCALAR"},{"bufferView":100,"componentType":5126,"count":180,"max":[0.20000052452087402,0.003999995533376932,0.5],"min":[-0.19999957084655762,-0.005000002216547728,-0.5],"type":"VEC3"},{"bufferView":101,"componentType":5126,"count":180,"max":[0.9955107569694519,0.06818199902772903,0.9955160021781921],"min":[-0.9955108761787415,-0.9955174922943115,-0.9955160021781921],"type":"VEC3"},{"bufferView":102,"componentType":5126,"count":180,"max":[1.0000001192092896,1.0],"min":[0.0,-1.1920928955078125e-07],"type":"VEC2"},{"bufferView":103,"componentType":5121,"count":6,"max":[3],"min":[0],"type":"SCALAR"},{"bufferView":104,"componentType":5126,"count":4,"max":[0.6388481259346008,-1.4213178474165034e-06,0.37735506892204285],"min":[-0.5998924374580383,-1.4213178474165034e-06,-0.3968578577041626],"type":"VEC3"},{"bufferView":105,"componentType":5126,"count":4,"max":[0.0,1.0,-0.0],"min":[0.0,1.0,-0.0],"type":"VEC3"},{"bufferView":106,"componentType":5126,"count":4,"max":[0.625,1.0],"min":[0.0,0.0],"type":"VEC2"},{"bufferView":107,"componentType":5121,"count":6,"max":[3],"min":[0],"type":"SCALAR"},{"bufferView":108,"componentType":5126,"count":4,"max":[1.0,0.0,1.0],"min":[-1.0,0.0,-1.0],"type":"VEC3"},{"bufferView":109,"componentType":5126,"count":4,"max":[0.0,1.0,-0.0],"min":[0.0,1.0,-0.0],"type":"VEC3"},{"bufferView":110,"componentType":5126,"count":4,"max":[1.0,1.0],"min":[0.0,0.0],"type":"VEC2"},{"bufferView":111,"componentType":5121,"count":78,"max":[33],"min":[0],"type":"SCALAR"},{"bufferView":112,"componentType":5126,"count":34,"max":[0.7752814888954163,1.7907994333654642e-05,0.40563446283340454],"min":[-0.7752814888954163,-8.439812518190593e-06,-0.3828887641429901],"type":"VEC3"},{"bufferView":113,"componentType":5126,"count":34,"max":[0.0,1.0,-0.0],"min":[0.0,1.0,-0.0],"type":"VEC3"},{"bufferView":114,"componentType":5126,"count":34,"max":[1.0,0.8199713230133057],"min":[0.75,0.17494821548461914],"type":"VEC2"},{"bufferView":115,"componentType":5121,"count":30,"max":[17],"min":[0],"type":"SCALAR"},{"bufferView":116,"componentType":5126,"count":18,"max":[0.8989038467407227,2.7198671887163073e-05,0.6217297315597534],"min":[-0.8989038467407227,0.0,-0.6217297315597534],"type":"VEC3"},{"bufferView":117,"componentType":5126,"count":18,"max":[0.0,1.0,-0.0],"min":[0.0,1.0,-0.0],"type":"VEC3"},{"bufferView":118,"componentType":5126,"count":18,"max":[0.875,1.0],"min":[0.625,0.0],"type":"VEC2"},{"bufferView":119,"componentType":5121,"count":144,"max":[95],"min":[0],"type":"SCALAR"},{"bufferView":120,"componentType":5126,"count":96,"max":[1.0812621116638184,-0.04131186008453369,0.3384346067905426],"min":[-0.24293553829193115,-0.6908196210861206,-0.22559963166713715],"type":"VEC3"},{"bufferView":121,"componentType":5126,"count":96,"max":[0.8141241073608398,1.0,0.8428372144699097],"min":[-0.8141271471977234,-1.0,-0.8428372144699097],"type":"VEC3"},{"bufferView":122,"componentType":5126,"count":96,"max":[0.8163961172103882,0.39737239480018616,0.8800831437110901,1.0],"min":[-0.816396176815033,-0.39737293124198914,-0.8800832629203796,1.0],"type":"VEC4"},{"bufferView":123,"componentType":5126,"count":96,"max":[8.0,7.772428035736084],"min":[-7.0,-6.739917755126953],"type":"VEC2"},{"bufferView":124,"componentType":5121,"count":798,"max":[151],"min":[0],"type":"SCALAR"},{"bufferView":125,"componentType":5126,"count":152,"max":[0.800000011920929,0.0,0.5],"min":[-0.800000011920929,-0.0010000020265579224,-0.5],"type":"VEC3"},{"bufferView":126,"componentType":5126,"count":152,"max":[0.9955242872238159,1.0,0.995517909526825],"min":[-0.9955242872238159,0.06278601288795471,-0.995517909526825],"type":"VEC3"},{"bufferView":127,"componentType":5126,"count":152,"max":[0.823253870010376,0.9553465843200684],"min":[0.1759468913078308,0.04257386922836304],"type":"VEC2"},{"bufferView":128,"componentType":5121,"count":966,"max":[179],"min":[0],"type":"SCALAR"},{"bufferView":129,"componentType":5126,"count":180,"max":[0.800000011920929,-0.0010000019101426005,0.5],"min":[-0.800000011920929,-0.009999999776482582,-0.5],"type":"VEC3"},{"bufferView":130,"componentType":5126,"count":180,"max":[0.9955242872238159,0.0681309774518013,0.9955187439918518],"min":[-0.9955242872238159,-0.9955184459686279,-0.9955187439918518],"type":"VEC3"},{"bufferView":131,"componentType":5126,"count":180,"max":[1.0000001192092896,1.0],"min":[0.0,-1.1920928955078125e-07],"type":"VEC2"},{"bufferView":132,"componentType":5123,"count":1458,"max":[345],"min":[0],"type":"SCALAR"},{"bufferView":133,"componentType":5126,"count":346,"max":[-0.6195815801620483,-4.76837158203125e-07,0.4636378586292267],"min":[-1.200533151626587,-0.001320382347330451,-0.46365055441856384],"type":"VEC3"},{"bufferView":134,"componentType":5126,"count":346,"max":[0.9912947416305542,1.0,0.9855097532272339],"min":[-0.9900097846984863,0.10141897946596146,-0.9845447540283203],"type":"VEC3"},{"bufferView":135,"componentType":5126,"count":346,"max":[0.2480449676513672,0.9166885018348694],"min":[0.009489607065916061,0.07438266277313232],"type":"VEC2"},{"bufferView":136,"componentType":5123,"count":1890,"max":[417],"min":[0],"type":"SCALAR"},{"bufferView":137,"componentType":5126,"count":418,"max":[-0.6195815801620483,-0.0013203821144998074,0.46365049481391907],"min":[-1.200533151626587,-0.010162001475691795,-0.46365055441856384],"type":"VEC3"},{"bufferView":138,"componentType":5126,"count":418,"max":[0.9912947416305542,0.2615340054035187,0.9855097532272339],"min":[-0.9900097846984863,-1.0,-0.9855082035064697],"type":"VEC3"},{"bufferView":139,"componentType":5126,"count":418,"max":[0.2480449676513672,0.9166999459266663],"min":[0.009489607065916061,0.07438266277313232],"type":"VEC2"},{"bufferView":140,"componentType":5123,"count":2082,"max":[491],"min":[0],"type":"SCALAR"},{"bufferView":141,"componentType":5126,"count":492,"max":[0.7989698648452759,0.0,0.5],"min":[-0.7989698648452759,-0.0013199055101722479,-0.5],"type":"VEC3"},{"bufferView":142,"componentType":5126,"count":492,"max":[0.9910481572151184,1.0,0.9912755489349365],"min":[-0.9910481572151184,0.08404400944709778,-0.9912755489349365],"type":"VEC3"},{"bufferView":143,"componentType":5126,"count":492,"max":[0.8305428624153137,0.9497181177139282],"min":[0.1743830293416977,0.04136455059051514],"type":"VEC2"},{"bufferView":144,"componentType":5123,"count":2706,"max":[595],"min":[0],"type":"SCALAR"},{"bufferView":145,"componentType":5126,"count":596,"max":[0.7989698648452759,-0.0013199051609262824,0.5],"min":[-0.7989698648452759,-0.010161524638533592,-0.5],"type":"VEC3"},{"bufferView":146,"componentType":5126,"count":596,"max":[0.9910481572151184,0.13355296850204468,0.9912755489349365],"min":[-0.9910481572151184,-1.0,-0.9912755489349365],"type":"VEC3"},{"bufferView":147,"componentType":5126,"count":596,"max":[0.8305428624153137,0.9497181177139282],"min":[0.1743830293416977,0.04136455059051514],"type":"VEC2"},{"bufferView":148,"componentType":5123,"count":1458,"max":[345],"min":[0],"type":"SCALAR"},{"bufferView":149,"componentType":5126,"count":346,"max":[1.2005335092544556,-4.76837158203125e-07,0.4636378586292267],"min":[0.6195819973945618,-0.001320382347330451,-0.46365055441856384],"type":"VEC3"},{"bufferView":150,"componentType":5126,"count":346,"max":[0.9900097846984863,1.0,0.9855102300643921],"min":[-0.9912947416305542,0.10142195224761963,-0.984545111656189],"type":"VEC3"},{"bufferView":151,"componentType":5126,"count":346,"max":[0.9949184656143188,0.9166885018348694],"min":[0.7563632726669312,0.07438266277313232],"type":"VEC2"},{"bufferView":152,"componentType":5123,"count":1890,"max":[417],"min":[0],"type":"SCALAR"},{"bufferView":153,"componentType":5126,"count":418,"max":[1.2005335092544556,-0.0013203821144998074,0.46365049481391907],"min":[0.6195819973945618,-0.010162001475691795,-0.46365055441856384],"type":"VEC3"},{"bufferView":154,"componentType":5126,"count":418,"max":[0.9900097846984863,0.26154211163520813,0.9855102300643921],"min":[-0.9912947416305542,-1.0,-0.9855084419250488],"type":"VEC3"},{"bufferView":155,"componentType":5126,"count":418,"max":[0.9949184656143188,0.9166999459266663],"min":[0.7563632726669312,0.07438266277313232],"type":"VEC2"},{"bufferView":156,"componentType":5123,"count":2082,"max":[571],"min":[0],"type":"SCALAR"},{"bufferView":157,"componentType":5126,"count":572,"max":[0.800000011920929,0.0,0.4999999701976776],"min":[-0.800000011920929,-0.0010591663885861635,-0.4999999701976776],"type":"VEC3"},{"bufferView":158,"componentType":5126,"count":572,"max":[0.9903940558433533,1.0,0.9914059042930603],"min":[-0.9903940558433533,0.13074898719787598,-0.9914059042930603],"type":"VEC3"},{"bufferView":159,"componentType":5126,"count":572,"max":[0.8262771964073181,0.948840856552124],"min":[0.1752036213874817,0.034836769104003906],"type":"VEC2"},{"bufferView":160,"componentType":5123,"count":2706,"max":[675],"min":[0],"type":"SCALAR"},{"bufferView":161,"componentType":5126,"count":676,"max":[0.800000011920929,-0.0010591662721708417,0.4999999701976776],"min":[-0.800000011920929,-0.010161519050598145,-0.4999999701976776],"type":"VEC3"},{"bufferView":162,"componentType":5126,"count":676,"max":[0.990407407283783,0.16901300847530365,0.9914098978042603],"min":[-0.990407407283783,-1.0,-0.9914098978042603],"type":"VEC3"},{"bufferView":163,"componentType":5126,"count":676,"max":[0.8262771964073181,0.948840856552124],"min":[0.1752036213874817,0.034836769104003906],"type":"VEC2"},{"bufferView":164,"componentType":5123,"count":1536,"max":[435],"min":[0],"type":"SCALAR"},{"bufferView":165,"componentType":5126,"count":436,"max":[-0.6503872871398926,0.0,0.464487224817276],"min":[-1.201957106590271,-0.0010591675527393818,-0.46450772881507874],"type":"VEC3"},{"bufferView":166,"componentType":5126,"count":436,"max":[0.990035891532898,1.0,0.9833850264549255],"min":[-0.990104615688324,0.08493201434612274,-0.9867188930511475],"type":"VEC3"},{"bufferView":167,"componentType":5126,"count":436,"max":[0.23608416318893433,0.9163820743560791],"min":[0.011638821102678776,0.06727659702301025],"type":"VEC2"},{"bufferView":168,"componentType":5123,"count":2004,"max":[519],"min":[0],"type":"SCALAR"},{"bufferView":169,"componentType":5126,"count":520,"max":[-0.6503872871398926,-0.0010591661557555199,0.46450769901275635],"min":[-1.201957106590271,-0.010161519050598145,-0.46450772881507874],"type":"VEC3"},{"bufferView":170,"componentType":5126,"count":520,"max":[0.9900479912757874,0.18518894910812378,0.9867217540740967],"min":[-0.990104615688324,-1.0,-0.9867188930511475],"type":"VEC3"},{"bufferView":171,"componentType":5126,"count":520,"max":[0.23608416318893433,0.9164007902145386],"min":[0.011638821102678776,0.06727659702301025],"type":"VEC2"},{"bufferView":172,"componentType":5123,"count":1536,"max":[435],"min":[0],"type":"SCALAR"},{"bufferView":173,"componentType":5126,"count":436,"max":[1.201957106590271,0.0,0.464487224817276],"min":[0.6503872871398926,-0.0010591675527393818,-0.46450772881507874],"type":"VEC3"},{"bufferView":174,"componentType":5126,"count":436,"max":[0.990104615688324,1.0,0.9833840131759644],"min":[-0.990035891532898,0.08492802083492279,-0.9867223501205444],"type":"VEC3"},{"bufferView":175,"componentType":5126,"count":436,"max":[0.9898418188095093,0.9163820743560791],"min":[0.7653964757919312,0.06727659702301025],"type":"VEC2"},{"bufferView":176,"componentType":5123,"count":2004,"max":[519],"min":[0],"type":"SCALAR"},{"bufferView":177,"componentType":5126,"count":520,"max":[1.201957106590271,-0.0010591661557555199,0.46450769901275635],"min":[0.6503872871398926,-0.010161519050598145,-0.46450772881507874],"type":"VEC3"},{"bufferView":178,"componentType":5126,"count":520,"max":[0.990104615688324,0.18516910076141357,0.9867199063301086],"min":[-0.9900479912757874,-1.0,-0.9867223501205444],"type":"VEC3"},{"bufferView":179,"componentType":5126,"count":520,"max":[0.9898418188095093,0.9164007902145386],"min":[0.7653964757919312,0.06727659702301025],"type":"VEC2"},{"bufferView":180,"componentType":5123,"count":2322,"max":[819],"min":[0],"type":"SCALAR"},{"bufferView":181,"componentType":5126,"count":820,"max":[4.234683036804199,236.3089599609375,4.276461601257324],"min":[-15.987231254577637,-2894.412353515625,-4.181833267211914],"type":"VEC3"},{"bufferView":182,"componentType":5126,"count":820,"max":[0.0,1.0,5.8000001445179805e-05],"min":[-1.1000000085914508e-05,0.0,-1.0],"type":"VEC3"},{"bufferView":183,"componentType":5126,"count":820,"max":[1.0,1.0],"min":[0.0,0.0],"type":"VEC2"},{"bufferView":184,"componentType":5123,"count":2430,"max":[853],"min":[0],"type":"SCALAR"},{"bufferView":185,"componentType":5126,"count":854,"max":[4.032271862030029,236.3089599609375,4.276461601257324],"min":[-18.423004150390625,-2894.412353515625,-4.181833267211914],"type":"VEC3"},{"bufferView":186,"componentType":5126,"count":854,"max":[0.0,1.0,5.8000001445179805e-05],"min":[-1.1000000085914508e-05,0.0,-1.0],"type":"VEC3"},{"bufferView":187,"componentType":5126,"count":854,"max":[1.0,1.0],"min":[0.0,0.0],"type":"VEC2"},{"bufferView":188,"componentType":5123,"count":5094,"max":[1806],"min":[0],"type":"SCALAR"},{"bufferView":189,"componentType":5126,"count":1807,"max":[8.47999095916748,0.010254859924316406,0.00739918602630496],"min":[-5.817996501922607,-8.45813274383545,-30.298070907592773],"type":"VEC3"},{"bufferView":190,"componentType":5126,"count":1807,"max":[0.0,1.0,4.999999873689376e-06],"min":[-1.0,0.0,-1.9999999949504854e-06],"type":"VEC3"},{"bufferView":191,"componentType":5126,"count":1807,"max":[1.0,1.0],"min":[0.0,0.0],"type":"VEC2"},{"bufferView":192,"componentType":5123,"count":5436,"max":[1918],"min":[0],"type":"SCALAR"},{"bufferView":193,"componentType":5126,"count":1919,"max":[8.47999095916748,0.010254859924316406,0.00739918602630496],"min":[-5.817996501922607,-8.45813274383545,-33.66355895996094],"type":"VEC3"},{"bufferView":194,"componentType":5126,"count":1919,"max":[0.0,1.0,3.000000106112566e-06],"min":[-1.0,0.0,-9.999999974752427e-07],"type":"VEC3"},{"bufferView":195,"componentType":5126,"count":1919,"max":[1.0,1.0],"min":[0.0,0.0],"type":"VEC2"},{"bufferView":196,"componentType":5123,"count":2364,"max":[833],"min":[0],"type":"SCALAR"},{"bufferView":197,"componentType":5126,"count":834,"max":[4.527129650115967,236.3089599609375,4.276461601257324],"min":[-20.163211822509766,-2894.412353515625,-4.181833267211914],"type":"VEC3"},{"bufferView":198,"componentType":5126,"count":834,"max":[0.0,1.0,5.8000001445179805e-05],"min":[-1.1000000085914508e-05,0.0,-1.0],"type":"VEC3"},{"bufferView":199,"componentType":5126,"count":834,"max":[1.0,1.0],"min":[0.0,0.0],"type":"VEC2"},{"bufferView":200,"componentType":5123,"count":5475,"max":[1934],"min":[0],"type":"SCALAR"},{"bufferView":201,"componentType":5126,"count":1935,"max":[8.47999095916748,0.010254859924316406,0.00739918602630496],"min":[-5.817996501922607,-8.45813274383545,-37.00930404663086],"type":"VEC3"},{"bufferView":202,"componentType":5126,"count":1935,"max":[0.0,1.0,4.999999873689376e-06],"min":[-1.0,0.0,-1.9999999949504854e-06],"type":"VEC3"},{"bufferView":203,"componentType":5126,"count":1935,"max":[1.0,1.0],"min":[0.0,0.0],"type":"VEC2"},{"bufferView":204,"componentType":5126,"count":80,"max":[3.3333332538604736],"min":[0.0416666679084301],"type":"SCALAR"},{"bufferView":205,"componentType":5126,"count":80,"max":[0.809548020362854,0.7549400329589844,-0.0],"min":[0.3988269567489624,0.7415099740028381,-0.0],"type":"VEC3"},{"bufferView":206,"componentType":5126,"count":80,"max":[3.3333332538604736],"min":[0.0416666679084301],"type":"SCALAR"},{"bufferView":207,"componentType":5126,"count":80,"max":[0.0,0.0,-0.0,1.0],"min":[0.0,0.0,-0.02181488461792469,0.9997619986534119],"type":"VEC4"},{"bufferView":208,"componentType":5126,"count":80,"max":[3.3333332538604736],"min":[0.0416666679084301],"type":"SCALAR"},{"bufferView":209,"componentType":5126,"count":80,"max":[1.0,1.0,1.0],"min":[1.0,1.0,1.0],"type":"VEC3"},{"bufferView":210,"componentType":5126,"count":80,"max":[3.3333332538604736],"min":[0.0416666679084301],"type":"SCALAR"},{"bufferView":211,"componentType":5126,"count":80,"max":[-0.39915820956230164,0.7549400329589844,-0.0],"min":[-0.8095477819442749,0.7415098547935486,-0.0],"type":"VEC3"},{"bufferView":212,"componentType":5126,"count":80,"max":[3.3333332538604736],"min":[0.0416666679084301],"type":"SCALAR"},{"bufferView":213,"componentType":5126,"count":80,"max":[0.0,0.0,0.02181488461792469,1.0],"min":[0.0,0.0,-0.0,0.9997619986534119],"type":"VEC4"},{"bufferView":214,"componentType":5126,"count":80,"max":[3.3333332538604736],"min":[0.0416666679084301],"type":"SCALAR"},{"bufferView":215,"componentType":5126,"count":80,"max":[1.0,1.0,1.0],"min":[1.0,1.0,1.0],"type":"VEC3"}],"animations":[{"channels":[{"sampler":0,"target":{"node":5,"path":"translation"}},{"sampler":1,"target":{"node":5,"path":"rotation"}},{"sampler":2,"target":{"node":5,"path":"scale"}}],"extensions":{"S8S_v3d_animation":{"auto":true,"loop":"REPEAT","offset":0.0,"repeatCount":1.0,"repeatInfinite":true}},"name":"Allonge rectangle 1","samplers":[{"input":204,"interpolation":"LINEAR","output":205},{"input":206,"interpolation":"LINEAR","output":207},{"input":208,"interpolation":"LINEAR","output":209}]},{"channels":[{"sampler":0,"target":{"node":6,"path":"translation"}},{"sampler":1,"target":{"node":6,"path":"rotation"}},{"sampler":2,"target":{"node":6,"path":"scale"}}],"extensions":{"S8S_v3d_animation":{"auto":true,"loop":"REPEAT","offset":0.0,"repeatCount":1.0,"repeatInfinite":true}},"name":"Allonge rectangle 2","samplers":[{"input":210,"interpolation":"LINEAR","output":211},{"input":212,"interpolation":"LINEAR","output":213},{"input":214,"interpolation":"LINEAR","output":215}]}],"asset":{"generator":"Verge3D for Blender v4.11.0","version":"2.0"},"bufferViews":[{"buffer":0,"byteLength":5256,"byteOffset":0,"target":34963},{"buffer":0,"byteLength":11280,"byteOffset":5256,"target":34962},{"buffer":0,"byteLength":11280,"byteOffset":16536,"target":34962},{"buffer":0,"byteLength":15040,"byteOffset":27816,"target":34962},{"buffer":0,"byteLength":7520,"byteOffset":42856,"target":34962},{"buffer":0,"byteLength":9840,"byteOffset":50376,"target":34963},{"buffer":0,"byteLength":20160,"byteOffset":60216,"target":34962},{"buffer":0,"byteLength":20160,"byteOffset":80376,"target":34962},{"buffer":0,"byteLength":13440,"byteOffset":100536,"target":34962},{"buffer":0,"byteLength":3072,"byteOffset":113976,"target":34963},{"buffer":0,"byteLength":4752,"byteOffset":117048,"target":34962},{"buffer":0,"byteLength":4752,"byteOffset":121800,"target":34962},{"buffer":0,"byteLength":3168,"byteOffset":126552,"target":34962},{"buffer":0,"byteLength":2256,"byteOffset":129720,"target":34963},{"buffer":0,"byteLength":4704,"byteOffset":131976,"target":34962},{"buffer":0,"byteLength":4704,"byteOffset":136680,"target":34962},{"buffer":0,"byteLength":6272,"byteOffset":141384,"target":34962},{"buffer":0,"byteLength":3136,"byteOffset":147656,"target":34962},{"buffer":0,"byteLength":240,"byteOffset":150792,"target":34963},{"buffer":0,"byteLength":756,"byteOffset":151032,"target":34962},{"buffer":0,"byteLength":756,"byteOffset":151788,"target":34962},{"buffer":0,"byteLength":504,"byteOffset":152544,"target":34962},{"buffer":0,"byteLength":6,"byteOffset":153048,"target":34963},{"buffer":0,"byteLength":48,"byteOffset":153056,"target":34962},{"buffer":0,"byteLength":48,"byteOffset":153104,"target":34962},{"buffer":0,"byteLength":32,"byteOffset":153152,"target":34962},{"buffer":0,"byteLength":2952,"byteOffset":153184,"target":34963},{"buffer":0,"byteLength":5064,"byteOffset":156136,"target":34962},{"buffer":0,"byteLength":5064,"byteOffset":161200,"target":34962},{"buffer":0,"byteLength":6752,"byteOffset":166264,"target":34962},{"buffer":0,"byteLength":3376,"byteOffset":173016,"target":34962},{"buffer":0,"byteLength":1872,"byteOffset":176392,"target":34963},{"buffer":0,"byteLength":5472,"byteOffset":178264,"target":34962},{"buffer":0,"byteLength":5472,"byteOffset":183736,"target":34962},{"buffer":0,"byteLength":7296,"byteOffset":189208,"target":34962},{"buffer":0,"byteLength":3648,"byteOffset":196504,"target":34962},{"buffer":0,"byteLength":1872,"byteOffset":200152,"target":34963},{"buffer":0,"byteLength":5472,"byteOffset":202024,"target":34962},{"buffer":0,"byteLength":5472,"byteOffset":207496,"target":34962},{"buffer":0,"byteLength":7296,"byteOffset":212968,"target":34962},{"buffer":0,"byteLength":3648,"byteOffset":220264,"target":34962},{"buffer":0,"byteLength":6,"byteOffset":223912,"target":34963},{"buffer":0,"byteLength":48,"byteOffset":223920,"target":34962},{"buffer":0,"byteLength":48,"byteOffset":223968,"target":34962},{"buffer":0,"byteLength":32,"byteOffset":224016,"target":34962},{"buffer":0,"byteLength":6,"byteOffset":224048,"target":34963},{"buffer":0,"byteLength":48,"byteOffset":224056,"target":34962},{"buffer":0,"byteLength":48,"byteOffset":224104,"target":34962},{"buffer":0,"byteLength":32,"byteOffset":224152,"target":34962},{"buffer":0,"byteLength":6,"byteOffset":224184,"target":34963},{"buffer":0,"byteLength":48,"byteOffset":224192,"target":34962},{"buffer":0,"byteLength":48,"byteOffset":224240,"target":34962},{"buffer":0,"byteLength":32,"byteOffset":224288,"target":34962},{"buffer":0,"byteLength":6,"byteOffset":224320,"target":34963},{"buffer":0,"byteLength":48,"byteOffset":224328,"target":34962},{"buffer":0,"byteLength":48,"byteOffset":224376,"target":34962},{"buffer":0,"byteLength":32,"byteOffset":224424,"target":34962},{"buffer":0,"byteLength":84,"byteOffset":224456,"target":34963},{"buffer":0,"byteLength":720,"byteOffset":224540,"target":34962},{"buffer":0,"byteLength":720,"byteOffset":225260,"target":34962},{"buffer":0,"byteLength":960,"byteOffset":225980,"target":34962},{"buffer":0,"byteLength":480,"byteOffset":226940,"target":34962},{"buffer":0,"byteLength":9840,"byteOffset":227420,"target":34963},{"buffer":0,"byteLength":17088,"byteOffset":237260,"target":34962},{"buffer":0,"byteLength":17088,"byteOffset":254348,"target":34962},{"buffer":0,"byteLength":22784,"byteOffset":271436,"target":34962},{"buffer":0,"byteLength":11392,"byteOffset":294220,"target":34962},{"buffer":0,"byteLength":3072,"byteOffset":305612,"target":34963},{"buffer":0,"byteLength":4752,"byteOffset":308684,"target":34962},{"buffer":0,"byteLength":4752,"byteOffset":313436,"target":34962},{"buffer":0,"byteLength":6336,"byteOffset":318188,"target":34962},{"buffer":0,"byteLength":3168,"byteOffset":324524,"target":34962},{"buffer":0,"byteLength":1596,"byteOffset":327692,"target":34963},{"buffer":0,"byteLength":6384,"byteOffset":329288,"target":34962},{"buffer":0,"byteLength":6384,"byteOffset":335672,"target":34962},{"buffer":0,"byteLength":4256,"byteOffset":342056,"target":34962},{"buffer":0,"byteLength":1932,"byteOffset":346312,"target":34963},{"buffer":0,"byteLength":7728,"byteOffset":348244,"target":34962},{"buffer":0,"byteLength":7728,"byteOffset":355972,"target":34962},{"buffer":0,"byteLength":5152,"byteOffset":363700,"target":34962},{"buffer":0,"byteLength":84,"byteOffset":368852,"target":34963},{"buffer":0,"byteLength":720,"byteOffset":368936,"target":34962},{"buffer":0,"byteLength":720,"byteOffset":369656,"target":34962},{"buffer":0,"byteLength":960,"byteOffset":370376,"target":34962},{"buffer":0,"byteLength":480,"byteOffset":371336,"target":34962},{"buffer":0,"byteLength":9840,"byteOffset":371816,"target":34963},{"buffer":0,"byteLength":17088,"byteOffset":381656,"target":34962},{"buffer":0,"byteLength":17088,"byteOffset":398744,"target":34962},{"buffer":0,"byteLength":22784,"byteOffset":415832,"target":34962},{"buffer":0,"byteLength":11392,"byteOffset":438616,"target":34962},{"buffer":0,"byteLength":3072,"byteOffset":450008,"target":34963},{"buffer":0,"byteLength":4752,"byteOffset":453080,"target":34962},{"buffer":0,"byteLength":4752,"byteOffset":457832,"target":34962},{"buffer":0,"byteLength":6336,"byteOffset":462584,"target":34962},{"buffer":0,"byteLength":3168,"byteOffset":468920,"target":34962},{"buffer":0,"byteLength":798,"byteOffset":472088,"target":34963},{"buffer":0,"byteLength":1824,"byteOffset":472888,"target":34962},{"buffer":0,"byteLength":1824,"byteOffset":474712,"target":34962},{"buffer":0,"byteLength":1216,"byteOffset":476536,"target":34962},{"buffer":0,"byteLength":966,"byteOffset":477752,"target":34963},{"buffer":0,"byteLength":2160,"byteOffset":478720,"target":34962},{"buffer":0,"byteLength":2160,"byteOffset":480880,"target":34962},{"buffer":0,"byteLength":1440,"byteOffset":483040,"target":34962},{"buffer":0,"byteLength":6,"byteOffset":484480,"target":34963},{"buffer":0,"byteLength":48,"byteOffset":484488,"target":34962},{"buffer":0,"byteLength":48,"byteOffset":484536,"target":34962},{"buffer":0,"byteLength":32,"byteOffset":484584,"target":34962},{"buffer":0,"byteLength":6,"byteOffset":484616,"target":34963},{"buffer":0,"byteLength":48,"byteOffset":484624,"target":34962},{"buffer":0,"byteLength":48,"byteOffset":484672,"target":34962},{"buffer":0,"byteLength":32,"byteOffset":484720,"target":34962},{"buffer":0,"byteLength":78,"byteOffset":484752,"target":34963},{"buffer":0,"byteLength":408,"byteOffset":484832,"target":34962},{"buffer":0,"byteLength":408,"byteOffset":485240,"target":34962},{"buffer":0,"byteLength":272,"byteOffset":485648,"target":34962},{"buffer":0,"byteLength":30,"byteOffset":485920,"target":34963},{"buffer":0,"byteLength":216,"byteOffset":485952,"target":34962},{"buffer":0,"byteLength":216,"byteOffset":486168,"target":34962},{"buffer":0,"byteLength":144,"byteOffset":486384,"target":34962},{"buffer":0,"byteLength":144,"byteOffset":486528,"target":34963},{"buffer":0,"byteLength":1152,"byteOffset":486672,"target":34962},{"buffer":0,"byteLength":1152,"byteOffset":487824,"target":34962},{"buffer":0,"byteLength":1536,"byteOffset":488976,"target":34962},{"buffer":0,"byteLength":768,"byteOffset":490512,"target":34962},{"buffer":0,"byteLength":798,"byteOffset":491280,"target":34963},{"buffer":0,"byteLength":1824,"byteOffset":492080,"target":34962},{"buffer":0,"byteLength":1824,"byteOffset":493904,"target":34962},{"buffer":0,"byteLength":1216,"byteOffset":495728,"target":34962},{"buffer":0,"byteLength":966,"byteOffset":496944,"target":34963},{"buffer":0,"byteLength":2160,"byteOffset":497912,"target":34962},{"buffer":0,"byteLength":2160,"byteOffset":500072,"target":34962},{"buffer":0,"byteLength":1440,"byteOffset":502232,"target":34962},{"buffer":0,"byteLength":2916,"byteOffset":503672,"target":34963},{"buffer":0,"byteLength":4152,"byteOffset":506588,"target":34962},{"buffer":0,"byteLength":4152,"byteOffset":510740,"target":34962},{"buffer":0,"byteLength":2768,"byteOffset":514892,"target":34962},{"buffer":0,"byteLength":3780,"byteOffset":517660,"target":34963},{"buffer":0,"byteLength":5016,"byteOffset":521440,"target":34962},{"buffer":0,"byteLength":5016,"byteOffset":526456,"target":34962},{"buffer":0,"byteLength":3344,"byteOffset":531472,"target":34962},{"buffer":0,"byteLength":4164,"byteOffset":534816,"target":34963},{"buffer":0,"byteLength":5904,"byteOffset":538980,"target":34962},{"buffer":0,"byteLength":5904,"byteOffset":544884,"target":34962},{"buffer":0,"byteLength":3936,"byteOffset":550788,"target":34962},{"buffer":0,"byteLength":5412,"byteOffset":554724,"target":34963},{"buffer":0,"byteLength":7152,"byteOffset":560136,"target":34962},{"buffer":0,"byteLength":7152,"byteOffset":567288,"target":34962},{"buffer":0,"byteLength":4768,"byteOffset":574440,"target":34962},{"buffer":0,"byteLength":2916,"byteOffset":579208,"target":34963},{"buffer":0,"byteLength":4152,"byteOffset":582124,"target":34962},{"buffer":0,"byteLength":4152,"byteOffset":586276,"target":34962},{"buffer":0,"byteLength":2768,"byteOffset":590428,"target":34962},{"buffer":0,"byteLength":3780,"byteOffset":593196,"target":34963},{"buffer":0,"byteLength":5016,"byteOffset":596976,"target":34962},{"buffer":0,"byteLength":5016,"byteOffset":601992,"target":34962},{"buffer":0,"byteLength":3344,"byteOffset":607008,"target":34962},{"buffer":0,"byteLength":4164,"byteOffset":610352,"target":34963},{"buffer":0,"byteLength":6864,"byteOffset":614516,"target":34962},{"buffer":0,"byteLength":6864,"byteOffset":621380,"target":34962},{"buffer":0,"byteLength":4576,"byteOffset":628244,"target":34962},{"buffer":0,"byteLength":5412,"byteOffset":632820,"target":34963},{"buffer":0,"byteLength":8112,"byteOffset":638232,"target":34962},{"buffer":0,"byteLength":8112,"byteOffset":646344,"target":34962},{"buffer":0,"byteLength":5408,"byteOffset":654456,"target":34962},{"buffer":0,"byteLength":3072,"byteOffset":659864,"target":34963},{"buffer":0,"byteLength":5232,"byteOffset":662936,"target":34962},{"buffer":0,"byteLength":5232,"byteOffset":668168,"target":34962},{"buffer":0,"byteLength":3488,"byteOffset":673400,"target":34962},{"buffer":0,"byteLength":4008,"byteOffset":676888,"target":34963},{"buffer":0,"byteLength":6240,"byteOffset":680896,"target":34962},{"buffer":0,"byteLength":6240,"byteOffset":687136,"target":34962},{"buffer":0,"byteLength":4160,"byteOffset":693376,"target":34962},{"buffer":0,"byteLength":3072,"byteOffset":697536,"target":34963},{"buffer":0,"byteLength":5232,"byteOffset":700608,"target":34962},{"buffer":0,"byteLength":5232,"byteOffset":705840,"target":34962},{"buffer":0,"byteLength":3488,"byteOffset":711072,"target":34962},{"buffer":0,"byteLength":4008,"byteOffset":714560,"target":34963},{"buffer":0,"byteLength":6240,"byteOffset":718568,"target":34962},{"buffer":0,"byteLength":6240,"byteOffset":724808,"target":34962},{"buffer":0,"byteLength":4160,"byteOffset":731048,"target":34962},{"buffer":0,"byteLength":4644,"byteOffset":735208,"target":34963},{"buffer":0,"byteLength":9840,"byteOffset":739852,"target":34962},{"buffer":0,"byteLength":9840,"byteOffset":749692,"target":34962},{"buffer":0,"byteLength":6560,"byteOffset":759532,"target":34962},{"buffer":0,"byteLength":4860,"byteOffset":766092,"target":34963},{"buffer":0,"byteLength":10248,"byteOffset":770952,"target":34962},{"buffer":0,"byteLength":10248,"byteOffset":781200,"target":34962},{"buffer":0,"byteLength":6832,"byteOffset":791448,"target":34962},{"buffer":0,"byteLength":10188,"byteOffset":798280,"target":34963},{"buffer":0,"byteLength":21684,"byteOffset":808468,"target":34962},{"buffer":0,"byteLength":21684,"byteOffset":830152,"target":34962},{"buffer":0,"byteLength":14456,"byteOffset":851836,"target":34962},{"buffer":0,"byteLength":10872,"byteOffset":866292,"target":34963},{"buffer":0,"byteLength":23028,"byteOffset":877164,"target":34962},{"buffer":0,"byteLength":23028,"byteOffset":900192,"target":34962},{"buffer":0,"byteLength":15352,"byteOffset":923220,"target":34962},{"buffer":0,"byteLength":4728,"byteOffset":938572,"target":34963},{"buffer":0,"byteLength":10008,"byteOffset":943300,"target":34962},{"buffer":0,"byteLength":10008,"byteOffset":953308,"target":34962},{"buffer":0,"byteLength":6672,"byteOffset":963316,"target":34962},{"buffer":0,"byteLength":10950,"byteOffset":969988,"target":34963},{"buffer":0,"byteLength":23220,"byteOffset":980940,"target":34962},{"buffer":0,"byteLength":23220,"byteOffset":1004160,"target":34962},{"buffer":0,"byteLength":15480,"byteOffset":1027380,"target":34962},{"buffer":0,"byteLength":320,"byteOffset":1042860},{"buffer":0,"byteLength":960,"byteOffset":1043180},{"buffer":0,"byteLength":320,"byteOffset":1044140},{"buffer":0,"byteLength":1280,"byteOffset":1044460},{"buffer":0,"byteLength":320,"byteOffset":1045740},{"buffer":0,"byteLength":960,"byteOffset":1046060},{"buffer":0,"byteLength":320,"byteOffset":1047020},{"buffer":0,"byteLength":960,"byteOffset":1047340},{"buffer":0,"byteLength":320,"byteOffset":1048300},{"buffer":0,"byteLength":1280,"byteOffset":1048620},{"buffer":0,"byteLength":320,"byteOffset":1049900},{"buffer":0,"byteLength":960,"byteOffset":1050220}],"buffers":[{"byteLength":1051180,"uri":"Concept Table 1.bin"}],"cameras":[{"extensions":{"S8S_v3d_camera":{"controls":"ORBIT","enablePan":false,"moveSpeed":1.0,"orbitMaxDistance":7.5,"orbitMaxPolarAngle":3.1415927410125732,"orbitMaxZoom":100.0,"orbitMinDistance":1.0,"orbitMinPolarAngle":0.0,"orbitMinZoom":0.009999999776482582,"orbitTarget":[0.0,0.4050000011920929,-0.0],"rotateSpeed":1.0,"viewportFitInitialAspect":1.7777777777777777,"viewportFitType":"AUTO"}},"name":"Camera","perspective":{"aspectRatio":1.7777777777777777,"yfov":0.5033799372418416,"zfar":100.0,"znear":0.10000000149011612},"type":"perspective"}],"extensionsUsed":["S8S_v3d_texture","S8S_v3d_materials","S8S_v3d_camera","S8S_v3d_mesh","S8S_v3d_node","S8S_v3d_animation","S8S_v3d_scene"],"images":[{"uri":"wood.jpg"},{"uri":"Gris acier.jpg"},{"uri":"white_marble.jpg"},{"uri":"Marbre_blanc_brillant.jpg"},{"uri":"marbre_noir.jpg"},{"uri":"Noise.jpg"},{"uri":"shadows.jpg"},{"uri":"Travertin.jpg"},{"uri":"env-metal-8.hdr"}],"materials":[{"alphaMode":"OPAQUE","extensions":{"S8S_v3d_materials":{"gtaoVisible":true,"materialIndex":0,"nodeGraph":{"edges":[{"fromNode":0,"fromOutput":0,"toInput":0,"toNode":1}],"nodes":[{"inputs":[[0.0,0.0,0.0,1.0],0.0,0.5,1.4500000476837158,1.0,[0.0,0.0,0.0],0.0,0.0,[1.0,0.20000000298023224,0.10000000149011612],0.05000000074505806,1.399999976158142,0.0,0.5,[1.0,1.0,1.0,1.0],0.0,0.0,[0.0,0.0,0.0],0.0,0.0,0.029999999329447746,1.5,[1.0,1.0,1.0,1.0],[0.0,0.0,0.0],0.0,0.5,[1.0,1.0,1.0,1.0],[1.0,1.0,1.0,1.0],0.0,0.0,1.3300000429153442],"is_active_output":false,"name":"Principled BSDF","outputs":[[0,0,0,0]],"type":"BSDF_PRINCIPLED_BL"},{"inputs":[[0,0,0,0],[0,0,0,0],[0.0,0.0,0.0],0.0],"is_active_output":true,"name":"Material Output","outputs":[],"type":"OUTPUT_MATERIAL_BL"}]}}},"name":"Black plastic"},{"alphaMode":"OPAQUE","extensions":{"S8S_v3d_materials":{"gtaoVisible":true,"materialIndex":0,"nodeGraph":{"edges":[{"fromNode":0,"fromOutput":0,"toInput":0,"toNode":1}],"nodes":[{"inputs":[[0.0,0.0,0.0,1.0],0.0,0.5,1.5,1.0,[0.0,0.0,0.0],0.0,0.0,[1.0,0.20000000298023224,0.10000000149011612],0.05000000074505806,1.399999976158142,0.0,0.25,[1.0,1.0,1.0,1.0],0.0,0.0,[0.0,0.0,0.0],0.0,0.0,0.029999999329447746,1.5,[1.0,1.0,1.0,1.0],[0.0,0.0,0.0],0.0,0.5,[1.0,1.0,1.0,1.0],[1.0,1.0,1.0,1.0],0.0,0.0,1.3300000429153442],"is_active_output":false,"name":"Principled BSDF","outputs":[[0,0,0,0]],"type":"BSDF_PRINCIPLED_BL"},{"inputs":[[0,0,0,0],[0,0,0,0],[0.0,0.0,0.0],0.0],"is_active_output":true,"name":"Material Output","outputs":[],"type":"OUTPUT_MATERIAL_BL"}]}}},"name":"Black rim"},{"alphaMode":"OPAQUE","extensions":{"S8S_v3d_materials":{"gtaoVisible":true,"materialIndex":0,"nodeGraph":{"edges":[{"fromNode":0,"fromOutput":0,"toInput":0,"toNode":1},{"fromNode":2,"fromOutput":0,"toInput":0,"toNode":0}],"nodes":[{"inputs":[[0.800000011920929,0.800000011920929,0.800000011920929,1.0],0.0,0.5,1.5,1.0,[0.0,0.0,0.0],0.0,0.0,[1.0,0.20000000298023224,0.10000000149011612],0.05000000074505806,1.399999976158142,0.0,0.5,[1.0,1.0,1.0,1.0],0.0,0.0,[0.0,0.0,0.0],0.0,0.0,0.029999999329447746,1.5,[1.0,1.0,1.0,1.0],[0.0,0.0,0.0],0.0,0.5,[1.0,1.0,1.0,1.0],[1.0,1.0,1.0,1.0],0.0,0.0,1.3300000429153442],"is_active_output":false,"name":"Principled BSDF","outputs":[[0,0,0,0]],"type":"BSDF_PRINCIPLED_BL"},{"inputs":[[0,0,0,0],[0,0,0,0],[0.0,0.0,0.0],0.0],"is_active_output":true,"name":"Material Output","outputs":[],"type":"OUTPUT_MATERIAL_BL"},{"alphaMode":"STRAIGHT","inputs":[[0.0,0.0,0.0]],"is_active_output":false,"name":"Image Texture.001","outputs":[[0.800000011920929,0.800000011920929,0.800000011920929,1.0],0.0],"projection":"FLAT","projectionBlend":0.0,"texture":0,"type":"TEX_IMAGE_BL"}]}}},"name":"Bois"},{"alphaMode":"OPAQUE","extensions":{"S8S_v3d_materials":{"gtaoVisible":true,"materialIndex":0,"nodeGraph":{"edges":[{"fromNode":0,"fromOutput":0,"toInput":0,"toNode":1},{"fromNode":2,"fromOutput":0,"toInput":0,"toNode":0}],"nodes":[{"inputs":[[0.800000011920929,0.800000011920929,0.800000011920929,1.0],0.0,0.75,1.4500000476837158,1.0,[0.0,0.0,0.0],0.0,0.0,[1.0,0.20000000298023224,0.10000000149011612],0.05000000074505806,1.399999976158142,0.0,0.5,[1.0,1.0,1.0,1.0],0.0,0.0,[0.0,0.0,0.0],0.0,0.0,0.029999999329447746,1.5,[1.0,1.0,1.0,1.0],[0.0,0.0,0.0],0.0,0.5,[1.0,1.0,1.0,1.0],[1.0,1.0,1.0,1.0],0.0,0.0,1.3300000429153442],"is_active_output":false,"name":"Principled BSDF","outputs":[[0,0,0,0]],"type":"BSDF_PRINCIPLED_BL"},{"inputs":[[0,0,0,0],[0,0,0,0],[0.0,0.0,0.0],0.0],"is_active_output":true,"name":"Material Output","outputs":[],"type":"OUTPUT_MATERIAL_BL"},{"alphaMode":"STRAIGHT","inputs":[[0.0,0.0,0.0]],"is_active_output":false,"name":"Image Texture.002","outputs":[[0.0,0.0,0.0,0.0],0.0],"projection":"FLAT","projectionBlend":0.0,"texture":1,"type":"TEX_IMAGE_BL"}]}}},"name":"Gris acier"},{"alphaMode":"OPAQUE","extensions":{"S8S_v3d_materials":{"gtaoVisible":true,"materialIndex":0,"nodeGraph":{"edges":[{"fromNode":0,"fromOutput":0,"toInput":0,"toNode":1},{"fromNode":2,"fromOutput":0,"toInput":0,"toNode":0}],"nodes":[{"inputs":[[0.800000011920929,0.800000011920929,0.800000011920929,1.0],0.0,0.20000000298023224,1.4500000476837158,1.0,[0.0,0.0,0.0],0.0,0.0,[1.0,0.20000000298023224,0.10000000149011612],0.05000000074505806,1.399999976158142,0.0,0.5,[1.0,1.0,1.0,1.0],0.0,0.0,[0.0,0.0,0.0],0.0,0.0,0.029999999329447746,1.5,[1.0,1.0,1.0,1.0],[0.0,0.0,0.0],0.0,0.5,[1.0,1.0,1.0,1.0],[1.0,1.0,1.0,1.0],0.0,0.0,1.3300000429153442],"is_active_output":false,"name":"Principled BSDF","outputs":[[0,0,0,0]],"type":"BSDF_PRINCIPLED_BL"},{"inputs":[[0,0,0,0],[0,0,0,0],[0.0,0.0,0.0],0.0],"is_active_output":true,"name":"Material Output","outputs":[],"type":"OUTPUT_MATERIAL_BL"},{"alphaMode":"STRAIGHT","inputs":[[0.0,0.0,0.0]],"is_active_output":false,"name":"Image Texture.002","outputs":[[0.0,0.0,0.0,0.0],0.0],"projection":"FLAT","projectionBlend":0.0,"texture":2,"type":"TEX_IMAGE_BL"}]}}},"name":"Marbre blanc"},{"alphaMode":"OPAQUE","extensions":{"S8S_v3d_materials":{"gtaoVisible":true,"materialIndex":0,"nodeGraph":{"edges":[{"fromNode":1,"fromOutput":2,"toInput":1,"toNode":2},{"fromNode":2,"fromOutput":0,"toInput":1,"toNode":3},{"fromNode":3,"fromOutput":0,"toInput":0,"toNode":0},{"fromNode":4,"fromOutput":0,"toInput":0,"toNode":3},{"fromNode":4,"fromOutput":0,"toInput":0,"toNode":1}],"nodes":[{"inputs":[[0,0,0,0],[0,0,0,0],[0.0,0.0,0.0],0.0],"is_active_output":true,"name":"Material Output","outputs":[],"type":"OUTPUT_MATERIAL_BL"},{"inputs":[[0.800000011920929,0.800000011920929,0.800000011920929,1.0]],"is_active_output":false,"mode":"RGB","name":"Separate Color","outputs":[0.0,0.0,0.0],"type":"SEPARATE_COLOR_BL"},{"inputs":[1.0,[0.0,0.0,0.0,1.0]],"is_active_output":false,"name":"Invert Color","outputs":[[0.0,0.0,0.0,0.0]],"type":"INVERT_BL"},{"inputs":[[0.800000011920929,0.800000011920929,0.800000011920929,1.0],0.0,0.0,1.4500000476837158,1.0,[0.0,0.0,0.0],0.0,0.0,[1.0,0.20000000298023224,0.10000000149011612],0.05000000074505806,1.399999976158142,0.0,0.5,[1.0,1.0,1.0,1.0],0.0,0.0,[0.0,0.0,0.0],0.0,0.0,0.029999999329447746,1.5,[1.0,1.0,1.0,1.0],[0.0,0.0,0.0],0.0,0.5,[1.0,1.0,1.0,1.0],[1.0,1.0,1.0,1.0],0.0,0.0,1.3300000429153442],"is_active_output":false,"name":"Principled BSDF","outputs":[[0,0,0,0]],"type":"BSDF_PRINCIPLED_BL"},{"alphaMode":"STRAIGHT","inputs":[[0.0,0.0,0.0]],"is_active_output":false,"name":"Image Texture","outputs":[[0.800000011920929,0.800000011920929,0.800000011920929,1.0],0.0],"projection":"FLAT","projectionBlend":0.0,"texture":3,"type":"TEX_IMAGE_BL"}]}}},"name":"Marbre blanc brillant"},{"alphaMode":"OPAQUE","extensions":{"S8S_v3d_materials":{"gtaoVisible":true,"materialIndex":0,"nodeGraph":{"edges":[{"fromNode":0,"fromOutput":0,"toInput":0,"toNode":1},{"fromNode":2,"fromOutput":0,"toInput":0,"toNode":0}],"nodes":[{"inputs":[[0.800000011920929,0.800000011920929,0.800000011920929,1.0],0.0,0.2181818187236786,1.4500000476837158,1.0,[0.0,0.0,0.0],0.0,0.0,[1.0,0.20000000298023224,0.10000000149011612],0.05000000074505806,1.399999976158142,0.0,0.08636364340782166,[1.0,1.0,1.0,1.0],0.0,0.0,[0.0,0.0,0.0],0.0,0.0,0.029999999329447746,1.5,[1.0,1.0,1.0,1.0],[0.0,0.0,0.0],0.0,0.5,[1.0,1.0,1.0,1.0],[1.0,1.0,1.0,1.0],0.0,0.0,1.3300000429153442],"is_active_output":false,"name":"Principled BSDF","outputs":[[0,0,0,0]],"type":"BSDF_PRINCIPLED_BL"},{"inputs":[[0,0,0,0],[0,0,0,0],[0.0,0.0,0.0],0.0],"is_active_output":true,"name":"Material Output","outputs":[],"type":"OUTPUT_MATERIAL_BL"},{"alphaMode":"STRAIGHT","inputs":[[0.0,0.0,0.0]],"is_active_output":false,"name":"Image Texture.002","outputs":[[0.0,0.0,0.0,0.0],0.0],"projection":"FLAT","projectionBlend":0.0,"texture":4,"type":"TEX_IMAGE_BL"}]}}},"name":"Marbre Noir"},{"alphaMode":"OPAQUE","doubleSided":true,"extensions":{"S8S_v3d_materials":{"gtaoVisible":true,"materialIndex":0,"nodeGraph":{"edges":[{"fromNode":0,"fromOutput":0,"toInput":0,"toNode":1}],"nodes":[{"inputs":[],"is_active_output":false,"name":"RGB","outputs":[[0.011613854207098484,0.11443029344081879,0.40194863080978394,1.0]],"type":"RGB_BL"},{"inputs":[[0,0,0,0],[0,0,0,0],[0.0,0.0,0.0],0.0],"is_active_output":true,"name":"Material Output","outputs":[],"type":"OUTPUT_MATERIAL_BL"}]},"renderSide":"DOUBLE"}},"name":"Mesures"},{"alphaMode":"OPAQUE","extensions":{"S8S_v3d_materials":{"gtaoVisible":true,"materialIndex":0,"nodeGraph":{"edges":[{"fromNode":0,"fromOutput":0,"toInput":0,"toNode":1}],"nodes":[{"inputs":[[0.5,0.5,0.5,1.0],1.0,0.25,1.4500000476837158,1.0,[0.0,0.0,0.0],0.0,0.0,[1.0,0.20000000298023224,0.10000000149011612],0.05000000074505806,1.399999976158142,0.0,0.5,[1.0,1.0,1.0,1.0],0.0,0.0,[0.0,0.0,0.0],0.0,0.0,0.029999999329447746,1.5,[1.0,1.0,1.0,1.0],[0.0,0.0,0.0],0.0,0.5,[1.0,1.0,1.0,1.0],[1.0,1.0,1.0,1.0],0.0,0.0,1.3300000429153442],"is_active_output":false,"name":"Principled BSDF","outputs":[[0,0,0,0]],"type":"BSDF_PRINCIPLED_BL"},{"inputs":[[0,0,0,0],[0,0,0,0],[0.0,0.0,0.0],0.0],"is_active_output":true,"name":"Material Output","outputs":[],"type":"OUTPUT_MATERIAL_BL"}]}}},"name":"Metal"},{"alphaMode":"OPAQUE","extensions":{"S8S_v3d_materials":{"gtaoVisible":true,"materialIndex":0,"nodeGraph":{"edges":[{"fromNode":0,"fromOutput":0,"toInput":0,"toNode":1}],"nodes":[{"inputs":[[0.0,0.0,0.0,1.0],1.0,0.25,1.4500000476837158,1.0,[0.0,0.0,0.0],0.0,0.0,[1.0,0.20000000298023224,0.10000000149011612],0.05000000074505806,1.399999976158142,0.0,0.5,[1.0,1.0,1.0,1.0],0.0,0.0,[0.0,0.0,0.0],0.0,0.0,0.029999999329447746,1.5,[1.0,1.0,1.0,1.0],[0.0,0.0,0.0],0.0,0.5,[1.0,1.0,1.0,1.0],[1.0,1.0,1.0,1.0],0.0,0.0,1.3300000429153442],"is_active_output":false,"name":"Principled BSDF","outputs":[[0,0,0,0]],"type":"BSDF_PRINCIPLED_BL"},{"inputs":[[0,0,0,0],[0,0,0,0],[0.0,0.0,0.0],0.0],"is_active_output":true,"name":"Material Output","outputs":[],"type":"OUTPUT_MATERIAL_BL"}]}}},"name":"Metal black"},{"alphaMode":"OPAQUE","extensions":{"S8S_v3d_materials":{"gtaoVisible":true,"materialIndex":0,"nodeGraph":{"edges":[{"fromNode":0,"fromOutput":0,"toInput":0,"toNode":1},{"fromNode":5,"fromOutput":0,"toInput":1,"toNode":2},{"fromNode":2,"fromOutput":0,"toInput":5,"toNode":0},{"fromNode":3,"fromOutput":0,"toInput":0,"toNode":5},{"fromNode":4,"fromOutput":2,"toInput":0,"toNode":3}],"nodes":[{"inputs":[[0.008332046680152416,0.008332046680152416,0.008332046680152416,1.0],1.0,0.5,1.5,1.0,[0.0,0.0,0.0],0.0,0.0,[1.0,0.20000000298023224,0.10000000149011612],0.05000000074505806,1.399999976158142,0.0,0.5,[1.0,1.0,1.0,1.0],0.0,0.0,[0.0,0.0,0.0],0.0,0.0,0.029999999329447746,1.5,[1.0,1.0,1.0,1.0],[0.0,0.0,0.0],0.0,0.5,[1.0,1.0,1.0,1.0],[1.0,1.0,1.0,1.0],0.0,0.0,1.3300000429153442],"is_active_output":false,"name":"Principled BSDF","outputs":[[0,0,0,0]],"type":"BSDF_PRINCIPLED_BL"},{"inputs":[[0,0,0,0],[0,0,0,0],[0.0,0.0,0.0],0.0],"is_active_output":true,"name":"Material Output","outputs":[],"type":"OUTPUT_MATERIAL_BL"},{"inputs":[0.5,[0.5,0.5,1.0,1.0]],"is_active_output":false,"name":"Normal Map","outputs":[[0.0,0.0,0.0]],"type":"NORMAL_MAP_BL","uvLayer":""},{"inputs":[[0.0,0.0,0.0],[0.0,0.0,0.0],[0.0,0.0,0.0],[1.0,1.0,1.0]],"is_active_output":false,"name":"Mapping","outputs":[[0.0,0.0,0.0]],"type":"MAPPING_BL","vectorType":"POINT"},{"inputs":[],"is_active_output":false,"name":"Texture Coordinate","object":-1,"outputs":[[0.0,0.0,0.0],[0.0,0.0,0.0],[0.0,0.0,0.0],[0.0,0.0,0.0],[0.0,0.0,0.0],[0.0,0.0,0.0],[0.0,0.0,0.0]],"type":"TEX_COORD_BL"},{"alphaMode":"CHANNEL_PACKED","inputs":[[0.0,0.0,0.0]],"is_active_output":false,"name":"Image Texture","outputs":[[0.800000011920929,0.800000011920929,0.800000011920929,1.0],0.0],"projection":"FLAT","projectionBlend":0.0,"texture":5,"type":"TEX_IMAGE_BL"}]}}},"name":"Pied noir"},{"alphaMode":"OPAQUE","extensions":{"S8S_v3d_materials":{"gtaoVisible":true,"materialIndex":0,"nodeGraph":{"edges":[{"fromNode":0,"fromOutput":0,"toInput":0,"toNode":1},{"fromNode":5,"fromOutput":0,"toInput":1,"toNode":2},{"fromNode":2,"fromOutput":0,"toInput":5,"toNode":0},{"fromNode":3,"fromOutput":0,"toInput":0,"toNode":5},{"fromNode":4,"fromOutput":2,"toInput":0,"toNode":3}],"nodes":[{"inputs":[[0.008332046680152416,0.008332046680152416,0.008332046680152416,1.0],1.0,0.5,1.5,1.0,[0.0,0.0,0.0],0.0,0.0,[1.0,0.20000000298023224,0.10000000149011612],0.05000000074505806,1.399999976158142,0.0,0.5,[1.0,1.0,1.0,1.0],0.0,0.0,[0.0,0.0,0.0],0.0,0.0,0.029999999329447746,1.5,[1.0,1.0,1.0,1.0],[0.0,0.0,0.0],0.0,0.5,[1.0,1.0,1.0,1.0],[1.0,1.0,1.0,1.0],0.0,0.0,1.3300000429153442],"is_active_output":false,"name":"Principled BSDF","outputs":[[0,0,0,0]],"type":"BSDF_PRINCIPLED_BL"},{"inputs":[[0,0,0,0],[0,0,0,0],[0.0,0.0,0.0],0.0],"is_active_output":true,"name":"Material Output","outputs":[],"type":"OUTPUT_MATERIAL_BL"},{"inputs":[0.5,[0.5,0.5,1.0,1.0]],"is_active_output":false,"name":"Normal Map","outputs":[[0.0,0.0,0.0]],"type":"NORMAL_MAP_BL","uvLayer":""},{"inputs":[[0.0,0.0,0.0],[0.0,0.0,0.0],[0.0,0.0,0.0],[1.0,1.0,1.0]],"is_active_output":false,"name":"Mapping","outputs":[[0.0,0.0,0.0]],"type":"MAPPING_BL","vectorType":"POINT"},{"inputs":[],"is_active_output":false,"name":"Texture Coordinate","object":-1,"outputs":[[0.0,0.0,0.0],[0.0,0.0,0.0],[0.0,0.0,0.0],[0.0,0.0,0.0],[0.0,0.0,0.0],[0.0,0.0,0.0],[0.0,0.0,0.0]],"type":"TEX_COORD_BL"},{"alphaMode":"CHANNEL_PACKED","inputs":[[0.0,0.0,0.0]],"is_active_output":false,"name":"Image Texture","outputs":[[0.800000011920929,0.800000011920929,0.800000011920929,1.0],0.0],"projection":"FLAT","projectionBlend":0.0,"texture":5,"type":"TEX_IMAGE_BL"}]}}},"name":"Pied noir.001"},{"alphaMode":"BLEND","extensions":{"S8S_v3d_materials":{"gtaoVisible":true,"materialIndex":0,"nodeGraph":{"edges":[{"fromNode":5,"fromOutput":0,"toInput":0,"toNode":6},{"fromNode":1,"fromOutput":0,"toInput":1,"toNode":6},{"fromNode":2,"fromOutput":0,"toInput":2,"toNode":6},{"fromNode":3,"fromOutput":0,"toInput":0,"toNode":5},{"fromNode":4,"fromOutput":2,"toInput":0,"toNode":3},{"fromNode":6,"fromOutput":0,"toInput":0,"toNode":0}],"nodes":[{"inputs":[[0,0,0,0],[0,0,0,0],[0.0,0.0,0.0],0.0],"is_active_output":true,"name":"Material Output","outputs":[],"type":"OUTPUT_MATERIAL_BL"},{"inputs":[[1.0,1.0,1.0,1.0]],"is_active_output":false,"name":"Transparent BSDF","outputs":[[0,0,0,0]],"type":"BSDF_TRANSPARENT_BL"},{"inputs":[],"is_active_output":false,"name":"RGB","outputs":[[0.25,0.25,0.25,1.0]],"type":"RGB_BL"},{"inputs":[[0.0,0.0,0.0],[0.0,0.0,0.0],[0.0,0.0,0.0],[1.0,1.0,1.0]],"is_active_output":false,"name":"Mapping","outputs":[[0.0,0.0,0.0]],"type":"MAPPING_BL","vectorType":"POINT"},{"inputs":[],"is_active_output":false,"name":"Texture Coordinate","object":-1,"outputs":[[0.0,0.0,0.0],[0.0,0.0,0.0],[0.0,0.0,0.0],[0.0,0.0,0.0],[0.0,0.0,0.0],[0.0,0.0,0.0],[0.0,0.0,0.0]],"type":"TEX_COORD_BL"},{"alphaMode":"CHANNEL_PACKED","inputs":[[0.0,0.0,0.0]],"is_active_output":false,"name":"Image Texture","outputs":[[0.0,0.0,0.0,0.0],0.0],"projection":"FLAT","projectionBlend":0.0,"texture":7,"type":"TEX_IMAGE_BL"},{"inputs":[0.5,[0,0,0,0],[0,0,0,0]],"is_active_output":false,"name":"Mix Shader","outputs":[[0,0,0,0]],"type":"MIX_SHADER_BL"}]}}},"name":"shadows"},{"alphaMode":"BLEND","extensions":{"S8S_v3d_materials":{"gtaoVisible":true,"materialIndex":0,"nodeGraph":{"edges":[{"fromNode":0,"fromOutput":0,"toInput":0,"toNode":1}],"nodes":[{"inputs":[[0.0,0.1913527548313141,1.0,1.0],0.0,0.5,1.4500000476837158,0.0,[0.0,0.0,0.0],0.0,0.0,[1.0,0.20000000298023224,0.10000000149011612],0.05000000074505806,1.399999976158142,0.0,0.5,[1.0,1.0,1.0,1.0],0.0,0.0,[0.0,0.0,0.0],0.0,0.0,0.029999999329447746,1.5,[1.0,1.0,1.0,1.0],[0.0,0.0,0.0],0.0,0.5,[1.0,1.0,1.0,1.0],[1.0,1.0,1.0,1.0],0.0,0.0,1.3300000429153442],"is_active_output":false,"name":"Principled BSDF","outputs":[[0,0,0,0]],"type":"BSDF_PRINCIPLED_BL"},{"inputs":[[0,0,0,0],[0,0,0,0],[0.0,0.0,0.0],0.0],"is_active_output":true,"name":"Material Output","outputs":[],"type":"OUTPUT_MATERIAL_BL"}]}}},"name":"transparent"},{"alphaMode":"OPAQUE","extensions":{"S8S_v3d_materials":{"gtaoVisible":true,"materialIndex":0,"nodeGraph":{"edges":[{"fromNode":0,"fromOutput":0,"toInput":0,"toNode":1},{"fromNode":2,"fromOutput":0,"toInput":0,"toNode":0}],"nodes":[{"inputs":[[0.800000011920929,0.800000011920929,0.800000011920929,1.0],0.10000000149011612,0.0,1.5,1.0,[0.0,0.0,0.0],0.0,0.0,[1.0,0.20000000298023224,0.10000000149011612],0.05000000074505806,1.399999976158142,0.0,0.5,[1.0,1.0,1.0,1.0],0.0,0.0,[0.0,0.0,0.0],0.0,0.0,0.029999999329447746,1.5,[1.0,1.0,1.0,1.0],[0.0,0.0,0.0],0.0,0.5,[1.0,1.0,1.0,1.0],[1.0,1.0,1.0,1.0],0.0,0.0,1.3300000429153442],"is_active_output":false,"name":"Principled BSDF","outputs":[[0,0,0,0]],"type":"BSDF_PRINCIPLED_BL"},{"inputs":[[0,0,0,0],[0,0,0,0],[0.0,0.0,0.0],0.0],"is_active_output":true,"name":"Material Output","outputs":[],"type":"OUTPUT_MATERIAL_BL"},{"alphaMode":"STRAIGHT","inputs":[[0.0,0.0,0.0]],"is_active_output":false,"name":"Image Texture","outputs":[[0.800000011920929,0.800000011920929,0.800000011920929,1.0],0.0],"projection":"FLAT","projectionBlend":0.0,"texture":8,"type":"TEX_IMAGE_BL"}]}}},"name":"Travertin"},{"alphaMode":"OPAQUE","extensions":{"S8S_v3d_materials":{"gtaoVisible":true,"materialIndex":0,"nodeGraph":{"edges":[{"fromNode":1,"fromOutput":0,"toInput":0,"toNode":0},{"fromNode":2,"fromOutput":0,"toInput":0,"toNode":1}],"nodes":[{"inputs":[[0,0,0,0],[0,0,0,0]],"is_active_output":true,"name":"World Output","outputs":[],"type":"OUTPUT_WORLD_BL"},{"inputs":[[0.05087608844041824,0.05087608844041824,0.05087608844041824,1.0],1.0],"is_active_output":false,"name":"Background","outputs":[[0,0,0,0]],"type":"BACKGROUND_BL"},{"inputs":[[0.0,0.0,0.0]],"is_active_output":false,"name":"Environment Texture","outputs":[[0.800000011920929,0.800000011920929,0.800000011920929,1.0]],"projection":"EQUIRECTANGULAR","texture":9,"type":"TEX_ENVIRONMENT_BL"}]}}},"name":"Verge3D_Environment_World.001"}],"meshes":[{"extensions":{"S8S_v3d_mesh":{"colorLayers":{},"uvLayers":{"UVMap":"TEXCOORD_0"}}},"name":"Cube.003","primitives":[{"attributes":{"NORMAL":2,"POSITION":1,"TANGENT":3,"TEXCOORD_0":4},"indices":0,"material":10,"mode":4}]},{"extensions":{"S8S_v3d_mesh":{"colorLayers":{},"uvLayers":{"UVMap":"TEXCOORD_0"}}},"name":"Cylinder.001","primitives":[{"attributes":{"NORMAL":7,"POSITION":6,"TEXCOORD_0":8},"indices":5,"material":8,"mode":4},{"attributes":{"NORMAL":11,"POSITION":10,"TEXCOORD_0":12},"indices":9,"material":0,"mode":4}]},{"extensions":{"S8S_v3d_mesh":{"colorLayers":{},"uvLayers":{"UVMap":"TEXCOORD_0"}}},"name":"Cylinder.022","primitives":[{"attributes":{"NORMAL":15,"POSITION":14,"TANGENT":16,"TEXCOORD_0":17},"indices":13,"material":10,"mode":4}]},{"extensions":{"S8S_v3d_mesh":{"colorLayers":{},"uvLayers":{"UVMap":"TEXCOORD_0"}}},"name":"Icosphere","primitives":[{"attributes":{"NORMAL":20,"POSITION":19,"TEXCOORD_0":21},"indices":18,"material":13,"mode":4}]},{"extensions":{"S8S_v3d_mesh":{"colorLayers":{},"uvLayers":{"UVMap":"TEXCOORD_0"}}},"name":"Plane.001","primitives":[{"attributes":{"NORMAL":24,"POSITION":23,"TEXCOORD_0":25},"indices":22,"material":5,"mode":4}]},{"extensions":{"S8S_v3d_mesh":{"colorLayers":{},"uvLayers":{"UVMap":"TEXCOORD_0"}}},"name":"Plane.004","primitives":[{"attributes":{"NORMAL":28,"POSITION":27,"TANGENT":29,"TEXCOORD_0":30},"indices":26,"material":11,"mode":4},{"attributes":{"NORMAL":33,"POSITION":32,"TANGENT":34,"TEXCOORD_0":35},"indices":31,"material":8,"mode":4},{"attributes":{"NORMAL":38,"POSITION":37,"TANGENT":39,"TEXCOORD_0":40},"indices":36,"material":9,"mode":4}]},{"extensions":{"S8S_v3d_mesh":{"colorLayers":{},"uvLayers":{"UVMap":"TEXCOORD_0"}}},"name":"Plane.005","primitives":[{"attributes":{"NORMAL":43,"POSITION":42,"TEXCOORD_0":44},"indices":41,"material":6,"mode":4}]},{"extensions":{"S8S_v3d_mesh":{"colorLayers":{},"uvLayers":{"UVMap":"TEXCOORD_0"}}},"name":"Plane.007","primitives":[{"attributes":{"NORMAL":47,"POSITION":46,"TEXCOORD_0":48},"indices":45,"material":4,"mode":4}]},{"extensions":{"S8S_v3d_mesh":{"colorLayers":{},"uvLayers":{"UVMap":"TEXCOORD_0"}}},"name":"Plane.008","primitives":[{"attributes":{"NORMAL":51,"POSITION":50,"TEXCOORD_0":52},"indices":49,"material":3,"mode":4}]},{"extensions":{"S8S_v3d_mesh":{"colorLayers":{},"uvLayers":{"UVMap":"TEXCOORD_0"}}},"name":"Plane.009","primitives":[{"attributes":{"NORMAL":55,"POSITION":54,"TEXCOORD_0":56},"indices":53,"material":2,"mode":4}]},{"extensions":{"S8S_v3d_mesh":{"colorLayers":{},"uvLayers":{"UVMap":"TEXCOORD_0"}}},"name":"Plane.010","primitives":[{"attributes":{"NORMAL":59,"POSITION":58,"TANGENT":60,"TEXCOORD_0":61},"indices":57,"material":11,"mode":4},{"attributes":{"NORMAL":64,"POSITION":63,"TANGENT":65,"TEXCOORD_0":66},"indices":62,"material":8,"mode":4},{"attributes":{"NORMAL":69,"POSITION":68,"TANGENT":70,"TEXCOORD_0":71},"indices":67,"material":0,"mode":4}]},{"extensions":{"S8S_v3d_mesh":{"colorLayers":{},"uvLayers":{"UVMap":"TEXCOORD_0"}}},"name":"Plane.011","primitives":[{"attributes":{"NORMAL":74,"POSITION":73,"TEXCOORD_0":75},"indices":72,"material":6,"mode":4},{"attributes":{"NORMAL":78,"POSITION":77,"TEXCOORD_0":79},"indices":76,"material":1,"mode":4}]},{"extensions":{"S8S_v3d_mesh":{"colorLayers":{},"uvLayers":{"UVMap":"TEXCOORD_0"}}},"name":"Plane.012","primitives":[{"attributes":{"NORMAL":82,"POSITION":81,"TANGENT":83,"TEXCOORD_0":84},"indices":80,"material":11,"mode":4},{"attributes":{"NORMAL":87,"POSITION":86,"TANGENT":88,"TEXCOORD_0":89},"indices":85,"material":8,"mode":4},{"attributes":{"NORMAL":92,"POSITION":91,"TANGENT":93,"TEXCOORD_0":94},"indices":90,"material":0,"mode":4}]},{"extensions":{"S8S_v3d_mesh":{"colorLayers":{},"uvLayers":{"UVMap":"TEXCOORD_0"}}},"name":"Plane.013","primitives":[{"attributes":{"NORMAL":97,"POSITION":96,"TEXCOORD_0":98},"indices":95,"material":6,"mode":4},{"attributes":{"NORMAL":101,"POSITION":100,"TEXCOORD_0":102},"indices":99,"material":1,"mode":4}]},{"extensions":{"S8S_v3d_mesh":{"colorLayers":{},"uvLayers":{"UVMap":"TEXCOORD_0"}}},"name":"Plane.014","primitives":[{"attributes":{"NORMAL":105,"POSITION":104,"TEXCOORD_0":106},"indices":103,"material":12,"mode":4}]},{"extensions":{"S8S_v3d_mesh":{"colorLayers":{},"uvLayers":{"UVMap":"TEXCOORD_0"}}},"name":"Plane.015","primitives":[{"attributes":{"NORMAL":109,"POSITION":108,"TEXCOORD_0":110},"indices":107,"material":14,"mode":4}]},{"extensions":{"S8S_v3d_mesh":{"colorLayers":{},"uvLayers":{"UVMap":"TEXCOORD_0"}}},"name":"Plane.019","primitives":[{"attributes":{"NORMAL":113,"POSITION":112,"TEXCOORD_0":114},"indices":111,"material":12,"mode":4}]},{"extensions":{"S8S_v3d_mesh":{"colorLayers":{},"uvLayers":{"UVMap":"TEXCOORD_0"}}},"name":"Plane.023","primitives":[{"attributes":{"NORMAL":117,"POSITION":116,"TEXCOORD_0":118},"indices":115,"material":12,"mode":4}]},{"extensions":{"S8S_v3d_mesh":{"colorLayers":{},"uvLayers":{"UVMap":"TEXCOORD_0"}}},"name":"Plane.037","primitives":[{"attributes":{"NORMAL":121,"POSITION":120,"TANGENT":122,"TEXCOORD_0":123},"indices":119,"material":10,"mode":4}]},{"extensions":{"S8S_v3d_mesh":{"colorLayers":{},"uvLayers":{"UVMap":"TEXCOORD_0"}}},"name":"Plateau Rectangle","primitives":[{"attributes":{"NORMAL":126,"POSITION":125,"TEXCOORD_0":127},"indices":124,"material":6,"mode":4},{"attributes":{"NORMAL":130,"POSITION":129,"TEXCOORD_0":131},"indices":128,"material":1,"mode":4}]},{"extensions":{"S8S_v3d_mesh":{"colorLayers":{},"uvLayers":{"UVMap":"TEXCOORD_0"}}},"name":"Plateau Rectangle.003","primitives":[{"attributes":{"NORMAL":134,"POSITION":133,"TEXCOORD_0":135},"indices":132,"material":6,"mode":4},{"attributes":{"NORMAL":138,"POSITION":137,"TEXCOORD_0":139},"indices":136,"material":1,"mode":4}]},{"extensions":{"S8S_v3d_mesh":{"colorLayers":{},"uvLayers":{"UVMap":"TEXCOORD_0"}}},"name":"Plateau Rectangle.005","primitives":[{"attributes":{"NORMAL":142,"POSITION":141,"TEXCOORD_0":143},"indices":140,"material":6,"mode":4},{"attributes":{"NORMAL":146,"POSITION":145,"TEXCOORD_0":147},"indices":144,"material":1,"mode":4}]},{"extensions":{"S8S_v3d_mesh":{"colorLayers":{},"uvLayers":{"UVMap":"TEXCOORD_0"}}},"name":"Plateau Rectangle.007","primitives":[{"attributes":{"NORMAL":150,"POSITION":149,"TEXCOORD_0":151},"indices":148,"material":6,"mode":4},{"attributes":{"NORMAL":154,"POSITION":153,"TEXCOORD_0":155},"indices":152,"material":1,"mode":4}]},{"extensions":{"S8S_v3d_mesh":{"colorLayers":{},"uvLayers":{"UVMap":"TEXCOORD_0"}}},"name":"Plateau Rectangle.011","primitives":[{"attributes":{"NORMAL":158,"POSITION":157,"TEXCOORD_0":159},"indices":156,"material":6,"mode":4},{"attributes":{"NORMAL":162,"POSITION":161,"TEXCOORD_0":163},"indices":160,"material":1,"mode":4}]},{"extensions":{"S8S_v3d_mesh":{"colorLayers":{},"uvLayers":{"UVMap":"TEXCOORD_0"}}},"name":"Plateau Rectangle.012","primitives":[{"attributes":{"NORMAL":166,"POSITION":165,"TEXCOORD_0":167},"indices":164,"material":6,"mode":4},{"attributes":{"NORMAL":170,"POSITION":169,"TEXCOORD_0":171},"indices":168,"material":1,"mode":4}]},{"extensions":{"S8S_v3d_mesh":{"colorLayers":{},"uvLayers":{"UVMap":"TEXCOORD_0"}}},"name":"Plateau Rectangle.013","primitives":[{"attributes":{"NORMAL":174,"POSITION":173,"TEXCOORD_0":175},"indices":172,"material":6,"mode":4},{"attributes":{"NORMAL":178,"POSITION":177,"TEXCOORD_0":179},"indices":176,"material":1,"mode":4}]},{"extensions":{"S8S_v3d_mesh":{"colorLayers":{},"uvLayers":{"UVMap":"TEXCOORD_0"}}},"name":"Text.004","primitives":[{"attributes":{"NORMAL":182,"POSITION":181,"TEXCOORD_0":183},"indices":180,"material":7,"mode":4}]},{"extensions":{"S8S_v3d_mesh":{"colorLayers":{},"uvLayers":{"UVMap":"TEXCOORD_0"}}},"name":"Text.007","primitives":[{"attributes":{"NORMAL":186,"POSITION":185,"TEXCOORD_0":187},"indices":184,"material":7,"mode":4}]},{"extensions":{"S8S_v3d_mesh":{"colorLayers":{},"uvLayers":{"UVMap":"TEXCOORD_0"}}},"name":"Text.013","primitives":[{"attributes":{"NORMAL":190,"POSITION":189,"TEXCOORD_0":191},"indices":188,"material":7,"mode":4}]},{"extensions":{"S8S_v3d_mesh":{"colorLayers":{},"uvLayers":{"UVMap":"TEXCOORD_0"}}},"name":"Text.019","primitives":[{"attributes":{"NORMAL":194,"POSITION":193,"TEXCOORD_0":195},"indices":192,"material":7,"mode":4}]},{"extensions":{"S8S_v3d_mesh":{"colorLayers":{},"uvLayers":{"UVMap":"TEXCOORD_0"}}},"name":"Text.022","primitives":[{"attributes":{"NORMAL":198,"POSITION":197,"TEXCOORD_0":199},"indices":196,"material":7,"mode":4}]},{"extensions":{"S8S_v3d_mesh":{"colorLayers":{},"uvLayers":{"UVMap":"TEXCOORD_0"}}},"name":"Text.028","primitives":[{"attributes":{"NORMAL":202,"POSITION":201,"TEXCOORD_0":203},"indices":200,"material":7,"mode":4}]}],"nodes":[{"extensions":{"S8S_v3d_node":{"frustumCulling":true,"groupNames":["Oval","Plateau"],"hidden":false,"hidpiCompositing":false,"objectColor":[1.0,1.0,1.0,1.0],"objectIndex":0,"renderOrder":0,"useCastShadows":true,"useShadows":true}},"mesh":20,"name":"allonge Oval.001","translation":[-3.2421667128801346e-08,0.7599408626556396,-2.267569243485923e-09]},{"children":[0],"name":"v3d_Proxy_Node_0_allonge Oval.001","translation":[0.8013356924057007,-0.7549400329589844,-0.0]},{"extensions":{"S8S_v3d_node":{"frustumCulling":true,"groupNames":["Plateau","Tonneaux"],"hidden":false,"hidpiCompositing":false,"objectColor":[1.0,1.0,1.0,1.0],"objectIndex":0,"renderOrder":0,"useCastShadows":true,"useShadows":true}},"mesh":23,"name":"Plateau Tonneau","translation":[0.0,0.7599403858184814,-0.0]},{"extensions":{"S8S_v3d_node":{"frustumCulling":true,"groupNames":["PH","Pied"],"hidden":false,"hidpiCompositing":false,"objectColor":[1.0,1.0,1.0,1.0],"objectIndex":0,"renderOrder":0,"useCastShadows":true,"useShadows":true}},"mesh":18,"name":"PH","translation":[-0.4191632866859436,0.6908193230628967,-0.05420256406068802]},{"extensions":{"S8S_v3d_node":{"frustumCulling":true,"groupNames":["Other textures"],"hidden":false,"hidpiCompositing":false,"objectColor":[1.0,1.0,1.0,1.0],"objectIndex":0,"renderOrder":0,"useCastShadows":true,"useShadows":true}},"mesh":15,"name":"Plane.008","scale":[0.03521593287587166,0.03521593287587166,0.03521593287587166],"translation":[0.010532453656196594,0.6531137228012085,-0.0]},{"children":[21,34,44,32],"extensions":{"S8S_v3d_node":{"frustumCulling":true,"groupNames":["Plateau"],"hidden":false,"hidpiCompositing":false,"objectColor":[1.0,1.0,1.0,1.0],"objectIndex":0,"renderOrder":0,"useCastShadows":true}},"name":"Allonge rectangle 1","translation":[0.3988269567489624,0.7415099740028381,-0.0]},{"children":[1,16,10,40],"extensions":{"S8S_v3d_node":{"frustumCulling":true,"groupNames":["Plateau"],"hidden":false,"hidpiCompositing":false,"objectColor":[1.0,1.0,1.0,1.0],"objectIndex":0,"renderOrder":0,"useCastShadows":true}},"name":"Allonge rectangle 2","translation":[-0.39915820956230164,0.7415098547935486,-0.0]},{"extensions":{"S8S_v3d_node":{"frustumCulling":true,"groupNames":["Pied","PV"],"hidden":false,"hidpiCompositing":false,"objectColor":[1.0,1.0,1.0,1.0],"objectIndex":0,"renderOrder":0,"useCastShadows":true,"useShadows":true}},"mesh":0,"name":"PV","scale":[0.14975519478321075,0.14975519478321075,0.16031014919281006],"translation":[0.0,-0.07631787657737732,-1.6610327335797592e-08]},{"extensions":{"S8S_v3d_node":{"frustumCulling":true,"groupNames":["Pied","PX"],"hidden":false,"hidpiCompositing":false,"objectColor":[1.0,1.0,1.0,1.0],"objectIndex":0,"renderOrder":0,"useCastShadows":true,"useShadows":true}},"mesh":2,"name":"PX","translation":[-0.03548179566860199,-0.03586035966873169,-0.45088717341423035]},{"extensions":{"S8S_v3d_node":{"frustumCulling":true,"groupNames":["Base.001"],"hidden":false,"hidpiCompositing":false,"objectColor":[1.0,1.0,1.0,1.0],"objectIndex":0,"renderOrder":0,"useCastShadows":true,"useShadows":true}},"mesh":10,"name":"Plane.001","scale":[1.0,1.0,0.9881289601325989],"translation":[-0.41224056482315063,0.6956709027290344,-0.0]},{"children":[9],"name":"v3d_Proxy_Node_0_Plane.001","translation":[0.39915820956230164,-0.7415098547935486,-0.0]},{"extensions":{"S8S_v3d_node":{"frustumCulling":true,"groupNames":["Mesures"],"hidden":false,"hidpiCompositing":false,"objectColor":[1.0,1.0,1.0,1.0],"objectIndex":0,"renderOrder":0,"useCastShadows":true,"useShadows":true}},"mesh":26,"name":"160","rotation":[0.7071067690849304,0.0,1.5700925641616852e-16,0.7071067690849304],"scale":[0.08950943499803543,0.00036574978730641305,0.08950943499803543],"translation":[0.4736414849758148,0.38524460792541504,0.5558093786239624]},{"extensions":{"S8S_v3d_node":{"frustumCulling":true,"groupNames":["Mesures"],"hidden":false,"hidpiCompositing":false,"objectColor":[1.0,1.0,1.0,1.0],"objectIndex":0,"renderOrder":0,"useCastShadows":true,"useShadows":true}},"mesh":28,"name":"160 allonges","rotation":[0.0,0.7071067690849304,-0.0,0.7071067690849304],"scale":[0.08950943499803543,0.08950943499803543,0.08950943499803543],"translation":[1.358656883239746,0.7595435976982117,0.12147390842437744]},{"extensions":{"S8S_v3d_node":{"frustumCulling":true,"groupNames":["Other textures"],"hidden":false,"hidpiCompositing":false,"objectColor":[1.0,1.0,1.0,1.0],"objectIndex":0,"renderOrder":0,"useCastShadows":true,"useShadows":true}},"mesh":7,"name":"Plane.015","scale":[0.03521593287587166,0.03521593287587166,0.03521593287587166],"translation":[-0.08657099306583405,0.6531137228012085,-0.0]},{"extensions":{"S8S_v3d_node":{"frustumCulling":true,"groupNames":["Other textures"],"hidden":false,"hidpiCompositing":false,"objectColor":[1.0,1.0,1.0,1.0],"objectIndex":0,"renderOrder":0,"useCastShadows":true,"useShadows":true}},"mesh":4,"name":"Plane.009","scale":[0.03521593287587166,0.03521593287587166,0.03521593287587166],"translation":[0.248612642288208,0.6531137228012085,-0.0]},{"extensions":{"S8S_v3d_node":{"frustumCulling":true,"groupNames":["Plateau","Rectangle"],"hidden":false,"hidpiCompositing":false,"objectColor":[1.0,1.0,1.0,1.0],"objectIndex":0,"renderOrder":0,"useCastShadows":true,"useShadows":true}},"mesh":11,"name":"allonge Rectangle.001","translation":[-0.5991582274436951,0.7415098547935486,-5.457047080881239e-08]},{"children":[15],"name":"v3d_Proxy_Node_0_allonge Rectangle.001","translation":[0.39915820956230164,-0.7415098547935486,-0.0]},{"extensions":{"S8S_v3d_node":{"frustumCulling":true,"groupNames":["Pied","PV"],"hidden":false,"hidpiCompositing":false,"objectColor":[1.0,1.0,1.0,1.0],"objectIndex":0,"renderOrder":0,"useCastShadows":true,"useShadows":true}},"mesh":14,"name":"shadow_PV","translation":[0.0,0.0003204089298378676,-0.0]},{"extensions":{"S8S_v3d_node":{"frustumCulling":true,"groupNames":["Mesures"],"hidden":false,"hidpiCompositing":false,"objectColor":[1.0,1.0,1.0,1.0],"objectIndex":0,"renderOrder":0,"useCastShadows":true,"useShadows":true}},"mesh":27,"name":"180","rotation":[0.7071067690849304,0.0,1.5700925641616852e-16,0.7071067690849304],"scale":[0.08950943499803543,0.00036574978730641305,0.08950943499803543],"translation":[0.5935430526733398,0.38524460792541504,0.5558093786239624]},{"extensions":{"S8S_v3d_node":{"frustumCulling":true,"groupNames":["Other textures"],"hidden":false,"hidpiCompositing":false,"objectColor":[1.0,1.0,1.0,1.0],"objectIndex":0,"renderOrder":0,"useCastShadows":true,"useShadows":true}},"mesh":8,"name":"Plane.016","scale":[0.03521593287587166,0.03521593287587166,0.03521593287587166],"translation":[-0.1779155731201172,0.6531137228012085,-0.0]},{"extensions":{"S8S_v3d_node":{"frustumCulling":true,"groupNames":["Plateau","Tonneaux"],"hidden":false,"hidpiCompositing":false,"objectColor":[1.0,1.0,1.0,1.0],"objectIndex":0,"renderOrder":0,"useCastShadows":true,"useShadows":true}},"mesh":25,"name":"allonge tonneau.001","translation":[0.0,0.7599403858184814,-0.0]},{"children":[20],"name":"v3d_Proxy_Node_0_allonge tonneau.001","translation":[-0.80100417137146,-0.7549400329589844,-0.0]},{"extensions":{"S8S_v3d_node":{"frustumCulling":true,"groupNames":["PH","Pied"],"hidden":false,"hidpiCompositing":false,"objectColor":[1.0,1.0,1.0,1.0],"objectIndex":0,"renderOrder":0,"useCastShadows":true,"useShadows":true}},"mesh":16,"name":"Shadows_PH","translation":[0.0,0.0003204089298378676,-0.0]},{"extensions":{"S8S_v3d_node":{"frustumCulling":true,"groupNames":["Base.001"],"hidden":false,"hidpiCompositing":false,"objectColor":[1.0,1.0,1.0,1.0],"objectIndex":0,"renderOrder":0,"useCastShadows":true,"useShadows":true}},"mesh":5,"name":"Plane.004","translation":[0.0,0.6447288393974304,-0.0]},{"extensions":{"S8S_v3d_node":{"frustumCulling":true,"groupNames":["Mesures"],"hidden":false,"hidpiCompositing":false,"objectColor":[1.0,1.0,1.0,1.0],"objectIndex":0,"renderOrder":0,"useCastShadows":true,"useShadows":true}},"mesh":29,"name":"180 allonges","rotation":[0.0,0.7071067690849304,-0.0,0.7071067690849304],"scale":[0.08950943499803543,0.08950943499803543,0.08950943499803543],"translation":[1.5090023279190063,0.7595435976982117,0.12147390842437744]},{"extensions":{"S8S_v3d_node":{"frustumCulling":true,"groupNames":["Other textures"],"hidden":false,"hidpiCompositing":false,"objectColor":[1.0,1.0,1.0,1.0],"objectIndex":0,"renderOrder":0,"useCastShadows":true,"useShadows":true}},"mesh":9,"name":"Plane.017","scale":[0.03521593287587166,0.03521593287587166,0.03521593287587166],"translation":[0.09007156640291214,0.6531137228012085,-0.0]},{"children":[5,6],"extensions":{"S8S_v3d_node":{"frustumCulling":true,"groupNames":["Plateau"],"hidden":false,"hidpiCompositing":false,"objectColor":[1.0,1.0,1.0,1.0],"objectIndex":0,"renderOrder":0,"useCastShadows":true}},"name":"Allonges scale"},{"extensions":{"S8S_v3d_node":{"frustumCulling":true,"groupNames":["Oval","Plateau"],"hidden":false,"hidpiCompositing":false,"objectColor":[1.0,1.0,1.0,1.0],"objectIndex":0,"renderOrder":0,"useCastShadows":true,"useShadows":true}},"mesh":21,"name":"Plateau Oval","scale":[1.0012893676757812,1.0,1.0],"translation":[0.0,0.7599403858184814,-0.0]},{"extensions":{"S8S_v3d_node":{"frustumCulling":true,"groupNames":["Pied","PX"],"hidden":false,"hidpiCompositing":false,"objectColor":[1.0,1.0,1.0,1.0],"objectIndex":0,"renderOrder":0,"useCastShadows":true,"useShadows":true}},"mesh":17,"name":"Shadows_PX","translation":[0.0,0.0003204089298378676,-0.0]},{"extensions":{"S8S_v3d_node":{"frustumCulling":true,"groupNames":["Mesures"],"hidden":false,"hidpiCompositing":false,"objectColor":[1.0,1.0,1.0,1.0],"objectIndex":0,"renderOrder":0,"useCastShadows":true,"useShadows":true}},"mesh":30,"name":"200","rotation":[0.7071067690849304,0.0,1.5700925641616852e-16,0.7071067690849304],"scale":[0.08950943499803543,0.00036574978730641305,0.08950943499803543],"translation":[0.6490811705589294,0.38524460792541504,0.5558093786239624]},{"extensions":{"S8S_v3d_node":{"frustumCulling":true,"groupNames":["Other textures"],"hidden":false,"hidpiCompositing":false,"objectColor":[1.0,1.0,1.0,1.0],"objectIndex":0,"renderOrder":0,"useCastShadows":true,"useShadows":true}},"mesh":6,"name":"Plane.005","scale":[0.03521593287587166,0.03521593287587166,0.03521593287587166],"translation":[0.0,0.6531137228012085,-0.12506894767284393]},{"extensions":{"S8S_v3d_node":{"frustumCulling":true,"groupNames":["Oval","Plateau"],"hidden":false,"hidpiCompositing":false,"objectColor":[1.0,1.0,1.0,1.0],"objectIndex":0,"renderOrder":0,"useCastShadows":true,"useShadows":true}},"mesh":22,"name":"allonge Oval","translation":[-3.2421667128801346e-08,0.7599408626556396,-2.267569243485923e-09]},{"children":[31],"name":"v3d_Proxy_Node_0_allonge Oval","translation":[-0.80100417137146,-0.7549400329589844,-0.0]},{"extensions":{"S8S_v3d_node":{"frustumCulling":true,"groupNames":["Base.001"],"hidden":false,"hidpiCompositing":false,"objectColor":[1.0,1.0,1.0,1.0],"objectIndex":0,"renderOrder":0,"useCastShadows":true,"useShadows":true}},"mesh":12,"name":"Plane.006","scale":[1.0,1.0,0.9881289601325989],"translation":[0.7832401990890503,0.7091010808944702,-1.2883734967772398e-08]},{"children":[33],"name":"v3d_Proxy_Node_0_Plane.006","translation":[-0.80100417137146,-0.7549400329589844,-0.0]},{"extensions":{"S8S_v3d_node":{"frustumCulling":true,"groupNames":["background"],"hidden":false,"hidpiCompositing":false,"objectColor":[1.0,1.0,1.0,1.0],"objectIndex":0,"renderOrder":0,"useCastShadows":true,"useShadows":true}},"mesh":3,"name":"Background","scale":[35.12010955810547,35.12010955810547,35.12010955810547],"translation":[0.0,0.1772039532661438,-0.0]},{"extensions":{"S8S_v3d_node":{"frustumCulling":true,"groupNames":["Mesures"],"hidden":false,"hidpiCompositing":false,"objectColor":[1.0,1.0,1.0,1.0],"objectIndex":0,"renderOrder":0,"useCastShadows":true,"useShadows":true}},"mesh":31,"name":"200 allonges","rotation":[0.0,0.7071067690849304,-0.0,0.7071067690849304],"scale":[0.08950943499803543,0.08950943499803543,0.08950943499803543],"translation":[1.6581913232803345,0.7595435976982117,0.12147390842437744]},{"camera":0,"extensions":{"S8S_v3d_node":{"frustumCulling":true,"groupNames":[],"hidden":false,"hidpiCompositing":false,"objectColor":[0.0,0.0,0.0,0.0],"objectIndex":0,"renderOrder":0,"useCastShadows":true}},"name":"Camera","rotation":[-0.18028271198272705,0.0,0.0,0.9836148619651794],"scale":[1.0,0.9999998807907104,0.9999998807907104],"translation":[0.0,1.85455322265625,3.8215041160583496]},{"extensions":{"S8S_v3d_node":{"frustumCulling":true,"groupNames":["Plateau"],"hidden":false,"hidpiCompositing":false,"objectColor":[1.0,1.0,1.0,1.0],"objectIndex":0,"renderOrder":0,"useCastShadows":true}},"name":"Allonge 1 position"},{"extensions":{"S8S_v3d_node":{"frustumCulling":true,"groupNames":["Plateau","Tonneaux"],"hidden":false,"hidpiCompositing":false,"objectColor":[1.0,1.0,1.0,1.0],"objectIndex":0,"renderOrder":0,"useCastShadows":true,"useShadows":true}},"mesh":24,"name":"allonge tonneau","translation":[0.0,0.7599403858184814,-0.0]},{"children":[39],"name":"v3d_Proxy_Node_0_allonge tonneau","translation":[0.8013356924057007,-0.7549400329589844,-0.0]},{"extensions":{"S8S_v3d_node":{"frustumCulling":true,"groupNames":["Plateau"],"hidden":false,"hidpiCompositing":false,"objectColor":[1.0,1.0,1.0,1.0],"objectIndex":0,"renderOrder":0,"useCastShadows":true}},"name":"Allonge 2 position"},{"extensions":{"S8S_v3d_node":{"frustumCulling":true,"groupNames":["Plateau","Rectangle"],"hidden":false,"hidpiCompositing":false,"objectColor":[1.0,1.0,1.0,1.0],"objectIndex":0,"renderOrder":0,"useCastShadows":true,"useShadows":true}},"mesh":19,"name":"Plateau Rectangle","translation":[0.0,0.7599403858184814,-0.0]},{"extensions":{"S8S_v3d_node":{"frustumCulling":true,"groupNames":["Plateau","Rectangle"],"hidden":false,"hidpiCompositing":false,"objectColor":[1.0,1.0,1.0,1.0],"objectIndex":0,"renderOrder":0,"useCastShadows":true,"useShadows":true}},"mesh":13,"name":"allonge Rectangle","translation":[0.59882652759552,0.7354909777641296,-9.464251604640594e-09]},{"children":[43],"name":"v3d_Proxy_Node_0_allonge Rectangle","translation":[-0.3988269567489624,-0.7354909777641296,-0.0]},{"extensions":{"S8S_v3d_node":{"frustumCulling":true,"groupNames":["Base.001"],"hidden":false,"hidpiCompositing":false,"objectColor":[1.0,1.0,1.0,1.0],"objectIndex":0,"renderOrder":0,"useCastShadows":true,"useShadows":true}},"mesh":1,"name":"Cylinder.002","scale":[0.008886216208338737,0.0014154413947835565,0.008886216208338737],"translation":[-0.340030312538147,0.7165694236755371,-0.20655283331871033]}],"samplers":[{}],"scene":0,"scenes":[{"extensions":{"S8S_v3d_scene":{"aaMethod":"AUTO","iblEnvironmentMode":"PMREM","physicallyCorrectLights":true,"pmremMaxTileSize":256,"postprocessing":[{"bentNormals":false,"distance":0.20000000298023224,"factor":1.0,"precision":0.25,"type":"gtao"}],"shadowMap":{"esmDistanceScale":1.0,"renderReverseSided":false,"renderSingleSided":true,"type":"PCFPOISSON"},"toneMapping":{"exposure":1.0,"type":"filmicBlender"},"worldMaterial":15}},"extras":{"animFrameRate":24,"coordSystem":"Z_UP_RIGHT"},"name":"Scene","nodes":[37,41,38,26,42,27,2,7,17,8,28,3,22,23,45,35,11,12,18,24,29,36,13,19,25,14,30,4]}],"textures":[{"extensions":{"S8S_v3d_texture":{"anisotropy":16,"colorSpace":"srgb"}},"name":"Wood.jpg","sampler":0,"source":0},{"extensions":{"S8S_v3d_texture":{"anisotropy":16,"colorSpace":"srgb"}},"name":"Gris acier.jpg","sampler":0,"source":1},{"extensions":{"S8S_v3d_texture":{"anisotropy":16,"colorSpace":"srgb"}},"name":"white_marble.jpg","sampler":0,"source":2},{"extensions":{"S8S_v3d_texture":{"anisotropy":16,"colorSpace":"srgb"}},"name":"Marbre_blanc_brillant.jpg","sampler":0,"source":3},{"extensions":{"S8S_v3d_texture":{"anisotropy":16,"colorSpace":"srgb"}},"name":"marbre_noir.jpg","sampler":0,"source":4},{"extensions":{"S8S_v3d_texture":{"colorSpace":"non-color"}},"name":"Noise.jpg","sampler":0,"source":5},{"extensions":{"S8S_v3d_texture":{"colorSpace":"non-color"}},"name":"Noise.jpg","sampler":0,"source":5},{"extensions":{"S8S_v3d_texture":{"colorSpace":"non-color"}},"name":"shadows.jpg","sampler":0,"source":6},{"extensions":{"S8S_v3d_texture":{"anisotropy":16,"colorSpace":"srgb"}},"name":"Travertin.jpg","sampler":0,"source":7},{"extensions":{"S8S_v3d_texture":{"colorSpace":"linear rec.709","source":8}},"name":"env-metal-8.hdr","sampler":0}]}
