{"accessors":[{"bufferView":0,"componentType":5121,"count":570,"max":[191],"min":[0],"type":"SCALAR"},{"bufferView":1,"componentType":5126,"count":192,"max":[0.44999998807907104,0.7599999904632568,0.44999998807907104],"min":[-0.44999998807907104,0.7554153203964233,-0.44999998807907104],"type":"VEC3"},{"bufferView":2,"componentType":5126,"count":192,"max":[1.0,1.0,1.0],"min":[-1.0,0.0,-1.0],"type":"VEC3"},{"bufferView":3,"componentType":5126,"count":192,"max":[0.9767688512802124,0.9757969379425049],"min":[0.01742759346961975,0.016455769538879395],"type":"VEC2"},{"bufferView":4,"componentType":5121,"count":570,"max":[191],"min":[0],"type":"SCALAR"},{"bufferView":5,"componentType":5126,"count":192,"max":[0.44999998807907104,0.7554153203964233,0.44999998807907104],"min":[-0.44999998807907104,0.7508307099342346,-0.44999998807907104],"type":"VEC3"},{"bufferView":6,"componentType":5126,"count":192,"max":[1.0,0.0,1.0],"min":[-1.0,-1.0,-1.0],"type":"VEC3"},{"bufferView":7,"componentType":5126,"count":192,"max":[0.9919905066490173,0.9908005595207214],"min":[0.009504526853561401,0.008314788341522217],"type":"VEC2"},{"bufferView":8,"componentType":5121,"count":570,"max":[191],"min":[0],"type":"SCALAR"},{"bufferView":9,"componentType":5126,"count":192,"max":[0.5604318380355835,0.05465203523635864,0.6455482244491577],"min":[-0.3395681381225586,0.050067365169525146,-0.25445178151130676],"type":"VEC3"},{"bufferView":10,"componentType":5126,"count":192,"max":[1.0,1.0,1.0],"min":[-1.0,0.0,-1.0],"type":"VEC3"},{"bufferView":11,"componentType":5126,"count":192,"max":[0.6444162130355835,0.5051451921463013],"min":[0.16474562883377075,0.02547454833984375],"type":"VEC2"},{"bufferView":12,"componentType":5123,"count":954,"max":[255],"min":[0],"type":"SCALAR"},{"bufferView":13,"componentType":5126,"count":256,"max":[0.5604318380355835,0.050067365169525146,0.6455482244491577],"min":[-0.3395681381225586,0.03799468278884888,-0.25445178151130676],"type":"VEC3"},{"bufferView":14,"componentType":5126,"count":256,"max":[1.0,0.0,1.0],"min":[-1.0,-0.991865873336792,-1.0],"type":"VEC3"},{"bufferView":15,"componentType":5126,"count":256,"max":[0.7926520705223083,1.0261354446411133],"min":[0.031542450189590454,0.2650258541107178],"type":"VEC2"},{"bufferView":16,"componentType":5123,"count":1050,"max":[255],"min":[0],"type":"SCALAR"},{"bufferView":17,"componentType":5126,"count":256,"max":[0.1470278948545456,0.04001504182815552,0.14702795445919037],"min":[-0.1470278948545456,0.0,-0.147027850151062],"type":"VEC3"},{"bufferView":18,"componentType":5126,"count":256,"max":[1.0,0.4602062702178955,1.0],"min":[-1.0,-0.9957371354103088,-1.0],"type":"VEC3"},{"bufferView":19,"componentType":5126,"count":256,"max":[0.4473126232624054,0.6021387577056885],"min":[0.1986362338066101,0.3534623384475708],"type":"VEC2"},{"bufferView":20,"componentType":5123,"count":1422,"max":[408],"min":[0],"type":"SCALAR"},{"bufferView":21,"componentType":5126,"count":409,"max":[0.11411865055561066,0.7520756721496582,0.11411865055561066],"min":[-0.11411865055561066,0.40101444721221924,-0.11411865055561066],"type":"VEC3"},{"bufferView":22,"componentType":5126,"count":409,"max":[1.0,0.0,1.0],"min":[-1.0,-1.0,-1.0],"type":"VEC3"},{"bufferView":23,"componentType":5126,"count":409,"max":[1.0,0.5000001192092896],"min":[0.0,0.0],"type":"VEC2"},{"bufferView":24,"componentType":5123,"count":840,"max":[303],"min":[0],"type":"SCALAR"},{"bufferView":25,"componentType":5126,"count":304,"max":[0.30000001192092896,0.025697479024529457,0.30000001192092896],"min":[-0.30000001192092896,0.018641440197825432,-0.30000001192092896],"type":"VEC3"},{"bufferView":26,"componentType":5126,"count":304,"max":[1.0,1.0,1.0],"min":[-1.0,-1.0,-1.0],"type":"VEC3"},{"bufferView":27,"componentType":5126,"count":304,"max":[1.0000001192092896,0.9900000095367432],"min":[0.0,0.0],"type":"VEC2"},{"bufferView":28,"componentType":5123,"count":1026,"max":[361],"min":[0],"type":"SCALAR"},{"bufferView":29,"componentType":5126,"count":362,"max":[0.17691853642463684,0.4065318703651428,0.17682498693466187],"min":[-0.17691853642463684,0.0,-0.17682498693466187],"type":"VEC3"},{"bufferView":30,"componentType":5126,"count":362,"max":[1.0,1.0,1.0],"min":[-1.0,-1.0,-1.0],"type":"VEC3"},{"bufferView":31,"componentType":5126,"count":362,"max":[1.0,1.0],"min":[0.0,0.0],"type":"VEC2"},{"bufferView":32,"componentType":5121,"count":6,"max":[3],"min":[0],"type":"SCALAR"},{"bufferView":33,"componentType":5126,"count":4,"max":[1.0,0.0,1.0],"min":[-1.0,0.0,-1.0],"type":"VEC3"},{"bufferView":34,"componentType":5126,"count":4,"max":[0.0,1.0,-0.0],"min":[0.0,1.0,-0.0],"type":"VEC3"},{"bufferView":35,"componentType":5126,"count":4,"max":[1.0,1.0],"min":[0.0,0.0],"type":"VEC2"},{"bufferView":36,"componentType":5121,"count":6,"max":[3],"min":[0],"type":"SCALAR"},{"bufferView":37,"componentType":5126,"count":4,"max":[1.0,0.0,1.0],"min":[-1.0,0.0,-1.0],"type":"VEC3"},{"bufferView":38,"componentType":5126,"count":4,"max":[0.0,1.0,-0.0],"min":[0.0,1.0,-0.0],"type":"VEC3"},{"bufferView":39,"componentType":5126,"count":4,"max":[1.0,1.0],"min":[0.0,0.0],"type":"VEC2"},{"bufferView":40,"componentType":5121,"count":6,"max":[3],"min":[0],"type":"SCALAR"},{"bufferView":41,"componentType":5126,"count":4,"max":[1.0,0.0,1.0],"min":[-1.0,0.0,-1.0],"type":"VEC3"},{"bufferView":42,"componentType":5126,"count":4,"max":[0.0,1.0,-0.0],"min":[0.0,1.0,-0.0],"type":"VEC3"},{"bufferView":43,"componentType":5126,"count":4,"max":[1.0,1.0],"min":[0.0,0.0],"type":"VEC2"},{"bufferView":44,"componentType":5121,"count":6,"max":[3],"min":[0],"type":"SCALAR"},{"bufferView":45,"componentType":5126,"count":4,"max":[1.0,0.0,1.0],"min":[-1.0,0.0,-1.0],"type":"VEC3"},{"bufferView":46,"componentType":5126,"count":4,"max":[0.0,1.0,-0.0],"min":[0.0,1.0,-0.0],"type":"VEC3"},{"bufferView":47,"componentType":5126,"count":4,"max":[1.0,1.0],"min":[0.0,0.0],"type":"VEC2"},{"bufferView":48,"componentType":5121,"count":6,"max":[3],"min":[0],"type":"SCALAR"},{"bufferView":49,"componentType":5126,"count":4,"max":[1.0,0.0,1.0],"min":[-1.0,0.0,-1.0],"type":"VEC3"},{"bufferView":50,"componentType":5126,"count":4,"max":[0.0,1.0,-0.0],"min":[0.0,1.0,-0.0],"type":"VEC3"},{"bufferView":51,"componentType":5126,"count":4,"max":[1.0,1.0],"min":[0.0,0.0],"type":"VEC2"},{"bufferView":52,"componentType":5121,"count":6,"max":[3],"min":[0],"type":"SCALAR"},{"bufferView":53,"componentType":5126,"count":4,"max":[1.0,0.0,1.0],"min":[-1.0,0.0,-1.0],"type":"VEC3"},{"bufferView":54,"componentType":5126,"count":4,"max":[0.0,1.0,-0.0],"min":[0.0,1.0,-0.0],"type":"VEC3"},{"bufferView":55,"componentType":5126,"count":4,"max":[1.0,1.0],"min":[0.0,0.0],"type":"VEC2"},{"bufferView":56,"componentType":5123,"count":1434,"max":[383],"min":[0],"type":"SCALAR"},{"bufferView":57,"componentType":5126,"count":384,"max":[0.44846224784851074,0.7624804377555847,0.44846224784851074],"min":[-0.44846224784851074,0.7590534687042236,-0.44846224784851074],"type":"VEC3"},{"bufferView":58,"componentType":5126,"count":384,"max":[0.9999123215675354,1.0,0.9999123811721802],"min":[-0.9999123215675354,-0.1022070124745369,-0.9999123811721802],"type":"VEC3"},{"bufferView":59,"componentType":5126,"count":384,"max":[0.9969475269317627,0.9969475269317627],"min":[0.0030525028705596924,0.0030524730682373047],"type":"VEC2"},{"bufferView":60,"componentType":5123,"count":4890,"max":[907],"min":[0],"type":"SCALAR"},{"bufferView":61,"componentType":5126,"count":908,"max":[0.44846224784851074,0.7590535283088684,0.44846224784851074],"min":[-0.44846224784851074,0.7506845593452454,-0.44846224784851074],"type":"VEC3"},{"bufferView":62,"componentType":5126,"count":908,"max":[0.9962735176086426,-0.08606898039579391,0.9962708950042725],"min":[-0.9962735176086426,-1.0,-0.9962708950042725],"type":"VEC3"},{"bufferView":63,"componentType":5126,"count":908,"max":[0.9969475269317627,0.9969475269317627],"min":[0.0030525028705596924,0.0030524730682373047],"type":"VEC2"},{"bufferView":64,"componentType":5123,"count":978,"max":[513],"min":[0],"type":"SCALAR"},{"bufferView":65,"componentType":5126,"count":514,"max":[0.2883838415145874,0.021328523755073547,0.2914709448814392],"min":[-0.2883838415145874,-0.000215115025639534,-0.2883838713169098],"type":"VEC3"},{"bufferView":66,"componentType":5126,"count":514,"max":[1.0,1.0,1.0],"min":[-1.0,-1.0,-1.0],"type":"VEC3"},{"bufferView":67,"componentType":5126,"count":514,"max":[1.0000001192092896,1.0],"min":[0.0,0.0],"type":"VEC2"},{"bufferView":68,"componentType":5123,"count":1368,"max":[463],"min":[0],"type":"SCALAR"},{"bufferView":69,"componentType":5126,"count":464,"max":[0.28998440504074097,0.0899919793009758,0.27621880173683167],"min":[-0.28998440504074097,-0.0010079684434458613,-0.27621883153915405],"type":"VEC3"},{"bufferView":70,"componentType":5126,"count":464,"max":[0.99943608045578,1.0,1.0],"min":[-0.99943608045578,-1.0,-1.0],"type":"VEC3"},{"bufferView":71,"componentType":5126,"count":464,"max":[0.5000000596046448,1.0000003576278687],"min":[-4.750893367599929e-08,-7.152557373046875e-07],"type":"VEC2"},{"bufferView":72,"componentType":5121,"count":6,"max":[3],"min":[0],"type":"SCALAR"},{"bufferView":73,"componentType":5126,"count":4,"max":[1.0,0.0,1.0],"min":[-1.0,0.0,-1.0],"type":"VEC3"},{"bufferView":74,"componentType":5126,"count":4,"max":[0.0,1.0,-0.0],"min":[0.0,1.0,-0.0],"type":"VEC3"},{"bufferView":75,"componentType":5126,"count":4,"max":[1.0,1.0],"min":[0.0,0.0],"type":"VEC2"},{"bufferView":76,"componentType":5121,"count":6,"max":[3],"min":[0],"type":"SCALAR"},{"bufferView":77,"componentType":5126,"count":4,"max":[1.0,0.0,1.0],"min":[-1.0,0.0,-1.0],"type":"VEC3"},{"bufferView":78,"componentType":5126,"count":4,"max":[0.0,1.0,-0.0],"min":[0.0,1.0,-0.0],"type":"VEC3"},{"bufferView":79,"componentType":5126,"count":4,"max":[1.0,1.0],"min":[0.0,0.0],"type":"VEC2"},{"bufferView":80,"componentType":5121,"count":426,"max":[143],"min":[0],"type":"SCALAR"},{"bufferView":81,"componentType":5126,"count":144,"max":[0.6377829313278198,0.053776443004608154,0.6444028615951538],"min":[-0.24589553475379944,0.051677901297807693,-0.24069127440452576],"type":"VEC3"},{"bufferView":82,"componentType":5126,"count":144,"max":[0.9988047480583191,1.0,0.9986839890480042],"min":[-0.9988047480583191,-0.26067906618118286,-0.9986839890480042],"type":"VEC3"},{"bufferView":83,"componentType":5126,"count":144,"max":[0.9792925119400024,0.8165645599365234],"min":[0.2044297307729721,0.04046046733856201],"type":"VEC2"},{"bufferView":84,"componentType":5123,"count":1050,"max":[255],"min":[0],"type":"SCALAR"},{"bufferView":85,"componentType":5126,"count":256,"max":[0.14652545750141144,0.04206812381744385,0.14652539789676666],"min":[-0.14652544260025024,0.0,-0.1465255320072174],"type":"VEC3"},{"bufferView":86,"componentType":5126,"count":256,"max":[1.0,0.45896604657173157,1.0],"min":[-1.0,-0.9957084059715271,-1.0],"type":"VEC3"},{"bufferView":87,"componentType":5126,"count":256,"max":[0.2401680052280426,0.2336885929107666],"min":[0.07724425196647644,0.07076495885848999],"type":"VEC2"},{"bufferView":88,"componentType":5123,"count":1866,"max":[335],"min":[0],"type":"SCALAR"},{"bufferView":89,"componentType":5126,"count":336,"max":[0.6377829313278198,0.051677901297807693,0.6444028615951538],"min":[-0.24589553475379944,0.04096991941332817,-0.24069127440452576],"type":"VEC3"},{"bufferView":90,"componentType":5126,"count":336,"max":[0.972625732421875,-0.22562797367572784,0.9726532101631165],"min":[-0.9726272821426392,-0.9995535016059875,-0.972653865814209],"type":"VEC3"},{"bufferView":91,"componentType":5126,"count":336,"max":[0.9792925119400024,0.8165645599365234],"min":[0.2044297307729721,0.04046046733856201],"type":"VEC2"},{"bufferView":92,"componentType":5121,"count":681,"max":[238],"min":[0],"type":"SCALAR"},{"bufferView":93,"componentType":5126,"count":239,"max":[1.0000247955322266,0.0,50.58434295654297],"min":[-15.645687103271484,-0.0010019035544246435,-1.437709093093872],"type":"VEC3"},{"bufferView":94,"componentType":5126,"count":239,"max":[0.0,1.0,0.0],"min":[-9.999999974752427e-07,1.0,0.0],"type":"VEC3"},{"bufferView":95,"componentType":5126,"count":239,"max":[1.0,1.0],"min":[0.0,0.0],"type":"VEC2"},{"bufferView":96,"componentType":5121,"count":6,"max":[3],"min":[0],"type":"SCALAR"},{"bufferView":97,"componentType":5126,"count":4,"max":[0.4460996091365814,-4.82065552205313e-05,0.4045603573322296],"min":[-0.48318934440612793,-4.82065552205313e-05,-0.4251619279384613],"type":"VEC3"},{"bufferView":98,"componentType":5126,"count":4,"max":[0.0,1.0,-0.0],"min":[0.0,1.0,-0.0],"type":"VEC3"},{"bufferView":99,"componentType":5126,"count":4,"max":[1.0,1.0],"min":[0.0,0.5],"type":"VEC2"},{"bufferView":100,"componentType":5121,"count":6,"max":[3],"min":[0],"type":"SCALAR"},{"bufferView":101,"componentType":5126,"count":4,"max":[0.4135720133781433,-1.3497255167749245e-05,0.35828718543052673],"min":[-0.4271835386753082,-1.3497255167749245e-05,-0.39238741993904114],"type":"VEC3"},{"bufferView":102,"componentType":5126,"count":4,"max":[0.0,1.0,-0.0],"min":[0.0,1.0,-0.0],"type":"VEC3"},{"bufferView":103,"componentType":5126,"count":4,"max":[1.0,0.5],"min":[0.0,0.0],"type":"VEC2"},{"bufferView":104,"componentType":5123,"count":14400,"max":[4887],"min":[0],"type":"SCALAR"},{"bufferView":105,"componentType":5126,"count":4888,"max":[0.6032365560531616,0.7595580816268921,0.6032364964485168],"min":[-0.6032365560531616,0.7595432996749878,-0.6032365560531616],"type":"VEC3"},{"bufferView":106,"componentType":5126,"count":4888,"max":[9.999999747378752e-06,1.0,-0.0],"min":[-1.9999999494757503e-05,1.0,-0.0],"type":"VEC3"},{"bufferView":107,"componentType":5126,"count":4888,"max":[1.0,1.0],"min":[0.0,0.0],"type":"VEC2"},{"bufferView":108,"componentType":5121,"count":576,"max":[209],"min":[0],"type":"SCALAR"},{"bufferView":109,"componentType":5126,"count":210,"max":[-0.42263054847717285,0.4496513605117798,0.0004021028580609709],"min":[-0.6589568257331848,-0.0025137364864349365,0.0003875764668919146],"type":"VEC3"},{"bufferView":110,"componentType":5126,"count":210,"max":[-0.0,-0.0,1.0],"min":[-9.999999974752427e-07,-1.0,-1.0],"type":"VEC3"},{"bufferView":111,"componentType":5126,"count":210,"max":[1.0,1.0],"min":[0.0,0.0],"type":"VEC2"}],"asset":{"generator":"Verge3D for Blender v4.10.0","version":"2.0"},"bufferViews":[{"buffer":0,"byteLength":570,"byteOffset":0,"target":34963},{"buffer":0,"byteLength":2304,"byteOffset":572,"target":34962},{"buffer":0,"byteLength":2304,"byteOffset":2876,"target":34962},{"buffer":0,"byteLength":1536,"byteOffset":5180,"target":34962},{"buffer":0,"byteLength":570,"byteOffset":6716,"target":34963},{"buffer":0,"byteLength":2304,"byteOffset":7288,"target":34962},{"buffer":0,"byteLength":2304,"byteOffset":9592,"target":34962},{"buffer":0,"byteLength":1536,"byteOffset":11896,"target":34962},{"buffer":0,"byteLength":570,"byteOffset":13432,"target":34963},{"buffer":0,"byteLength":2304,"byteOffset":14004,"target":34962},{"buffer":0,"byteLength":2304,"byteOffset":16308,"target":34962},{"buffer":0,"byteLength":1536,"byteOffset":18612,"target":34962},{"buffer":0,"byteLength":1908,"byteOffset":20148,"target":34963},{"buffer":0,"byteLength":3072,"byteOffset":22056,"target":34962},{"buffer":0,"byteLength":3072,"byteOffset":25128,"target":34962},{"buffer":0,"byteLength":2048,"byteOffset":28200,"target":34962},{"buffer":0,"byteLength":2100,"byteOffset":30248,"target":34963},{"buffer":0,"byteLength":3072,"byteOffset":32348,"target":34962},{"buffer":0,"byteLength":3072,"byteOffset":35420,"target":34962},{"buffer":0,"byteLength":2048,"byteOffset":38492,"target":34962},{"buffer":0,"byteLength":2844,"byteOffset":40540,"target":34963},{"buffer":0,"byteLength":4908,"byteOffset":43384,"target":34962},{"buffer":0,"byteLength":4908,"byteOffset":48292,"target":34962},{"buffer":0,"byteLength":3272,"byteOffset":53200,"target":34962},{"buffer":0,"byteLength":1680,"byteOffset":56472,"target":34963},{"buffer":0,"byteLength":3648,"byteOffset":58152,"target":34962},{"buffer":0,"byteLength":3648,"byteOffset":61800,"target":34962},{"buffer":0,"byteLength":2432,"byteOffset":65448,"target":34962},{"buffer":0,"byteLength":2052,"byteOffset":67880,"target":34963},{"buffer":0,"byteLength":4344,"byteOffset":69932,"target":34962},{"buffer":0,"byteLength":4344,"byteOffset":74276,"target":34962},{"buffer":0,"byteLength":2896,"byteOffset":78620,"target":34962},{"buffer":0,"byteLength":6,"byteOffset":81516,"target":34963},{"buffer":0,"byteLength":48,"byteOffset":81524,"target":34962},{"buffer":0,"byteLength":48,"byteOffset":81572,"target":34962},{"buffer":0,"byteLength":32,"byteOffset":81620,"target":34962},{"buffer":0,"byteLength":6,"byteOffset":81652,"target":34963},{"buffer":0,"byteLength":48,"byteOffset":81660,"target":34962},{"buffer":0,"byteLength":48,"byteOffset":81708,"target":34962},{"buffer":0,"byteLength":32,"byteOffset":81756,"target":34962},{"buffer":0,"byteLength":6,"byteOffset":81788,"target":34963},{"buffer":0,"byteLength":48,"byteOffset":81796,"target":34962},{"buffer":0,"byteLength":48,"byteOffset":81844,"target":34962},{"buffer":0,"byteLength":32,"byteOffset":81892,"target":34962},{"buffer":0,"byteLength":6,"byteOffset":81924,"target":34963},{"buffer":0,"byteLength":48,"byteOffset":81932,"target":34962},{"buffer":0,"byteLength":48,"byteOffset":81980,"target":34962},{"buffer":0,"byteLength":32,"byteOffset":82028,"target":34962},{"buffer":0,"byteLength":6,"byteOffset":82060,"target":34963},{"buffer":0,"byteLength":48,"byteOffset":82068,"target":34962},{"buffer":0,"byteLength":48,"byteOffset":82116,"target":34962},{"buffer":0,"byteLength":32,"byteOffset":82164,"target":34962},{"buffer":0,"byteLength":6,"byteOffset":82196,"target":34963},{"buffer":0,"byteLength":48,"byteOffset":82204,"target":34962},{"buffer":0,"byteLength":48,"byteOffset":82252,"target":34962},{"buffer":0,"byteLength":32,"byteOffset":82300,"target":34962},{"buffer":0,"byteLength":2868,"byteOffset":82332,"target":34963},{"buffer":0,"byteLength":4608,"byteOffset":85200,"target":34962},{"buffer":0,"byteLength":4608,"byteOffset":89808,"target":34962},{"buffer":0,"byteLength":3072,"byteOffset":94416,"target":34962},{"buffer":0,"byteLength":9780,"byteOffset":97488,"target":34963},{"buffer":0,"byteLength":10896,"byteOffset":107268,"target":34962},{"buffer":0,"byteLength":10896,"byteOffset":118164,"target":34962},{"buffer":0,"byteLength":7264,"byteOffset":129060,"target":34962},{"buffer":0,"byteLength":1956,"byteOffset":136324,"target":34963},{"buffer":0,"byteLength":6168,"byteOffset":138280,"target":34962},{"buffer":0,"byteLength":6168,"byteOffset":144448,"target":34962},{"buffer":0,"byteLength":4112,"byteOffset":150616,"target":34962},{"buffer":0,"byteLength":2736,"byteOffset":154728,"target":34963},{"buffer":0,"byteLength":5568,"byteOffset":157464,"target":34962},{"buffer":0,"byteLength":5568,"byteOffset":163032,"target":34962},{"buffer":0,"byteLength":3712,"byteOffset":168600,"target":34962},{"buffer":0,"byteLength":6,"byteOffset":172312,"target":34963},{"buffer":0,"byteLength":48,"byteOffset":172320,"target":34962},{"buffer":0,"byteLength":48,"byteOffset":172368,"target":34962},{"buffer":0,"byteLength":32,"byteOffset":172416,"target":34962},{"buffer":0,"byteLength":6,"byteOffset":172448,"target":34963},{"buffer":0,"byteLength":48,"byteOffset":172456,"target":34962},{"buffer":0,"byteLength":48,"byteOffset":172504,"target":34962},{"buffer":0,"byteLength":32,"byteOffset":172552,"target":34962},{"buffer":0,"byteLength":426,"byteOffset":172584,"target":34963},{"buffer":0,"byteLength":1728,"byteOffset":173012,"target":34962},{"buffer":0,"byteLength":1728,"byteOffset":174740,"target":34962},{"buffer":0,"byteLength":1152,"byteOffset":176468,"target":34962},{"buffer":0,"byteLength":2100,"byteOffset":177620,"target":34963},{"buffer":0,"byteLength":3072,"byteOffset":179720,"target":34962},{"buffer":0,"byteLength":3072,"byteOffset":182792,"target":34962},{"buffer":0,"byteLength":2048,"byteOffset":185864,"target":34962},{"buffer":0,"byteLength":3732,"byteOffset":187912,"target":34963},{"buffer":0,"byteLength":4032,"byteOffset":191644,"target":34962},{"buffer":0,"byteLength":4032,"byteOffset":195676,"target":34962},{"buffer":0,"byteLength":2688,"byteOffset":199708,"target":34962},{"buffer":0,"byteLength":681,"byteOffset":202396,"target":34963},{"buffer":0,"byteLength":2868,"byteOffset":203080,"target":34962},{"buffer":0,"byteLength":2868,"byteOffset":205948,"target":34962},{"buffer":0,"byteLength":1912,"byteOffset":208816,"target":34962},{"buffer":0,"byteLength":6,"byteOffset":210728,"target":34963},{"buffer":0,"byteLength":48,"byteOffset":210736,"target":34962},{"buffer":0,"byteLength":48,"byteOffset":210784,"target":34962},{"buffer":0,"byteLength":32,"byteOffset":210832,"target":34962},{"buffer":0,"byteLength":6,"byteOffset":210864,"target":34963},{"buffer":0,"byteLength":48,"byteOffset":210872,"target":34962},{"buffer":0,"byteLength":48,"byteOffset":210920,"target":34962},{"buffer":0,"byteLength":32,"byteOffset":210968,"target":34962},{"buffer":0,"byteLength":28800,"byteOffset":211000,"target":34963},{"buffer":0,"byteLength":58656,"byteOffset":239800,"target":34962},{"buffer":0,"byteLength":58656,"byteOffset":298456,"target":34962},{"buffer":0,"byteLength":39104,"byteOffset":357112,"target":34962},{"buffer":0,"byteLength":576,"byteOffset":396216,"target":34963},{"buffer":0,"byteLength":2520,"byteOffset":396792,"target":34962},{"buffer":0,"byteLength":2520,"byteOffset":399312,"target":34962},{"buffer":0,"byteLength":1680,"byteOffset":401832,"target":34962}],"buffers":[{"byteLength":403512,"uri":"Concept Table Basse.bin"}],"cameras":[{"extensions":{"S8S_v3d_camera":{"controls":"ORBIT","enablePan":true,"moveSpeed":1.0,"orbitMaxDistance":7.0,"orbitMaxPolarAngle":3.1415927410125732,"orbitMaxZoom":100.0,"orbitMinDistance":1.0,"orbitMinPolarAngle":0.0,"orbitMinZoom":0.009999999776482582,"orbitTarget":[0.0,0.2849999964237213,-0.0],"rotateSpeed":1.0,"viewportFitInitialAspect":1.7777777777777777,"viewportFitType":"AUTO"}},"name":"Camera","perspective":{"aspectRatio":1.7777777777777777,"yfov":0.26616738608829865,"zfar":1000.0,"znear":0.10000000149011612},"type":"perspective"}],"extensionsUsed":["S8S_v3d_texture","S8S_v3d_materials","S8S_v3d_camera","S8S_v3d_mesh","S8S_v3d_node","S8S_v3d_scene"],"images":[{"uri":"wood.jpg"},{"uri":"Gris_Acier.jpg"},{"uri":"Marbre_Blanc.jpg"},{"uri":"Marbre_blanc_brillant.jpg"},{"uri":"marbre_noir.jpg"},{"uri":"Shadows.png"},{"uri":"Travertin.jpg"},{"uri":"env-metal-1.hdr"}],"materials":[{"alphaMode":"OPAQUE","extensions":{"S8S_v3d_materials":{"gtaoVisible":true,"materialIndex":0,"nodeGraph":{"edges":[{"fromNode":0,"fromOutput":0,"toInput":0,"toNode":1},{"fromNode":2,"fromOutput":0,"toInput":0,"toNode":0}],"nodes":[{"inputs":[[0.800000011920929,0.800000011920929,0.800000011920929,1.0],0.0,0.5,1.5,1.0,[0.0,0.0,0.0],0.0,0.0,[1.0,0.20000000298023224,0.10000000149011612],0.05000000074505806,1.399999976158142,0.0,0.5,[1.0,1.0,1.0,1.0],0.0,0.0,[0.0,0.0,0.0],0.0,0.0,0.029999999329447746,1.5,[1.0,1.0,1.0,1.0],[0.0,0.0,0.0],0.0,0.5,[1.0,1.0,1.0,1.0],[1.0,1.0,1.0,1.0],0.0,0.0,1.3300000429153442],"is_active_output":false,"name":"Principled BSDF","outputs":[[0,0,0,0]],"type":"BSDF_PRINCIPLED_BL"},{"inputs":[[0,0,0,0],[0,0,0,0],[0.0,0.0,0.0],0.0],"is_active_output":true,"name":"Material Output","outputs":[],"type":"OUTPUT_MATERIAL_BL"},{"alphaMode":"STRAIGHT","inputs":[[0.0,0.0,0.0]],"is_active_output":false,"name":"Image Texture.001","outputs":[[0.0,0.0,0.0,0.0],0.0],"projection":"FLAT","projectionBlend":0.0,"texture":0,"type":"TEX_IMAGE_BL"}]}}},"name":"Bois"},{"alphaMode":"OPAQUE","extensions":{"S8S_v3d_materials":{"gtaoVisible":true,"materialIndex":0,"nodeGraph":{"edges":[{"fromNode":0,"fromOutput":0,"toInput":0,"toNode":1},{"fromNode":2,"fromOutput":0,"toInput":0,"toNode":0}],"nodes":[{"inputs":[[0.800000011920929,0.800000011920929,0.800000011920929,1.0],0.0,0.75,1.4500000476837158,1.0,[0.0,0.0,0.0],0.0,0.0,[1.0,0.20000000298023224,0.10000000149011612],0.05000000074505806,1.399999976158142,0.0,0.5,[1.0,1.0,1.0,1.0],0.0,0.0,[0.0,0.0,0.0],0.0,0.0,0.029999999329447746,1.5,[1.0,1.0,1.0,1.0],[0.0,0.0,0.0],0.0,0.5,[1.0,1.0,1.0,1.0],[1.0,1.0,1.0,1.0],0.0,0.0,1.3300000429153442],"is_active_output":false,"name":"Principled BSDF","outputs":[[0,0,0,0]],"type":"BSDF_PRINCIPLED_BL"},{"inputs":[[0,0,0,0],[0,0,0,0],[0.0,0.0,0.0],0.0],"is_active_output":true,"name":"Material Output","outputs":[],"type":"OUTPUT_MATERIAL_BL"},{"alphaMode":"STRAIGHT","inputs":[[0.0,0.0,0.0]],"is_active_output":false,"name":"Image Texture.002","outputs":[[0.0,0.0,0.0,0.0],0.0],"projection":"FLAT","projectionBlend":0.0,"texture":1,"type":"TEX_IMAGE_BL"}]}}},"name":"Gris acier"},{"alphaMode":"OPAQUE","extensions":{"S8S_v3d_materials":{"gtaoVisible":true,"materialIndex":0,"nodeGraph":{"edges":[{"fromNode":0,"fromOutput":0,"toInput":0,"toNode":1},{"fromNode":2,"fromOutput":0,"toInput":0,"toNode":0}],"nodes":[{"inputs":[[0.800000011920929,0.800000011920929,0.800000011920929,1.0],0.0,0.20000000298023224,1.4500000476837158,1.0,[0.0,0.0,0.0],0.0,0.0,[1.0,0.20000000298023224,0.10000000149011612],0.05000000074505806,1.399999976158142,0.0,0.5,[1.0,1.0,1.0,1.0],0.0,0.0,[0.0,0.0,0.0],0.0,0.0,0.029999999329447746,1.5,[1.0,1.0,1.0,1.0],[0.0,0.0,0.0],0.0,0.5,[1.0,1.0,1.0,1.0],[1.0,1.0,1.0,1.0],0.0,0.0,1.3300000429153442],"is_active_output":false,"name":"Principled BSDF","outputs":[[0,0,0,0]],"type":"BSDF_PRINCIPLED_BL"},{"inputs":[[0,0,0,0],[0,0,0,0],[0.0,0.0,0.0],0.0],"is_active_output":true,"name":"Material Output","outputs":[],"type":"OUTPUT_MATERIAL_BL"},{"alphaMode":"STRAIGHT","inputs":[[0.0,0.0,0.0]],"is_active_output":false,"name":"Image Texture.002","outputs":[[0.0,0.0,0.0,0.0],0.0],"projection":"FLAT","projectionBlend":0.0,"texture":2,"type":"TEX_IMAGE_BL"}]}}},"name":"Marbre blanc"},{"alphaMode":"OPAQUE","extensions":{"S8S_v3d_materials":{"gtaoVisible":true,"materialIndex":0,"nodeGraph":{"edges":[{"fromNode":1,"fromOutput":0,"toInput":0,"toNode":4},{"fromNode":1,"fromOutput":0,"toInput":0,"toNode":2},{"fromNode":2,"fromOutput":2,"toInput":1,"toNode":3},{"fromNode":3,"fromOutput":0,"toInput":1,"toNode":4},{"fromNode":4,"fromOutput":0,"toInput":0,"toNode":0}],"nodes":[{"inputs":[[0,0,0,0],[0,0,0,0],[0.0,0.0,0.0],0.0],"is_active_output":true,"name":"Material Output","outputs":[],"type":"OUTPUT_MATERIAL_BL"},{"alphaMode":"STRAIGHT","inputs":[[0.0,0.0,0.0]],"is_active_output":false,"name":"Image Texture.002","outputs":[[0.0,0.0,0.0,0.0],0.0],"projection":"FLAT","projectionBlend":0.0,"texture":3,"type":"TEX_IMAGE_BL"},{"inputs":[[0.800000011920929,0.800000011920929,0.800000011920929,1.0]],"is_active_output":false,"mode":"RGB","name":"Separate Color","outputs":[0.0,0.0,0.0],"type":"SEPARATE_COLOR_BL"},{"inputs":[1.0,[0.0,0.0,0.0,1.0]],"is_active_output":false,"name":"Invert Color","outputs":[[0.0,0.0,0.0,0.0]],"type":"INVERT_BL"},{"inputs":[[0.800000011920929,0.800000011920929,0.800000011920929,1.0],0.0,0.0,1.4500000476837158,1.0,[0.0,0.0,0.0],0.0,0.0,[1.0,0.20000000298023224,0.10000000149011612],0.05000000074505806,1.399999976158142,0.0,0.5,[1.0,1.0,1.0,1.0],0.0,0.0,[0.0,0.0,0.0],0.0,0.0,0.029999999329447746,1.5,[1.0,1.0,1.0,1.0],[0.0,0.0,0.0],0.0,0.5,[1.0,1.0,1.0,1.0],[1.0,1.0,1.0,1.0],0.0,0.0,1.3300000429153442],"is_active_output":false,"name":"Principled BSDF","outputs":[[0,0,0,0]],"type":"BSDF_PRINCIPLED_BL"}]}}},"name":"Marbre blanc brillant"},{"alphaMode":"OPAQUE","extensions":{"S8S_v3d_materials":{"gtaoVisible":true,"materialIndex":0,"nodeGraph":{"edges":[{"fromNode":0,"fromOutput":0,"toInput":0,"toNode":1},{"fromNode":2,"fromOutput":0,"toInput":0,"toNode":0}],"nodes":[{"inputs":[[0.800000011920929,0.800000011920929,0.800000011920929,1.0],0.0,0.2181818187236786,1.4500000476837158,1.0,[0.0,0.0,0.0],0.0,0.0,[1.0,0.20000000298023224,0.10000000149011612],0.05000000074505806,1.399999976158142,0.0,0.08636364340782166,[1.0,1.0,1.0,1.0],0.0,0.0,[0.0,0.0,0.0],0.0,0.0,0.029999999329447746,1.5,[1.0,1.0,1.0,1.0],[0.0,0.0,0.0],0.0,0.5,[1.0,1.0,1.0,1.0],[1.0,1.0,1.0,1.0],0.0,0.0,1.3300000429153442],"is_active_output":false,"name":"Principled BSDF","outputs":[[0,0,0,0]],"type":"BSDF_PRINCIPLED_BL"},{"inputs":[[0,0,0,0],[0,0,0,0],[0.0,0.0,0.0],0.0],"is_active_output":true,"name":"Material Output","outputs":[],"type":"OUTPUT_MATERIAL_BL"},{"alphaMode":"STRAIGHT","inputs":[[0.0,0.0,0.0]],"is_active_output":false,"name":"Image Texture.002","outputs":[[0.0,0.0,0.0,0.0],0.0],"projection":"FLAT","projectionBlend":0.0,"texture":4,"type":"TEX_IMAGE_BL"}]}}},"name":"Marbre Noir"},{"alphaMode":"OPAQUE","doubleSided":true,"extensions":{"S8S_v3d_materials":{"gtaoVisible":true,"materialIndex":0,"nodeGraph":{"edges":[{"fromNode":1,"fromOutput":0,"toInput":0,"toNode":0}],"nodes":[{"inputs":[[0,0,0,0],[0,0,0,0],[0.0,0.0,0.0],0.0],"is_active_output":true,"name":"Material Output","outputs":[],"type":"OUTPUT_MATERIAL_BL"},{"inputs":[],"is_active_output":false,"name":"RGB","outputs":[[0.011613854207098484,0.11443029344081879,0.40194863080978394,1.0]],"type":"RGB_BL"}]},"renderSide":"DOUBLE"}},"name":"Mesures.001"},{"alphaMode":"OPAQUE","extensions":{"S8S_v3d_materials":{"gtaoVisible":true,"materialIndex":0,"nodeGraph":{"edges":[{"fromNode":0,"fromOutput":0,"toInput":0,"toNode":1}],"nodes":[{"inputs":[[0.015459645539522171,0.015459645539522171,0.015459645539522171,1.0],1.0,0.4000000059604645,1.5,1.0,[0.0,0.0,0.0],0.0,0.0,[1.0,0.20000000298023224,0.10000000149011612],0.05000000074505806,1.399999976158142,0.0,0.6499999761581421,[1.0,1.0,1.0,1.0],0.0,0.0,[0.0,0.0,0.0],0.0,0.0,0.029999999329447746,1.5,[1.0,1.0,1.0,1.0],[0.0,0.0,0.0],0.0,0.5,[1.0,1.0,1.0,1.0],[1.0,1.0,1.0,1.0],0.0,0.0,1.3300000429153442],"is_active_output":false,"name":"Principled BSDF","outputs":[[0,0,0,0]],"type":"BSDF_PRINCIPLED_BL"},{"inputs":[[0,0,0,0],[0,0,0,0],[0.0,0.0,0.0],0.0],"is_active_output":true,"name":"Material Output","outputs":[],"type":"OUTPUT_MATERIAL_BL"}]}}},"name":"Pied noir"},{"alphaMode":"OPAQUE","extensions":{"S8S_v3d_materials":{"gtaoVisible":true,"materialIndex":0,"nodeGraph":{"edges":[{"fromNode":0,"fromOutput":0,"toInput":0,"toNode":1}],"nodes":[{"inputs":[[0.0,0.0,0.0,1.0],0.0,0.0,1.4500000476837158,1.0,[0.0,0.0,0.0],0.0,0.0,[1.0,0.20000000298023224,0.10000000149011612],0.05000000074505806,1.399999976158142,0.0,0.5,[1.0,1.0,1.0,1.0],0.0,0.0,[0.0,0.0,0.0],0.0,0.0,0.029999999329447746,1.5,[1.0,1.0,1.0,1.0],[0.0,0.0,0.0],0.0,0.5,[1.0,1.0,1.0,1.0],[1.0,1.0,1.0,1.0],0.0,0.0,1.3300000429153442],"is_active_output":false,"name":"Principled BSDF","outputs":[[0,0,0,0]],"type":"BSDF_PRINCIPLED_BL"},{"inputs":[[0,0,0,0],[0,0,0,0],[0.0,0.0,0.0],0.0],"is_active_output":true,"name":"Material Output","outputs":[],"type":"OUTPUT_MATERIAL_BL"}]}}},"name":"reflective black"},{"alphaMode":"BLEND","extensions":{"S8S_v3d_materials":{"gtaoVisible":true,"materialIndex":0,"nodeGraph":{"edges":[{"fromNode":5,"fromOutput":0,"toInput":0,"toNode":6},{"fromNode":1,"fromOutput":0,"toInput":1,"toNode":6},{"fromNode":2,"fromOutput":0,"toInput":2,"toNode":6},{"fromNode":3,"fromOutput":0,"toInput":0,"toNode":5},{"fromNode":4,"fromOutput":2,"toInput":0,"toNode":3},{"fromNode":6,"fromOutput":0,"toInput":0,"toNode":0}],"nodes":[{"inputs":[[0,0,0,0],[0,0,0,0],[0.0,0.0,0.0],0.0],"is_active_output":true,"name":"Material Output","outputs":[],"type":"OUTPUT_MATERIAL_BL"},{"inputs":[[1.0,1.0,1.0,1.0]],"is_active_output":false,"name":"Transparent BSDF","outputs":[[0,0,0,0]],"type":"BSDF_TRANSPARENT_BL"},{"inputs":[],"is_active_output":false,"name":"RGB","outputs":[[0.25,0.25,0.25,1.0]],"type":"RGB_BL"},{"inputs":[[0.0,0.0,0.0],[0.0,0.0,0.0],[0.0,0.0,0.0],[1.0,1.0,1.0]],"is_active_output":false,"name":"Mapping","outputs":[[0.0,0.0,0.0]],"type":"MAPPING_BL","vectorType":"POINT"},{"inputs":[],"is_active_output":false,"name":"Texture Coordinate","object":-1,"outputs":[[0.0,0.0,0.0],[0.0,0.0,0.0],[0.0,0.0,0.0],[0.0,0.0,0.0],[0.0,0.0,0.0],[0.0,0.0,0.0],[0.0,0.0,0.0]],"type":"TEX_COORD_BL"},{"alphaMode":"CHANNEL_PACKED","inputs":[[0.0,0.0,0.0]],"is_active_output":false,"name":"Image Texture","outputs":[[0.0,0.0,0.0,0.0],0.0],"projection":"FLAT","projectionBlend":0.0,"texture":5,"type":"TEX_IMAGE_BL"},{"inputs":[0.5,[0,0,0,0],[0,0,0,0]],"is_active_output":false,"name":"Mix Shader","outputs":[[0,0,0,0]],"type":"MIX_SHADER_BL"}]}}},"name":"shadows"},{"alphaMode":"BLEND","extensions":{"S8S_v3d_materials":{"gtaoVisible":true,"materialIndex":0,"nodeGraph":{"edges":[{"fromNode":0,"fromOutput":0,"toInput":0,"toNode":1}],"nodes":[{"inputs":[[0.0,0.1913527548313141,1.0,1.0],0.0,0.5,1.4500000476837158,0.0,[0.0,0.0,0.0],0.0,0.0,[1.0,0.20000000298023224,0.10000000149011612],0.05000000074505806,1.399999976158142,0.0,0.5,[1.0,1.0,1.0,1.0],0.0,0.0,[0.0,0.0,0.0],0.0,0.0,0.029999999329447746,1.5,[1.0,1.0,1.0,1.0],[0.0,0.0,0.0],0.0,0.5,[1.0,1.0,1.0,1.0],[1.0,1.0,1.0,1.0],0.0,0.0,1.3300000429153442],"is_active_output":false,"name":"Principled BSDF","outputs":[[0,0,0,0]],"type":"BSDF_PRINCIPLED_BL"},{"inputs":[[0,0,0,0],[0,0,0,0],[0.0,0.0,0.0],0.0],"is_active_output":true,"name":"Material Output","outputs":[],"type":"OUTPUT_MATERIAL_BL"}]}}},"name":"transparent"},{"alphaMode":"OPAQUE","extensions":{"S8S_v3d_materials":{"gtaoVisible":true,"materialIndex":0,"nodeGraph":{"edges":[{"fromNode":0,"fromOutput":0,"toInput":0,"toNode":1},{"fromNode":2,"fromOutput":0,"toInput":0,"toNode":0}],"nodes":[{"inputs":[[0.800000011920929,0.800000011920929,0.800000011920929,1.0],0.10000000149011612,0.0,1.5,1.0,[0.0,0.0,0.0],0.0,0.0,[1.0,0.20000000298023224,0.10000000149011612],0.05000000074505806,1.399999976158142,0.0,0.5,[1.0,1.0,1.0,1.0],0.0,0.0,[0.0,0.0,0.0],0.0,0.0,0.029999999329447746,1.5,[1.0,1.0,1.0,1.0],[0.0,0.0,0.0],0.0,0.5,[1.0,1.0,1.0,1.0],[1.0,1.0,1.0,1.0],0.0,0.0,1.3300000429153442],"is_active_output":false,"name":"Principled BSDF","outputs":[[0,0,0,0]],"type":"BSDF_PRINCIPLED_BL"},{"inputs":[[0,0,0,0],[0,0,0,0],[0.0,0.0,0.0],0.0],"is_active_output":true,"name":"Material Output","outputs":[],"type":"OUTPUT_MATERIAL_BL"},{"alphaMode":"STRAIGHT","inputs":[[0.0,0.0,0.0]],"is_active_output":false,"name":"Image Texture","outputs":[[0.800000011920929,0.800000011920929,0.800000011920929,1.0],0.0],"projection":"FLAT","projectionBlend":0.0,"texture":6,"type":"TEX_IMAGE_BL"}]}}},"name":"Travertin"},{"alphaMode":"OPAQUE","extensions":{"S8S_v3d_materials":{"gtaoVisible":true,"materialIndex":0,"nodeGraph":{"edges":[{"fromNode":1,"fromOutput":0,"toInput":0,"toNode":0},{"fromNode":2,"fromOutput":0,"toInput":0,"toNode":1}],"nodes":[{"inputs":[[0,0,0,0],[0,0,0,0]],"is_active_output":true,"name":"World Output","outputs":[],"type":"OUTPUT_WORLD_BL"},{"inputs":[[0.05087608844041824,0.05087608844041824,0.05087608844041824,1.0],1.0],"is_active_output":false,"name":"Background","outputs":[[0,0,0,0]],"type":"BACKGROUND_BL"},{"inputs":[[0.0,0.0,0.0]],"is_active_output":false,"name":"Environment Texture","outputs":[[0.0,0.0,0.0,0.0]],"projection":"EQUIRECTANGULAR","texture":7,"type":"TEX_ENVIRONMENT_BL"}]}}},"name":"Verge3D_Environment_World"}],"meshes":[{"extensions":{"S8S_v3d_mesh":{"colorLayers":{},"uvLayers":{"UVMap":"TEXCOORD_0"}}},"name":"Cylinder","primitives":[{"attributes":{"NORMAL":2,"POSITION":1,"TEXCOORD_0":3},"indices":0,"material":0,"mode":4},{"attributes":{"NORMAL":6,"POSITION":5,"TEXCOORD_0":7},"indices":4,"material":7,"mode":4}]},{"extensions":{"S8S_v3d_mesh":{"colorLayers":{},"uvLayers":{"UVMap":"TEXCOORD_0"}}},"name":"Cylinder.001","primitives":[{"attributes":{"NORMAL":10,"POSITION":9,"TEXCOORD_0":11},"indices":8,"material":0,"mode":4},{"attributes":{"NORMAL":14,"POSITION":13,"TEXCOORD_0":15},"indices":12,"material":7,"mode":4},{"attributes":{"NORMAL":18,"POSITION":17,"TEXCOORD_0":19},"indices":16,"material":6,"mode":4}]},{"extensions":{"S8S_v3d_mesh":{"colorLayers":{},"uvLayers":{"UVMap":"TEXCOORD_0"}}},"name":"Cylinder.002","primitives":[{"attributes":{"NORMAL":22,"POSITION":21,"TEXCOORD_0":23},"indices":20,"material":6,"mode":4}]},{"extensions":{"S8S_v3d_mesh":{"colorLayers":{},"uvLayers":{"UVMap":"TEXCOORD_0"}}},"name":"Cylinder.004","primitives":[{"attributes":{"NORMAL":26,"POSITION":25,"TEXCOORD_0":27},"indices":24,"material":6,"mode":4}]},{"extensions":{"S8S_v3d_mesh":{"colorLayers":{},"uvLayers":{"UVMap":"TEXCOORD_0"}}},"name":"Cylinder.016","primitives":[{"attributes":{"NORMAL":30,"POSITION":29,"TEXCOORD_0":31},"indices":28,"material":6,"mode":4}]},{"extensions":{"S8S_v3d_mesh":{"colorLayers":{},"uvLayers":{"UVMap":"TEXCOORD_0"}}},"name":"Plane","primitives":[{"attributes":{"NORMAL":34,"POSITION":33,"TEXCOORD_0":35},"indices":32,"material":9,"mode":4}]},{"extensions":{"S8S_v3d_mesh":{"colorLayers":{},"uvLayers":{"UVMap":"TEXCOORD_0"}}},"name":"Plane.001","primitives":[{"attributes":{"NORMAL":38,"POSITION":37,"TEXCOORD_0":39},"indices":36,"material":5,"mode":4}]},{"extensions":{"S8S_v3d_mesh":{"colorLayers":{},"uvLayers":{"UVMap":"TEXCOORD_0"}}},"name":"Plane.002","primitives":[{"attributes":{"NORMAL":42,"POSITION":41,"TEXCOORD_0":43},"indices":40,"material":4,"mode":4}]},{"extensions":{"S8S_v3d_mesh":{"colorLayers":{},"uvLayers":{"UVMap":"TEXCOORD_0"}}},"name":"Plane.003","primitives":[{"attributes":{"NORMAL":46,"POSITION":45,"TEXCOORD_0":47},"indices":44,"material":2,"mode":4}]},{"extensions":{"S8S_v3d_mesh":{"colorLayers":{},"uvLayers":{"UVMap":"TEXCOORD_0"}}},"name":"Plane.004","primitives":[{"attributes":{"NORMAL":50,"POSITION":49,"TEXCOORD_0":51},"indices":48,"material":0,"mode":4}]},{"extensions":{"S8S_v3d_mesh":{"colorLayers":{},"uvLayers":{"UVMap":"TEXCOORD_0"}}},"name":"Plane.005","primitives":[{"attributes":{"NORMAL":54,"POSITION":53,"TEXCOORD_0":55},"indices":52,"material":3,"mode":4}]},{"extensions":{"S8S_v3d_mesh":{"colorLayers":{},"uvLayers":{"UVMap":"TEXCOORD_0"}}},"name":"Plane.006","primitives":[{"attributes":{"NORMAL":58,"POSITION":57,"TEXCOORD_0":59},"indices":56,"material":0,"mode":4},{"attributes":{"NORMAL":62,"POSITION":61,"TEXCOORD_0":63},"indices":60,"material":7,"mode":4}]},{"extensions":{"S8S_v3d_mesh":{"colorLayers":{},"uvLayers":{"UVMap":"TEXCOORD_0"}}},"name":"Plane.007","primitives":[{"attributes":{"NORMAL":66,"POSITION":65,"TEXCOORD_0":67},"indices":64,"material":6,"mode":4}]},{"extensions":{"S8S_v3d_mesh":{"colorLayers":{},"uvLayers":{"UVMap":"TEXCOORD_0"}}},"name":"Plane.008","primitives":[{"attributes":{"NORMAL":70,"POSITION":69,"TEXCOORD_0":71},"indices":68,"material":6,"mode":4}]},{"extensions":{"S8S_v3d_mesh":{"colorLayers":{},"uvLayers":{"UVMap":"TEXCOORD_0"}}},"name":"Plane.009","primitives":[{"attributes":{"NORMAL":74,"POSITION":73,"TEXCOORD_0":75},"indices":72,"material":1,"mode":4}]},{"extensions":{"S8S_v3d_mesh":{"colorLayers":{},"uvLayers":{"UVMap":"TEXCOORD_0"}}},"name":"Plane.010","primitives":[{"attributes":{"NORMAL":78,"POSITION":77,"TEXCOORD_0":79},"indices":76,"material":10,"mode":4}]},{"extensions":{"S8S_v3d_mesh":{"colorLayers":{},"uvLayers":{"UVMap":"TEXCOORD_0"}}},"name":"Plane.012","primitives":[{"attributes":{"NORMAL":82,"POSITION":81,"TEXCOORD_0":83},"indices":80,"material":0,"mode":4},{"attributes":{"NORMAL":86,"POSITION":85,"TEXCOORD_0":87},"indices":84,"material":6,"mode":4},{"attributes":{"NORMAL":90,"POSITION":89,"TEXCOORD_0":91},"indices":88,"material":7,"mode":4}]},{"extensions":{"S8S_v3d_mesh":{"colorLayers":{},"uvLayers":{"UVMap":"TEXCOORD_0"}}},"name":"Plane.023","primitives":[{"attributes":{"NORMAL":94,"POSITION":93,"TEXCOORD_0":95},"indices":92,"material":5,"mode":4}]},{"extensions":{"S8S_v3d_mesh":{"colorLayers":{},"uvLayers":{"UVMap":"TEXCOORD_0"}}},"name":"Shadows","primitives":[{"attributes":{"NORMAL":98,"POSITION":97,"TEXCOORD_0":99},"indices":96,"material":8,"mode":4}]},{"extensions":{"S8S_v3d_mesh":{"colorLayers":{},"uvLayers":{"UVMap":"TEXCOORD_0"}}},"name":"Shadows.001","primitives":[{"attributes":{"NORMAL":102,"POSITION":101,"TEXCOORD_0":103},"indices":100,"material":8,"mode":4}]},{"extensions":{"S8S_v3d_mesh":{"colorLayers":{},"uvLayers":{"UVMap":"TEXCOORD_0"}}},"name":"Text.002","primitives":[{"attributes":{"NORMAL":106,"POSITION":105,"TEXCOORD_0":107},"indices":104,"material":5,"mode":4}]},{"extensions":{"S8S_v3d_mesh":{"colorLayers":{},"uvLayers":{"UVMap":"TEXCOORD_0"}}},"name":"Text.005","primitives":[{"attributes":{"NORMAL":110,"POSITION":109,"TEXCOORD_0":111},"indices":108,"material":5,"mode":4}]}],"nodes":[{"extensions":{"S8S_v3d_node":{"frustumCulling":true,"groupNames":["rond"],"hidden":false,"hidpiCompositing":false,"objectColor":[1.0,1.0,1.0,1.0],"objectIndex":0,"renderOrder":0,"useCastShadows":true,"useShadows":true}},"mesh":0,"name":"Plateau Rond"},{"children":[16,18,21,0,6],"extensions":{"S8S_v3d_node":{"frustumCulling":true,"groupNames":["Base"],"hidden":false,"hidpiCompositing":false,"objectColor":[1.0,1.0,1.0,1.0],"objectIndex":0,"renderOrder":0,"useCastShadows":true,"useShadows":true}},"mesh":2,"name":"Base_piston","translation":[0.0,-0.30000001192092896,-0.0]},{"extensions":{"S8S_v3d_node":{"frustumCulling":true,"groupNames":["other textures"],"hidden":false,"hidpiCompositing":false,"objectColor":[1.0,1.0,1.0,1.0],"objectIndex":0,"renderOrder":0,"useCastShadows":true,"useShadows":true}},"mesh":5,"name":"Plane","scale":[0.0027283625677227974,0.0027283625677227974,0.0027283625677227974],"translation":[-4.3142183874131946e-17,0.19429512321949005,-0.0033796261996030807]},{"camera":0,"extensions":{"S8S_v3d_node":{"frustumCulling":true,"groupNames":[],"hidden":false,"hidpiCompositing":false,"objectColor":[1.0,1.0,1.0,1.0],"objectIndex":0,"renderOrder":0,"useCastShadows":true}},"name":"Camera","rotation":[-0.15017104148864746,-4.0201755319852945e-17,-6.106395347196097e-18,0.9886600375175476],"scale":[1.0,0.9999999403953552,0.9999999403953552],"translation":[-4.191567421080731e-16,1.887714147567749,5.154048919677734]},{"extensions":{"S8S_v3d_node":{"frustumCulling":true,"groupNames":["Mesures"],"hidden":false,"hidpiCompositing":false,"objectColor":[1.0,1.0,1.0,1.0],"objectIndex":0,"renderOrder":0,"useCastShadows":true,"useShadows":true}},"mesh":21,"name":"Mesure_bas"},{"extensions":{"S8S_v3d_node":{"frustumCulling":true,"groupNames":["carré"],"hidden":false,"hidpiCompositing":false,"objectColor":[1.0,1.0,1.0,1.0],"objectIndex":0,"renderOrder":0,"useCastShadows":true,"useShadows":true}},"mesh":18,"name":"Shadows carré"},{"extensions":{"S8S_v3d_node":{"frustumCulling":true,"groupNames":["rangement"],"hidden":false,"hidpiCompositing":false,"objectColor":[1.0,1.0,1.0,1.0],"objectIndex":0,"renderOrder":0,"useCastShadows":true,"useShadows":true}},"mesh":13,"name":"rangement","translation":[0.0,0.6607517004013062,-0.0]},{"extensions":{"S8S_v3d_node":{"frustumCulling":true,"groupNames":["other textures"],"hidden":false,"hidpiCompositing":false,"objectColor":[1.0,1.0,1.0,1.0],"objectIndex":0,"renderOrder":0,"useCastShadows":true,"useShadows":true}},"mesh":6,"name":"Plane.003","scale":[0.0027283625677227974,0.0027283625677227974,0.0027283625677227974],"translation":[-0.006438648793846369,0.19429512321949005,-0.0034303241409361362]},{"extensions":{"S8S_v3d_node":{"frustumCulling":true,"groupNames":["other textures"],"hidden":false,"hidpiCompositing":false,"objectColor":[1.0,1.0,1.0,1.0],"objectIndex":0,"renderOrder":0,"useCastShadows":true,"useShadows":true}},"mesh":15,"name":"Plane.001","scale":[0.0027283625677227974,0.0027283625677227974,0.0027283625677227974],"translation":[-0.006438648793846369,0.19429512321949005,0.00972643680870533]},{"extensions":{"S8S_v3d_node":{"frustumCulling":true,"groupNames":["Mesures"],"hidden":false,"hidpiCompositing":false,"objectColor":[1.0,1.0,1.0,1.0],"objectIndex":0,"renderOrder":0,"useCastShadows":true,"useShadows":true}},"mesh":17,"name":"Mesure_haut","rotation":[0.7071067690849304,-1.8711767779677757e-07,-6.348320624738335e-08,0.7071067094802856],"scale":[0.014449642039835453,0.014449642039835453,0.014449642039835453],"translation":[-0.4371294677257538,0.7284119129180908,0.0004021003842353821]},{"extensions":{"S8S_v3d_node":{"frustumCulling":true,"groupNames":["rond"],"hidden":false,"hidpiCompositing":false,"objectColor":[1.0,1.0,1.0,1.0],"objectIndex":0,"renderOrder":0,"useCastShadows":true,"useShadows":true}},"mesh":19,"name":"Shadows rond"},{"extensions":{"S8S_v3d_node":{"frustumCulling":true,"groupNames":["other textures"],"hidden":false,"hidpiCompositing":false,"objectColor":[1.0,1.0,1.0,1.0],"objectIndex":0,"renderOrder":0,"useCastShadows":true,"useShadows":true}},"mesh":7,"name":"Plane.004","scale":[0.0027283625677227974,0.0027283625677227974,0.0027283625677227974],"translation":[0.006438648793846369,0.19429512321949005,-0.0032275321427732706]},{"extensions":{"S8S_v3d_node":{"frustumCulling":true,"groupNames":["other textures"],"hidden":false,"hidpiCompositing":false,"objectColor":[1.0,1.0,1.0,1.0],"objectIndex":0,"renderOrder":0,"useCastShadows":true,"useShadows":true}},"mesh":8,"name":"Plane.005","scale":[0.0027283625677227974,0.0027283625677227974,0.0027283625677227974],"translation":[0.0001013960427371785,0.19429512321949005,0.003211116883903742]},{"extensions":{"S8S_v3d_node":{"frustumCulling":true,"groupNames":["Mesures"],"hidden":false,"hidpiCompositing":false,"objectColor":[1.0,1.0,1.0,1.0],"objectIndex":0,"renderOrder":0,"useCastShadows":true,"useShadows":true}},"mesh":20,"name":"Mesures","translation":[0.0,-0.30000001192092896,-0.0]},{"extensions":{"S8S_v3d_node":{"frustumCulling":true,"groupNames":["carré"],"hidden":false,"hidpiCompositing":false,"objectColor":[1.0,1.0,1.0,1.0],"objectIndex":0,"renderOrder":0,"useCastShadows":true,"useShadows":true}},"mesh":12,"name":"Peid carré","scale":[1.0292620658874512,0.3251154124736786,1.0292620658874512],"translation":[9.094947017729282e-13,0.018634654581546783,-7.275957614183426e-12]},{"extensions":{"S8S_v3d_node":{"frustumCulling":true,"groupNames":["other textures"],"hidden":false,"hidpiCompositing":false,"objectColor":[1.0,1.0,1.0,1.0],"objectIndex":0,"renderOrder":0,"useCastShadows":true,"useShadows":true}},"mesh":9,"name":"Plane.006","scale":[0.0027283625677227974,0.0027283625677227974,0.0027283625677227974],"translation":[-0.006337252911180258,0.19429512321949005,0.0031604189425706863]},{"extensions":{"S8S_v3d_node":{"frustumCulling":true,"groupNames":["carré"],"hidden":false,"hidpiCompositing":false,"objectColor":[1.0,1.0,1.0,1.0],"objectIndex":0,"renderOrder":0,"useCastShadows":true,"useShadows":true}},"mesh":16,"name":"Petit plateau carré","scale":[0.5017144680023193,1.0,0.5017144680023193],"translation":[-0.30799514055252075,0.7580682039260864,-0.313842236995697]},{"extensions":{"S8S_v3d_node":{"frustumCulling":true,"groupNames":["other textures"],"hidden":false,"hidpiCompositing":false,"objectColor":[1.0,1.0,1.0,1.0],"objectIndex":0,"renderOrder":0,"useCastShadows":true,"useShadows":true}},"mesh":10,"name":"Plane.007","scale":[0.0027283625677227974,0.0027283625677227974,0.0027283625677227974],"translation":[0.00654004467651248,0.19429512321949005,0.003363210940733552]},{"extensions":{"S8S_v3d_node":{"frustumCulling":true,"groupNames":["rond"],"hidden":false,"hidpiCompositing":false,"objectColor":[1.0,1.0,1.0,1.0],"objectIndex":0,"renderOrder":0,"useCastShadows":true,"useShadows":true}},"mesh":1,"name":"Petit_Plateau_Rond","scale":[0.5,1.0,0.5],"translation":[-0.14201048016548157,0.7580682039260864,-0.3143131136894226]},{"extensions":{"S8S_v3d_node":{"frustumCulling":true,"groupNames":["other textures"],"hidden":false,"hidpiCompositing":false,"objectColor":[1.0,1.0,1.0,1.0],"objectIndex":0,"renderOrder":0,"useCastShadows":true,"useShadows":true}},"mesh":14,"name":"Plane.008","scale":[0.0027283625677227974,0.0027283625677227974,0.0027283625677227974],"translation":[5.069802136858925e-05,0.19429512321949005,0.009345578029751778]},{"extensions":{"S8S_v3d_node":{"frustumCulling":true,"groupNames":["rond"],"hidden":false,"hidpiCompositing":false,"objectColor":[1.0,1.0,1.0,1.0],"objectIndex":0,"renderOrder":0,"useCastShadows":true,"useShadows":true}},"mesh":3,"name":"Pied_rond"},{"extensions":{"S8S_v3d_node":{"frustumCulling":true,"groupNames":["carré"],"hidden":false,"hidpiCompositing":false,"objectColor":[1.0,1.0,1.0,1.0],"objectIndex":0,"renderOrder":0,"useCastShadows":true,"useShadows":true}},"mesh":11,"name":"plateau carré"},{"extensions":{"S8S_v3d_node":{"frustumCulling":true,"groupNames":["Base"],"hidden":false,"hidpiCompositing":false,"objectColor":[1.0,1.0,1.0,1.0],"objectIndex":0,"renderOrder":0,"useCastShadows":true,"useShadows":true}},"mesh":4,"name":"Base_pied"}],"samplers":[{}],"scene":0,"scenes":[{"extensions":{"S8S_v3d_scene":{"aaMethod":"AUTO","iblEnvironmentMode":"PMREM","physicallyCorrectLights":true,"pmremMaxTileSize":512,"shadowMap":{"esmDistanceScale":1.0,"renderReverseSided":false,"renderSingleSided":false,"type":"PCFPOISSON"},"worldMaterial":11}},"extras":{"animFrameRate":24,"coordSystem":"Z_UP_RIGHT"},"name":"Scene","nodes":[3,4,9,13,20,10,14,5,1,22,2,7,11,12,15,17,19,8]}],"textures":[{"extensions":{"S8S_v3d_texture":{"anisotropy":16,"colorSpace":"srgb"}},"name":"wood.jpg","sampler":0,"source":0},{"extensions":{"S8S_v3d_texture":{"anisotropy":16,"colorSpace":"srgb"}},"name":"Gris_Acier.jpg","sampler":0,"source":1},{"extensions":{"S8S_v3d_texture":{"anisotropy":16,"colorSpace":"srgb"}},"name":"Marbre_Blanc.jpg","sampler":0,"source":2},{"extensions":{"S8S_v3d_texture":{"anisotropy":16,"colorSpace":"srgb"}},"name":"Marbre_blanc_brillant.jpg","sampler":0,"source":3},{"extensions":{"S8S_v3d_texture":{"anisotropy":16,"colorSpace":"srgb"}},"name":"marbre_noir.jpg.001","sampler":0,"source":4},{"extensions":{"S8S_v3d_texture":{"colorSpace":"non-color"}},"name":"Shadows.png","sampler":0,"source":5},{"extensions":{"S8S_v3d_texture":{"anisotropy":16,"colorSpace":"srgb"}},"name":"Travertin.jpg","sampler":0,"source":6},{"extensions":{"S8S_v3d_texture":{"colorSpace":"linear rec.709","source":7}},"name":"env-metal-1.hdr","sampler":0}]}
