{"accessors":[{"bufferView":0,"componentType":5121,"count":6,"max":[3],"min":[0],"type":"SCALAR"},{"bufferView":1,"componentType":5126,"count":4,"max":[1.0,0.0,1.0],"min":[-1.0,0.0,-1.0],"type":"VEC3"},{"bufferView":2,"componentType":5126,"count":4,"max":[0.0,1.0,-0.0],"min":[0.0,1.0,-0.0],"type":"VEC3"},{"bufferView":3,"componentType":5126,"count":4,"max":[1.0,1.0],"min":[0.0,0.0],"type":"VEC2"},{"bufferView":4,"componentType":5121,"count":6,"max":[3],"min":[0],"type":"SCALAR"},{"bufferView":5,"componentType":5126,"count":4,"max":[1.0,0.0,1.0],"min":[-1.0,0.0,-1.0],"type":"VEC3"},{"bufferView":6,"componentType":5126,"count":4,"max":[0.0,1.0,-0.0],"min":[0.0,1.0,-0.0],"type":"VEC3"},{"bufferView":7,"componentType":5126,"count":4,"max":[1.0,1.0],"min":[0.0,0.0],"type":"VEC2"},{"bufferView":8,"componentType":5121,"count":6,"max":[3],"min":[0],"type":"SCALAR"},{"bufferView":9,"componentType":5126,"count":4,"max":[1.0,0.0,1.0],"min":[-1.0,0.0,-1.0],"type":"VEC3"},{"bufferView":10,"componentType":5126,"count":4,"max":[0.0,1.0,-0.0],"min":[0.0,1.0,-0.0],"type":"VEC3"},{"bufferView":11,"componentType":5126,"count":4,"max":[1.0,0.0,-0.0,1.0],"min":[1.0,0.0,-0.0,1.0],"type":"VEC4"},{"bufferView":12,"componentType":5126,"count":4,"max":[1.0,1.0],"min":[0.0,0.0],"type":"VEC2"},{"bufferView":13,"componentType":5121,"count":24,"max":[11],"min":[0],"type":"SCALAR"},{"bufferView":14,"componentType":5126,"count":12,"max":[6.468577673501841e-09,1.1649187392492877e-08,0.007399829104542732],"min":[-0.010297410190105438,-0.0008896340732462704,-0.007239002268761396],"type":"VEC3"},{"bufferView":15,"componentType":5126,"count":12,"max":[0.09415704011917114,1.0,0.0],"min":[-0.49669313430786133,-0.9955573678016663,-1.0000003385357559e-06],"type":"VEC3"},{"bufferView":16,"componentType":5126,"count":12,"max":[0.9181796312332153,1.0],"min":[0.08182041347026825,0.0],"type":"VEC2"},{"bufferView":17,"componentType":5123,"count":31200,"max":[6715],"min":[0],"type":"SCALAR"},{"bufferView":18,"componentType":5126,"count":6716,"max":[26.01036834716797,40.730865478515625,29.179393768310547],"min":[-26.06220245361328,-0.06728553771972656,-22.522796630859375],"type":"VEC3"},{"bufferView":19,"componentType":5126,"count":6716,"max":[0.9838025569915771,0.9999992251396179,0.9976521730422974],"min":[-0.9999770522117615,-1.0,-0.9835793972015381],"type":"VEC3"},{"bufferView":20,"componentType":5126,"count":6716,"max":[0.9999986290931702,0.9998545050621033,0.9893453121185303,1.0],"min":[-0.9608011245727539,-0.9990015625953674,-0.9996429681777954,1.0],"type":"VEC4"},{"bufferView":21,"componentType":5126,"count":6716,"max":[0.9313023686408997,0.99951171875],"min":[0.00048828122089616954,0.08031553030014038],"type":"VEC2"},{"bufferView":22,"componentType":5123,"count":39528,"max":[8923],"min":[0],"type":"SCALAR"},{"bufferView":23,"componentType":5126,"count":8924,"max":[5.783989429473877,41.93133544921875,8.790322303771973],"min":[-5.783989429473877,38.379737854003906,-2.77636981010437],"type":"VEC3"},{"bufferView":24,"componentType":5126,"count":8924,"max":[1.0,0.9999859929084778,0.9999905228614807],"min":[-1.0,-0.9999996423721313,-0.9999906420707703],"type":"VEC3"},{"bufferView":25,"componentType":5126,"count":8924,"max":[0.9671642780303955,0.99951171875],"min":[0.00048828125,0.46905165910720825],"type":"VEC2"},{"bufferView":26,"componentType":5123,"count":21348,"max":[4385],"min":[0],"type":"SCALAR"},{"bufferView":27,"componentType":5126,"count":4386,"max":[5.783989429473877,42.586734771728516,8.74887752532959],"min":[-5.783989429473877,41.119606018066406,-2.8216326236724854],"type":"VEC3"},{"bufferView":28,"componentType":5126,"count":4386,"max":[1.0,0.9999992251396179,0.9996671080589294],"min":[-1.0,-0.9999849796295166,-0.9997425079345703],"type":"VEC3"},{"bufferView":29,"componentType":5126,"count":4386,"max":[0.9641662836074829,0.9995108842849731],"min":[0.00048828125,0.4563528299331665],"type":"VEC2"},{"bufferView":30,"componentType":5123,"count":41046,"max":[7019],"min":[0],"type":"SCALAR"},{"bufferView":31,"componentType":5126,"count":7020,"max":[0.3101333677768707,0.9783769845962524,0.3255709707736969],"min":[-0.3047176003456116,0.4212700128555298,-0.2981230616569519],"type":"VEC3"},{"bufferView":32,"componentType":5126,"count":7020,"max":[0.9993510246276855,0.9999995231628418,0.9998005032539368],"min":[-0.9992627501487732,-0.9999849796295166,-0.9999238848686218],"type":"VEC3"},{"bufferView":33,"componentType":5126,"count":7020,"max":[0.9684620499610901,0.9998984932899475,0.9999943375587463,1.0],"min":[-0.834966242313385,-0.9996668696403503,-0.9999734163284302,1.0],"type":"VEC4"},{"bufferView":34,"componentType":5126,"count":7020,"max":[0.9984764456748962,0.9984327554702759],"min":[0.0015307327266782522,0.0026769638061523438],"type":"VEC2"},{"bufferView":35,"componentType":5126,"count":7020,"max":[1.0,1.0,1.0,1.0],"min":[0.0,0.0,0.0,1.0],"type":"VEC4"},{"bufferView":36,"componentType":5126,"count":7020,"max":[1.0,1.0,1.0,1.0],"min":[0.0,0.0,0.0,1.0],"type":"VEC4"},{"bufferView":37,"componentType":5126,"count":7020,"max":[1.0,1.0,1.0,1.0],"min":[0.0,0.0,0.0,1.0],"type":"VEC4"},{"bufferView":38,"componentType":5126,"count":7020,"max":[1.0,1.0,1.0,1.0],"min":[0.0,0.0,0.0,1.0],"type":"VEC4"},{"bufferView":39,"componentType":5126,"count":69,"max":[2.9000000953674316],"min":[0.0],"type":"SCALAR"},{"bufferView":40,"componentType":5126,"count":69,"max":[0.0,0.7071067690849304,-0.0,1.0],"min":[0.0,-0.7071067690849304,-0.0,0.7071067690849304],"type":"VEC4"}],"animations":[{"channels":[{"sampler":0,"target":{"node":7,"path":"rotation"}}],"extensions":{"S8S_v3d_animation":{"auto":true,"loop":"REPEAT","offset":0.0,"repeatCount":1.0,"repeatInfinite":true}},"name":"Empty","samplers":[{"input":39,"interpolation":"LINEAR","output":40}]}],"asset":{"generator":"Verge3D for Blender v4.8.0","version":"2.0"},"bufferViews":[{"buffer":0,"byteLength":6,"byteOffset":0,"target":34963},{"buffer":0,"byteLength":48,"byteOffset":8,"target":34962},{"buffer":0,"byteLength":48,"byteOffset":56,"target":34962},{"buffer":0,"byteLength":32,"byteOffset":104,"target":34962},{"buffer":0,"byteLength":6,"byteOffset":136,"target":34963},{"buffer":0,"byteLength":48,"byteOffset":144,"target":34962},{"buffer":0,"byteLength":48,"byteOffset":192,"target":34962},{"buffer":0,"byteLength":32,"byteOffset":240,"target":34962},{"buffer":0,"byteLength":6,"byteOffset":272,"target":34963},{"buffer":0,"byteLength":48,"byteOffset":280,"target":34962},{"buffer":0,"byteLength":48,"byteOffset":328,"target":34962},{"buffer":0,"byteLength":64,"byteOffset":376,"target":34962},{"buffer":0,"byteLength":32,"byteOffset":440,"target":34962},{"buffer":0,"byteLength":24,"byteOffset":472,"target":34963},{"buffer":0,"byteLength":144,"byteOffset":496,"target":34962},{"buffer":0,"byteLength":144,"byteOffset":640,"target":34962},{"buffer":0,"byteLength":96,"byteOffset":784,"target":34962},{"buffer":0,"byteLength":62400,"byteOffset":880,"target":34963},{"buffer":0,"byteLength":80592,"byteOffset":63280,"target":34962},{"buffer":0,"byteLength":80592,"byteOffset":143872,"target":34962},{"buffer":0,"byteLength":107456,"byteOffset":224464,"target":34962},{"buffer":0,"byteLength":53728,"byteOffset":331920,"target":34962},{"buffer":0,"byteLength":79056,"byteOffset":385648,"target":34963},{"buffer":0,"byteLength":107088,"byteOffset":464704,"target":34962},{"buffer":0,"byteLength":107088,"byteOffset":571792,"target":34962},{"buffer":0,"byteLength":71392,"byteOffset":678880,"target":34962},{"buffer":0,"byteLength":42696,"byteOffset":750272,"target":34963},{"buffer":0,"byteLength":52632,"byteOffset":792968,"target":34962},{"buffer":0,"byteLength":52632,"byteOffset":845600,"target":34962},{"buffer":0,"byteLength":35088,"byteOffset":898232,"target":34962},{"buffer":0,"byteLength":82092,"byteOffset":933320,"target":34963},{"buffer":0,"byteLength":84240,"byteOffset":1015412,"target":34962},{"buffer":0,"byteLength":84240,"byteOffset":1099652,"target":34962},{"buffer":0,"byteLength":112320,"byteOffset":1183892,"target":34962},{"buffer":0,"byteLength":56160,"byteOffset":1296212,"target":34962},{"buffer":0,"byteLength":112320,"byteOffset":1352372,"target":34962},{"buffer":0,"byteLength":112320,"byteOffset":1464692,"target":34962},{"buffer":0,"byteLength":112320,"byteOffset":1577012,"target":34962},{"buffer":0,"byteLength":112320,"byteOffset":1689332,"target":34962},{"buffer":0,"byteLength":276,"byteOffset":1801652},{"buffer":0,"byteLength":1104,"byteOffset":1801928}],"buffers":[{"byteLength":1803032,"uri":"Tablacasa-Chaise-Adeline.bin"}],"cameras":[{"extensions":{"S8S_v3d_camera":{"controls":"ORBIT","enablePan":false,"moveSpeed":1.0,"orbitMaxDistance":4.0,"orbitMaxPolarAngle":3.1415927410125732,"orbitMaxZoom":100.0,"orbitMinDistance":1.0,"orbitMinPolarAngle":0.0,"orbitMinZoom":0.009999999776482582,"orbitTarget":[0.0,0.4440000057220459,-0.0],"rotateSpeed":1.0,"viewportFitInitialAspect":1.7777777777777777,"viewportFitType":"AUTO"}},"name":"Camera.001","perspective":{"aspectRatio":1.7777777777777777,"yfov":0.39959652046304894,"zfar":1000.0,"znear":0.10000000149011612},"type":"perspective"}],"extensionsUsed":["S8S_v3d_texture","S8S_v3d_materials","S8S_v3d_camera","S8S_v3d_mesh","S8S_v3d_node","S8S_v3d_animation","S8S_v3d_scene"],"images":[{"uri":"MAT_FEET_METALWOOD_baseColor.jpg"},{"uri":"MAT_FEET_METALWOOD_occlusionRoughnessMetallic2.jpg"},{"uri":"logotype.jpg"},{"uri":"Shadow.png"},{"uri":"Texture.jpg"},{"uri":"Normal.jpg"},{"uri":"Noise_Optimized.jpg"},{"uri":"Christmas_living_room.hdr"}],"materials":[{"alphaMode":"BLEND","extensions":{"S8S_v3d_materials":{"alphaToCoverage":true,"gtaoVisible":true,"materialIndex":0,"nodeGraph":{"edges":[{"fromNode":2,"fromOutput":2,"toInput":1,"toNode":5},{"fromNode":2,"fromOutput":1,"toInput":2,"toNode":5},{"fromNode":7,"fromOutput":0,"toInput":0,"toNode":2},{"fromNode":1,"fromOutput":0,"toInput":6,"toNode":3},{"fromNode":6,"fromOutput":0,"toInput":4,"toNode":1},{"fromNode":4,"fromOutput":2,"toInput":0,"toNode":5},{"fromNode":3,"fromOutput":2,"toInput":6,"toNode":4},{"fromNode":2,"fromOutput":0,"toInput":7,"toNode":4},{"fromNode":5,"fromOutput":0,"toInput":0,"toNode":0}],"nodes":[{"inputs":[[0,0,0,0],[0,0,0,0],[0.0,0.0,0.0],0.0],"is_active_output":true,"name":"Material Output","outputs":[],"type":"OUTPUT_MATERIAL_BL"},{"inputs":[0.5,1.0,0.75,1.0,[0.800000011920929,0.800000011920929,0.800000011920929,1.0]],"is_active_output":false,"name":"Hue/Saturation/Value","outputs":[[0.0,0.0,0.0,0.0]],"type":"HUE_SAT_BL"},{"inputs":[[0.800000011920929,0.800000011920929,0.800000011920929,1.0]],"is_active_output":false,"mode":"RGB","name":"Separate Color","outputs":[0.0,0.0,0.0],"type":"SEPARATE_COLOR_BL"},{"blendType":"COLOR","clampFactor":true,"clampResult":false,"dataType":"RGBA","factorMode":"UNIFORM","inputs":[1.0,[0.5,0.5,0.5],0.0,0.0,[0.0,0.0,0.0],[0.0,0.0,0.0],[0.5,0.5,0.5,1.0],[1.0,0.7474360466003418,0.5,1.0],0,0],"is_active_output":false,"name":"Mix","outputs":[0.0,[0.0,0.0,0.0],[0.0,0.0,0.0,0.0],0],"type":"MIX_BL"},{"blendType":"MULTIPLY","clampFactor":true,"clampResult":false,"dataType":"RGBA","factorMode":"UNIFORM","inputs":[1.0,[0.5,0.5,0.5],0.0,0.0,[0.0,0.0,0.0],[0.0,0.0,0.0],[0.5,0.5,0.5,1.0],[0.5,0.5,0.5,1.0],0,0],"is_active_output":false,"name":"Mix.001","outputs":[0.0,[0.0,0.0,0.0],[0.0,0.0,0.0,0.0],0],"type":"MIX_BL"},{"inputs":[[0.800000011920929,0.800000011920929,0.800000011920929,1.0],0.0,0.5,1.5,1.0,[0.0,0.0,0.0],0.0,[1.0,0.20000000298023224,0.10000000149011612],0.05000000074505806,1.399999976158142,0.0,0.5,[1.0,1.0,1.0,1.0],0.0,0.0,[0.0,0.0,0.0],0.0,0.0,0.029999999329447746,1.5,[1.0,1.0,1.0,1.0],[0.0,0.0,0.0],0.0,0.5,[1.0,1.0,1.0,1.0],[1.0,1.0,1.0,1.0],0.0],"is_active_output":false,"name":"Principled BSDF","outputs":[[0,0,0,0]],"type":"BSDF_PRINCIPLED_BL"},{"alphaMode":"STRAIGHT","inputs":[[0.0,0.0,0.0]],"is_active_output":false,"name":"Image Texture","outputs":[[0.800000011920929,0.800000011920929,0.800000011920929,1.0],0.0],"projection":"FLAT","projectionBlend":0.0,"texture":0,"type":"TEX_IMAGE_BL"},{"alphaMode":"CHANNEL_PACKED","inputs":[[0.0,0.0,0.0]],"is_active_output":false,"name":"Image Texture.001","outputs":[[0.800000011920929,0.800000011920929,0.800000011920929,1.0],0.0],"projection":"FLAT","projectionBlend":0.0,"texture":1,"type":"TEX_IMAGE_BL"}]}}},"name":"Bois"},{"alphaMode":"OPAQUE","extensions":{"S8S_v3d_materials":{"gtaoVisible":true,"materialIndex":0,"nodeGraph":{"edges":[{"fromNode":0,"fromOutput":0,"toInput":0,"toNode":1},{"fromNode":2,"fromOutput":0,"toInput":0,"toNode":0}],"nodes":[{"inputs":[[0.800000011920929,0.800000011920929,0.800000011920929,1.0],0.0,1.0,1.4500000476837158,1.0,[0.0,0.0,0.0],0.0,[1.0,0.20000000298023224,0.10000000149011612],0.05000000074505806,1.399999976158142,0.0,0.5,[1.0,1.0,1.0,1.0],0.0,0.0,[0.0,0.0,0.0],0.0,0.0,0.029999999329447746,1.5,[1.0,1.0,1.0,1.0],[0.0,0.0,0.0],0.0,0.5,[1.0,1.0,1.0,1.0],[1.0,1.0,1.0,1.0],0.0],"is_active_output":false,"name":"Principled BSDF","outputs":[[0,0,0,0]],"type":"BSDF_PRINCIPLED_BL"},{"inputs":[[0,0,0,0],[0,0,0,0],[0.0,0.0,0.0],0.0],"is_active_output":true,"name":"Material Output","outputs":[],"type":"OUTPUT_MATERIAL_BL"},{"alphaMode":"STRAIGHT","inputs":[[0.0,0.0,0.0]],"is_active_output":false,"name":"Image Texture","outputs":[[0.0,0.0,0.0,0.0],0.0],"projection":"FLAT","projectionBlend":0.0,"texture":2,"type":"TEX_IMAGE_BL"}]}}},"name":"logotype"},{"alphaMode":"BLEND","extensions":{"S8S_v3d_materials":{"depthPrepass":true,"gtaoVisible":false,"materialIndex":0,"nodeGraph":{"edges":[{"fromNode":3,"fromOutput":2,"toInput":4,"toNode":1},{"fromNode":1,"fromOutput":0,"toInput":0,"toNode":0},{"fromNode":2,"fromOutput":0,"toInput":6,"toNode":3}],"nodes":[{"inputs":[[0,0,0,0],[0,0,0,0],[0.0,0.0,0.0],0.0],"is_active_output":true,"name":"Material Output","outputs":[],"type":"OUTPUT_MATERIAL_BL"},{"inputs":[[0.0,0.0,0.0,1.0],0.0,1.0,1.4500000476837158,1.0,[0.0,0.0,0.0],0.0,[1.0,0.20000000298023224,0.10000000149011612],0.05000000074505806,1.399999976158142,0.0,0.0,[1.0,1.0,1.0,1.0],0.0,0.0,[0.0,0.0,0.0],0.0,0.0,0.029999999329447746,1.5,[1.0,1.0,1.0,1.0],[0.0,0.0,0.0],0.0,0.5,[1.0,1.0,1.0,1.0],[1.0,1.0,1.0,1.0],0.0],"is_active_output":false,"name":"Principled BSDF","outputs":[[0,0,0,0]],"type":"BSDF_PRINCIPLED_BL"},{"alphaMode":"CHANNEL_PACKED","inputs":[[0.0,0.0,0.0]],"is_active_output":false,"name":"Image Texture","outputs":[[0.0,0.0,0.0,0.0],0.0],"projection":"FLAT","projectionBlend":0.0,"texture":3,"type":"TEX_IMAGE_BL"},{"blendType":"MIX","clampFactor":true,"clampResult":false,"dataType":"RGBA","factorMode":"UNIFORM","inputs":[0.47999998927116394,[0.5,0.5,0.5],0.0,0.0,[0.0,0.0,0.0],[0.0,0.0,0.0],[0.5,0.5,0.5,1.0],[0.0,0.0,0.0,1.0],0,0],"is_active_output":false,"name":"Mix","outputs":[0.0,[0.0,0.0,0.0],[0.0,0.0,0.0,0.0],0],"type":"MIX_BL"}]}}},"name":"Material"},{"alphaMode":"OPAQUE","extensions":{"S8S_v3d_materials":{"gtaoVisible":true,"materialIndex":0,"nodeGraph":{"edges":[{"fromNode":2,"fromOutput":0,"toInput":0,"toNode":0},{"fromNode":5,"fromOutput":0,"toInput":1,"toNode":1},{"fromNode":1,"fromOutput":0,"toInput":5,"toNode":2},{"fromNode":4,"fromOutput":0,"toInput":4,"toNode":3},{"fromNode":3,"fromOutput":0,"toInput":0,"toNode":2}],"nodes":[{"inputs":[[0,0,0,0],[0,0,0,0],[0.0,0.0,0.0],0.0],"is_active_output":true,"name":"Material Output","outputs":[],"type":"OUTPUT_MATERIAL_BL"},{"inputs":[1.0,[0.5,0.5,1.0,1.0]],"is_active_output":false,"name":"Normal Map","outputs":[[0.0,0.0,0.0]],"type":"NORMAL_MAP_BL","uvLayer":""},{"inputs":[[0.800000011920929,0.800000011920929,0.800000011920929,1.0],0.0,1.0,1.4500000476837158,1.0,[0.0,0.0,0.0],0.0,[1.0,0.20000000298023224,0.10000000149011612],0.05000000074505806,1.399999976158142,0.0,0.0,[1.0,1.0,1.0,1.0],0.0,0.0,[0.0,0.0,0.0],0.0,0.0,0.029999999329447746,1.5,[1.0,1.0,1.0,1.0],[0.0,0.0,0.0],1.0,0.37727272510528564,[0.39358755946159363,0.17456412315368652,0.17456412315368652,1.0],[1.0,1.0,1.0,1.0],0.0],"is_active_output":false,"name":"Principled BSDF","outputs":[[0,0,0,0]],"type":"BSDF_PRINCIPLED_BL"},{"inputs":[0.47999998927116394,1.0,1.0,1.0,[0.800000011920929,0.800000011920929,0.800000011920929,1.0]],"is_active_output":false,"name":"Hue/Saturation/Value","outputs":[[0.0,0.0,0.0,0.0]],"type":"HUE_SAT_BL"},{"alphaMode":"STRAIGHT","inputs":[[0.0,0.0,0.0]],"is_active_output":false,"name":"Image Texture","outputs":[[0.0,0.0,0.0,0.0],0.0],"projection":"FLAT","projectionBlend":0.0,"texture":4,"type":"TEX_IMAGE_BL"},{"alphaMode":"CHANNEL_PACKED","inputs":[[0.0,0.0,0.0]],"is_active_output":false,"name":"Image Texture.001","outputs":[[0.0,0.0,0.0,0.0],0.0],"projection":"FLAT","projectionBlend":0.0,"texture":5,"type":"TEX_IMAGE_BL"}]}}},"name":"Material.001"},{"alphaMode":"BLEND","extensions":{"S8S_v3d_materials":{"alphaToCoverage":true,"gtaoVisible":true,"materialIndex":0,"nodeGraph":{"edges":[{"fromNode":1,"fromOutput":0,"toInput":0,"toNode":0},{"fromNode":3,"fromOutput":0,"toInput":1,"toNode":2},{"fromNode":2,"fromOutput":0,"toInput":5,"toNode":1},{"fromNode":4,"fromOutput":0,"toInput":0,"toNode":3},{"fromNode":5,"fromOutput":2,"toInput":0,"toNode":4}],"nodes":[{"inputs":[[0,0,0,0],[0,0,0,0],[0.0,0.0,0.0],0.0],"is_active_output":true,"name":"Material Output","outputs":[],"type":"OUTPUT_MATERIAL_BL"},{"inputs":[[0.06152445822954178,0.06152445822954178,0.06152445822954178,1.0],1.0,0.4000000059604645,1.5,1.0,[0.0,0.0,0.0],0.0,[1.0,0.20000000298023224,0.10000000149011612],0.05000000074505806,1.399999976158142,0.0,0.5,[1.0,1.0,1.0,1.0],0.0,0.0,[0.0,0.0,0.0],0.0,0.0,0.029999999329447746,1.5,[1.0,1.0,1.0,1.0],[0.0,0.0,0.0],0.0,0.5,[1.0,1.0,1.0,1.0],[1.0,1.0,1.0,1.0],0.0],"is_active_output":false,"name":"Principled BSDF","outputs":[[0,0,0,0]],"type":"BSDF_PRINCIPLED_BL"},{"inputs":[1.0,[0.5,0.5,1.0,1.0]],"is_active_output":false,"name":"Normal Map","outputs":[[0.0,0.0,0.0]],"type":"NORMAL_MAP_BL","uvLayer":""},{"alphaMode":"CHANNEL_PACKED","inputs":[[0.0,0.0,0.0]],"is_active_output":false,"name":"Image Texture","outputs":[[0.0,0.0,0.0,0.0],0.0],"projection":"FLAT","projectionBlend":0.0,"texture":6,"type":"TEX_IMAGE_BL"},{"inputs":[[0.0,0.0,0.0],[0.0,0.0,0.0],[0.0,0.0,0.0],[10.0,10.0,10.0]],"is_active_output":false,"name":"Mapping","outputs":[[0.0,0.0,0.0]],"type":"MAPPING_BL","vectorType":"POINT"},{"inputs":[],"is_active_output":false,"name":"Texture Coordinate","object":-1,"outputs":[[0.0,0.0,0.0],[0.0,0.0,0.0],[0.0,0.0,0.0],[0.0,0.0,0.0],[0.0,0.0,0.0],[0.0,0.0,0.0],[0.0,0.0,0.0]],"type":"TEX_COORD_BL"}]}}},"name":"noir"},{"alphaMode":"BLEND","extensions":{"S8S_v3d_materials":{"alphaToCoverage":true,"gtaoVisible":true,"materialIndex":0,"nodeGraph":{"edges":[{"fromNode":0,"fromOutput":0,"toInput":0,"toNode":1}],"nodes":[{"inputs":[[0.039545975625514984,0.03954627364873886,0.03954625502228737,1.0],1.0,0.25,1.5,1.0,[0.0,0.0,0.0],0.0,[1.0,0.20000000298023224,0.10000000149011612],0.05000000074505806,1.399999976158142,0.0,0.5,[1.0,1.0,1.0,1.0],0.0,0.0,[0.0,0.0,0.0],0.0,0.0,0.029999999329447746,1.5,[1.0,1.0,1.0,1.0],[0.0,0.0,0.0],0.0,0.5,[1.0,1.0,1.0,1.0],[1.0,1.0,1.0,1.0],0.0],"is_active_output":false,"name":"Principled BSDF","outputs":[[0,0,0,0]],"type":"BSDF_PRINCIPLED_BL"},{"inputs":[[0,0,0,0],[0,0,0,0],[0.0,0.0,0.0],0.0],"is_active_output":true,"name":"Material Output","outputs":[],"type":"OUTPUT_MATERIAL_BL"}]}}},"name":"Pivotant"},{"alphaMode":"OPAQUE","extensions":{"S8S_v3d_materials":{"gtaoVisible":true,"materialIndex":0,"nodeGraph":{"edges":[{"fromNode":2,"fromOutput":0,"toInput":0,"toNode":0},{"fromNode":1,"fromOutput":0,"toInput":0,"toNode":2}],"nodes":[{"inputs":[[0,0,0,0],[0,0,0,0]],"is_active_output":true,"name":"World Output","outputs":[],"type":"OUTPUT_WORLD_BL"},{"inputs":[[0.0,0.0,0.0]],"is_active_output":false,"name":"Environment Texture.001","outputs":[[0.0,0.0,0.0,0.0]],"projection":"EQUIRECTANGULAR","texture":7,"type":"TEX_ENVIRONMENT_BL"},{"inputs":[[0.05087608844041824,0.05087608844041824,0.05087608844041824,1.0],1.0],"is_active_output":false,"name":"Background","outputs":[[0,0,0,0]],"type":"BACKGROUND_BL"}]}}},"name":"Verge3D_Environment_World.001"}],"meshes":[{"extensions":{"S8S_v3d_mesh":{"colorLayers":{},"uvLayers":{"UVMap":"TEXCOORD_0"}}},"name":"Plane","primitives":[{"attributes":{"NORMAL":2,"POSITION":1,"TEXCOORD_0":3},"indices":0,"material":0,"mode":4}]},{"extensions":{"S8S_v3d_mesh":{"colorLayers":{},"uvLayers":{"UVMap":"TEXCOORD_0"}}},"name":"Plane.001","primitives":[{"attributes":{"NORMAL":6,"POSITION":5,"TEXCOORD_0":7},"indices":4,"material":2,"mode":4}]},{"extensions":{"S8S_v3d_mesh":{"colorLayers":{},"uvLayers":{"UVMap":"TEXCOORD_0"}}},"name":"Plane.002","primitives":[{"attributes":{"NORMAL":10,"POSITION":9,"TANGENT":11,"TEXCOORD_0":12},"indices":8,"material":4,"mode":4}]},{"extensions":{"S8S_v3d_mesh":{"colorLayers":{},"uvLayers":{"UVMap":"TEXCOORD_0"}}},"name":"Plane.003","primitives":[{"attributes":{"NORMAL":15,"POSITION":14,"TEXCOORD_0":16},"indices":13,"material":1,"mode":4}]},{"extensions":{"S8S_v3d_mesh":{"colorLayers":{},"uvLayers":{"UVMap":"TEXCOORD_0"}}},"name":"sm_feet.002","primitives":[{"attributes":{"NORMAL":19,"POSITION":18,"TANGENT":20,"TEXCOORD_0":21},"indices":17,"material":4,"mode":4}]},{"extensions":{"S8S_v3d_mesh":{"colorLayers":{},"uvLayers":{"UVMap":"TEXCOORD_0"}}},"name":"sm_feet.003","primitives":[{"attributes":{"NORMAL":24,"POSITION":23,"TEXCOORD_0":25},"indices":22,"material":5,"mode":4}]},{"extensions":{"S8S_v3d_mesh":{"colorLayers":{},"uvLayers":{"UVMap":"TEXCOORD_0"}}},"name":"sm_feet.004","primitives":[{"attributes":{"NORMAL":28,"POSITION":27,"TEXCOORD_0":29},"indices":26,"material":5,"mode":4}]},{"extensions":{"S8S_v3d_mesh":{"colorLayers":{"Back mask":"COLOR_0","Front left mask":"COLOR_3","Side 2 mask":"COLOR_2","side mask":"COLOR_1"},"uvLayers":{"Cut":"TEXCOORD_0"}}},"name":"sm_sirocco_retake.001","primitives":[{"attributes":{"COLOR_0":35,"COLOR_1":36,"COLOR_2":37,"COLOR_3":38,"NORMAL":32,"POSITION":31,"TANGENT":33,"TEXCOORD_0":34},"indices":30,"material":3,"mode":4}]}],"nodes":[{"extensions":{"S8S_v3d_node":{"frustumCulling":true,"groupNames":[],"hidden":false,"hidpiCompositing":false,"objectColor":[1.0,1.0,1.0,1.0],"objectIndex":0,"renderOrder":0}},"mesh":7,"name":"Chair Texture"},{"children":[0],"name":"v3d_Proxy_Node_0_Chair Texture","translation":[-1.8626451075975936e-11,-0.40764057636260986,-0.030036339536309242]},{"extensions":{"S8S_v3d_node":{"frustumCulling":true,"groupNames":[],"hidden":false,"hidpiCompositing":false,"objectColor":[1.0,1.0,1.0,1.0],"objectIndex":0,"renderOrder":0}},"mesh":3,"name":"logotype","rotation":[0.022319156676530838,0.022623000666499138,0.2619950473308563,0.9645458459854126],"translation":[-0.2548122704029083,0.5080004334449768,0.15229715406894684]},{"children":[2],"name":"v3d_Proxy_Node_0_logotype","translation":[-1.8626451075975936e-11,-0.40764057636260986,-0.030036339536309242]},{"extensions":{"S8S_v3d_node":{"frustumCulling":true,"groupNames":["Bas"],"hidden":false,"hidpiCompositing":false,"objectColor":[1.0,1.0,1.0,1.0],"objectIndex":0,"renderOrder":0}},"mesh":0,"name":"Pietement color","scale":[0.010566351003944874,0.010566351003944874,0.010566351003944874],"translation":[0.0,0.40144383907318115,0.027416108176112175]},{"extensions":{"S8S_v3d_node":{"frustumCulling":true,"groupNames":["Bas"],"hidden":false,"hidpiCompositing":false,"objectColor":[1.0,1.0,1.0,1.0],"objectIndex":0,"renderOrder":0}},"mesh":5,"name":"Pivotant Bas","scale":[0.009999999776482582,0.009999999776482582,0.009999999776482582]},{"camera":0,"extensions":{"S8S_v3d_node":{"frustumCulling":true,"groupNames":[],"hidden":false,"hidpiCompositing":false,"objectColor":[1.0,1.0,1.0,1.0],"objectIndex":0,"renderOrder":0}},"name":"Camera","rotation":[-0.11814101785421371,-0.32871121168136597,-0.04148545488715172,0.936093270778656],"scale":[1.0,0.9999998211860657,0.9999997615814209],"translation":[-1.8704807758331299,1.2113816738128662,2.3349359035491943]},{"children":[1,3,12],"extensions":{"S8S_v3d_node":{"frustumCulling":true,"groupNames":[],"hidden":false,"hidpiCompositing":false,"objectColor":[1.0,1.0,1.0,1.0],"objectIndex":0,"renderOrder":0}},"name":"Empty","translation":[1.8626451075975936e-11,0.40764057636260986,0.030036339536309242]},{"extensions":{"S8S_v3d_node":{"frustumCulling":true,"groupNames":["Bas"],"hidden":false,"hidpiCompositing":false,"objectColor":[1.0,1.0,1.0,1.0],"objectIndex":0,"renderOrder":0}},"mesh":1,"name":"Shadow","rotation":[0.0,1.0,-0.0,1.6292068494294654e-07],"scale":[0.3298780024051666,0.3298780024051666,0.3298780024051666],"translation":[-0.001711157034151256,0.00275031547062099,0.0348326601088047]},{"extensions":{"S8S_v3d_node":{"frustumCulling":true,"groupNames":["Bas"],"hidden":false,"hidpiCompositing":false,"objectColor":[1.0,1.0,1.0,1.0],"objectIndex":0,"renderOrder":0}},"mesh":2,"name":"Pietement color 2","scale":[0.010566351003944874,0.010566351003944874,0.010566351003944874],"translation":[0.0,0.39764276146888733,0.027416108176112175]},{"extensions":{"S8S_v3d_node":{"frustumCulling":true,"groupNames":["Bas"],"hidden":false,"hidpiCompositing":false,"objectColor":[1.0,1.0,1.0,1.0],"objectIndex":0,"renderOrder":0}},"mesh":4,"name":"Pietement","scale":[0.009999999776482582,0.009999999776482582,0.009999999776482582]},{"extensions":{"S8S_v3d_node":{"frustumCulling":true,"groupNames":["Bas"],"hidden":false,"hidpiCompositing":false,"objectColor":[1.0,1.0,1.0,1.0],"objectIndex":0,"renderOrder":0}},"mesh":6,"name":"Pivotant Haut","scale":[0.009999999776482582,0.009999999776482582,0.009999999776482582]},{"children":[11],"name":"v3d_Proxy_Node_0_Pivotant Haut","translation":[-1.8626451075975936e-11,-0.40764057636260986,-0.030036339536309242]}],"samplers":[{}],"scene":0,"scenes":[{"extensions":{"S8S_v3d_scene":{"aaMethod":"AUTO","iblEnvironmentMode":"PMREM","physicallyCorrectLights":true,"pmremMaxTileSize":512,"worldMaterial":6}},"extras":{"animFrameRate":30,"coordSystem":"Z_UP_RIGHT"},"name":"Scene","nodes":[6,7,4,8,9,10,5]}],"textures":[{"extensions":{"S8S_v3d_texture":{"colorSpace":"srgb"}},"name":"MAT_FEET_METALWOOD_baseColor.jpg","sampler":0,"source":0},{"extensions":{"S8S_v3d_texture":{"colorSpace":"non-color"}},"name":"MAT_FEET_METALWOOD_occlusionRoughnessMetallic2.jpg","sampler":0,"source":1},{"extensions":{"S8S_v3d_texture":{"colorSpace":"srgb"}},"name":"logotype.jpg","sampler":0,"source":2},{"extensions":{"S8S_v3d_texture":{"colorSpace":"non-color"}},"name":"Shadow.png.001","sampler":0,"source":3},{"extensions":{"S8S_v3d_texture":{"colorSpace":"srgb"}},"name":"Texture.jpg","sampler":0,"source":4},{"extensions":{"S8S_v3d_texture":{"colorSpace":"non-color"}},"name":"Normal.jpg","sampler":0,"source":5},{"extensions":{"S8S_v3d_texture":{"colorSpace":"non-color"}},"name":"Noise_Optimized.jpg","sampler":0,"source":6},{"extensions":{"S8S_v3d_texture":{"colorSpace":"linear rec.709","source":7}},"name":"Christmas_living_room.hdr","sampler":0}]}
