{"accessors":[{"bufferView":0,"componentType":5121,"count":108,"max":[71],"min":[0],"type":"SCALAR"},{"bufferView":1,"componentType":5126,"count":72,"max":[36.39854431152344,0.23393410444259644,1.0],"min":[-1.0,0.05328845977783203,-1.053549885749817],"type":"VEC3"},{"bufferView":2,"componentType":5126,"count":72,"max":[1.0,1.0,1.0],"min":[-1.0,-1.0,-1.0],"type":"VEC3"},{"bufferView":3,"componentType":5126,"count":72,"max":[1.0,1.0],"min":[0.0,0.0],"type":"VEC2"},{"bufferView":4,"componentType":5121,"count":264,"max":[119],"min":[0],"type":"SCALAR"},{"bufferView":5,"componentType":5126,"count":120,"max":[0.7884847521781921,0.7281467914581299,0.3197070360183716],"min":[0.6411215662956238,0.7063355445861816,-0.3197070360183716],"type":"VEC3"},{"bufferView":6,"componentType":5126,"count":120,"max":[1.0,1.0,1.0],"min":[-1.0,-1.0,-1.0],"type":"VEC3"},{"bufferView":7,"componentType":5126,"count":120,"max":[1.0,1.0],"min":[0.0,0.0],"type":"VEC2"},{"bufferView":8,"componentType":5121,"count":264,"max":[103],"min":[0],"type":"SCALAR"},{"bufferView":9,"componentType":5126,"count":104,"max":[0.7739693522453308,0.7069904208183289,0.3177729845046997],"min":[0.6618611216545105,0.7013382911682129,-0.3177730441093445],"type":"VEC3"},{"bufferView":10,"componentType":5126,"count":104,"max":[1.0,1.0,1.0],"min":[-1.0,0.0,-1.0],"type":"VEC3"},{"bufferView":11,"componentType":5126,"count":104,"max":[1.0,0.9900000095367432],"min":[0.0,0.0],"type":"VEC2"},{"bufferView":12,"componentType":5121,"count":108,"max":[71],"min":[0],"type":"SCALAR"},{"bufferView":13,"componentType":5126,"count":72,"max":[0.4632555842399597,0.6700553297996521,0.2947280704975128],"min":[-0.4632555842399597,0.651606023311615,-0.26948001980781555],"type":"VEC3"},{"bufferView":14,"componentType":5126,"count":72,"max":[1.0,1.0,1.0],"min":[-1.0,-1.0,-1.0],"type":"VEC3"},{"bufferView":15,"componentType":5126,"count":72,"max":[1.0,1.0],"min":[0.0,0.0],"type":"VEC2"},{"bufferView":16,"componentType":5121,"count":264,"max":[119],"min":[0],"type":"SCALAR"},{"bufferView":17,"componentType":5126,"count":120,"max":[-0.641121506690979,0.7281467914581299,0.3197070360183716],"min":[-0.7884847521781921,0.7063355445861816,-0.3197070360183716],"type":"VEC3"},{"bufferView":18,"componentType":5126,"count":120,"max":[1.0,1.0,1.0],"min":[-1.0,-1.0,-1.0],"type":"VEC3"},{"bufferView":19,"componentType":5126,"count":120,"max":[1.0,1.0],"min":[0.0,0.0],"type":"VEC2"},{"bufferView":20,"componentType":5121,"count":264,"max":[103],"min":[0],"type":"SCALAR"},{"bufferView":21,"componentType":5126,"count":104,"max":[-0.6618611216545105,0.7069904208183289,0.3177729845046997],"min":[-0.7739694118499756,0.7013382911682129,-0.3177730441093445],"type":"VEC3"},{"bufferView":22,"componentType":5126,"count":104,"max":[1.0,1.0,1.0],"min":[-1.0,0.0,-1.0],"type":"VEC3"},{"bufferView":23,"componentType":5126,"count":104,"max":[1.0,0.9900000095367432],"min":[0.0,0.0],"type":"VEC2"},{"bufferView":24,"componentType":5121,"count":282,"max":[97],"min":[0],"type":"SCALAR"},{"bufferView":25,"componentType":5126,"count":98,"max":[1.0,0.8011718988418579,1.0],"min":[-1.0,0.10292521119117737,-1.0],"type":"VEC3"},{"bufferView":26,"componentType":5126,"count":98,"max":[1.0,1.0,1.0],"min":[-1.0,0.0,-1.0],"type":"VEC3"},{"bufferView":27,"componentType":5126,"count":98,"max":[1.0,0.9900000095367432],"min":[0.0,0.0],"type":"VEC2"},{"bufferView":28,"componentType":5121,"count":282,"max":[97],"min":[0],"type":"SCALAR"},{"bufferView":29,"componentType":5126,"count":98,"max":[1.0,-1.4258449077606201,1.0],"min":[-1.0,-1.845731496810913,-1.0],"type":"VEC3"},{"bufferView":30,"componentType":5126,"count":98,"max":[1.0,0.0,1.0],"min":[-1.0,-1.0,-1.0],"type":"VEC3"},{"bufferView":31,"componentType":5126,"count":98,"max":[1.0,0.5],"min":[0.0,0.0],"type":"VEC2"},{"bufferView":32,"componentType":5123,"count":1128,"max":[391],"min":[0],"type":"SCALAR"},{"bufferView":33,"componentType":5126,"count":392,"max":[0.7121416330337524,0.6532487869262695,0.4603937566280365],"min":[-0.7134423851966858,2.682209014892578e-07,-0.4664101302623749],"type":"VEC3"},{"bufferView":34,"componentType":5126,"count":392,"max":[0.9992082118988037,0.8474878072738647,0.9980046153068542],"min":[-0.9992082118988037,-1.0,-0.9980047345161438],"type":"VEC3"},{"bufferView":35,"componentType":5126,"count":392,"max":[5.474600315093994,8.0],"min":[-4.7902750968933105,-7.0],"type":"VEC2"},{"bufferView":36,"componentType":5121,"count":6,"max":[3],"min":[0],"type":"SCALAR"},{"bufferView":37,"componentType":5126,"count":4,"max":[1.0,0.0,1.0],"min":[-1.0,0.0,-1.0],"type":"VEC3"},{"bufferView":38,"componentType":5126,"count":4,"max":[0.0,1.0,-0.0],"min":[0.0,1.0,-0.0],"type":"VEC3"},{"bufferView":39,"componentType":5126,"count":4,"max":[1.0,1.0],"min":[0.0,0.0],"type":"VEC2"},{"bufferView":40,"componentType":5123,"count":624,"max":[375],"min":[0],"type":"SCALAR"},{"bufferView":41,"componentType":5126,"count":376,"max":[0.8263266682624817,0.7014941573143005,0.3202376067638397],"min":[0.35703083872795105,0.6567323803901672,-0.3202376067638397],"type":"VEC3"},{"bufferView":42,"componentType":5126,"count":376,"max":[1.0,1.0,1.0],"min":[-1.0,-1.0,-1.0],"type":"VEC3"},{"bufferView":43,"componentType":5126,"count":376,"max":[1.0,1.0],"min":[0.0,0.0],"type":"VEC2"},{"bufferView":44,"componentType":5121,"count":6,"max":[3],"min":[0],"type":"SCALAR"},{"bufferView":45,"componentType":5126,"count":4,"max":[1.0,0.0,1.0],"min":[-1.0,0.0,-1.0],"type":"VEC3"},{"bufferView":46,"componentType":5126,"count":4,"max":[0.0,1.0,-0.0],"min":[0.0,1.0,-0.0],"type":"VEC3"},{"bufferView":47,"componentType":5126,"count":4,"max":[1.0,1.0],"min":[0.0,0.0],"type":"VEC2"},{"bufferView":48,"componentType":5121,"count":6,"max":[3],"min":[0],"type":"SCALAR"},{"bufferView":49,"componentType":5126,"count":4,"max":[1.0,0.0,1.0],"min":[-1.0,0.0,-1.0],"type":"VEC3"},{"bufferView":50,"componentType":5126,"count":4,"max":[0.0,1.0,-0.0],"min":[0.0,1.0,-0.0],"type":"VEC3"},{"bufferView":51,"componentType":5126,"count":4,"max":[1.0,1.0],"min":[0.0,0.0],"type":"VEC2"},{"bufferView":52,"componentType":5121,"count":6,"max":[3],"min":[0],"type":"SCALAR"},{"bufferView":53,"componentType":5126,"count":4,"max":[1.0,0.0,1.0],"min":[-1.0,0.0,-1.0],"type":"VEC3"},{"bufferView":54,"componentType":5126,"count":4,"max":[0.0,1.0,-0.0],"min":[0.0,1.0,-0.0],"type":"VEC3"},{"bufferView":55,"componentType":5126,"count":4,"max":[1.0,1.0],"min":[0.0,0.0],"type":"VEC2"},{"bufferView":56,"componentType":5123,"count":2304,"max":[963],"min":[0],"type":"SCALAR"},{"bufferView":57,"componentType":5126,"count":964,"max":[0.47852155566215515,3.01479592946556e-16,0.6345921158790588],"min":[-0.47852155566215515,-0.0687648355960846,-0.01613963022828102],"type":"VEC3"},{"bufferView":58,"componentType":5126,"count":964,"max":[1.0,1.0,1.0],"min":[-1.0,-1.0,-1.0],"type":"VEC3"},{"bufferView":59,"componentType":5126,"count":964,"max":[0.5,1.0],"min":[0.0,0.0],"type":"VEC2"},{"bufferView":60,"componentType":5123,"count":624,"max":[375],"min":[0],"type":"SCALAR"},{"bufferView":61,"componentType":5126,"count":376,"max":[-0.35703083872795105,0.7014941573143005,0.3202376067638397],"min":[-0.8263266682624817,0.6567323803901672,-0.3202376067638397],"type":"VEC3"},{"bufferView":62,"componentType":5126,"count":376,"max":[1.0,1.0,1.0],"min":[-1.0,-1.0,-1.0],"type":"VEC3"},{"bufferView":63,"componentType":5126,"count":376,"max":[1.0,1.0],"min":[0.0,0.0],"type":"VEC2"},{"bufferView":64,"componentType":5121,"count":150,"max":[75],"min":[0],"type":"SCALAR"},{"bufferView":65,"componentType":5126,"count":76,"max":[0.8288761377334595,0.7104948163032532,0.32308146357536316],"min":[0.8153671026229858,0.6527275443077087,-0.32308149337768555],"type":"VEC3"},{"bufferView":66,"componentType":5126,"count":76,"max":[1.0,1.0,1.0],"min":[-1.0,-1.0,-1.0],"type":"VEC3"},{"bufferView":67,"componentType":5126,"count":76,"max":[1.0,1.0],"min":[0.0,0.0],"type":"VEC2"},{"bufferView":68,"componentType":5121,"count":150,"max":[75],"min":[0],"type":"SCALAR"},{"bufferView":69,"componentType":5126,"count":76,"max":[-0.8153671622276306,0.7104948163032532,0.32308146357536316],"min":[-0.8288761377334595,0.6527275443077087,-0.32308149337768555],"type":"VEC3"},{"bufferView":70,"componentType":5126,"count":76,"max":[1.0,1.0,1.0],"min":[-1.0,-1.0,-1.0],"type":"VEC3"},{"bufferView":71,"componentType":5126,"count":76,"max":[1.0,1.0],"min":[0.0,0.0],"type":"VEC2"},{"bufferView":72,"componentType":5121,"count":6,"max":[3],"min":[0],"type":"SCALAR"},{"bufferView":73,"componentType":5126,"count":4,"max":[1.0,0.0,1.0],"min":[-1.0,0.0,-1.0],"type":"VEC3"},{"bufferView":74,"componentType":5126,"count":4,"max":[0.0,1.0,-0.0],"min":[0.0,1.0,-0.0],"type":"VEC3"},{"bufferView":75,"componentType":5126,"count":4,"max":[1.0,1.0],"min":[0.0,0.0],"type":"VEC2"},{"bufferView":76,"componentType":5121,"count":6,"max":[3],"min":[0],"type":"SCALAR"},{"bufferView":77,"componentType":5126,"count":4,"max":[1.0,0.0,1.0],"min":[-1.0,0.0,-1.0],"type":"VEC3"},{"bufferView":78,"componentType":5126,"count":4,"max":[0.0,1.0,-0.0],"min":[0.0,1.0,-0.0],"type":"VEC3"},{"bufferView":79,"componentType":5126,"count":4,"max":[1.0,1.0],"min":[0.0,0.0],"type":"VEC2"},{"bufferView":80,"componentType":5121,"count":30,"max":[17],"min":[0],"type":"SCALAR"},{"bufferView":81,"componentType":5126,"count":18,"max":[0.8989038467407227,0.0003476075944490731,0.6217297315597534],"min":[-0.8989038467407227,0.0003204089298378676,-0.6217297315597534],"type":"VEC3"},{"bufferView":82,"componentType":5126,"count":18,"max":[-0.0,1.0,-0.0],"min":[-0.0,1.0,-0.0],"type":"VEC3"},{"bufferView":83,"componentType":5126,"count":18,"max":[0.875,1.0],"min":[0.625,0.0],"type":"VEC2"},{"bufferView":84,"componentType":5121,"count":6,"max":[3],"min":[0],"type":"SCALAR"},{"bufferView":85,"componentType":5126,"count":4,"max":[1.0,0.0,1.0],"min":[-1.0,0.0,-1.0],"type":"VEC3"},{"bufferView":86,"componentType":5126,"count":4,"max":[0.0,1.0,-0.0],"min":[0.0,1.0,-0.0],"type":"VEC3"},{"bufferView":87,"componentType":5126,"count":4,"max":[1.0,1.0],"min":[0.0,0.0],"type":"VEC2"},{"bufferView":88,"componentType":5123,"count":2118,"max":[727],"min":[0],"type":"SCALAR"},{"bufferView":89,"componentType":5126,"count":728,"max":[0.3495892882347107,0.6532483100891113,0.23476681113243103],"min":[-0.349364697933197,0.0,-0.23451325297355652],"type":"VEC3"},{"bufferView":90,"componentType":5126,"count":728,"max":[1.0,1.0,1.0],"min":[-1.0,-1.0,-1.0],"type":"VEC3"},{"bufferView":91,"componentType":5126,"count":728,"max":[0.0,1.0],"min":[0.0,1.0],"type":"VEC2"},{"bufferView":92,"componentType":5123,"count":5577,"max":[2002],"min":[0],"type":"SCALAR"},{"bufferView":93,"componentType":5126,"count":2003,"max":[1.108687162399292,0.7604613900184631,0.6422393918037415],"min":[-1.1042096614837646,0.0024608373641967773,-0.6375651955604553],"type":"VEC3"},{"bufferView":94,"componentType":5126,"count":2003,"max":[9.000000318337698e-06,1.0,1.0],"min":[-1.4000000192027073e-05,-1.9999999949504854e-06,-0.0],"type":"VEC3"},{"bufferView":95,"componentType":5126,"count":2003,"max":[1.0,1.0],"min":[0.0,0.0],"type":"VEC2"},{"bufferView":96,"componentType":5123,"count":1536,"max":[361],"min":[0],"type":"SCALAR"},{"bufferView":97,"componentType":5126,"count":362,"max":[-0.6503872871398926,0.0,0.464487224817276],"min":[-1.1707477569580078,-0.0010591675527393818,-0.46450772881507874],"type":"VEC3"},{"bufferView":98,"componentType":5126,"count":362,"max":[0.990035891532898,1.0,0.9828523397445679],"min":[-0.990104615688324,0.08493500202894211,-0.981565535068512],"type":"VEC3"},{"bufferView":99,"componentType":5126,"count":362,"max":[0.22463756799697876,0.9601863622665405],"min":[0.0042276084423065186,0.039249300956726074],"type":"VEC2"},{"bufferView":100,"componentType":5123,"count":2004,"max":[439],"min":[0],"type":"SCALAR"},{"bufferView":101,"componentType":5126,"count":440,"max":[-0.6503872871398926,-0.0010591661557555199,0.46450769901275635],"min":[-1.1707477569580078,-0.010161519050598145,-0.46450772881507874],"type":"VEC3"},{"bufferView":102,"componentType":5126,"count":440,"max":[0.9900479912757874,0.25879788398742676,0.9828523397445679],"min":[-0.990104615688324,-1.0,-0.9828527569770813],"type":"VEC3"},{"bufferView":103,"componentType":5126,"count":440,"max":[-0.041353464126586914,0.9605902433395386],"min":[-0.47549211978912354,0.03886568546295166],"type":"VEC2"},{"bufferView":104,"componentType":5123,"count":2082,"max":[491],"min":[0],"type":"SCALAR"},{"bufferView":105,"componentType":5126,"count":492,"max":[0.800000011920929,0.0,0.4999999701976776],"min":[-0.800000011920929,-0.0010591663885861635,-0.4999999701976776],"type":"VEC3"},{"bufferView":106,"componentType":5126,"count":492,"max":[0.9903940558433533,1.0,0.9914059042930603],"min":[-0.9903940558433533,0.13074898719787598,-0.9914059042930603],"type":"VEC3"},{"bufferView":107,"componentType":5126,"count":492,"max":[0.8389816284179688,0.9953910112380981],"min":[0.16126593947410583,0.004065036773681641],"type":"VEC2"},{"bufferView":108,"componentType":5123,"count":2706,"max":[595],"min":[0],"type":"SCALAR"},{"bufferView":109,"componentType":5126,"count":596,"max":[0.800000011920929,-0.0010591662721708417,0.4999999701976776],"min":[-0.800000011920929,-0.010161519050598145,-0.4999999701976776],"type":"VEC3"},{"bufferView":110,"componentType":5126,"count":596,"max":[0.990407407283783,0.16901300847530365,0.9914098978042603],"min":[-0.990407407283783,-1.0,-0.9914098978042603],"type":"VEC3"},{"bufferView":111,"componentType":5126,"count":596,"max":[1.1687097549438477,0.995803952217102],"min":[-0.16617590188980103,0.0036520957946777344],"type":"VEC2"},{"bufferView":112,"componentType":5123,"count":1536,"max":[361],"min":[0],"type":"SCALAR"},{"bufferView":113,"componentType":5126,"count":362,"max":[1.1707477569580078,0.0,0.464487224817276],"min":[0.6503872871398926,-0.0010591675527393818,-0.46450772881507874],"type":"VEC3"},{"bufferView":114,"componentType":5126,"count":362,"max":[0.990104615688324,1.0,0.9828513860702515],"min":[-0.990035891532898,0.08493800461292267,-0.9815694093704224],"type":"VEC3"},{"bufferView":115,"componentType":5126,"count":362,"max":[0.996019721031189,0.9601863622665405],"min":[0.7756099700927734,0.039249300956726074],"type":"VEC2"},{"bufferView":116,"componentType":5123,"count":2004,"max":[439],"min":[0],"type":"SCALAR"},{"bufferView":117,"componentType":5126,"count":440,"max":[1.1707477569580078,-0.0010591661557555199,0.46450769901275635],"min":[0.6503872871398926,-0.010161519050598145,-0.46450772881507874],"type":"VEC3"},{"bufferView":118,"componentType":5126,"count":440,"max":[0.990104615688324,0.2587890625,0.9828513860702515],"min":[-0.9900479912757874,-1.0,-0.9828497767448425],"type":"VEC3"},{"bufferView":119,"componentType":5126,"count":440,"max":[1.4780256748199463,0.9605902433395386],"min":[1.0438873767852783,0.03886568546295166],"type":"VEC2"},{"bufferView":120,"componentType":5123,"count":2295,"max":[828],"min":[0],"type":"SCALAR"},{"bufferView":121,"componentType":5126,"count":829,"max":[0.7044153809547424,0.7595581412315369,0.6422393918037415],"min":[-0.8089563250541687,0.0024608969688415527,-0.5028213262557983],"type":"VEC3"},{"bufferView":122,"componentType":5126,"count":829,"max":[3.000000106112566e-06,1.0,1.0],"min":[-9.100000170292333e-05,-6.000000212225132e-06,-0.0],"type":"VEC3"},{"bufferView":123,"componentType":5126,"count":829,"max":[1.0,1.0],"min":[0.0,0.0],"type":"VEC2"},{"bufferView":124,"componentType":5126,"count":42,"max":[2.799999952316284],"min":[0.0],"type":"SCALAR"},{"bufferView":125,"componentType":5126,"count":42,"max":[0.0,0.816795289516449,-0.0],"min":[0.0,0.7969895005226135,-0.0],"type":"VEC3"},{"bufferView":126,"componentType":5126,"count":70,"max":[2.799999952316284],"min":[0.0],"type":"SCALAR"},{"bufferView":127,"componentType":5126,"count":70,"max":[0.0,1.0,-0.0,1.0],"min":[0.0,0.0,-0.0,-1.6292068494294654e-07],"type":"VEC4"},{"bufferView":128,"componentType":5126,"count":2,"max":[2.799999952316284],"min":[0.0],"type":"SCALAR"},{"bufferView":129,"componentType":5126,"count":2,"max":[1.0,1.0,1.0],"min":[1.0,1.0,1.0],"type":"VEC3"},{"bufferView":130,"componentType":5126,"count":67,"max":[2.799999952316284],"min":[0.0],"type":"SCALAR"},{"bufferView":131,"componentType":5126,"count":67,"max":[-0.2959994375705719,0.8458549380302429,-0.0],"min":[-0.6655448079109192,0.8458549380302429,-0.0],"type":"VEC3"},{"bufferView":132,"componentType":5126,"count":3,"max":[2.799999952316284],"min":[0.0],"type":"SCALAR"},{"bufferView":133,"componentType":5126,"count":3,"max":[0.0,0.0,-0.0,1.0],"min":[0.0,0.0,-0.0,1.0],"type":"VEC4"},{"bufferView":134,"componentType":5126,"count":3,"max":[2.799999952316284],"min":[0.0],"type":"SCALAR"},{"bufferView":135,"componentType":5126,"count":3,"max":[1.0,1.0,1.0],"min":[1.0,1.0,1.0],"type":"VEC3"},{"bufferView":136,"componentType":5126,"count":67,"max":[2.799999952316284],"min":[0.0],"type":"SCALAR"},{"bufferView":137,"componentType":5126,"count":67,"max":[0.6655449867248535,0.8458549380302429,-0.0],"min":[0.2959989905357361,0.8458549380302429,-0.0],"type":"VEC3"},{"bufferView":138,"componentType":5126,"count":3,"max":[2.799999952316284],"min":[0.0],"type":"SCALAR"},{"bufferView":139,"componentType":5126,"count":3,"max":[0.0,0.0,-0.0,1.0],"min":[0.0,0.0,-0.0,1.0],"type":"VEC4"},{"bufferView":140,"componentType":5126,"count":3,"max":[2.799999952316284],"min":[0.0],"type":"SCALAR"},{"bufferView":141,"componentType":5126,"count":3,"max":[1.0,1.0,1.0],"min":[1.0,1.0,1.0],"type":"VEC3"}],"animations":[{"channels":[{"sampler":0,"target":{"node":5,"path":"translation"}},{"sampler":1,"target":{"node":5,"path":"rotation"}},{"sampler":2,"target":{"node":5,"path":"scale"}}],"extensions":{"S8S_v3d_animation":{"auto":true,"loop":"REPEAT","offset":0.0,"repeatCount":1.0,"repeatInfinite":true}},"name":"plateau ","samplers":[{"input":124,"interpolation":"LINEAR","output":125},{"input":126,"interpolation":"LINEAR","output":127},{"input":128,"interpolation":"LINEAR","output":129}]},{"channels":[{"sampler":0,"target":{"node":16,"path":"translation"}},{"sampler":1,"target":{"node":16,"path":"rotation"}},{"sampler":2,"target":{"node":16,"path":"scale"}}],"extensions":{"S8S_v3d_animation":{"auto":true,"loop":"REPEAT","offset":0.0,"repeatCount":1.0,"repeatInfinite":true}},"name":"rallonge 1","samplers":[{"input":130,"interpolation":"LINEAR","output":131},{"input":132,"interpolation":"LINEAR","output":133},{"input":134,"interpolation":"LINEAR","output":135}]},{"channels":[{"sampler":0,"target":{"node":21,"path":"translation"}},{"sampler":1,"target":{"node":21,"path":"rotation"}},{"sampler":2,"target":{"node":21,"path":"scale"}}],"extensions":{"S8S_v3d_animation":{"auto":true,"loop":"REPEAT","offset":0.0,"repeatCount":1.0,"repeatInfinite":true}},"name":"rallonge 2","samplers":[{"input":136,"interpolation":"LINEAR","output":137},{"input":138,"interpolation":"LINEAR","output":139},{"input":140,"interpolation":"LINEAR","output":141}]}],"asset":{"generator":"Verge3D for Blender v4.9.2","version":"2.0"},"bufferViews":[{"buffer":0,"byteLength":108,"byteOffset":0,"target":34963},{"buffer":0,"byteLength":864,"byteOffset":108,"target":34962},{"buffer":0,"byteLength":864,"byteOffset":972,"target":34962},{"buffer":0,"byteLength":576,"byteOffset":1836,"target":34962},{"buffer":0,"byteLength":264,"byteOffset":2412,"target":34963},{"buffer":0,"byteLength":1440,"byteOffset":2676,"target":34962},{"buffer":0,"byteLength":1440,"byteOffset":4116,"target":34962},{"buffer":0,"byteLength":960,"byteOffset":5556,"target":34962},{"buffer":0,"byteLength":264,"byteOffset":6516,"target":34963},{"buffer":0,"byteLength":1248,"byteOffset":6780,"target":34962},{"buffer":0,"byteLength":1248,"byteOffset":8028,"target":34962},{"buffer":0,"byteLength":832,"byteOffset":9276,"target":34962},{"buffer":0,"byteLength":108,"byteOffset":10108,"target":34963},{"buffer":0,"byteLength":864,"byteOffset":10216,"target":34962},{"buffer":0,"byteLength":864,"byteOffset":11080,"target":34962},{"buffer":0,"byteLength":576,"byteOffset":11944,"target":34962},{"buffer":0,"byteLength":264,"byteOffset":12520,"target":34963},{"buffer":0,"byteLength":1440,"byteOffset":12784,"target":34962},{"buffer":0,"byteLength":1440,"byteOffset":14224,"target":34962},{"buffer":0,"byteLength":960,"byteOffset":15664,"target":34962},{"buffer":0,"byteLength":264,"byteOffset":16624,"target":34963},{"buffer":0,"byteLength":1248,"byteOffset":16888,"target":34962},{"buffer":0,"byteLength":1248,"byteOffset":18136,"target":34962},{"buffer":0,"byteLength":832,"byteOffset":19384,"target":34962},{"buffer":0,"byteLength":282,"byteOffset":20216,"target":34963},{"buffer":0,"byteLength":1176,"byteOffset":20500,"target":34962},{"buffer":0,"byteLength":1176,"byteOffset":21676,"target":34962},{"buffer":0,"byteLength":784,"byteOffset":22852,"target":34962},{"buffer":0,"byteLength":282,"byteOffset":23636,"target":34963},{"buffer":0,"byteLength":1176,"byteOffset":23920,"target":34962},{"buffer":0,"byteLength":1176,"byteOffset":25096,"target":34962},{"buffer":0,"byteLength":784,"byteOffset":26272,"target":34962},{"buffer":0,"byteLength":2256,"byteOffset":27056,"target":34963},{"buffer":0,"byteLength":4704,"byteOffset":29312,"target":34962},{"buffer":0,"byteLength":4704,"byteOffset":34016,"target":34962},{"buffer":0,"byteLength":3136,"byteOffset":38720,"target":34962},{"buffer":0,"byteLength":6,"byteOffset":41856,"target":34963},{"buffer":0,"byteLength":48,"byteOffset":41864,"target":34962},{"buffer":0,"byteLength":48,"byteOffset":41912,"target":34962},{"buffer":0,"byteLength":32,"byteOffset":41960,"target":34962},{"buffer":0,"byteLength":1248,"byteOffset":41992,"target":34963},{"buffer":0,"byteLength":4512,"byteOffset":43240,"target":34962},{"buffer":0,"byteLength":4512,"byteOffset":47752,"target":34962},{"buffer":0,"byteLength":3008,"byteOffset":52264,"target":34962},{"buffer":0,"byteLength":6,"byteOffset":55272,"target":34963},{"buffer":0,"byteLength":48,"byteOffset":55280,"target":34962},{"buffer":0,"byteLength":48,"byteOffset":55328,"target":34962},{"buffer":0,"byteLength":32,"byteOffset":55376,"target":34962},{"buffer":0,"byteLength":6,"byteOffset":55408,"target":34963},{"buffer":0,"byteLength":48,"byteOffset":55416,"target":34962},{"buffer":0,"byteLength":48,"byteOffset":55464,"target":34962},{"buffer":0,"byteLength":32,"byteOffset":55512,"target":34962},{"buffer":0,"byteLength":6,"byteOffset":55544,"target":34963},{"buffer":0,"byteLength":48,"byteOffset":55552,"target":34962},{"buffer":0,"byteLength":48,"byteOffset":55600,"target":34962},{"buffer":0,"byteLength":32,"byteOffset":55648,"target":34962},{"buffer":0,"byteLength":4608,"byteOffset":55680,"target":34963},{"buffer":0,"byteLength":11568,"byteOffset":60288,"target":34962},{"buffer":0,"byteLength":11568,"byteOffset":71856,"target":34962},{"buffer":0,"byteLength":7712,"byteOffset":83424,"target":34962},{"buffer":0,"byteLength":1248,"byteOffset":91136,"target":34963},{"buffer":0,"byteLength":4512,"byteOffset":92384,"target":34962},{"buffer":0,"byteLength":4512,"byteOffset":96896,"target":34962},{"buffer":0,"byteLength":3008,"byteOffset":101408,"target":34962},{"buffer":0,"byteLength":150,"byteOffset":104416,"target":34963},{"buffer":0,"byteLength":912,"byteOffset":104568,"target":34962},{"buffer":0,"byteLength":912,"byteOffset":105480,"target":34962},{"buffer":0,"byteLength":608,"byteOffset":106392,"target":34962},{"buffer":0,"byteLength":150,"byteOffset":107000,"target":34963},{"buffer":0,"byteLength":912,"byteOffset":107152,"target":34962},{"buffer":0,"byteLength":912,"byteOffset":108064,"target":34962},{"buffer":0,"byteLength":608,"byteOffset":108976,"target":34962},{"buffer":0,"byteLength":6,"byteOffset":109584,"target":34963},{"buffer":0,"byteLength":48,"byteOffset":109592,"target":34962},{"buffer":0,"byteLength":48,"byteOffset":109640,"target":34962},{"buffer":0,"byteLength":32,"byteOffset":109688,"target":34962},{"buffer":0,"byteLength":6,"byteOffset":109720,"target":34963},{"buffer":0,"byteLength":48,"byteOffset":109728,"target":34962},{"buffer":0,"byteLength":48,"byteOffset":109776,"target":34962},{"buffer":0,"byteLength":32,"byteOffset":109824,"target":34962},{"buffer":0,"byteLength":30,"byteOffset":109856,"target":34963},{"buffer":0,"byteLength":216,"byteOffset":109888,"target":34962},{"buffer":0,"byteLength":216,"byteOffset":110104,"target":34962},{"buffer":0,"byteLength":144,"byteOffset":110320,"target":34962},{"buffer":0,"byteLength":6,"byteOffset":110464,"target":34963},{"buffer":0,"byteLength":48,"byteOffset":110472,"target":34962},{"buffer":0,"byteLength":48,"byteOffset":110520,"target":34962},{"buffer":0,"byteLength":32,"byteOffset":110568,"target":34962},{"buffer":0,"byteLength":4236,"byteOffset":110600,"target":34963},{"buffer":0,"byteLength":8736,"byteOffset":114836,"target":34962},{"buffer":0,"byteLength":8736,"byteOffset":123572,"target":34962},{"buffer":0,"byteLength":5824,"byteOffset":132308,"target":34962},{"buffer":0,"byteLength":11154,"byteOffset":138132,"target":34963},{"buffer":0,"byteLength":24036,"byteOffset":149288,"target":34962},{"buffer":0,"byteLength":24036,"byteOffset":173324,"target":34962},{"buffer":0,"byteLength":16024,"byteOffset":197360,"target":34962},{"buffer":0,"byteLength":3072,"byteOffset":213384,"target":34963},{"buffer":0,"byteLength":4344,"byteOffset":216456,"target":34962},{"buffer":0,"byteLength":4344,"byteOffset":220800,"target":34962},{"buffer":0,"byteLength":2896,"byteOffset":225144,"target":34962},{"buffer":0,"byteLength":4008,"byteOffset":228040,"target":34963},{"buffer":0,"byteLength":5280,"byteOffset":232048,"target":34962},{"buffer":0,"byteLength":5280,"byteOffset":237328,"target":34962},{"buffer":0,"byteLength":3520,"byteOffset":242608,"target":34962},{"buffer":0,"byteLength":4164,"byteOffset":246128,"target":34963},{"buffer":0,"byteLength":5904,"byteOffset":250292,"target":34962},{"buffer":0,"byteLength":5904,"byteOffset":256196,"target":34962},{"buffer":0,"byteLength":3936,"byteOffset":262100,"target":34962},{"buffer":0,"byteLength":5412,"byteOffset":266036,"target":34963},{"buffer":0,"byteLength":7152,"byteOffset":271448,"target":34962},{"buffer":0,"byteLength":7152,"byteOffset":278600,"target":34962},{"buffer":0,"byteLength":4768,"byteOffset":285752,"target":34962},{"buffer":0,"byteLength":3072,"byteOffset":290520,"target":34963},{"buffer":0,"byteLength":4344,"byteOffset":293592,"target":34962},{"buffer":0,"byteLength":4344,"byteOffset":297936,"target":34962},{"buffer":0,"byteLength":2896,"byteOffset":302280,"target":34962},{"buffer":0,"byteLength":4008,"byteOffset":305176,"target":34963},{"buffer":0,"byteLength":5280,"byteOffset":309184,"target":34962},{"buffer":0,"byteLength":5280,"byteOffset":314464,"target":34962},{"buffer":0,"byteLength":3520,"byteOffset":319744,"target":34962},{"buffer":0,"byteLength":4590,"byteOffset":323264,"target":34963},{"buffer":0,"byteLength":9948,"byteOffset":327856,"target":34962},{"buffer":0,"byteLength":9948,"byteOffset":337804,"target":34962},{"buffer":0,"byteLength":6632,"byteOffset":347752,"target":34962},{"buffer":0,"byteLength":168,"byteOffset":354384},{"buffer":0,"byteLength":504,"byteOffset":354552},{"buffer":0,"byteLength":280,"byteOffset":355056},{"buffer":0,"byteLength":1120,"byteOffset":355336},{"buffer":0,"byteLength":8,"byteOffset":356456},{"buffer":0,"byteLength":24,"byteOffset":356464},{"buffer":0,"byteLength":268,"byteOffset":356488},{"buffer":0,"byteLength":804,"byteOffset":356756},{"buffer":0,"byteLength":12,"byteOffset":357560},{"buffer":0,"byteLength":48,"byteOffset":357572},{"buffer":0,"byteLength":12,"byteOffset":357620},{"buffer":0,"byteLength":36,"byteOffset":357632},{"buffer":0,"byteLength":268,"byteOffset":357668},{"buffer":0,"byteLength":804,"byteOffset":357936},{"buffer":0,"byteLength":12,"byteOffset":358740},{"buffer":0,"byteLength":48,"byteOffset":358752},{"buffer":0,"byteLength":12,"byteOffset":358800},{"buffer":0,"byteLength":36,"byteOffset":358812}],"buffers":[{"byteLength":358848,"uri":"Concept Table 2.bin"}],"cameras":[{"extensions":{"S8S_v3d_camera":{"controls":"ORBIT","enablePan":false,"moveSpeed":1.0,"orbitMaxDistance":7.5,"orbitMaxPolarAngle":3.1415927410125732,"orbitMaxZoom":100.0,"orbitMinDistance":1.0,"orbitMinPolarAngle":0.0,"orbitMinZoom":0.009999999776482582,"orbitTarget":[0.0,0.4050000011920929,-0.0],"rotateSpeed":1.0,"viewportFitInitialAspect":1.7777777777777777,"viewportFitType":"AUTO"}},"name":"Camera","perspective":{"aspectRatio":1.7777777777777777,"yfov":0.5033799372418416,"zfar":100.0,"znear":0.10000000149011612},"type":"perspective"}],"extensionsUsed":["S8S_v3d_texture","S8S_v3d_materials","S8S_v3d_camera","S8S_v3d_mesh","S8S_v3d_node","S8S_v3d_animation","S8S_v3d_scene"],"images":[{"uri":"wood.jpg"},{"uri":"Gris acier.jpg"},{"uri":"white_marble.jpg"},{"uri":"Marbre_blanc_brillant.jpg"},{"uri":"marbre_noir.jpg"},{"uri":"shadows.jpg"},{"uri":"Shadows2.jpg"},{"uri":"Travertin.jpg"},{"uri":"env-metal-1.hdr"}],"materials":[{"alphaMode":"OPAQUE","extensions":{"S8S_v3d_materials":{"gtaoVisible":true,"materialIndex":0,"nodeGraph":{"edges":[{"fromNode":0,"fromOutput":0,"toInput":0,"toNode":1}],"nodes":[{"inputs":[[0.0,0.0,0.0,1.0],0.0,0.0,1.5,1.0,[0.0,0.0,0.0],0.0,0.0,[1.0,0.20000000298023224,0.10000000149011612],0.05000000074505806,1.399999976158142,0.0,0.25,[1.0,1.0,1.0,1.0],0.0,0.0,[0.0,0.0,0.0],0.0,0.0,0.029999999329447746,1.5,[1.0,1.0,1.0,1.0],[0.0,0.0,0.0],0.0,0.5,[1.0,1.0,1.0,1.0],[1.0,1.0,1.0,1.0],0.0,0.0,1.3300000429153442],"is_active_output":false,"name":"Principled BSDF","outputs":[[0,0,0,0]],"type":"BSDF_PRINCIPLED_BL"},{"inputs":[[0,0,0,0],[0,0,0,0],[0.0,0.0,0.0],0.0],"is_active_output":true,"name":"Material Output","outputs":[],"type":"OUTPUT_MATERIAL_BL"}]}}},"name":"Black rim"},{"alphaMode":"OPAQUE","extensions":{"S8S_v3d_materials":{"gtaoVisible":true,"materialIndex":0,"nodeGraph":{"edges":[{"fromNode":2,"fromOutput":0,"toInput":0,"toNode":1},{"fromNode":1,"fromOutput":0,"toInput":0,"toNode":0}],"nodes":[{"inputs":[[0,0,0,0],[0,0,0,0],[0.0,0.0,0.0],0.0],"is_active_output":true,"name":"Material Output","outputs":[],"type":"OUTPUT_MATERIAL_BL"},{"inputs":[[1.0,1.0,1.0,1.0],1.0],"is_active_output":false,"name":"Emission","outputs":[[0,0,0,0]],"type":"EMISSION_BL"},{"alphaMode":"STRAIGHT","inputs":[[0.0,0.0,0.0]],"is_active_output":false,"name":"Image Texture.001","outputs":[[0.0,0.0,0.0,0.0],0.0],"projection":"FLAT","projectionBlend":0.0,"texture":0,"type":"TEX_IMAGE_BL"}]}}},"name":"Bois"},{"alphaMode":"OPAQUE","extensions":{"S8S_v3d_materials":{"gtaoVisible":true,"materialIndex":0,"nodeGraph":{"edges":[{"fromNode":0,"fromOutput":0,"toInput":0,"toNode":1},{"fromNode":2,"fromOutput":0,"toInput":0,"toNode":0}],"nodes":[{"inputs":[[0.800000011920929,0.800000011920929,0.800000011920929,1.0],0.0,0.75,1.4500000476837158,1.0,[0.0,0.0,0.0],0.0,0.0,[1.0,0.20000000298023224,0.10000000149011612],0.05000000074505806,1.399999976158142,0.0,0.5,[1.0,1.0,1.0,1.0],0.0,0.0,[0.0,0.0,0.0],0.0,0.0,0.029999999329447746,1.5,[1.0,1.0,1.0,1.0],[0.0,0.0,0.0],0.0,0.5,[1.0,1.0,1.0,1.0],[1.0,1.0,1.0,1.0],0.0,0.0,1.3300000429153442],"is_active_output":false,"name":"Principled BSDF","outputs":[[0,0,0,0]],"type":"BSDF_PRINCIPLED_BL"},{"inputs":[[0,0,0,0],[0,0,0,0],[0.0,0.0,0.0],0.0],"is_active_output":true,"name":"Material Output","outputs":[],"type":"OUTPUT_MATERIAL_BL"},{"alphaMode":"STRAIGHT","inputs":[[0.0,0.0,0.0]],"is_active_output":false,"name":"Image Texture.002","outputs":[[0.0,0.0,0.0,0.0],0.0],"projection":"FLAT","projectionBlend":0.0,"texture":1,"type":"TEX_IMAGE_BL"}]}}},"name":"Gris acier"},{"alphaMode":"OPAQUE","extensions":{"S8S_v3d_materials":{"gtaoVisible":true,"materialIndex":0,"nodeGraph":{"edges":[{"fromNode":0,"fromOutput":0,"toInput":0,"toNode":1},{"fromNode":2,"fromOutput":0,"toInput":0,"toNode":0}],"nodes":[{"inputs":[[0.800000011920929,0.800000011920929,0.800000011920929,1.0],0.0,0.20000000298023224,1.4500000476837158,1.0,[0.0,0.0,0.0],0.0,0.0,[1.0,0.20000000298023224,0.10000000149011612],0.05000000074505806,1.399999976158142,0.0,0.5,[1.0,1.0,1.0,1.0],0.0,0.0,[0.0,0.0,0.0],0.0,0.0,0.029999999329447746,1.5,[1.0,1.0,1.0,1.0],[0.0,0.0,0.0],0.0,0.5,[1.0,1.0,1.0,1.0],[1.0,1.0,1.0,1.0],0.0,0.0,1.3300000429153442],"is_active_output":false,"name":"Principled BSDF","outputs":[[0,0,0,0]],"type":"BSDF_PRINCIPLED_BL"},{"inputs":[[0,0,0,0],[0,0,0,0],[0.0,0.0,0.0],0.0],"is_active_output":true,"name":"Material Output","outputs":[],"type":"OUTPUT_MATERIAL_BL"},{"alphaMode":"STRAIGHT","inputs":[[0.0,0.0,0.0]],"is_active_output":false,"name":"Image Texture.002","outputs":[[0.0,0.0,0.0,0.0],0.0],"projection":"FLAT","projectionBlend":0.0,"texture":2,"type":"TEX_IMAGE_BL"}]}}},"name":"Marbre blanc"},{"alphaMode":"OPAQUE","extensions":{"S8S_v3d_materials":{"gtaoVisible":true,"materialIndex":0,"nodeGraph":{"edges":[{"fromNode":1,"fromOutput":0,"toInput":0,"toNode":4},{"fromNode":1,"fromOutput":0,"toInput":0,"toNode":2},{"fromNode":2,"fromOutput":2,"toInput":1,"toNode":3},{"fromNode":3,"fromOutput":0,"toInput":1,"toNode":4},{"fromNode":4,"fromOutput":0,"toInput":0,"toNode":0}],"nodes":[{"inputs":[[0,0,0,0],[0,0,0,0],[0.0,0.0,0.0],0.0],"is_active_output":true,"name":"Material Output","outputs":[],"type":"OUTPUT_MATERIAL_BL"},{"alphaMode":"STRAIGHT","inputs":[[0.0,0.0,0.0]],"is_active_output":false,"name":"Image Texture.002","outputs":[[0.0,0.0,0.0,0.0],0.0],"projection":"FLAT","projectionBlend":0.0,"texture":3,"type":"TEX_IMAGE_BL"},{"inputs":[[0.800000011920929,0.800000011920929,0.800000011920929,1.0]],"is_active_output":false,"mode":"RGB","name":"Separate Color","outputs":[0.0,0.0,0.0],"type":"SEPARATE_COLOR_BL"},{"inputs":[1.0,[0.0,0.0,0.0,1.0]],"is_active_output":false,"name":"Invert Color","outputs":[[0.0,0.0,0.0,0.0]],"type":"INVERT_BL"},{"inputs":[[0.800000011920929,0.800000011920929,0.800000011920929,1.0],0.0,0.0,1.4500000476837158,1.0,[0.0,0.0,0.0],0.0,0.0,[1.0,0.20000000298023224,0.10000000149011612],0.05000000074505806,1.399999976158142,0.0,0.5,[1.0,1.0,1.0,1.0],0.0,0.0,[0.0,0.0,0.0],0.0,0.0,0.029999999329447746,1.5,[1.0,1.0,1.0,1.0],[0.0,0.0,0.0],0.0,0.5,[1.0,1.0,1.0,1.0],[1.0,1.0,1.0,1.0],0.0,0.0,1.3300000429153442],"is_active_output":false,"name":"Principled BSDF","outputs":[[0,0,0,0]],"type":"BSDF_PRINCIPLED_BL"}]}}},"name":"Marbre blanc brillant"},{"alphaMode":"OPAQUE","extensions":{"S8S_v3d_materials":{"gtaoVisible":true,"materialIndex":0,"nodeGraph":{"edges":[{"fromNode":0,"fromOutput":0,"toInput":0,"toNode":1},{"fromNode":2,"fromOutput":0,"toInput":0,"toNode":0}],"nodes":[{"inputs":[[0.800000011920929,0.800000011920929,0.800000011920929,1.0],0.0,0.2181818187236786,1.4500000476837158,1.0,[0.0,0.0,0.0],0.0,0.0,[1.0,0.20000000298023224,0.10000000149011612],0.05000000074505806,1.399999976158142,0.0,0.08636364340782166,[1.0,1.0,1.0,1.0],0.0,0.0,[0.0,0.0,0.0],0.0,0.0,0.029999999329447746,1.5,[1.0,1.0,1.0,1.0],[0.0,0.0,0.0],0.0,0.5,[1.0,1.0,1.0,1.0],[1.0,1.0,1.0,1.0],0.0,0.0,1.3300000429153442],"is_active_output":false,"name":"Principled BSDF","outputs":[[0,0,0,0]],"type":"BSDF_PRINCIPLED_BL"},{"inputs":[[0,0,0,0],[0,0,0,0],[0.0,0.0,0.0],0.0],"is_active_output":true,"name":"Material Output","outputs":[],"type":"OUTPUT_MATERIAL_BL"},{"alphaMode":"STRAIGHT","inputs":[[0.0,0.0,0.0]],"is_active_output":false,"name":"Image Texture.002","outputs":[[0.0,0.0,0.0,0.0],0.0],"projection":"FLAT","projectionBlend":0.0,"texture":4,"type":"TEX_IMAGE_BL"}]}}},"name":"Marbre Noir"},{"alphaMode":"OPAQUE","doubleSided":true,"extensions":{"S8S_v3d_materials":{"gtaoVisible":true,"materialIndex":0,"nodeGraph":{"edges":[{"fromNode":1,"fromOutput":0,"toInput":0,"toNode":0}],"nodes":[{"inputs":[[0,0,0,0],[0,0,0,0],[0.0,0.0,0.0],0.0],"is_active_output":true,"name":"Material Output","outputs":[],"type":"OUTPUT_MATERIAL_BL"},{"inputs":[],"is_active_output":false,"name":"RGB","outputs":[[0.011613854207098484,0.11443029344081879,0.40194863080978394,1.0]],"type":"RGB_BL"}]},"renderSide":"DOUBLE"}},"name":"Mesures"},{"alphaMode":"OPAQUE","extensions":{"S8S_v3d_materials":{"gtaoVisible":true,"materialIndex":0,"nodeGraph":{"edges":[{"fromNode":0,"fromOutput":0,"toInput":0,"toNode":1}],"nodes":[{"inputs":[[0.5,0.5,0.5,1.0],1.0,0.25,1.4500000476837158,1.0,[0.0,0.0,0.0],0.0,0.0,[1.0,0.20000000298023224,0.10000000149011612],0.05000000074505806,1.399999976158142,0.0,0.5,[1.0,1.0,1.0,1.0],0.0,0.0,[0.0,0.0,0.0],0.0,0.0,0.029999999329447746,1.5,[1.0,1.0,1.0,1.0],[0.0,0.0,0.0],0.0,0.5,[1.0,1.0,1.0,1.0],[1.0,1.0,1.0,1.0],0.0,0.0,1.3300000429153442],"is_active_output":false,"name":"Principled BSDF","outputs":[[0,0,0,0]],"type":"BSDF_PRINCIPLED_BL"},{"inputs":[[0,0,0,0],[0,0,0,0],[0.0,0.0,0.0],0.0],"is_active_output":true,"name":"Material Output","outputs":[],"type":"OUTPUT_MATERIAL_BL"}]}}},"name":"Metal"},{"alphaMode":"OPAQUE","extensions":{"S8S_v3d_materials":{"gtaoVisible":true,"materialIndex":0,"nodeGraph":{"edges":[{"fromNode":0,"fromOutput":0,"toInput":0,"toNode":1}],"nodes":[{"inputs":[[0.015459645539522171,0.015459645539522171,0.015459645539522171,1.0],1.0,0.4000000059604645,1.5,1.0,[0.0,0.0,0.0],0.0,0.0,[1.0,0.20000000298023224,0.10000000149011612],0.05000000074505806,1.399999976158142,0.0,0.6499999761581421,[1.0,1.0,1.0,1.0],0.0,0.0,[0.0,0.0,0.0],0.0,0.0,0.029999999329447746,1.5,[1.0,1.0,1.0,1.0],[0.0,0.0,0.0],0.0,0.5,[1.0,1.0,1.0,1.0],[1.0,1.0,1.0,1.0],0.0,0.0,1.3300000429153442],"is_active_output":false,"name":"Principled BSDF","outputs":[[0,0,0,0]],"type":"BSDF_PRINCIPLED_BL"},{"inputs":[[0,0,0,0],[0,0,0,0],[0.0,0.0,0.0],0.0],"is_active_output":true,"name":"Material Output","outputs":[],"type":"OUTPUT_MATERIAL_BL"}]}}},"name":"Pied noir"},{"alphaMode":"BLEND","extensions":{"S8S_v3d_materials":{"gtaoVisible":true,"materialIndex":0,"nodeGraph":{"edges":[{"fromNode":4,"fromOutput":0,"toInput":0,"toNode":2},{"fromNode":1,"fromOutput":0,"toInput":1,"toNode":2},{"fromNode":3,"fromOutput":0,"toInput":2,"toNode":2},{"fromNode":2,"fromOutput":0,"toInput":0,"toNode":0}],"nodes":[{"inputs":[[0,0,0,0],[0,0,0,0],[0.0,0.0,0.0],0.0],"is_active_output":true,"name":"Material Output","outputs":[],"type":"OUTPUT_MATERIAL_BL"},{"inputs":[[1.0,1.0,1.0,1.0]],"is_active_output":false,"name":"Transparent BSDF","outputs":[[0,0,0,0]],"type":"BSDF_TRANSPARENT_BL"},{"inputs":[0.5,[0,0,0,0],[0,0,0,0]],"is_active_output":false,"name":"Mix Shader","outputs":[[0,0,0,0]],"type":"MIX_SHADER_BL"},{"inputs":[],"is_active_output":false,"name":"RGB","outputs":[[0.25,0.25,0.25,1.0]],"type":"RGB_BL"},{"alphaMode":"CHANNEL_PACKED","inputs":[[0.0,0.0,0.0]],"is_active_output":false,"name":"Image Texture","outputs":[[0.0,0.0,0.0,0.0],0.0],"projection":"FLAT","projectionBlend":0.0,"texture":5,"type":"TEX_IMAGE_BL"}]}}},"name":"shadows"},{"alphaMode":"BLEND","extensions":{"S8S_v3d_materials":{"gtaoVisible":true,"materialIndex":0,"nodeGraph":{"edges":[{"fromNode":6,"fromOutput":0,"toInput":0,"toNode":5},{"fromNode":1,"fromOutput":0,"toInput":1,"toNode":5},{"fromNode":2,"fromOutput":0,"toInput":2,"toNode":5},{"fromNode":3,"fromOutput":0,"toInput":0,"toNode":6},{"fromNode":4,"fromOutput":2,"toInput":0,"toNode":3},{"fromNode":5,"fromOutput":0,"toInput":0,"toNode":0}],"nodes":[{"inputs":[[0,0,0,0],[0,0,0,0],[0.0,0.0,0.0],0.0],"is_active_output":true,"name":"Material Output","outputs":[],"type":"OUTPUT_MATERIAL_BL"},{"inputs":[[1.0,1.0,1.0,1.0]],"is_active_output":false,"name":"Transparent BSDF","outputs":[[0,0,0,0]],"type":"BSDF_TRANSPARENT_BL"},{"inputs":[],"is_active_output":false,"name":"RGB","outputs":[[0.25,0.25,0.25,1.0]],"type":"RGB_BL"},{"inputs":[[0.0,0.0,0.0],[0.0,0.0,0.0],[0.0,0.0,0.0],[1.0,1.0,1.0]],"is_active_output":false,"name":"Mapping","outputs":[[0.0,0.0,0.0]],"type":"MAPPING_BL","vectorType":"POINT"},{"inputs":[],"is_active_output":false,"name":"Texture Coordinate","object":-1,"outputs":[[0.0,0.0,0.0],[0.0,0.0,0.0],[0.0,0.0,0.0],[0.0,0.0,0.0],[0.0,0.0,0.0],[0.0,0.0,0.0],[0.0,0.0,0.0]],"type":"TEX_COORD_BL"},{"inputs":[0.5,[0,0,0,0],[0,0,0,0]],"is_active_output":false,"name":"Mix Shader","outputs":[[0,0,0,0]],"type":"MIX_SHADER_BL"},{"alphaMode":"CHANNEL_PACKED","inputs":[[0.0,0.0,0.0]],"is_active_output":false,"name":"Image Texture","outputs":[[0.0,0.0,0.0,0.0],0.0],"projection":"FLAT","projectionBlend":0.0,"texture":6,"type":"TEX_IMAGE_BL"}]}}},"name":"shadows.002"},{"alphaMode":"OPAQUE","extensions":{"S8S_v3d_materials":{"gtaoVisible":true,"materialIndex":0,"nodeGraph":{"edges":[{"fromNode":0,"fromOutput":0,"toInput":0,"toNode":1},{"fromNode":2,"fromOutput":0,"toInput":0,"toNode":0}],"nodes":[{"inputs":[[0.800000011920929,0.800000011920929,0.800000011920929,1.0],0.10000000149011612,0.0,1.5,1.0,[0.0,0.0,0.0],0.0,0.0,[1.0,0.20000000298023224,0.10000000149011612],0.05000000074505806,1.399999976158142,0.0,0.5,[1.0,1.0,1.0,1.0],0.0,0.0,[0.0,0.0,0.0],0.0,0.0,0.029999999329447746,1.5,[1.0,1.0,1.0,1.0],[0.0,0.0,0.0],0.0,0.5,[1.0,1.0,1.0,1.0],[1.0,1.0,1.0,1.0],0.0,0.0,1.3300000429153442],"is_active_output":false,"name":"Principled BSDF","outputs":[[0,0,0,0]],"type":"BSDF_PRINCIPLED_BL"},{"inputs":[[0,0,0,0],[0,0,0,0],[0.0,0.0,0.0],0.0],"is_active_output":true,"name":"Material Output","outputs":[],"type":"OUTPUT_MATERIAL_BL"},{"alphaMode":"STRAIGHT","inputs":[[0.0,0.0,0.0]],"is_active_output":false,"name":"Image Texture","outputs":[[0.800000011920929,0.800000011920929,0.800000011920929,1.0],0.0],"projection":"FLAT","projectionBlend":0.0,"texture":7,"type":"TEX_IMAGE_BL"}]}}},"name":"Travertin"},{"alphaMode":"OPAQUE","extensions":{"S8S_v3d_materials":{"gtaoVisible":true,"materialIndex":0,"nodeGraph":{"edges":[{"fromNode":1,"fromOutput":0,"toInput":0,"toNode":0},{"fromNode":2,"fromOutput":0,"toInput":0,"toNode":1}],"nodes":[{"inputs":[[0,0,0,0],[0,0,0,0]],"is_active_output":true,"name":"World Output","outputs":[],"type":"OUTPUT_WORLD_BL"},{"inputs":[[0.6252301335334778,0.6252301335334778,0.6252301335334778,1.0],1.0],"is_active_output":false,"name":"Background","outputs":[[0,0,0,0]],"type":"BACKGROUND_BL"},{"inputs":[[0.0,0.0,0.0]],"is_active_output":false,"name":"Environment Texture","outputs":[[0.0,0.0,0.0,0.0]],"projection":"EQUIRECTANGULAR","texture":8,"type":"TEX_ENVIRONMENT_BL"}]}}},"name":"Verge3D_Environment_World"}],"meshes":[{"extensions":{"S8S_v3d_mesh":{"colorLayers":{},"uvLayers":{"UVMap":"TEXCOORD_0"}}},"name":"Cube","primitives":[{"attributes":{"NORMAL":2,"POSITION":1,"TEXCOORD_0":3},"indices":0,"material":8,"mode":4}]},{"extensions":{"S8S_v3d_mesh":{"colorLayers":{},"uvLayers":{"UVMap":"TEXCOORD_0"}}},"name":"Cube.001","primitives":[{"attributes":{"NORMAL":6,"POSITION":5,"TEXCOORD_0":7},"indices":4,"material":8,"mode":4},{"attributes":{"NORMAL":10,"POSITION":9,"TEXCOORD_0":11},"indices":8,"material":7,"mode":4}]},{"extensions":{"S8S_v3d_mesh":{"colorLayers":{},"uvLayers":{"UVMap":"TEXCOORD_0"}}},"name":"Cube.002","primitives":[{"attributes":{"NORMAL":14,"POSITION":13,"TEXCOORD_0":15},"indices":12,"material":8,"mode":4}]},{"extensions":{"S8S_v3d_mesh":{"colorLayers":{},"uvLayers":{"UVMap":"TEXCOORD_0"}}},"name":"Cube.004","primitives":[{"attributes":{"NORMAL":18,"POSITION":17,"TEXCOORD_0":19},"indices":16,"material":8,"mode":4},{"attributes":{"NORMAL":22,"POSITION":21,"TEXCOORD_0":23},"indices":20,"material":7,"mode":4}]},{"extensions":{"S8S_v3d_mesh":{"colorLayers":{},"uvLayers":{"UVMap":"TEXCOORD_0"}}},"name":"Cylinder.004","primitives":[{"attributes":{"NORMAL":26,"POSITION":25,"TEXCOORD_0":27},"indices":24,"material":8,"mode":4}]},{"extensions":{"S8S_v3d_mesh":{"colorLayers":{},"uvLayers":{"UVMap":"TEXCOORD_0"}}},"name":"Cylinder.008","primitives":[{"attributes":{"NORMAL":30,"POSITION":29,"TEXCOORD_0":31},"indices":28,"material":8,"mode":4}]},{"extensions":{"S8S_v3d_mesh":{"colorLayers":{},"uvLayers":{"UVMap":"TEXCOORD_0"}}},"name":"Cylinder.022","primitives":[{"attributes":{"NORMAL":34,"POSITION":33,"TEXCOORD_0":35},"indices":32,"material":8,"mode":4}]},{"extensions":{"S8S_v3d_mesh":{"colorLayers":{},"uvLayers":{"UVMap":"TEXCOORD_0"}}},"name":"Plane.001","primitives":[{"attributes":{"NORMAL":38,"POSITION":37,"TEXCOORD_0":39},"indices":36,"material":11,"mode":4}]},{"extensions":{"S8S_v3d_mesh":{"colorLayers":{},"uvLayers":{"UVMap":"TEXCOORD_0"}}},"name":"Plane.004","primitives":[{"attributes":{"NORMAL":42,"POSITION":41,"TEXCOORD_0":43},"indices":40,"material":8,"mode":4}]},{"extensions":{"S8S_v3d_mesh":{"colorLayers":{},"uvLayers":{"UVMap":"TEXCOORD_0"}}},"name":"Plane.005","primitives":[{"attributes":{"NORMAL":46,"POSITION":45,"TEXCOORD_0":47},"indices":44,"material":3,"mode":4}]},{"extensions":{"S8S_v3d_mesh":{"colorLayers":{},"uvLayers":{"UVMap":"TEXCOORD_0"}}},"name":"Plane.009","primitives":[{"attributes":{"NORMAL":50,"POSITION":49,"TEXCOORD_0":51},"indices":48,"material":2,"mode":4}]},{"extensions":{"S8S_v3d_mesh":{"colorLayers":{},"uvLayers":{"UVMap":"TEXCOORD_0"}}},"name":"Plane.011","primitives":[{"attributes":{"NORMAL":54,"POSITION":53,"TEXCOORD_0":55},"indices":52,"material":4,"mode":4}]},{"extensions":{"S8S_v3d_mesh":{"colorLayers":{},"uvLayers":{"UVMap":"TEXCOORD_0"}}},"name":"Plane.017","primitives":[{"attributes":{"NORMAL":58,"POSITION":57,"TEXCOORD_0":59},"indices":56,"material":8,"mode":4}]},{"extensions":{"S8S_v3d_mesh":{"colorLayers":{},"uvLayers":{"UVMap":"TEXCOORD_0"}}},"name":"Plane.018","primitives":[{"attributes":{"NORMAL":62,"POSITION":61,"TEXCOORD_0":63},"indices":60,"material":8,"mode":4}]},{"extensions":{"S8S_v3d_mesh":{"colorLayers":{},"uvLayers":{"UVMap":"TEXCOORD_0"}}},"name":"Plane.019","primitives":[{"attributes":{"NORMAL":66,"POSITION":65,"TEXCOORD_0":67},"indices":64,"material":8,"mode":4}]},{"extensions":{"S8S_v3d_mesh":{"colorLayers":{},"uvLayers":{"UVMap":"TEXCOORD_0"}}},"name":"Plane.021","primitives":[{"attributes":{"NORMAL":70,"POSITION":69,"TEXCOORD_0":71},"indices":68,"material":8,"mode":4}]},{"extensions":{"S8S_v3d_mesh":{"colorLayers":{},"uvLayers":{"UVMap":"TEXCOORD_0"}}},"name":"Plane.022","primitives":[{"attributes":{"NORMAL":74,"POSITION":73,"TEXCOORD_0":75},"indices":72,"material":1,"mode":4}]},{"extensions":{"S8S_v3d_mesh":{"colorLayers":{},"uvLayers":{"UVMap":"TEXCOORD_0"}}},"name":"Plane.023","primitives":[{"attributes":{"NORMAL":78,"POSITION":77,"TEXCOORD_0":79},"indices":76,"material":5,"mode":4}]},{"extensions":{"S8S_v3d_mesh":{"colorLayers":{},"uvLayers":{"UVMap":"TEXCOORD_0"}}},"name":"Plane.026","primitives":[{"attributes":{"NORMAL":82,"POSITION":81,"TEXCOORD_0":83},"indices":80,"material":9,"mode":4}]},{"extensions":{"S8S_v3d_mesh":{"colorLayers":{},"uvLayers":{"UVMap":"TEXCOORD_0"}}},"name":"Plane.027","primitives":[{"attributes":{"NORMAL":86,"POSITION":85,"TEXCOORD_0":87},"indices":84,"material":10,"mode":4}]},{"extensions":{"S8S_v3d_mesh":{"colorLayers":{},"uvLayers":{"UVMap":"TEXCOORD_0"}}},"name":"Plane.038","primitives":[{"attributes":{"NORMAL":90,"POSITION":89,"TEXCOORD_0":91},"indices":88,"material":8,"mode":4}]},{"extensions":{"S8S_v3d_mesh":{"colorLayers":{},"uvLayers":{"UVMap":"TEXCOORD_0"}}},"name":"Plane.061","primitives":[{"attributes":{"NORMAL":94,"POSITION":93,"TEXCOORD_0":95},"indices":92,"material":6,"mode":4}]},{"extensions":{"S8S_v3d_mesh":{"colorLayers":{},"uvLayers":{"UVMap":"TEXCOORD_0"}}},"name":"Plateau Rectangle.001","primitives":[{"attributes":{"NORMAL":98,"POSITION":97,"TEXCOORD_0":99},"indices":96,"material":5,"mode":4},{"attributes":{"NORMAL":102,"POSITION":101,"TEXCOORD_0":103},"indices":100,"material":0,"mode":4}]},{"extensions":{"S8S_v3d_mesh":{"colorLayers":{},"uvLayers":{"UVMap":"TEXCOORD_0"}}},"name":"Plateau Rectangle.011","primitives":[{"attributes":{"NORMAL":106,"POSITION":105,"TEXCOORD_0":107},"indices":104,"material":5,"mode":4},{"attributes":{"NORMAL":110,"POSITION":109,"TEXCOORD_0":111},"indices":108,"material":0,"mode":4}]},{"extensions":{"S8S_v3d_mesh":{"colorLayers":{},"uvLayers":{"UVMap":"TEXCOORD_0"}}},"name":"Plateau Rectangle.013","primitives":[{"attributes":{"NORMAL":114,"POSITION":113,"TEXCOORD_0":115},"indices":112,"material":5,"mode":4},{"attributes":{"NORMAL":118,"POSITION":117,"TEXCOORD_0":119},"indices":116,"material":0,"mode":4}]},{"extensions":{"S8S_v3d_mesh":{"colorLayers":{},"uvLayers":{"UVMap":"TEXCOORD_0"}}},"name":"Text","primitives":[{"attributes":{"NORMAL":122,"POSITION":121,"TEXCOORD_0":123},"indices":120,"material":6,"mode":4}]}],"nodes":[{"camera":0,"extensions":{"S8S_v3d_node":{"frustumCulling":true,"groupNames":[],"hidden":false,"hidpiCompositing":false,"objectColor":[1.0,1.0,1.0,1.0],"objectIndex":0,"renderOrder":0,"useCastShadows":true}},"name":"Camera","rotation":[-0.1802830845117569,0.0,0.0,0.9836148023605347],"scale":[1.0,0.9999999403953552,0.9999999403953552],"translation":[-3.5502515128415103e-16,1.8545500040054321,3.821500062942505]},{"extensions":{"S8S_v3d_node":{"frustumCulling":true,"groupNames":["autre textures"],"hidden":false,"hidpiCompositing":false,"objectColor":[1.0,1.0,1.0,1.0],"objectIndex":0,"renderOrder":0,"useCastShadows":true,"useShadows":true}},"mesh":9,"name":"Plane.006","scale":[0.01891116052865982,0.01891116052865982,0.01891116052865982],"translation":[-0.005793051794171333,0.6542068123817444,-0.04893612116575241]},{"extensions":{"S8S_v3d_node":{"frustumCulling":true,"groupNames":["autre textures"],"hidden":false,"hidpiCompositing":false,"objectColor":[1.0,1.0,1.0,1.0],"objectIndex":0,"renderOrder":0,"useCastShadows":true,"useShadows":true}},"mesh":17,"name":"Plane.023","scale":[0.01891116052865982,0.01891116052865982,0.01891116052865982],"translation":[0.040620625019073486,0.6542068123817444,0.04189853370189667]},{"extensions":{"S8S_v3d_node":{"frustumCulling":true,"groupNames":["Plateau"],"hidden":false,"hidpiCompositing":false,"objectColor":[1.0,1.0,1.0,1.0],"objectIndex":0,"renderOrder":0,"useCastShadows":true,"useShadows":true}},"mesh":23,"name":"Plateau Tonneau","scale":[0.8124410510063171,1.0,1.0],"translation":[0.0,0.7421818375587463,-0.0]},{"children":[3],"name":"v3d_Proxy_Node_0_Plateau Tonneau","translation":[-0.0,-0.8011006116867065,-0.0]},{"children":[25,31,4],"extensions":{"S8S_v3d_node":{"frustumCulling":true,"groupNames":["Plateau"],"hidden":false,"hidpiCompositing":false,"objectColor":[1.0,1.0,1.0,1.0],"objectIndex":0,"renderOrder":0,"useCastShadows":true}},"name":"plateau ","rotation":[-0.0,-1.0,0.0,1.6292068494294654e-07],"translation":[0.0,0.8146017789840698,-0.0]},{"extensions":{"S8S_v3d_node":{"frustumCulling":true,"groupNames":["Pied","PT"],"hidden":false,"hidpiCompositing":false,"objectColor":[1.0,1.0,1.0,1.0],"objectIndex":0,"renderOrder":0,"useCastShadows":true,"useShadows":true}},"mesh":0,"name":"Cube","scale":[0.009740597568452358,0.046545229852199554,0.290492445230484],"translation":[-0.17240150272846222,0.6504760384559631,0.004235643893480301]},{"extensions":{"S8S_v3d_node":{"frustumCulling":true,"groupNames":["Base"],"hidden":false,"hidpiCompositing":false,"objectColor":[1.0,1.0,1.0,1.0],"objectIndex":0,"renderOrder":0,"useCastShadows":true,"useShadows":true}},"mesh":13,"name":"Plane.009"},{"children":[7],"name":"v3d_Proxy_Node_0_Plane.009","translation":[0.645952582359314,-0.8458549380302429,-0.0]},{"extensions":{"S8S_v3d_node":{"frustumCulling":true,"groupNames":["Base"],"hidden":false,"hidpiCompositing":false,"objectColor":[1.0,1.0,1.0,1.0],"objectIndex":0,"renderOrder":0,"useCastShadows":true,"useShadows":true}},"mesh":1,"name":"Cube.001"},{"children":[9],"name":"v3d_Proxy_Node_0_Cube.001","translation":[-0.6459530591964722,-0.8458549380302429,-0.0]},{"extensions":{"S8S_v3d_node":{"frustumCulling":true,"groupNames":["autre textures"],"hidden":false,"hidpiCompositing":false,"objectColor":[1.0,1.0,1.0,1.0],"objectIndex":0,"renderOrder":0,"useCastShadows":true,"useShadows":true}},"mesh":10,"name":"Plane.007","scale":[0.01891116052865982,0.01891116052865982,0.01891116052865982],"translation":[-0.05389099568128586,0.6542068123817444,-0.04893612116575241]},{"extensions":{"S8S_v3d_node":{"frustumCulling":true,"groupNames":["Pied","PX"],"hidden":false,"hidpiCompositing":false,"objectColor":[1.0,1.0,1.0,1.0],"objectIndex":0,"renderOrder":0,"useCastShadows":true,"useShadows":true}},"mesh":6,"name":"PX"},{"extensions":{"S8S_v3d_node":{"frustumCulling":true,"groupNames":["Pied","PX"],"hidden":false,"hidpiCompositing":false,"objectColor":[1.0,1.0,1.0,1.0],"objectIndex":0,"renderOrder":0,"useCastShadows":true,"useShadows":true}},"mesh":2,"name":"Cube.002"},{"extensions":{"S8S_v3d_node":{"frustumCulling":true,"groupNames":["Base"],"hidden":false,"hidpiCompositing":false,"objectColor":[1.0,1.0,1.0,1.0],"objectIndex":0,"renderOrder":0,"useCastShadows":true,"useShadows":true}},"mesh":14,"name":"Plane.010"},{"children":[14],"name":"v3d_Proxy_Node_0_Plane.010","translation":[-0.6459530591964722,-0.8458549380302429,-0.0]},{"children":[38,20,8,29],"extensions":{"S8S_v3d_node":{"frustumCulling":true,"groupNames":["Plateau"],"hidden":false,"hidpiCompositing":false,"objectColor":[1.0,1.0,1.0,1.0],"objectIndex":0,"renderOrder":0,"useCastShadows":true}},"name":"rallonge 1","translation":[-0.2959994375705719,0.8458549380302429,-0.0]},{"extensions":{"S8S_v3d_node":{"frustumCulling":true,"groupNames":["Base"],"hidden":false,"hidpiCompositing":false,"objectColor":[1.0,1.0,1.0,1.0],"objectIndex":0,"renderOrder":0,"useCastShadows":true,"useShadows":true}},"mesh":8,"name":"Plane.011"},{"children":[17],"name":"v3d_Proxy_Node_0_Plane.011","translation":[-0.6459530591964722,-0.8458549380302429,-0.0]},{"extensions":{"S8S_v3d_node":{"frustumCulling":true,"groupNames":["Base"],"hidden":false,"hidpiCompositing":false,"objectColor":[1.0,1.0,1.0,1.0],"objectIndex":0,"renderOrder":0,"useCastShadows":true,"useShadows":true}},"mesh":3,"name":"Cube.004"},{"children":[19],"name":"v3d_Proxy_Node_0_Cube.004","translation":[0.645952582359314,-0.8458549380302429,-0.0]},{"children":[33,10,15,18],"extensions":{"S8S_v3d_node":{"frustumCulling":true,"groupNames":["Plateau"],"hidden":false,"hidpiCompositing":false,"objectColor":[1.0,1.0,1.0,1.0],"objectIndex":0,"renderOrder":0,"useCastShadows":true}},"name":"rallonge 2","translation":[0.2959989905357361,0.8458549380302429,-0.0]},{"extensions":{"S8S_v3d_node":{"frustumCulling":true,"groupNames":["Mesures"],"hidden":false,"hidpiCompositing":false,"objectColor":[1.0,1.0,1.0,1.0],"objectIndex":0,"renderOrder":0,"useCastShadows":true,"useShadows":true}},"mesh":25,"name":"130"},{"extensions":{"S8S_v3d_node":{"frustumCulling":true,"groupNames":["Pied","PT"],"hidden":false,"hidpiCompositing":false,"objectColor":[1.0,1.0,1.0,1.0],"objectIndex":0,"renderOrder":0,"useCastShadows":true,"useShadows":true}},"mesh":20,"name":"Plane.012"},{"extensions":{"S8S_v3d_node":{"frustumCulling":true,"groupNames":["Base"],"hidden":false,"hidpiCompositing":false,"objectColor":[1.0,1.0,1.0,1.0],"objectIndex":0,"renderOrder":0,"useCastShadows":true,"useShadows":true}},"mesh":5,"name":"Cylinder.002","scale":[0.02240552008152008,0.014396057464182377,0.02240552008152008],"translation":[0.0,0.7525317072868347,-0.0]},{"children":[24],"name":"v3d_Proxy_Node_0_Cylinder.002","translation":[-0.0,-0.8011006116867065,-0.0]},{"extensions":{"S8S_v3d_node":{"frustumCulling":true,"groupNames":["Mesures"],"hidden":false,"hidpiCompositing":false,"objectColor":[1.0,1.0,1.0,1.0],"objectIndex":0,"renderOrder":0,"useCastShadows":true,"useShadows":true}},"mesh":21,"name":"130 allonges"},{"extensions":{"S8S_v3d_node":{"frustumCulling":true,"groupNames":["Pied","PT"],"hidden":false,"hidpiCompositing":false,"objectColor":[1.0,1.0,1.0,1.0],"objectIndex":0,"renderOrder":0,"useCastShadows":true,"useShadows":true}},"mesh":19,"name":"shadows_PT","scale":[0.38924551010131836,0.38924551010131836,0.38924551010131836],"translation":[0.0,0.0003090905665885657,-0.001354763749986887]},{"extensions":{"S8S_v3d_node":{"frustumCulling":true,"groupNames":["Base"],"hidden":false,"hidpiCompositing":false,"objectColor":[1.0,1.0,1.0,1.0],"objectIndex":0,"renderOrder":0,"useCastShadows":true,"useShadows":true}},"mesh":15,"name":"Plane.018"},{"children":[28],"name":"v3d_Proxy_Node_0_Plane.018","translation":[0.645952582359314,-0.8458549380302429,-0.0]},{"extensions":{"S8S_v3d_node":{"frustumCulling":true,"groupNames":["Base"],"hidden":false,"hidpiCompositing":false,"objectColor":[1.0,1.0,1.0,1.0],"objectIndex":0,"renderOrder":0,"useCastShadows":true,"useShadows":true}},"mesh":4,"name":"Cylinder.003","scale":[0.014738891273736954,0.10777471214532852,0.014738891273736954],"translation":[0.0,0.6454722285270691,-0.0]},{"children":[30],"name":"v3d_Proxy_Node_0_Cylinder.003","translation":[-0.0,-0.8011006116867065,-0.0]},{"extensions":{"S8S_v3d_node":{"frustumCulling":true,"groupNames":["Plateau"],"hidden":false,"hidpiCompositing":false,"objectColor":[1.0,1.0,1.0,1.0],"objectIndex":0,"renderOrder":0,"useCastShadows":true,"useShadows":true}},"mesh":24,"name":"allonge tonneau.001","scale":[0.8124410510063171,1.0,1.0],"translation":[0.0,0.7380669713020325,-0.0]},{"children":[32],"name":"v3d_Proxy_Node_0_allonge tonneau.001","translation":[-0.6459530591964722,-0.8458549380302429,-0.0]},{"extensions":{"S8S_v3d_node":{"frustumCulling":true,"groupNames":["Pied","PX"],"hidden":false,"hidpiCompositing":false,"objectColor":[1.0,1.0,1.0,1.0],"objectIndex":0,"renderOrder":0,"useCastShadows":true,"useShadows":true}},"mesh":18,"name":"Shadows_PX"},{"extensions":{"S8S_v3d_node":{"frustumCulling":true,"groupNames":["Base"],"hidden":false,"hidpiCompositing":false,"objectColor":[1.0,1.0,1.0,1.0],"objectIndex":0,"renderOrder":0,"useCastShadows":true,"useShadows":true}},"mesh":12,"name":"Plane","scale":[1.0,0.8666483759880066,1.0],"translation":[0.0,0.7121140360832214,-0.30922624468803406]},{"extensions":{"S8S_v3d_node":{"frustumCulling":true,"groupNames":["autre textures"],"hidden":false,"hidpiCompositing":false,"objectColor":[1.0,1.0,1.0,1.0],"objectIndex":0,"renderOrder":0,"useCastShadows":true,"useShadows":true}},"mesh":11,"name":"Plane.021","scale":[0.01891116052865982,0.01891116052865982,0.01891116052865982],"translation":[-0.005793051794171333,0.6542068123817444,0.04189853370189667]},{"extensions":{"S8S_v3d_node":{"frustumCulling":true,"groupNames":["Plateau"],"hidden":false,"hidpiCompositing":false,"objectColor":[1.0,1.0,1.0,1.0],"objectIndex":0,"renderOrder":0,"useCastShadows":true,"useShadows":true}},"mesh":22,"name":"allonge tonneau.002","scale":[0.8124410510063171,1.0,1.0],"translation":[0.0,0.7380672097206116,-0.0]},{"children":[37],"name":"v3d_Proxy_Node_0_allonge tonneau.002","translation":[0.645952582359314,-0.8458549380302429,-0.0]},{"extensions":{"S8S_v3d_node":{"frustumCulling":true,"groupNames":["autre textures"],"hidden":false,"hidpiCompositing":false,"objectColor":[1.0,1.0,1.0,1.0],"objectIndex":0,"renderOrder":0,"useCastShadows":true,"useShadows":true}},"mesh":16,"name":"Plane.022","scale":[0.01891116052865982,0.01891116052865982,0.01891116052865982],"translation":[-0.05389099568128586,0.6542068123817444,0.04189853370189667]},{"extensions":{"S8S_v3d_node":{"frustumCulling":true,"groupNames":["autre textures"],"hidden":false,"hidpiCompositing":false,"objectColor":[1.0,1.0,1.0,1.0],"objectIndex":0,"renderOrder":0,"useCastShadows":true,"useShadows":true}},"mesh":7,"name":"Plane.001","scale":[0.01891116052865982,0.01891116052865982,0.01891116052865982],"translation":[0.08611638844013214,0.6542068123817444,0.04189853370189667]}],"samplers":[{}],"scene":0,"scenes":[{"extensions":{"S8S_v3d_scene":{"aaMethod":"AUTO","iblEnvironmentMode":"PMREM","physicallyCorrectLights":true,"pmremMaxTileSize":512,"postprocessing":[{"bentNormals":false,"distance":0.20000000298023224,"factor":1.0,"precision":0.25,"type":"gtao"}],"shadowMap":{"esmDistanceScale":1.0,"renderReverseSided":false,"renderSingleSided":true,"type":"PCFPOISSON"},"toneMapping":{"look":"NONE","type":"agxBlender"},"worldMaterial":12}},"extras":{"animFrameRate":30,"coordSystem":"Z_UP_RIGHT"},"name":"Scene","nodes":[0,16,5,21,22,26,12,13,34,6,23,27,35,1,11,36,39,2,40]}],"textures":[{"extensions":{"S8S_v3d_texture":{"anisotropy":16,"colorSpace":"srgb"}},"name":"wood.jpg","sampler":0,"source":0},{"extensions":{"S8S_v3d_texture":{"anisotropy":16,"colorSpace":"srgb"}},"name":"Gris acier.jpg","sampler":0,"source":1},{"extensions":{"S8S_v3d_texture":{"anisotropy":16,"colorSpace":"srgb"}},"name":"white_marble.jpg","sampler":0,"source":2},{"extensions":{"S8S_v3d_texture":{"anisotropy":16,"colorSpace":"srgb"}},"name":"Marbre_blanc_brillant.jpg","sampler":0,"source":3},{"extensions":{"S8S_v3d_texture":{"anisotropy":16,"colorSpace":"srgb"}},"name":"marbre_noir.jpg.001","sampler":0,"source":4},{"extensions":{"S8S_v3d_texture":{"colorSpace":"non-color"}},"name":"shadows.jpg","sampler":0,"source":5},{"extensions":{"S8S_v3d_texture":{"colorSpace":"non-color"}},"name":"Shadows2.jpg","sampler":0,"source":6},{"extensions":{"S8S_v3d_texture":{"anisotropy":16,"colorSpace":"srgb"}},"name":"Travertin.jpg","sampler":0,"source":7},{"extensions":{"S8S_v3d_texture":{"colorSpace":"linear rec.709","source":8}},"name":"env-metal-1.hdr.001","sampler":0}]}
