{"accessors":[{"bufferView":0,"componentType":5123,"count":12288,"max":[2179],"min":[0],"type":"SCALAR"},{"bufferView":1,"componentType":5126,"count":2180,"max":[28.090105056762695,62.63510513305664,15.58748722076416],"min":[-28.090105056762695,36.82512283325195,-19.240610122680664],"type":"VEC3"},{"bufferView":2,"componentType":5126,"count":2180,"max":[0.9997586607933044,0.9998939037322998,0.9949091076850891],"min":[-0.9997586607933044,-0.9998964071273804,-0.9914404153823853],"type":"VEC3"},{"bufferView":3,"componentType":5126,"count":2180,"max":[0.9924929141998291,0.7373252511024475,0.7079742550849915,1.0],"min":[-0.992493212223053,-0.9999415278434753,-0.999993085861206,-1.0],"type":"VEC4"},{"bufferView":4,"componentType":5126,"count":2180,"max":[0.9951522350311279,0.5798211097717285],"min":[0.03564468026161194,0.046371519565582275],"type":"VEC2"},{"bufferView":5,"componentType":5123,"count":2628,"max":[648],"min":[0],"type":"SCALAR"},{"bufferView":6,"componentType":5126,"count":649,"max":[26.589506149291992,33.06196594238281,26.589502334594727],"min":[-26.589506149291992,0.0,-26.58949851989746],"type":"VEC3"},{"bufferView":7,"componentType":5126,"count":649,"max":[0.9999996423721313,0.9999488592147827,0.9999996423721313],"min":[-0.9999996423721313,-1.0,-0.9999996423721313],"type":"VEC3"},{"bufferView":8,"componentType":5126,"count":649,"max":[1.0,0.9999423623085022,1.0,1.0],"min":[-0.9510519504547119,-0.9999504089355469,-1.0,1.0],"type":"VEC4"},{"bufferView":9,"componentType":5126,"count":649,"max":[0.9994608163833618,0.99951171875],"min":[0.00048828125,0.00048828125],"type":"VEC2"},{"bufferView":10,"componentType":5123,"count":16932,"max":[3783],"min":[0],"type":"SCALAR"},{"bufferView":11,"componentType":5126,"count":3784,"max":[5.783989906311035,36.955448150634766,5.7800798416137695],"min":[-5.783989906311035,33.02851867675781,-5.7899017333984375],"type":"VEC3"},{"bufferView":12,"componentType":5126,"count":3784,"max":[1.0,0.6957389116287231,1.0],"min":[-1.0,-0.9999884963035583,-1.0],"type":"VEC3"},{"bufferView":13,"componentType":5126,"count":3784,"max":[1.0,0.999994158744812,0.9999980926513672,1.0],"min":[-1.0,-0.9999760389328003,-0.9999416470527649,-1.0],"type":"VEC4"},{"bufferView":14,"componentType":5126,"count":3784,"max":[0.9329382181167603,0.9995116591453552],"min":[0.00048828125,0.08310067653656006],"type":"VEC2"},{"bufferView":15,"componentType":5123,"count":64848,"max":[11723],"min":[0],"type":"SCALAR"},{"bufferView":16,"componentType":5126,"count":11724,"max":[24.938434600830078,85.97062683105469,24.65656089782715],"min":[-24.938371658325195,35.534732818603516,-31.454856872558594],"type":"VEC3"},{"bufferView":17,"componentType":5126,"count":11724,"max":[0.999999463558197,0.9999931454658508,0.9999973177909851],"min":[-0.9999995231628418,-0.9999995231628418,-0.9999704957008362],"type":"VEC3"},{"bufferView":18,"componentType":5126,"count":11724,"max":[0.792271614074707,0.9991330504417419,0.9999935626983643,1.0],"min":[-1.0,-0.9978299736976624,-0.9998995661735535,1.0],"type":"VEC4"},{"bufferView":19,"componentType":5126,"count":11724,"max":[0.9624308347702026,0.9881634712219238],"min":[0.011333644390106201,0.013807296752929688],"type":"VEC2"},{"bufferView":20,"componentType":5121,"count":6,"max":[3],"min":[0],"type":"SCALAR"},{"bufferView":21,"componentType":5126,"count":4,"max":[1.0626857280731201,0.0,0.9582338929176331],"min":[-1.0550174713134766,0.0,-0.8767589926719666],"type":"VEC3"},{"bufferView":22,"componentType":5126,"count":4,"max":[0.0,1.0,-0.0],"min":[0.0,1.0,-0.0],"type":"VEC3"},{"bufferView":23,"componentType":5126,"count":4,"max":[1.0,1.0],"min":[0.0,0.0],"type":"VEC2"},{"bufferView":24,"componentType":5121,"count":24,"max":[11],"min":[0],"type":"SCALAR"},{"bufferView":25,"componentType":5126,"count":12,"max":[6.468577673501841e-09,1.1649187392492877e-08,0.007399829104542732],"min":[-0.010297410190105438,-0.0008896340732462704,-0.007239002268761396],"type":"VEC3"},{"bufferView":26,"componentType":5126,"count":12,"max":[0.09415704011917114,1.0,0.0],"min":[-0.49669313430786133,-0.9955573678016663,-1.0000003385357559e-06],"type":"VEC3"},{"bufferView":27,"componentType":5126,"count":12,"max":[0.9181796312332153,1.0],"min":[0.08182041347026825,0.0],"type":"VEC2"},{"bufferView":28,"componentType":5126,"count":69,"max":[2.9000000953674316],"min":[0.0],"type":"SCALAR"},{"bufferView":29,"componentType":5126,"count":69,"max":[0.0,0.7071067690849304,-0.0,1.0],"min":[0.0,-0.7071067690849304,-0.0,0.7071067690849304],"type":"VEC4"}],"animations":[{"channels":[{"sampler":0,"target":{"node":11,"path":"rotation"}}],"extensions":{"S8S_v3d_animation":{"auto":true,"loop":"REPEAT","offset":0.0,"repeatCount":1.0,"repeatInfinite":true}},"name":"Empty","samplers":[{"input":28,"interpolation":"LINEAR","output":29}]}],"asset":{"generator":"Verge3D for Blender v4.8.0","version":"2.0"},"bufferViews":[{"buffer":0,"byteLength":24576,"byteOffset":0,"target":34963},{"buffer":0,"byteLength":26160,"byteOffset":24576,"target":34962},{"buffer":0,"byteLength":26160,"byteOffset":50736,"target":34962},{"buffer":0,"byteLength":34880,"byteOffset":76896,"target":34962},{"buffer":0,"byteLength":17440,"byteOffset":111776,"target":34962},{"buffer":0,"byteLength":5256,"byteOffset":129216,"target":34963},{"buffer":0,"byteLength":7788,"byteOffset":134472,"target":34962},{"buffer":0,"byteLength":7788,"byteOffset":142260,"target":34962},{"buffer":0,"byteLength":10384,"byteOffset":150048,"target":34962},{"buffer":0,"byteLength":5192,"byteOffset":160432,"target":34962},{"buffer":0,"byteLength":33864,"byteOffset":165624,"target":34963},{"buffer":0,"byteLength":45408,"byteOffset":199488,"target":34962},{"buffer":0,"byteLength":45408,"byteOffset":244896,"target":34962},{"buffer":0,"byteLength":60544,"byteOffset":290304,"target":34962},{"buffer":0,"byteLength":30272,"byteOffset":350848,"target":34962},{"buffer":0,"byteLength":129696,"byteOffset":381120,"target":34963},{"buffer":0,"byteLength":140688,"byteOffset":510816,"target":34962},{"buffer":0,"byteLength":140688,"byteOffset":651504,"target":34962},{"buffer":0,"byteLength":187584,"byteOffset":792192,"target":34962},{"buffer":0,"byteLength":93792,"byteOffset":979776,"target":34962},{"buffer":0,"byteLength":6,"byteOffset":1073568,"target":34963},{"buffer":0,"byteLength":48,"byteOffset":1073576,"target":34962},{"buffer":0,"byteLength":48,"byteOffset":1073624,"target":34962},{"buffer":0,"byteLength":32,"byteOffset":1073672,"target":34962},{"buffer":0,"byteLength":24,"byteOffset":1073704,"target":34963},{"buffer":0,"byteLength":144,"byteOffset":1073728,"target":34962},{"buffer":0,"byteLength":144,"byteOffset":1073872,"target":34962},{"buffer":0,"byteLength":96,"byteOffset":1074016,"target":34962},{"buffer":0,"byteLength":276,"byteOffset":1074112},{"buffer":0,"byteLength":1104,"byteOffset":1074388}],"buffers":[{"byteLength":1075492,"uri":"Tablacasa-Chaise-Adeline.bin"}],"cameras":[{"extensions":{"S8S_v3d_camera":{"controls":"ORBIT","enablePan":false,"moveSpeed":1.0,"orbitMaxDistance":4.0,"orbitMaxPolarAngle":3.1415927410125732,"orbitMaxZoom":100.0,"orbitMinDistance":1.0,"orbitMinPolarAngle":0.0,"orbitMinZoom":0.009999999776482582,"orbitTarget":[0.0,0.375,-0.0],"rotateSpeed":1.0,"viewportFitInitialAspect":1.7777777777777777,"viewportFitType":"AUTO"}},"name":"Camera.001","perspective":{"aspectRatio":1.7777777777777777,"yfov":0.39959652046304894,"zfar":1000.0,"znear":0.10000000149011612},"type":"perspective"}],"extensionsUsed":["S8S_v3d_texture","KHR_texture_basisu","S8S_v3d_materials","S8S_v3d_camera","S8S_v3d_mesh","S8S_v3d_node","S8S_v3d_animation","S8S_v3d_scene"],"images":[{"uri":"logotype.jpg"},{"uri":"Perla_ORM.jpg"},{"uri":"AO.jpg"},{"uri":"Perla_Basecolor.jpg"},{"uri":"Perla_Normal.jpg"},{"uri":"Noise_Optimized.jpg"},{"uri":"Shadows.ktx2"},{"uri":"neutral.hdr.xz"}],"materials":[{"alphaMode":"OPAQUE","extensions":{"S8S_v3d_materials":{"gtaoVisible":true,"materialIndex":0,"nodeGraph":{"edges":[{"fromNode":0,"fromOutput":0,"toInput":0,"toNode":1},{"fromNode":2,"fromOutput":0,"toInput":0,"toNode":0}],"nodes":[{"inputs":[[0.800000011920929,0.800000011920929,0.800000011920929,1.0],0.0,1.0,1.4500000476837158,1.0,[0.0,0.0,0.0],0.0,[1.0,0.20000000298023224,0.10000000149011612],0.05000000074505806,1.399999976158142,0.0,0.5,[1.0,1.0,1.0,1.0],0.0,0.0,[0.0,0.0,0.0],0.0,0.0,0.029999999329447746,1.5,[1.0,1.0,1.0,1.0],[0.0,0.0,0.0],0.0,0.5,[1.0,1.0,1.0,1.0],[1.0,1.0,1.0,1.0],0.0],"is_active_output":false,"name":"Principled BSDF","outputs":[[0,0,0,0]],"type":"BSDF_PRINCIPLED_BL"},{"inputs":[[0,0,0,0],[0,0,0,0],[0.0,0.0,0.0],0.0],"is_active_output":true,"name":"Material Output","outputs":[],"type":"OUTPUT_MATERIAL_BL"},{"alphaMode":"STRAIGHT","inputs":[[0.0,0.0,0.0]],"is_active_output":false,"name":"Image Texture","outputs":[[0.0,0.0,0.0,0.0],0.0],"projection":"FLAT","projectionBlend":0.0,"texture":0,"type":"TEX_IMAGE_BL"}]},"useCastShadows":true}},"name":"logotype"},{"alphaMode":"BLEND","extensions":{"S8S_v3d_materials":{"alphaToCoverage":true,"gtaoVisible":true,"materialIndex":0,"nodeGraph":{"edges":[{"fromNode":1,"fromOutput":2,"toInput":1,"toNode":14},{"fromNode":3,"fromOutput":0,"toInput":2,"toNode":14},{"fromNode":2,"fromOutput":0,"toInput":5,"toNode":14},{"fromNode":13,"fromOutput":0,"toInput":1,"toNode":2},{"fromNode":4,"fromOutput":0,"toInput":0,"toNode":1},{"fromNode":1,"fromOutput":1,"toInput":0,"toNode":3},{"fromNode":11,"fromOutput":0,"toInput":7,"toNode":10},{"fromNode":5,"fromOutput":0,"toInput":0,"toNode":10},{"fromNode":8,"fromOutput":0,"toInput":6,"toNode":7},{"fromNode":6,"fromOutput":0,"toInput":7,"toNode":7},{"fromNode":7,"fromOutput":2,"toInput":6,"toNode":10},{"fromNode":12,"fromOutput":0,"toInput":4,"toNode":8},{"fromNode":9,"fromOutput":0,"toInput":2,"toNode":8},{"fromNode":10,"fromOutput":2,"toInput":0,"toNode":14},{"fromNode":14,"fromOutput":0,"toInput":0,"toNode":0}],"nodes":[{"inputs":[[0,0,0,0],[0,0,0,0],[0.0,0.0,0.0],0.0],"is_active_output":true,"name":"Material Output","outputs":[],"type":"OUTPUT_MATERIAL_BL"},{"inputs":[[0.800000011920929,0.800000011920929,0.800000011920929,1.0]],"is_active_output":false,"mode":"RGB","name":"Separate Color","outputs":[0.0,0.0,0.0],"type":"SEPARATE_COLOR_BL"},{"inputs":[1.0,[0.5,0.5,1.0,1.0]],"is_active_output":false,"name":"Normal Map","outputs":[[0.0,0.0,0.0]],"type":"NORMAL_MAP_BL","uvLayer":"UVMap"},{"curve":{"input":[0.0,0.704545795917511],"interpolation":"LINEAR","output":[0.0,0.0,0.0,1.0,1.0,1.0,1.0,1.0]},"inputs":[0.5],"is_active_output":false,"name":"Color Ramp","outputs":[[0.800000011920929,0.800000011920929,0.800000011920929,1.0],0.0],"type":"VALTORGB_BL"},{"alphaMode":"CHANNEL_PACKED","inputs":[[0.0,0.0,0.0]],"is_active_output":false,"name":"Image Texture.005","outputs":[[0.800000011920929,0.800000011920929,0.800000011920929,1.0],0.0],"projection":"FLAT","projectionBlend":0.0,"texture":1,"type":"TEX_IMAGE_BL"},{"inputs":[],"is_active_output":false,"name":"AO","outputs":[0.0],"type":"VALUE_BL"},{"inputs":[],"is_active_output":false,"name":"RGB","outputs":[[0.04817993938922882,0.04373312368988991,0.03820161521434784,1.0]],"type":"RGB_BL"},{"blendType":"COLOR","clampFactor":true,"clampResult":false,"dataType":"RGBA","factorMode":"UNIFORM","inputs":[1.0,[0.5,0.5,0.5],0.0,0.0,[0.0,0.0,0.0],[0.0,0.0,0.0],[0.5,0.5,0.5,1.0],[0.5,0.5,0.5,1.0],0,0],"is_active_output":false,"name":"Mix.001","outputs":[0.0,[0.0,0.0,0.0],[0.0,0.0,0.0,0.0],0],"type":"MIX_BL"},{"inputs":[0.5,1.0,1.0,1.0,[0.800000011920929,0.800000011920929,0.800000011920929,1.0]],"is_active_output":false,"name":"Hue/Saturation/Value","outputs":[[0.0,0.0,0.0,0.0]],"type":"HUE_SAT_BL"},{"inputs":[],"is_active_output":false,"name":"Brightness","outputs":[1.25],"type":"VALUE_BL"},{"blendType":"MULTIPLY","clampFactor":true,"clampResult":false,"dataType":"RGBA","factorMode":"UNIFORM","inputs":[1.0,[0.5,0.5,0.5],0.0,0.0,[0.0,0.0,0.0],[0.0,0.0,0.0],[0.5,0.5,0.5,1.0],[0.5,0.5,0.5,1.0],0,0],"is_active_output":false,"name":"Mix","outputs":[0.0,[0.0,0.0,0.0],[0.0,0.0,0.0,0.0],0],"type":"MIX_BL"},{"alphaMode":"CHANNEL_PACKED","inputs":[[0.0,0.0,0.0]],"is_active_output":false,"name":"Image Texture","outputs":[[0.0,0.0,0.0,0.0],0.0],"projection":"FLAT","projectionBlend":0.0,"texture":2,"type":"TEX_IMAGE_BL"},{"alphaMode":"STRAIGHT","inputs":[[0.0,0.0,0.0]],"is_active_output":false,"name":"Image Texture.004","outputs":[[0.800000011920929,0.800000011920929,0.800000011920929,1.0],0.0],"projection":"FLAT","projectionBlend":0.0,"texture":3,"type":"TEX_IMAGE_BL"},{"alphaMode":"CHANNEL_PACKED","inputs":[[0.0,0.0,0.0]],"is_active_output":false,"name":"Image Texture.006","outputs":[[0.800000011920929,0.800000011920929,0.800000011920929,1.0],0.0],"projection":"FLAT","projectionBlend":0.0,"texture":4,"type":"TEX_IMAGE_BL"},{"inputs":[[0.800000011920929,0.800000011920929,0.800000011920929,1.0],0.0,0.5,1.5,1.0,[0.0,0.0,0.0],0.0,[1.0,0.20000000298023224,0.10000000149011612],0.05000000074505806,1.399999976158142,0.0,0.5,[1.0,1.0,1.0,1.0],0.0,0.0,[0.0,0.0,0.0],0.0,0.0,0.029999999329447746,1.5,[1.0,1.0,1.0,1.0],[0.0,0.0,0.0],0.0,0.5,[1.0,1.0,1.0,1.0],[1.0,1.0,1.0,1.0],0.0],"is_active_output":false,"name":"Principled BSDF","outputs":[[0,0,0,0]],"type":"BSDF_PRINCIPLED_BL"}]},"useCastShadows":true}},"name":"MAT_ASSISE"},{"alphaMode":"BLEND","extensions":{"S8S_v3d_materials":{"alphaToCoverage":true,"gtaoVisible":true,"materialIndex":0,"nodeGraph":{"edges":[{"fromNode":4,"fromOutput":0,"toInput":0,"toNode":0},{"fromNode":5,"fromOutput":0,"toInput":1,"toNode":1},{"fromNode":1,"fromOutput":0,"toInput":5,"toNode":4},{"fromNode":2,"fromOutput":0,"toInput":0,"toNode":5},{"fromNode":3,"fromOutput":2,"toInput":0,"toNode":2}],"nodes":[{"inputs":[[0,0,0,0],[0,0,0,0],[0.0,0.0,0.0],0.0],"is_active_output":true,"name":"Material Output","outputs":[],"type":"OUTPUT_MATERIAL_BL"},{"inputs":[0.5,[0.5,0.5,1.0,1.0]],"is_active_output":false,"name":"Normal Map","outputs":[[0.0,0.0,0.0]],"type":"NORMAL_MAP_BL","uvLayer":""},{"inputs":[[0.0,0.0,0.0],[0.0,0.0,0.0],[0.0,0.0,0.0],[15.0,15.0,15.0]],"is_active_output":false,"name":"Mapping","outputs":[[0.0,0.0,0.0]],"type":"MAPPING_BL","vectorType":"POINT"},{"inputs":[],"is_active_output":false,"name":"Texture Coordinate","object":-1,"outputs":[[0.0,0.0,0.0],[0.0,0.0,0.0],[0.0,0.0,0.0],[0.0,0.0,0.0],[0.0,0.0,0.0],[0.0,0.0,0.0],[0.0,0.0,0.0]],"type":"TEX_COORD_BL"},{"inputs":[[0.14933332800865173,0.14933443069458008,0.14933443069458008,1.0],1.0,0.27000001072883606,1.5,1.0,[0.0,0.0,0.0],0.0,[1.0,0.20000000298023224,0.10000000149011612],0.05000000074505806,1.399999976158142,0.0,0.5,[1.0,1.0,1.0,1.0],0.0,0.0,[0.0,0.0,0.0],0.0,0.0,0.029999999329447746,1.5,[1.0,1.0,1.0,1.0],[0.0,0.0,0.0],0.0,0.5,[1.0,1.0,1.0,1.0],[1.0,1.0,1.0,1.0],0.0],"is_active_output":false,"name":"Principled BSDF","outputs":[[0,0,0,0]],"type":"BSDF_PRINCIPLED_BL"},{"alphaMode":"CHANNEL_PACKED","inputs":[[0.0,0.0,0.0]],"is_active_output":false,"name":"Image Texture","outputs":[[0.800000011920929,0.800000011920929,0.800000011920929,1.0],0.0],"projection":"FLAT","projectionBlend":0.0,"texture":5,"type":"TEX_IMAGE_BL"}]},"useCastShadows":true}},"name":"MAT_FEETALWAYSMETAL"},{"alphaMode":"BLEND","extensions":{"S8S_v3d_materials":{"depthPrepass":true,"gtaoVisible":false,"materialIndex":0,"nodeGraph":{"edges":[{"fromNode":1,"fromOutput":0,"toInput":4,"toNode":2},{"fromNode":2,"fromOutput":0,"toInput":0,"toNode":0}],"nodes":[{"inputs":[[0,0,0,0],[0,0,0,0],[0.0,0.0,0.0],0.0],"is_active_output":true,"name":"Material Output","outputs":[],"type":"OUTPUT_MATERIAL_BL"},{"alphaMode":"STRAIGHT","inputs":[[0.0,0.0,0.0]],"is_active_output":false,"name":"Image Texture","outputs":[[0.0,0.0,0.0,0.0],0.0],"projection":"FLAT","projectionBlend":0.0,"texture":6,"type":"TEX_IMAGE_BL"},{"inputs":[[0.0,0.0,0.0,1.0],0.0,1.0,1.4500000476837158,1.0,[0.0,0.0,0.0],0.0,[1.0,0.20000000298023224,0.10000000149011612],0.05000000074505806,1.399999976158142,0.0,0.5,[1.0,1.0,1.0,1.0],0.0,0.0,[0.0,0.0,0.0],0.0,0.0,0.029999999329447746,1.5,[1.0,1.0,1.0,1.0],[0.0,0.0,0.0],0.0,0.5,[1.0,1.0,1.0,1.0],[1.0,1.0,1.0,1.0],0.0],"is_active_output":false,"name":"Principled BSDF","outputs":[[0,0,0,0]],"type":"BSDF_PRINCIPLED_BL"}]},"useCastShadows":true}},"name":"Material"},{"alphaMode":"OPAQUE","extensions":{"S8S_v3d_materials":{"gtaoVisible":true,"materialIndex":0,"nodeGraph":{"edges":[{"fromNode":1,"fromOutput":0,"toInput":0,"toNode":2},{"fromNode":2,"fromOutput":0,"toInput":0,"toNode":0}],"nodes":[{"inputs":[[0,0,0,0],[0,0,0,0]],"is_active_output":true,"name":"World Output","outputs":[],"type":"OUTPUT_WORLD_BL"},{"inputs":[[0.0,0.0,0.0]],"is_active_output":false,"name":"Environment Texture","outputs":[[0.0,0.0,0.0,0.0]],"projection":"EQUIRECTANGULAR","texture":7,"type":"TEX_ENVIRONMENT_BL"},{"inputs":[[0.05087608844041824,0.05087608844041824,0.05087608844041824,1.0],1.350000023841858],"is_active_output":false,"name":"Background","outputs":[[0,0,0,0]],"type":"BACKGROUND_BL"}]},"useCastShadows":true}},"name":"Verge3D_Environment_World.001"}],"meshes":[{"extensions":{"S8S_v3d_mesh":{"colorLayers":{},"uvLayers":{"UVMap":"TEXCOORD_0"}}},"name":"PERLA_01_low","primitives":[{"attributes":{"NORMAL":2,"POSITION":1,"TANGENT":3,"TEXCOORD_0":4},"indices":0,"material":1,"mode":4}]},{"extensions":{"S8S_v3d_mesh":{"colorLayers":{},"uvLayers":{"UVMap":"TEXCOORD_0"}}},"name":"PERLA_02_low","primitives":[{"attributes":{"NORMAL":7,"POSITION":6,"TANGENT":8,"TEXCOORD_0":9},"indices":5,"material":2,"mode":4}]},{"extensions":{"S8S_v3d_mesh":{"colorLayers":{},"uvLayers":{"UVMap":"TEXCOORD_0"}}},"name":"PERLA_02_low.001","primitives":[{"attributes":{"NORMAL":12,"POSITION":11,"TANGENT":13,"TEXCOORD_0":14},"indices":10,"material":2,"mode":4}]},{"extensions":{"S8S_v3d_mesh":{"colorLayers":{},"uvLayers":{"UVMap":"TEXCOORD_0"}}},"name":"PERLA_low","primitives":[{"attributes":{"NORMAL":17,"POSITION":16,"TANGENT":18,"TEXCOORD_0":19},"indices":15,"material":1,"mode":4}]},{"extensions":{"S8S_v3d_mesh":{"colorLayers":{},"uvLayers":{"UVMap":"TEXCOORD_0"}}},"name":"Plane.001","primitives":[{"attributes":{"NORMAL":22,"POSITION":21,"TEXCOORD_0":23},"indices":20,"material":3,"mode":4}]},{"extensions":{"S8S_v3d_mesh":{"colorLayers":{},"uvLayers":{"UVMap":"TEXCOORD_0"}}},"name":"Plane.003","primitives":[{"attributes":{"NORMAL":26,"POSITION":25,"TEXCOORD_0":27},"indices":24,"material":0,"mode":4}]}],"nodes":[{"camera":0,"extensions":{"S8S_v3d_node":{"frustumCulling":true,"groupNames":[],"hidden":false,"hidpiCompositing":false,"objectColor":[1.0,1.0,1.0,1.0],"objectIndex":0,"renderOrder":0}},"name":"Camera","rotation":[-0.12820470333099365,-0.32824593782424927,-0.04501935839653015,0.9347680807113647],"scale":[1.0,0.9999999403953552,0.9999997615814209],"translation":[-1.8704807758331299,1.2113816738128662,2.3349359035491943]},{"extensions":{"S8S_v3d_node":{"frustumCulling":true,"groupNames":[],"hidden":false,"hidpiCompositing":false,"objectColor":[1.0,1.0,1.0,1.0],"objectIndex":0,"renderOrder":0,"useShadows":true}},"mesh":5,"name":"logotype","rotation":[0.002157083246856928,-0.010799680836498737,0.24580733478069305,0.9692561626434326],"scale":[1.0,0.9999998807907104,0.9999998807907104],"translation":[-0.22176849842071533,0.4588467478752136,0.02989441342651844]},{"children":[1],"name":"v3d_Proxy_Node_0_logotype","rotation":[0.0,-0.019741324707865715,-0.0,0.9998051524162292],"scale":[1.0000001192092896,1.0,1.0000001192092896],"translation":[4.432400224629873e-09,-0.3468439280986786,5.7674003350882685e-09]},{"extensions":{"S8S_v3d_node":{"frustumCulling":true,"groupNames":[],"hidden":false,"hidpiCompositing":false,"objectColor":[1.0,1.0,1.0,1.0],"objectIndex":0,"renderOrder":0,"useShadows":true}},"mesh":2,"name":"PERLA_02_low.002","scale":[0.009999999776482582,0.009999999776482582,0.009999999776482582]},{"children":[3],"name":"v3d_Proxy_Node_0_PERLA_02_low.002","translation":[4.6566128730773926e-09,-0.3468439280986786,5.587935447692871e-09]},{"extensions":{"S8S_v3d_node":{"frustumCulling":true,"groupNames":[],"hidden":false,"hidpiCompositing":false,"objectColor":[1.0,1.0,1.0,1.0],"objectIndex":0,"renderOrder":0,"useShadows":true}},"mesh":1,"name":"PERLA_02_low.001","scale":[0.009999999776482582,0.009999999776482582,0.009999999776482582]},{"extensions":{"S8S_v3d_node":{"frustumCulling":true,"groupNames":[],"hidden":false,"hidpiCompositing":false,"objectColor":[1.0,1.0,1.0,1.0],"objectIndex":0,"renderOrder":0,"useShadows":true}},"mesh":4,"name":"Shadow","rotation":[0.0,1.0,-0.0,1.6292068494294654e-07],"scale":[0.34939879179000854,0.34939879179000854,0.32933706045150757],"translation":[0.00012785941362380981,-0.0006569824181497097,0.016140004619956017]},{"extensions":{"S8S_v3d_node":{"frustumCulling":true,"groupNames":[],"hidden":false,"hidpiCompositing":false,"objectColor":[1.0,1.0,1.0,1.0],"objectIndex":0,"renderOrder":0,"useShadows":true}},"mesh":0,"name":"Accoudoirs","scale":[0.009999999776482582,0.009999999776482582,0.009999999776482582],"translation":[0.0,-0.0021046996116638184,-0.0]},{"children":[7],"name":"v3d_Proxy_Node_0_Accoudoirs","translation":[4.6566128730773926e-09,-0.3468439280986786,5.587935447692871e-09]},{"extensions":{"S8S_v3d_node":{"frustumCulling":true,"groupNames":[],"hidden":false,"hidpiCompositing":false,"objectColor":[1.0,1.0,1.0,1.0],"objectIndex":0,"renderOrder":0,"useShadows":true}},"mesh":3,"name":"PERLA_low.002","scale":[0.009999999776482582,0.009999999776482582,0.009999999776482582]},{"children":[9],"name":"v3d_Proxy_Node_0_PERLA_low.002","translation":[4.6566128730773926e-09,-0.3468439280986786,5.587935447692871e-09]},{"children":[8,2,4,10],"extensions":{"S8S_v3d_node":{"frustumCulling":true,"groupNames":[],"hidden":false,"hidpiCompositing":false,"objectColor":[1.0,1.0,1.0,1.0],"objectIndex":0,"renderOrder":0}},"name":"Empty","translation":[-4.6566128730773926e-09,0.3468439280986786,-5.587935447692871e-09]}],"samplers":[{}],"scene":0,"scenes":[{"extensions":{"S8S_v3d_scene":{"aaMethod":"AUTO","iblEnvironmentMode":"PMREM","physicallyCorrectLights":true,"pmremMaxTileSize":512,"shadowMap":{"esmDistanceScale":1.0,"renderReverseSided":false,"renderSingleSided":true,"type":"PCFPOISSON"},"worldMaterial":4}},"extras":{"animFrameRate":30,"coordSystem":"Z_UP_RIGHT"},"name":"Scene","nodes":[0,6,5,11]}],"textures":[{"extensions":{"S8S_v3d_texture":{"colorSpace":"srgb"}},"name":"logotype.jpg","sampler":0,"source":0},{"extensions":{"S8S_v3d_texture":{"anisotropy":16,"colorSpace":"non-color"}},"name":"Perla_ORM.jpg","sampler":0,"source":1},{"extensions":{"S8S_v3d_texture":{"colorSpace":"non-color"}},"name":"AO.jpg","sampler":0,"source":2},{"extensions":{"S8S_v3d_texture":{"anisotropy":16,"colorSpace":"srgb"}},"name":"Perla_Basecolor.jpg","sampler":0,"source":3},{"extensions":{"S8S_v3d_texture":{"anisotropy":16,"colorSpace":"non-color"}},"name":"Perla_Normal.jpg","sampler":0,"source":4},{"extensions":{"S8S_v3d_texture":{"anisotropy":16,"colorSpace":"non-color"}},"name":"Noise_Optimized.jpg.001","sampler":0,"source":5},{"extensions":{"KHR_texture_basisu":{"source":6},"S8S_v3d_texture":{"anisotropy":16,"colorSpace":"srgb"}},"name":"Shadows.png","sampler":0},{"extensions":{"S8S_v3d_texture":{"colorSpace":"linear rec.709","source":7}},"name":"neutral.hdr","sampler":0}]}
