{"accessors":[{"bufferView":0,"componentType":5121,"count":6,"max":[3],"min":[0],"type":"SCALAR"},{"bufferView":1,"componentType":5126,"count":4,"max":[1.0,0.0,1.0],"min":[-1.0,0.0,-1.0],"type":"VEC3"},{"bufferView":2,"componentType":5126,"count":4,"max":[0.0,1.0,-0.0],"min":[0.0,1.0,-0.0],"type":"VEC3"},{"bufferView":3,"componentType":5126,"count":4,"max":[1.0,1.0],"min":[0.0,0.0],"type":"VEC2"},{"bufferView":4,"componentType":5121,"count":24,"max":[11],"min":[0],"type":"SCALAR"},{"bufferView":5,"componentType":5126,"count":12,"max":[6.468577673501841e-09,1.1649187392492877e-08,0.007399829104542732],"min":[-0.010297410190105438,-0.0008896340732462704,-0.007239002268761396],"type":"VEC3"},{"bufferView":6,"componentType":5126,"count":12,"max":[0.09415704011917114,1.0,0.0],"min":[-0.49669313430786133,-0.9955573678016663,-1.0000003385357559e-06],"type":"VEC3"},{"bufferView":7,"componentType":5126,"count":12,"max":[0.9181796312332153,1.0],"min":[0.08182041347026825,0.0],"type":"VEC2"},{"bufferView":8,"componentType":5123,"count":49116,"max":[10269],"min":[0],"type":"SCALAR"},{"bufferView":9,"componentType":5126,"count":10270,"max":[24.064119338989258,42.546241760253906,29.54041862487793],"min":[-24.063255310058594,0.0,-19.159088134765625],"type":"VEC3"},{"bufferView":10,"componentType":5126,"count":10270,"max":[1.0,0.9985007643699646,0.9998055100440979],"min":[-1.0,-0.9999939799308777,-0.9997080564498901],"type":"VEC3"},{"bufferView":11,"componentType":5126,"count":10270,"max":[0.9590902328491211,0.99951171875],"min":[0.00048828125,0.00048828125],"type":"VEC2"},{"bufferView":12,"componentType":5123,"count":80256,"max":[14418],"min":[0],"type":"SCALAR"},{"bufferView":13,"componentType":5126,"count":14419,"max":[31.50006675720215,83.72126770019531,29.1539249420166],"min":[-31.50006866455078,41.04863357543945,-27.492076873779297],"type":"VEC3"},{"bufferView":14,"componentType":5126,"count":14419,"max":[0.9994410276412964,0.9999641180038452,0.99997878074646],"min":[-0.9994407892227173,-0.9999960064888,-0.9996373057365417],"type":"VEC3"},{"bufferView":15,"componentType":5126,"count":14419,"max":[1.0,0.9897109866142273,0.9999926686286926,1.0],"min":[-0.9999995231628418,-0.9899343252182007,-0.999800980091095,1.0],"type":"VEC4"},{"bufferView":16,"componentType":5126,"count":14419,"max":[0.8683688044548035,0.99951171875],"min":[0.00048828125,0.00048828125],"type":"VEC2"}],"asset":{"generator":"Verge3D for Blender v4.8.0","version":"2.0"},"bufferViews":[{"buffer":0,"byteLength":6,"byteOffset":0,"target":34963},{"buffer":0,"byteLength":48,"byteOffset":8,"target":34962},{"buffer":0,"byteLength":48,"byteOffset":56,"target":34962},{"buffer":0,"byteLength":32,"byteOffset":104,"target":34962},{"buffer":0,"byteLength":24,"byteOffset":136,"target":34963},{"buffer":0,"byteLength":144,"byteOffset":160,"target":34962},{"buffer":0,"byteLength":144,"byteOffset":304,"target":34962},{"buffer":0,"byteLength":96,"byteOffset":448,"target":34962},{"buffer":0,"byteLength":98232,"byteOffset":544,"target":34963},{"buffer":0,"byteLength":123240,"byteOffset":98776,"target":34962},{"buffer":0,"byteLength":123240,"byteOffset":222016,"target":34962},{"buffer":0,"byteLength":82160,"byteOffset":345256,"target":34962},{"buffer":0,"byteLength":160512,"byteOffset":427416,"target":34963},{"buffer":0,"byteLength":173028,"byteOffset":587928,"target":34962},{"buffer":0,"byteLength":173028,"byteOffset":760956,"target":34962},{"buffer":0,"byteLength":230704,"byteOffset":933984,"target":34962},{"buffer":0,"byteLength":115352,"byteOffset":1164688,"target":34962}],"buffers":[{"byteLength":1280040,"uri":"Tablacasa-Chaise-Adeline.bin"}],"cameras":[{"extensions":{"S8S_v3d_camera":{"controls":"ORBIT","enablePan":false,"moveSpeed":1.0,"orbitMaxDistance":4.0,"orbitMaxPolarAngle":3.1415927410125732,"orbitMaxZoom":100.0,"orbitMinDistance":1.0,"orbitMinPolarAngle":0.0,"orbitMinZoom":0.009999999776482582,"orbitTarget":[0.0,0.375,-0.0],"rotateSpeed":1.0,"viewportFitInitialAspect":1.7777777777777777,"viewportFitType":"AUTO"}},"name":"Camera.001","perspective":{"aspectRatio":1.7777777777777777,"yfov":0.39959652046304894,"zfar":1000.0,"znear":0.10000000149011612},"type":"perspective"}],"extensionsUsed":["S8S_v3d_texture","S8S_v3d_materials","S8S_v3d_camera","S8S_v3d_mesh","S8S_v3d_node","S8S_v3d_scene"],"images":[{"uri":"logotype.jpg"},{"uri":"Coco_Normal2.jpg"},{"uri":"Coco_basecolor2.jpg"},{"uri":"Coco_ORM2.jpg"},{"uri":"Shadows.jpg"},{"uri":"Christmas_living_room.hdr"}],"materials":[{"alphaMode":"OPAQUE","extensions":{"S8S_v3d_materials":{"gtaoVisible":true,"materialIndex":0,"nodeGraph":{"edges":[{"fromNode":0,"fromOutput":0,"toInput":0,"toNode":1},{"fromNode":2,"fromOutput":0,"toInput":0,"toNode":0}],"nodes":[{"inputs":[[0.800000011920929,0.800000011920929,0.800000011920929,1.0],0.0,1.0,1.4500000476837158,1.0,[0.0,0.0,0.0],0.0,[1.0,0.20000000298023224,0.10000000149011612],0.05000000074505806,1.399999976158142,0.0,0.5,[1.0,1.0,1.0,1.0],0.0,0.0,[0.0,0.0,0.0],0.0,0.0,0.029999999329447746,1.5,[1.0,1.0,1.0,1.0],[0.0,0.0,0.0],0.0,0.5,[1.0,1.0,1.0,1.0],[1.0,1.0,1.0,1.0],0.0],"is_active_output":false,"name":"Principled BSDF","outputs":[[0,0,0,0]],"type":"BSDF_PRINCIPLED_BL"},{"inputs":[[0,0,0,0],[0,0,0,0],[0.0,0.0,0.0],0.0],"is_active_output":true,"name":"Material Output","outputs":[],"type":"OUTPUT_MATERIAL_BL"},{"alphaMode":"STRAIGHT","inputs":[[0.0,0.0,0.0]],"is_active_output":false,"name":"Image Texture","outputs":[[0.0,0.0,0.0,0.0],0.0],"projection":"FLAT","projectionBlend":0.0,"texture":0,"type":"TEX_IMAGE_BL"}]}}},"name":"logotype"},{"alphaMode":"BLEND","extensions":{"S8S_v3d_materials":{"alphaToCoverage":true,"gtaoVisible":true,"materialIndex":0,"nodeGraph":{"edges":[{"fromNode":1,"fromOutput":0,"toInput":5,"toNode":10},{"fromNode":2,"fromOutput":0,"toInput":1,"toNode":1},{"fromNode":3,"fromOutput":0,"toInput":6,"toNode":4},{"fromNode":8,"fromOutput":0,"toInput":2,"toNode":3},{"fromNode":11,"fromOutput":0,"toInput":7,"toNode":4},{"fromNode":5,"fromOutput":0,"toInput":4,"toNode":3},{"fromNode":6,"fromOutput":0,"toInput":0,"toNode":9},{"fromNode":9,"fromOutput":0,"toInput":7,"toNode":7},{"fromNode":4,"fromOutput":2,"toInput":6,"toNode":7},{"fromNode":7,"fromOutput":2,"toInput":0,"toNode":10},{"fromNode":10,"fromOutput":0,"toInput":0,"toNode":0}],"nodes":[{"inputs":[[0,0,0,0],[0,0,0,0],[0.0,0.0,0.0],0.0],"is_active_output":true,"name":"Material Output","outputs":[],"type":"OUTPUT_MATERIAL_BL"},{"inputs":[1.0,[0.5,0.5,1.0,1.0]],"is_active_output":false,"name":"Normal Map","outputs":[[0.0,0.0,0.0]],"type":"NORMAL_MAP_BL","uvLayer":"UVMap"},{"alphaMode":"CHANNEL_PACKED","inputs":[[0.0,0.0,0.0]],"is_active_output":false,"name":"Image Texture.002","outputs":[[0.800000011920929,0.800000011920929,0.800000011920929,1.0],0.0],"projection":"FLAT","projectionBlend":0.0,"texture":1,"type":"TEX_IMAGE_BL"},{"inputs":[0.5,1.0,1.0,1.0,[0.800000011920929,0.800000011920929,0.800000011920929,1.0]],"is_active_output":false,"name":"Hue/Saturation/Value","outputs":[[0.0,0.0,0.0,0.0]],"type":"HUE_SAT_BL"},{"blendType":"COLOR","clampFactor":true,"clampResult":false,"dataType":"RGBA","factorMode":"UNIFORM","inputs":[1.0,[0.5,0.5,0.5],0.0,0.0,[0.0,0.0,0.0],[0.0,0.0,0.0],[0.5,0.5,0.5,1.0],[0.5,0.5,0.5,1.0],0,0],"is_active_output":false,"name":"Mix.001","outputs":[0.0,[0.0,0.0,0.0],[0.0,0.0,0.0,0.0],0],"type":"MIX_BL"},{"alphaMode":"STRAIGHT","inputs":[[0.0,0.0,0.0]],"is_active_output":false,"name":"Image Texture","outputs":[[0.800000011920929,0.800000011920929,0.800000011920929,1.0],0.0],"projection":"FLAT","projectionBlend":0.0,"texture":2,"type":"TEX_IMAGE_BL"},{"alphaMode":"CHANNEL_PACKED","inputs":[[0.0,0.0,0.0]],"is_active_output":false,"name":"Image Texture.001","outputs":[[0.0,0.0,0.0,0.0],0.0],"projection":"FLAT","projectionBlend":0.0,"texture":3,"type":"TEX_IMAGE_BL"},{"blendType":"MULTIPLY","clampFactor":true,"clampResult":false,"dataType":"RGBA","factorMode":"UNIFORM","inputs":[0.5,[0.5,0.5,0.5],0.0,0.0,[0.0,0.0,0.0],[0.0,0.0,0.0],[0.5,0.5,0.5,1.0],[0.5,0.5,0.5,1.0],0,0],"is_active_output":false,"name":"Mix","outputs":[0.0,[0.0,0.0,0.0],[0.0,0.0,0.0,0.0],0],"type":"MIX_BL"},{"inputs":[],"is_active_output":false,"name":"Brigthness","outputs":[1.2000000476837158],"type":"VALUE_BL"},{"inputs":[[0.800000011920929,0.800000011920929,0.800000011920929,1.0]],"is_active_output":false,"mode":"RGB","name":"Separate Color","outputs":[0.0,0.0,0.0],"type":"SEPARATE_COLOR_BL"},{"inputs":[[0.800000011920929,0.800000011920929,0.800000011920929,1.0],0.0,1.0,1.5,1.0,[0.0,0.0,0.0],0.0,[1.0,0.20000000298023224,0.10000000149011612],0.05000000074505806,1.399999976158142,0.0,0.0,[1.0,1.0,1.0,1.0],0.0,0.0,[0.0,0.0,0.0],0.0,0.0,0.029999999329447746,1.5,[1.0,1.0,1.0,1.0],[0.0,0.0,0.0],0.0,0.5,[1.0,1.0,1.0,1.0],[1.0,1.0,1.0,1.0],0.0],"is_active_output":false,"name":"Principled BSDF","outputs":[[0,0,0,0]],"type":"BSDF_PRINCIPLED_BL"},{"inputs":[],"is_active_output":false,"name":"color","outputs":[[0.14705200493335724,0.1384255737066269,0.1328587383031845,1.0]],"type":"RGB_BL"}]}}},"name":"MAT_ASSISE"},{"alphaMode":"BLEND","extensions":{"S8S_v3d_materials":{"alphaToCoverage":true,"gtaoVisible":true,"materialIndex":0,"nodeGraph":{"edges":[{"fromNode":0,"fromOutput":0,"toInput":0,"toNode":1}],"nodes":[{"inputs":[[0.04697822779417038,0.04697822779417038,0.04697822779417038,1.0],1.0,0.4000000059604645,1.5,1.0,[0.0,0.0,0.0],0.0,[1.0,0.20000000298023224,0.10000000149011612],0.05000000074505806,1.399999976158142,0.0,0.5,[1.0,1.0,1.0,1.0],0.0,0.0,[0.0,0.0,0.0],0.0,0.0,0.029999999329447746,1.5,[1.0,1.0,1.0,1.0],[0.0,0.0,0.0],0.0,0.5,[1.0,1.0,1.0,1.0],[1.0,1.0,1.0,1.0],0.0],"is_active_output":false,"name":"Principled BSDF","outputs":[[0,0,0,0]],"type":"BSDF_PRINCIPLED_BL"},{"inputs":[[0,0,0,0],[0,0,0,0],[0.0,0.0,0.0],0.0],"is_active_output":true,"name":"Material Output","outputs":[],"type":"OUTPUT_MATERIAL_BL"}]}}},"name":"MAT_FEETMETAL"},{"alphaMode":"BLEND","extensions":{"S8S_v3d_materials":{"depthPrepass":true,"gtaoVisible":false,"materialIndex":0,"nodeGraph":{"edges":[{"fromNode":1,"fromOutput":0,"toInput":0,"toNode":0},{"fromNode":3,"fromOutput":2,"toInput":4,"toNode":1},{"fromNode":2,"fromOutput":0,"toInput":6,"toNode":3}],"nodes":[{"inputs":[[0,0,0,0],[0,0,0,0],[0.0,0.0,0.0],0.0],"is_active_output":true,"name":"Material Output","outputs":[],"type":"OUTPUT_MATERIAL_BL"},{"inputs":[[0.0,0.0,0.0,1.0],0.0,0.5,1.4500000476837158,1.0,[0.0,0.0,0.0],0.0,[1.0,0.20000000298023224,0.10000000149011612],0.05000000074505806,1.399999976158142,0.0,0.5,[1.0,1.0,1.0,1.0],0.0,0.0,[0.0,0.0,0.0],0.0,0.0,0.029999999329447746,1.5,[1.0,1.0,1.0,1.0],[0.0,0.0,0.0],0.0,0.5,[1.0,1.0,1.0,1.0],[1.0,1.0,1.0,1.0],0.0],"is_active_output":false,"name":"Principled BSDF","outputs":[[0,0,0,0]],"type":"BSDF_PRINCIPLED_BL"},{"alphaMode":"CHANNEL_PACKED","inputs":[[0.0,0.0,0.0]],"is_active_output":false,"name":"Image Texture.001","outputs":[[0.0,0.0,0.0,0.0],0.0],"projection":"FLAT","projectionBlend":0.0,"texture":4,"type":"TEX_IMAGE_BL"},{"blendType":"MIX","clampFactor":true,"clampResult":false,"dataType":"RGBA","factorMode":"UNIFORM","inputs":[0.5,[0.5,0.5,0.5],0.0,0.0,[0.0,0.0,0.0],[0.0,0.0,0.0],[0.5,0.5,0.5,1.0],[0.0,0.0,0.0,1.0],0,0],"is_active_output":false,"name":"Mix","outputs":[0.0,[0.0,0.0,0.0],[0.0,0.0,0.0,0.0],0],"type":"MIX_BL"}]}}},"name":"Material"},{"alphaMode":"OPAQUE","extensions":{"S8S_v3d_materials":{"gtaoVisible":true,"materialIndex":0,"nodeGraph":{"edges":[{"fromNode":2,"fromOutput":0,"toInput":0,"toNode":0},{"fromNode":1,"fromOutput":0,"toInput":0,"toNode":2}],"nodes":[{"inputs":[[0,0,0,0],[0,0,0,0]],"is_active_output":true,"name":"World Output","outputs":[],"type":"OUTPUT_WORLD_BL"},{"inputs":[[0.0,0.0,0.0]],"is_active_output":false,"name":"Environment Texture.001","outputs":[[0.0,0.0,0.0,0.0]],"projection":"EQUIRECTANGULAR","texture":5,"type":"TEX_ENVIRONMENT_BL"},{"inputs":[[0.05087608844041824,0.05087608844041824,0.05087608844041824,1.0],1.0],"is_active_output":false,"name":"Background","outputs":[[0,0,0,0]],"type":"BACKGROUND_BL"}]}}},"name":"Verge3D_Environment_World.001"}],"meshes":[{"extensions":{"S8S_v3d_mesh":{"colorLayers":{},"uvLayers":{"UVMap":"TEXCOORD_0"}}},"name":"Plane.001","primitives":[{"attributes":{"NORMAL":2,"POSITION":1,"TEXCOORD_0":3},"indices":0,"material":3,"mode":4}]},{"extensions":{"S8S_v3d_mesh":{"colorLayers":{},"uvLayers":{"UVMap":"TEXCOORD_0"}}},"name":"Plane.003","primitives":[{"attributes":{"NORMAL":6,"POSITION":5,"TEXCOORD_0":7},"indices":4,"material":0,"mode":4}]},{"extensions":{"S8S_v3d_mesh":{"colorLayers":{},"uvLayers":{"UVMap":"TEXCOORD_0"}}},"name":"sm_coco_01_low","primitives":[{"attributes":{"NORMAL":10,"POSITION":9,"TEXCOORD_0":11},"indices":8,"material":2,"mode":4}]},{"extensions":{"S8S_v3d_mesh":{"colorLayers":{},"uvLayers":{"UVMap":"TEXCOORD_0"}}},"name":"sm_coco_low","primitives":[{"attributes":{"NORMAL":14,"POSITION":13,"TANGENT":15,"TEXCOORD_0":16},"indices":12,"material":1,"mode":4}]}],"nodes":[{"extensions":{"S8S_v3d_node":{"frustumCulling":true,"groupNames":[],"hidden":false,"hidpiCompositing":false,"objectColor":[1.0,1.0,1.0,1.0],"objectIndex":0,"renderOrder":0}},"mesh":1,"name":"logotype","rotation":[0.7031210064888,-0.10090333968400955,0.2616306245326996,0.6534437537193298],"scale":[1.0,1.0,0.9999999403953552],"translation":[-0.237307608127594,0.4944618046283722,-0.10366901755332947]},{"extensions":{"S8S_v3d_node":{"frustumCulling":true,"groupNames":[],"hidden":false,"hidpiCompositing":false,"objectColor":[1.0,1.0,1.0,1.0],"objectIndex":0,"renderOrder":0}},"mesh":3,"name":"Assise","scale":[0.009999999776482582,0.009999999776482582,0.009999999776482582]},{"camera":0,"extensions":{"S8S_v3d_node":{"frustumCulling":true,"groupNames":[],"hidden":false,"hidpiCompositing":false,"objectColor":[1.0,1.0,1.0,1.0],"objectIndex":0,"renderOrder":0}},"name":"Camera","rotation":[-0.12820470333099365,-0.32824593782424927,-0.04501935839653015,0.9347680807113647],"scale":[1.0,0.9999999403953552,0.9999997615814209],"translation":[-1.8704807758331299,1.2113816738128662,2.3349359035491943]},{"extensions":{"S8S_v3d_node":{"frustumCulling":true,"groupNames":[],"hidden":false,"hidpiCompositing":false,"objectColor":[1.0,1.0,1.0,1.0],"objectIndex":0,"renderOrder":0}},"mesh":2,"name":"Pietement","scale":[0.009999999776482582,0.009999999776482582,0.009999999776482582]},{"extensions":{"S8S_v3d_node":{"frustumCulling":true,"groupNames":[],"hidden":false,"hidpiCompositing":false,"objectColor":[1.0,1.0,1.0,1.0],"objectIndex":0,"renderOrder":0}},"mesh":0,"name":"Shadow","rotation":[0.0,1.0,-0.0,1.6292068494294654e-07],"scale":[0.33608850836753845,0.3298780024051666,0.3408081829547882],"translation":[-0.001711157034151256,0.00275031547062099,0.050370149314403534]}],"samplers":[{}],"scene":0,"scenes":[{"extensions":{"S8S_v3d_scene":{"aaMethod":"AUTO","iblEnvironmentMode":"PMREM","physicallyCorrectLights":true,"pmremMaxTileSize":512,"worldMaterial":4}},"extras":{"animFrameRate":30,"coordSystem":"Z_UP_RIGHT"},"name":"Scene","nodes":[2,4,0,3,1]}],"textures":[{"extensions":{"S8S_v3d_texture":{"colorSpace":"srgb"}},"name":"logotype.jpg","sampler":0,"source":0},{"extensions":{"S8S_v3d_texture":{"colorSpace":"non-color"}},"name":"Coco_Normal2.jpg","sampler":0,"source":1},{"extensions":{"S8S_v3d_texture":{"colorSpace":"srgb"}},"name":"Coco_basecolor2.jpg","sampler":0,"source":2},{"extensions":{"S8S_v3d_texture":{"colorSpace":"non-color"}},"name":"Coco_ORM2.jpg","sampler":0,"source":3},{"extensions":{"S8S_v3d_texture":{"colorSpace":"non-color"}},"name":"Shadows.jpg","sampler":0,"source":4},{"extensions":{"S8S_v3d_texture":{"colorSpace":"linear rec.709","source":5}},"name":"Christmas_living_room.hdr","sampler":0}]}
