{"accessors":[{"bufferView":0,"componentType":5121,"count":6,"max":[3],"min":[0],"type":"SCALAR"},{"bufferView":1,"componentType":5126,"count":4,"max":[1.0,0.0,1.0],"min":[-1.0,0.0,-1.0],"type":"VEC3"},{"bufferView":2,"componentType":5126,"count":4,"max":[0.0,1.0,-0.0],"min":[0.0,1.0,-0.0],"type":"VEC3"},{"bufferView":3,"componentType":5126,"count":4,"max":[1.0,1.0],"min":[0.0,0.0],"type":"VEC2"},{"bufferView":4,"componentType":5121,"count":6,"max":[3],"min":[0],"type":"SCALAR"},{"bufferView":5,"componentType":5126,"count":4,"max":[1.0,0.0,1.0],"min":[-1.0,0.0,-1.0],"type":"VEC3"},{"bufferView":6,"componentType":5126,"count":4,"max":[0.0,1.0,-0.0],"min":[0.0,1.0,-0.0],"type":"VEC3"},{"bufferView":7,"componentType":5126,"count":4,"max":[1.0,1.0],"min":[0.0,0.0],"type":"VEC2"},{"bufferView":8,"componentType":5121,"count":6,"max":[3],"min":[0],"type":"SCALAR"},{"bufferView":9,"componentType":5126,"count":4,"max":[1.0,0.0,1.0],"min":[-1.0,0.0,-1.0],"type":"VEC3"},{"bufferView":10,"componentType":5126,"count":4,"max":[0.0,1.0,-0.0],"min":[0.0,1.0,-0.0],"type":"VEC3"},{"bufferView":11,"componentType":5126,"count":4,"max":[1.0,0.0,-0.0,1.0],"min":[1.0,0.0,-0.0,1.0],"type":"VEC4"},{"bufferView":12,"componentType":5126,"count":4,"max":[1.0,1.0],"min":[0.0,0.0],"type":"VEC2"},{"bufferView":13,"componentType":5121,"count":24,"max":[11],"min":[0],"type":"SCALAR"},{"bufferView":14,"componentType":5126,"count":12,"max":[6.468577673501841e-09,1.1649187392492877e-08,0.007399829104542732],"min":[-0.010297410190105438,-0.0008896340732462704,-0.007239002268761396],"type":"VEC3"},{"bufferView":15,"componentType":5126,"count":12,"max":[0.09415704011917114,1.0,0.0],"min":[-0.49669313430786133,-0.9955573678016663,-1.0000003385357559e-06],"type":"VEC3"},{"bufferView":16,"componentType":5126,"count":12,"max":[0.9181796312332153,1.0],"min":[0.08182041347026825,0.0],"type":"VEC2"},{"bufferView":17,"componentType":5121,"count":6,"max":[3],"min":[0],"type":"SCALAR"},{"bufferView":18,"componentType":5126,"count":4,"max":[0.3283446729183197,0.000942499260418117,0.3482951819896698],"min":[-0.3317669928073883,0.000942499260418117,-0.3118164837360382],"type":"VEC3"},{"bufferView":19,"componentType":5126,"count":4,"max":[0.0,1.0,-0.0],"min":[0.0,1.0,-0.0],"type":"VEC3"},{"bufferView":20,"componentType":5126,"count":4,"max":[1.0,1.0],"min":[0.0,0.0],"type":"VEC2"},{"bufferView":21,"componentType":5123,"count":30378,"max":[5945],"min":[0],"type":"SCALAR"},{"bufferView":22,"componentType":5126,"count":5946,"max":[23.440351486206055,110.46377563476562,27.080223083496094],"min":[-23.440353393554688,61.035003662109375,-30.603561401367188],"type":"VEC3"},{"bufferView":23,"componentType":5126,"count":5946,"max":[0.9998046159744263,0.9999352693557739,0.9999994039535522],"min":[-0.9998180270195007,-0.9999998807907104,-0.9995535016059875],"type":"VEC3"},{"bufferView":24,"componentType":5126,"count":5946,"max":[0.99985671043396,0.9982834458351135,0.9998378157615662,1.0],"min":[-0.9999997019767761,-0.998681902885437,-1.0,1.0],"type":"VEC4"},{"bufferView":25,"componentType":5126,"count":5946,"max":[0.9990234375,0.9990234375],"min":[0.0009765625,0.10266768932342529],"type":"VEC2"},{"bufferView":26,"componentType":5123,"count":19020,"max":[3997],"min":[0],"type":"SCALAR"},{"bufferView":27,"componentType":5126,"count":3998,"max":[22.275123596191406,61.44411087036133,26.720706939697266],"min":[-22.27511978149414,-0.01297760009765625,-20.936464309692383],"type":"VEC3"},{"bufferView":28,"componentType":5126,"count":3998,"max":[1.0,0.9999996423721313,1.0],"min":[-1.0,-1.0,-1.0],"type":"VEC3"},{"bufferView":29,"componentType":5126,"count":3998,"max":[1.0,0.9988738298416138,1.0,1.0],"min":[-1.0,-0.9988711476325989,-1.0,1.0],"type":"VEC4"},{"bufferView":30,"componentType":5126,"count":3998,"max":[0.9990234375,0.9990234375],"min":[0.0009765625,0.029914915561676025],"type":"VEC2"},{"bufferView":31,"componentType":5123,"count":44928,"max":[9926],"min":[0],"type":"SCALAR"},{"bufferView":32,"componentType":5126,"count":9927,"max":[5.783989429473877,62.413936614990234,8.790322303771973],"min":[-5.783989429473877,58.26188659667969,-2.77636981010437],"type":"VEC3"},{"bufferView":33,"componentType":5126,"count":9927,"max":[1.0,0.9999992847442627,0.9999906420707703],"min":[-1.0,-0.9999996423721313,-0.9999906420707703],"type":"VEC3"},{"bufferView":34,"componentType":5126,"count":9927,"max":[0.9999998807907104,0.9999352097511292,0.9999997019767761,1.0],"min":[-0.9999998807907104,-0.9997956156730652,-0.9999988675117493,-1.0],"type":"VEC4"},{"bufferView":35,"componentType":5126,"count":9927,"max":[0.9671642780303955,0.99951171875],"min":[0.00048828125,0.46905165910720825],"type":"VEC2"},{"bufferView":36,"componentType":5123,"count":15948,"max":[3454],"min":[0],"type":"SCALAR"},{"bufferView":37,"componentType":5126,"count":3455,"max":[5.783989429473877,63.289222717285156,8.74887752532959],"min":[-5.783989429473877,62.06514358520508,-2.8216326236724854],"type":"VEC3"},{"bufferView":38,"componentType":5126,"count":3455,"max":[1.0,0.7004896402359009,0.9996671080589294],"min":[-1.0,-0.9999849796295166,-0.9997425079345703],"type":"VEC3"},{"bufferView":39,"componentType":5126,"count":3455,"max":[0.9989712834358215,0.9999853372573853,0.9999963045120239,1.0],"min":[-0.9992033839225769,-0.999829888343811,-0.9823102951049805,-1.0],"type":"VEC4"},{"bufferView":40,"componentType":5126,"count":3455,"max":[0.9641662836074829,0.9995108842849731],"min":[0.00048828125,0.4563528299331665],"type":"VEC2"},{"bufferView":41,"componentType":5123,"count":7920,"max":[1824],"min":[0],"type":"SCALAR"},{"bufferView":42,"componentType":5126,"count":1825,"max":[25.638444900512695,23.550487518310547,26.916074752807617],"min":[-27.05954360961914,-0.0063266754150390625,-24.694520950317383],"type":"VEC3"},{"bufferView":43,"componentType":5126,"count":1825,"max":[0.999970555305481,0.9995443820953369,0.9999955296516418],"min":[-0.9999153017997742,-1.0,-0.9999207854270935],"type":"VEC3"},{"bufferView":44,"componentType":5126,"count":1825,"max":[0.999770998954773,0.9999685883522034,0.9978653192520142,1.0],"min":[-0.9995065927505493,-0.9999987483024597,-0.9998955130577087,1.0],"type":"VEC4"},{"bufferView":45,"componentType":5126,"count":1825,"max":[0.9973035454750061,0.9995105862617493],"min":[0.3212573826313019,0.2544236183166504],"type":"VEC2"},{"bufferView":46,"componentType":5123,"count":56994,"max":[10842],"min":[0],"type":"SCALAR"},{"bufferView":47,"componentType":5126,"count":10843,"max":[12.867074966430664,63.36886215209961,18.61571502685547],"min":[-15.015182495117188,22.59783935546875,-5.087883472442627],"type":"VEC3"},{"bufferView":48,"componentType":5126,"count":10843,"max":[1.0,1.0,1.0],"min":[-1.0,-1.0,-1.0],"type":"VEC3"},{"bufferView":49,"componentType":5126,"count":10843,"max":[1.0,1.0,0.9999836087226868,1.0],"min":[-0.9998146295547485,-0.9999998211860657,-0.9999998807907104,-1.0],"type":"VEC4"},{"bufferView":50,"componentType":5126,"count":10843,"max":[0.9993324875831604,0.9995105862617493],"min":[0.00048828125,0.0670924186706543],"type":"VEC2"},{"bufferView":51,"componentType":5126,"count":115,"max":[6.633333206176758],"min":[0.0],"type":"SCALAR"},{"bufferView":52,"componentType":5126,"count":115,"max":[0.0,0.9977457523345947,0.0,1.0],"min":[0.0,-0.7071067690849304,0.0,-1.0],"type":"VEC4"}],"animations":[{"channels":[{"sampler":0,"target":{"node":8,"path":"rotation"}}],"extensions":{"S8S_v3d_animation":{"auto":true,"loop":"REPEAT","offset":0.0,"repeatCount":1.0,"repeatInfinite":true}},"name":"Empty","samplers":[{"input":51,"interpolation":"LINEAR","output":52}]}],"asset":{"generator":"Verge3D for Blender v4.8.0","version":"2.0"},"bufferViews":[{"buffer":0,"byteLength":6,"byteOffset":0,"target":34963},{"buffer":0,"byteLength":48,"byteOffset":8,"target":34962},{"buffer":0,"byteLength":48,"byteOffset":56,"target":34962},{"buffer":0,"byteLength":32,"byteOffset":104,"target":34962},{"buffer":0,"byteLength":6,"byteOffset":136,"target":34963},{"buffer":0,"byteLength":48,"byteOffset":144,"target":34962},{"buffer":0,"byteLength":48,"byteOffset":192,"target":34962},{"buffer":0,"byteLength":32,"byteOffset":240,"target":34962},{"buffer":0,"byteLength":6,"byteOffset":272,"target":34963},{"buffer":0,"byteLength":48,"byteOffset":280,"target":34962},{"buffer":0,"byteLength":48,"byteOffset":328,"target":34962},{"buffer":0,"byteLength":64,"byteOffset":376,"target":34962},{"buffer":0,"byteLength":32,"byteOffset":440,"target":34962},{"buffer":0,"byteLength":24,"byteOffset":472,"target":34963},{"buffer":0,"byteLength":144,"byteOffset":496,"target":34962},{"buffer":0,"byteLength":144,"byteOffset":640,"target":34962},{"buffer":0,"byteLength":96,"byteOffset":784,"target":34962},{"buffer":0,"byteLength":6,"byteOffset":880,"target":34963},{"buffer":0,"byteLength":48,"byteOffset":888,"target":34962},{"buffer":0,"byteLength":48,"byteOffset":936,"target":34962},{"buffer":0,"byteLength":32,"byteOffset":984,"target":34962},{"buffer":0,"byteLength":60756,"byteOffset":1016,"target":34963},{"buffer":0,"byteLength":71352,"byteOffset":61772,"target":34962},{"buffer":0,"byteLength":71352,"byteOffset":133124,"target":34962},{"buffer":0,"byteLength":95136,"byteOffset":204476,"target":34962},{"buffer":0,"byteLength":47568,"byteOffset":299612,"target":34962},{"buffer":0,"byteLength":38040,"byteOffset":347180,"target":34963},{"buffer":0,"byteLength":47976,"byteOffset":385220,"target":34962},{"buffer":0,"byteLength":47976,"byteOffset":433196,"target":34962},{"buffer":0,"byteLength":63968,"byteOffset":481172,"target":34962},{"buffer":0,"byteLength":31984,"byteOffset":545140,"target":34962},{"buffer":0,"byteLength":89856,"byteOffset":577124,"target":34963},{"buffer":0,"byteLength":119124,"byteOffset":666980,"target":34962},{"buffer":0,"byteLength":119124,"byteOffset":786104,"target":34962},{"buffer":0,"byteLength":158832,"byteOffset":905228,"target":34962},{"buffer":0,"byteLength":79416,"byteOffset":1064060,"target":34962},{"buffer":0,"byteLength":31896,"byteOffset":1143476,"target":34963},{"buffer":0,"byteLength":41460,"byteOffset":1175372,"target":34962},{"buffer":0,"byteLength":41460,"byteOffset":1216832,"target":34962},{"buffer":0,"byteLength":55280,"byteOffset":1258292,"target":34962},{"buffer":0,"byteLength":27640,"byteOffset":1313572,"target":34962},{"buffer":0,"byteLength":15840,"byteOffset":1341212,"target":34963},{"buffer":0,"byteLength":21900,"byteOffset":1357052,"target":34962},{"buffer":0,"byteLength":21900,"byteOffset":1378952,"target":34962},{"buffer":0,"byteLength":29200,"byteOffset":1400852,"target":34962},{"buffer":0,"byteLength":14600,"byteOffset":1430052,"target":34962},{"buffer":0,"byteLength":113988,"byteOffset":1444652,"target":34963},{"buffer":0,"byteLength":130116,"byteOffset":1558640,"target":34962},{"buffer":0,"byteLength":130116,"byteOffset":1688756,"target":34962},{"buffer":0,"byteLength":173488,"byteOffset":1818872,"target":34962},{"buffer":0,"byteLength":86744,"byteOffset":1992360,"target":34962},{"buffer":0,"byteLength":460,"byteOffset":2079104},{"buffer":0,"byteLength":1840,"byteOffset":2079564}],"buffers":[{"byteLength":2081404,"uri":"Tablacasa-Chaise-Adeline.bin"}],"cameras":[{"extensions":{"S8S_v3d_camera":{"controls":"ORBIT","enablePan":false,"moveSpeed":1.0,"orbitMaxDistance":4.0,"orbitMaxPolarAngle":3.1415927410125732,"orbitMaxZoom":100.0,"orbitMinDistance":1.0,"orbitMinPolarAngle":0.0,"orbitMinZoom":0.009999999776482582,"orbitTarget":[0.0,0.5070000290870667,-0.0],"rotateSpeed":1.0,"viewportFitInitialAspect":1.7777777777777777,"viewportFitType":"AUTO"}},"name":"Camera.001","perspective":{"aspectRatio":1.7777777777777777,"yfov":0.39959652046304894,"zfar":1000.0,"znear":0.10000000149011612},"type":"perspective"}],"extensionsUsed":["S8S_v3d_texture","S8S_v3d_materials","S8S_v3d_camera","S8S_v3d_mesh","S8S_v3d_node","S8S_v3d_animation","S8S_v3d_scene"],"images":[{"uri":"Pietement_Bois_ORM.jpg"},{"uri":"Pietement_Bois_Basecolor.jpg"},{"uri":"logotype.jpg"},{"uri":"Mask.jpg"},{"uri":"Furtif_ORM.jpg"},{"uri":"Furtif_Normal.jpg"},{"uri":"Furtif_Basecolor.jpg"},{"uri":"Noise_Optimized.jpg"},{"uri":"Noise_Optimized_001.jpg"},{"uri":"Shadows.jpg"},{"uri":"Shadows2.jpg"},{"uri":"Christmas_living_room.hdr"}],"materials":[{"alphaMode":"BLEND","extensions":{"S8S_v3d_materials":{"alphaToCoverage":true,"gtaoVisible":true,"materialIndex":0,"nodeGraph":{"edges":[{"fromNode":4,"fromOutput":0,"toInput":0,"toNode":0},{"fromNode":1,"fromOutput":1,"toInput":2,"toNode":4},{"fromNode":1,"fromOutput":0,"toInput":7,"toNode":2},{"fromNode":2,"fromOutput":2,"toInput":0,"toNode":4},{"fromNode":3,"fromOutput":0,"toInput":0,"toNode":1},{"fromNode":5,"fromOutput":0,"toInput":4,"toNode":6},{"fromNode":6,"fromOutput":0,"toInput":6,"toNode":7},{"fromNode":7,"fromOutput":2,"toInput":6,"toNode":2}],"nodes":[{"inputs":[[0,0,0,0],[0,0,0,0],[0.0,0.0,0.0],0.0],"is_active_output":true,"name":"Material Output.001","outputs":[],"type":"OUTPUT_MATERIAL_BL"},{"inputs":[[0.800000011920929,0.800000011920929,0.800000011920929,1.0]],"is_active_output":false,"mode":"RGB","name":"Separate Color.002","outputs":[0.0,0.0,0.0],"type":"SEPARATE_COLOR_BL"},{"blendType":"MULTIPLY","clampFactor":true,"clampResult":false,"dataType":"RGBA","factorMode":"UNIFORM","inputs":[1.0,[0.5,0.5,0.5],0.0,0.0,[0.0,0.0,0.0],[0.0,0.0,0.0],[0.5,0.5,0.5,1.0],[0.5,0.5,0.5,1.0],0,0],"is_active_output":false,"name":"Mix.002","outputs":[0.0,[0.0,0.0,0.0],[0.800000011920929,0.800000011920929,0.800000011920929,1.0],0],"type":"MIX_BL"},{"alphaMode":"CHANNEL_PACKED","inputs":[[0.0,0.0,0.0]],"is_active_output":false,"name":"Image Texture.005","outputs":[[0.800000011920929,0.800000011920929,0.800000011920929,1.0],0.0],"projection":"FLAT","projectionBlend":0.0,"texture":0,"type":"TEX_IMAGE_BL"},{"inputs":[[0.800000011920929,0.800000011920929,0.800000011920929,1.0],0.0,0.16568180918693542,1.5,1.0,[0.0,0.0,0.0],0.0,[1.0,0.20000000298023224,0.10000000149011612],0.05000000074505806,1.399999976158142,0.0,0.5,[1.0,1.0,1.0,1.0],0.0,0.0,[0.0,0.0,0.0],0.0,0.0,0.029999999329447746,1.5,[1.0,1.0,1.0,1.0],[0.0,0.0,0.0],0.0,0.5,[1.0,1.0,1.0,1.0],[1.0,1.0,1.0,1.0],0.0],"is_active_output":false,"name":"Principled BSDF.001","outputs":[[0,0,0,0]],"type":"BSDF_PRINCIPLED_BL"},{"alphaMode":"STRAIGHT","inputs":[[0.0,0.0,0.0]],"is_active_output":false,"name":"Image Texture.004","outputs":[[0.800000011920929,0.800000011920929,0.800000011920929,1.0],0.0],"projection":"FLAT","projectionBlend":0.0,"texture":1,"type":"TEX_IMAGE_BL"},{"inputs":[0.5,1.0,0.75,1.0,[0.800000011920929,0.800000011920929,0.800000011920929,1.0]],"is_active_output":false,"name":"Hue/Saturation/Value","outputs":[[0.0,0.0,0.0,0.0]],"type":"HUE_SAT_BL"},{"blendType":"COLOR","clampFactor":true,"clampResult":false,"dataType":"RGBA","factorMode":"UNIFORM","inputs":[1.0,[0.5,0.5,0.5],0.0,0.0,[0.0,0.0,0.0],[0.0,0.0,0.0],[0.5,0.5,0.5,1.0],[1.0,0.7474360466003418,0.5,1.0],0,0],"is_active_output":false,"name":"Mix","outputs":[0.0,[0.0,0.0,0.0],[0.0,0.0,0.0,0.0],0],"type":"MIX_BL"}]}}},"name":"Bois"},{"alphaMode":"OPAQUE","extensions":{"S8S_v3d_materials":{"gtaoVisible":true,"materialIndex":0,"nodeGraph":{"edges":[{"fromNode":0,"fromOutput":0,"toInput":0,"toNode":1},{"fromNode":2,"fromOutput":0,"toInput":0,"toNode":0}],"nodes":[{"inputs":[[0.800000011920929,0.800000011920929,0.800000011920929,1.0],0.0,1.0,1.4500000476837158,1.0,[0.0,0.0,0.0],0.0,[1.0,0.20000000298023224,0.10000000149011612],0.05000000074505806,1.399999976158142,0.0,0.5,[1.0,1.0,1.0,1.0],0.0,0.0,[0.0,0.0,0.0],0.0,0.0,0.029999999329447746,1.5,[1.0,1.0,1.0,1.0],[0.0,0.0,0.0],0.0,0.5,[1.0,1.0,1.0,1.0],[1.0,1.0,1.0,1.0],0.0],"is_active_output":false,"name":"Principled BSDF","outputs":[[0,0,0,0]],"type":"BSDF_PRINCIPLED_BL"},{"inputs":[[0,0,0,0],[0,0,0,0],[0.0,0.0,0.0],0.0],"is_active_output":true,"name":"Material Output","outputs":[],"type":"OUTPUT_MATERIAL_BL"},{"alphaMode":"STRAIGHT","inputs":[[0.0,0.0,0.0]],"is_active_output":false,"name":"Image Texture","outputs":[[0.0,0.0,0.0,0.0],0.0],"projection":"FLAT","projectionBlend":0.0,"texture":2,"type":"TEX_IMAGE_BL"}]}}},"name":"logotype"},{"alphaMode":"BLEND","extensions":{"S8S_v3d_materials":{"alphaToCoverage":true,"gtaoVisible":true,"materialIndex":0,"nodeGraph":{"edges":[{"fromNode":1,"fromOutput":2,"toInput":1,"toNode":12},{"fromNode":1,"fromOutput":1,"toInput":2,"toNode":12},{"fromNode":2,"fromOutput":0,"toInput":5,"toNode":12},{"fromNode":15,"fromOutput":0,"toInput":0,"toNode":1},{"fromNode":16,"fromOutput":0,"toInput":1,"toNode":2},{"fromNode":9,"fromOutput":0,"toInput":4,"toNode":7},{"fromNode":7,"fromOutput":0,"toInput":6,"toNode":3},{"fromNode":8,"fromOutput":0,"toInput":6,"toNode":4},{"fromNode":18,"fromOutput":0,"toInput":4,"toNode":8},{"fromNode":3,"fromOutput":2,"toInput":1,"toNode":5},{"fromNode":4,"fromOutput":2,"toInput":2,"toNode":5},{"fromNode":5,"fromOutput":0,"toInput":0,"toNode":6},{"fromNode":14,"fromOutput":0,"toInput":0,"toNode":5},{"fromNode":13,"fromOutput":0,"toInput":2,"toNode":7},{"fromNode":19,"fromOutput":0,"toInput":2,"toNode":8},{"fromNode":17,"fromOutput":0,"toInput":7,"toNode":3},{"fromNode":20,"fromOutput":0,"toInput":7,"toNode":4},{"fromNode":18,"fromOutput":0,"toInput":0,"toNode":9},{"fromNode":10,"fromOutput":0,"toInput":2,"toNode":9},{"fromNode":1,"fromOutput":0,"toInput":7,"toNode":11},{"fromNode":6,"fromOutput":0,"toInput":6,"toNode":11},{"fromNode":11,"fromOutput":2,"toInput":0,"toNode":12},{"fromNode":12,"fromOutput":0,"toInput":0,"toNode":0}],"nodes":[{"inputs":[[0,0,0,0],[0,0,0,0],[0.0,0.0,0.0],0.0],"is_active_output":true,"name":"Material Output","outputs":[],"type":"OUTPUT_MATERIAL_BL"},{"inputs":[[0.800000011920929,0.800000011920929,0.800000011920929,1.0]],"is_active_output":false,"mode":"RGB","name":"Separate Color","outputs":[0.0,0.0,0.0],"type":"SEPARATE_COLOR_BL"},{"inputs":[1.0,[0.5,0.5,1.0,1.0]],"is_active_output":false,"name":"Normal Map","outputs":[[0.0,0.0,0.0]],"type":"NORMAL_MAP_BL","uvLayer":"UVMap"},{"blendType":"COLOR","clampFactor":true,"clampResult":false,"dataType":"RGBA","factorMode":"UNIFORM","inputs":[1.0,[0.5,0.5,0.5],0.0,0.0,[0.0,0.0,0.0],[0.0,0.0,0.0],[0.5,0.5,0.5,1.0],[0.49878227710723877,0.49878227710723877,0.49878227710723877,1.0],0,0],"is_active_output":false,"name":"Mix","outputs":[0.0,[0.0,0.0,0.0],[0.800000011920929,0.800000011920929,0.800000011920929,1.0],0],"type":"MIX_BL"},{"blendType":"COLOR","clampFactor":true,"clampResult":false,"dataType":"RGBA","factorMode":"UNIFORM","inputs":[1.0,[0.5,0.5,0.5],0.0,0.0,[0.0,0.0,0.0],[0.0,0.0,0.0],[0.5,0.5,0.5,1.0],[1.0,1.0,1.0,1.0],0,0],"is_active_output":false,"name":"Mix.001","outputs":[0.0,[0.0,0.0,0.0],[0.800000011920929,0.800000011920929,0.800000011920929,1.0],0],"type":"MIX_BL"},{"inputs":[0.5,[0,0,0,0],[0,0,0,0]],"is_active_output":false,"name":"Mix Shader","outputs":[[0,0,0,0]],"type":"MIX_SHADER_BL"},{"inputs":[[0,0,0,0]],"is_active_output":false,"name":"Shader to RGB","outputs":[[0.800000011920929,0.800000011920929,0.800000011920929,1.0],0.0],"type":"SHADERTORGB_BL"},{"inputs":[0.5,1.0,1.0,1.0,[0.800000011920929,0.800000011920929,0.800000011920929,1.0]],"is_active_output":false,"name":"Hue/Saturation/Value","outputs":[[0.800000011920929,0.800000011920929,0.800000011920929,1.0]],"type":"HUE_SAT_BL"},{"inputs":[0.5,1.0,1.0,1.0,[0.800000011920929,0.800000011920929,0.800000011920929,1.0]],"is_active_output":false,"name":"Hue/Saturation/Value.001","outputs":[[0.800000011920929,0.800000011920929,0.800000011920929,1.0]],"type":"HUE_SAT_BL"},{"inputs":[[1.0,1.0,1.0,1.0],0.0,0.0],"is_active_output":false,"name":"Brightness/Contrast","outputs":[[0.0,0.0,0.0,0.0]],"type":"BRIGHTCONTRAST_BL"},{"inputs":[],"is_active_output":false,"name":"Contrast","outputs":[0.0],"type":"VALUE_BL"},{"blendType":"MULTIPLY","clampFactor":true,"clampResult":false,"dataType":"RGBA","factorMode":"UNIFORM","inputs":[1.0,[0.5,0.5,0.5],0.0,0.0,[0.0,0.0,0.0],[0.0,0.0,0.0],[0.5,0.5,0.5,1.0],[0.5,0.5,0.5,1.0],0,0],"is_active_output":false,"name":"Mix.002","outputs":[0.0,[0.0,0.0,0.0],[0.0,0.0,0.0,0.0],0],"type":"MIX_BL"},{"inputs":[[0.800000011920929,0.800000011920929,0.800000011920929,1.0],0.0,0.5,1.5,1.0,[0.0,0.0,0.0],0.0,[1.0,0.20000000298023224,0.10000000149011612],0.05000000074505806,1.399999976158142,0.0,0.5,[1.0,1.0,1.0,1.0],0.0,0.0,[0.0,0.0,0.0],0.0,0.0,0.029999999329447746,1.5,[1.0,1.0,1.0,1.0],[0.0,0.0,0.0],0.0,0.5,[1.0,1.0,1.0,1.0],[1.0,1.0,1.0,1.0],0.0],"is_active_output":false,"name":"Principled BSDF","outputs":[[0,0,0,0]],"type":"BSDF_PRINCIPLED_BL"},{"inputs":[],"is_active_output":false,"name":"Brightness-1","outputs":[1.0],"type":"VALUE_BL"},{"alphaMode":"CHANNEL_PACKED","inputs":[[0.0,0.0,0.0]],"is_active_output":false,"name":"Image Texture","outputs":[[0.800000011920929,0.800000011920929,0.800000011920929,1.0],0.0],"projection":"FLAT","projectionBlend":0.0,"texture":3,"type":"TEX_IMAGE_BL"},{"alphaMode":"CHANNEL_PACKED","inputs":[[0.0,0.0,0.0]],"is_active_output":false,"name":"Image Texture.006","outputs":[[0.800000011920929,0.800000011920929,0.800000011920929,1.0],0.0],"projection":"FLAT","projectionBlend":0.0,"texture":4,"type":"TEX_IMAGE_BL"},{"alphaMode":"CHANNEL_PACKED","inputs":[[0.0,0.0,0.0]],"is_active_output":false,"name":"Image Texture.005","outputs":[[0.800000011920929,0.800000011920929,0.800000011920929,1.0],0.0],"projection":"FLAT","projectionBlend":0.0,"texture":5,"type":"TEX_IMAGE_BL"},{"inputs":[],"is_active_output":false,"name":"RGB-1","outputs":[[0.31404194235801697,0.02315230667591095,0.028423989191651344,1.0]],"type":"RGB_BL"},{"alphaMode":"STRAIGHT","inputs":[[0.0,0.0,0.0]],"is_active_output":false,"name":"Image Texture.004","outputs":[[0.800000011920929,0.800000011920929,0.800000011920929,1.0],0.0],"projection":"FLAT","projectionBlend":0.0,"texture":6,"type":"TEX_IMAGE_BL"},{"inputs":[],"is_active_output":false,"name":"Brightness-2","outputs":[1.7000000476837158],"type":"VALUE_BL"},{"inputs":[],"is_active_output":false,"name":"RGB-2","outputs":[[0.08867061138153076,0.010329359211027622,0.011611408554017544,1.0]],"type":"RGB_BL"}]}}},"name":"MAT_ASSISE"},{"alphaMode":"BLEND","extensions":{"S8S_v3d_materials":{"alphaToCoverage":true,"gtaoVisible":true,"materialIndex":0,"nodeGraph":{"edges":[{"fromNode":1,"fromOutput":0,"toInput":5,"toNode":5},{"fromNode":2,"fromOutput":0,"toInput":1,"toNode":1},{"fromNode":3,"fromOutput":0,"toInput":0,"toNode":2},{"fromNode":4,"fromOutput":2,"toInput":0,"toNode":3},{"fromNode":5,"fromOutput":0,"toInput":0,"toNode":0}],"nodes":[{"inputs":[[0,0,0,0],[0,0,0,0],[0.0,0.0,0.0],0.0],"is_active_output":true,"name":"Material Output","outputs":[],"type":"OUTPUT_MATERIAL_BL"},{"inputs":[0.20000000298023224,[0.5,0.5,1.0,1.0]],"is_active_output":false,"name":"Normal Map","outputs":[[0.0,0.0,0.0]],"type":"NORMAL_MAP_BL","uvLayer":"UVMap"},{"alphaMode":"CHANNEL_PACKED","inputs":[[0.0,0.0,0.0]],"is_active_output":false,"name":"Image Texture.004","outputs":[[0.800000011920929,0.800000011920929,0.800000011920929,1.0],0.0],"projection":"FLAT","projectionBlend":0.0,"texture":7,"type":"TEX_IMAGE_BL"},{"inputs":[[0.0,0.0,0.0],[0.0,0.0,0.0],[0.0,0.0,0.0],[15.0,15.0,15.0]],"is_active_output":false,"name":"Mapping","outputs":[[0.0,0.0,0.0]],"type":"MAPPING_BL","vectorType":"POINT"},{"inputs":[],"is_active_output":false,"name":"Texture Coordinate","object":-1,"outputs":[[0.0,0.0,0.0],[0.0,0.0,0.0],[0.0,0.0,0.0],[0.0,0.0,0.0],[0.0,0.0,0.0],[0.0,0.0,0.0],[0.0,0.0,0.0]],"type":"TEX_COORD_BL"},{"inputs":[[0.06125633791089058,0.06124337017536163,0.061241623014211655,1.0],1.0,0.25,1.5,1.0,[0.0,0.0,0.0],0.0,[1.0,0.20000000298023224,0.10000000149011612],0.05000000074505806,1.399999976158142,0.0,0.5,[1.0,1.0,1.0,1.0],0.0,0.0,[0.0,0.0,0.0],0.0,0.0,0.029999999329447746,1.5,[1.0,1.0,1.0,1.0],[0.0,0.0,0.0],0.0,0.5,[1.0,1.0,1.0,1.0],[1.0,1.0,1.0,1.0],0.0],"is_active_output":false,"name":"Principled BSDF","outputs":[[0,0,0,0]],"type":"BSDF_PRINCIPLED_BL"}]}}},"name":"MAT_FEET_METALWOOD"},{"alphaMode":"BLEND","extensions":{"S8S_v3d_materials":{"alphaToCoverage":true,"gtaoVisible":true,"materialIndex":0,"nodeGraph":{"edges":[{"fromNode":1,"fromOutput":0,"toInput":5,"toNode":5},{"fromNode":2,"fromOutput":0,"toInput":1,"toNode":1},{"fromNode":3,"fromOutput":0,"toInput":0,"toNode":2},{"fromNode":4,"fromOutput":2,"toInput":0,"toNode":3},{"fromNode":5,"fromOutput":0,"toInput":0,"toNode":0}],"nodes":[{"inputs":[[0,0,0,0],[0,0,0,0],[0.0,0.0,0.0],0.0],"is_active_output":true,"name":"Material Output.001","outputs":[],"type":"OUTPUT_MATERIAL_BL"},{"inputs":[0.20000000298023224,[0.5,0.5,1.0,1.0]],"is_active_output":false,"name":"Normal Map.001","outputs":[[0.0,0.0,0.0]],"type":"NORMAL_MAP_BL","uvLayer":"UVMap"},{"alphaMode":"CHANNEL_PACKED","inputs":[[0.0,0.0,0.0]],"is_active_output":false,"name":"Image Texture.004","outputs":[[0.800000011920929,0.800000011920929,0.800000011920929,1.0],0.0],"projection":"FLAT","projectionBlend":0.0,"texture":7,"type":"TEX_IMAGE_BL"},{"inputs":[[0.0,0.0,0.0],[0.0,0.0,0.0],[0.0,0.0,0.0],[15.0,15.0,15.0]],"is_active_output":false,"name":"Mapping","outputs":[[0.0,0.0,0.0]],"type":"MAPPING_BL","vectorType":"POINT"},{"inputs":[],"is_active_output":false,"name":"Texture Coordinate","object":-1,"outputs":[[0.0,0.0,0.0],[0.0,0.0,0.0],[0.0,0.0,0.0],[0.0,0.0,0.0],[0.0,0.0,0.0],[0.0,0.0,0.0],[0.0,0.0,0.0]],"type":"TEX_COORD_BL"},{"inputs":[[0.06125633791089058,0.06124337017536163,0.061241623014211655,1.0],1.0,0.25,1.5,1.0,[0.0,0.0,0.0],0.0,[1.0,0.20000000298023224,0.10000000149011612],0.05000000074505806,1.399999976158142,0.0,0.5,[1.0,1.0,1.0,1.0],0.0,0.0,[0.0,0.0,0.0],0.0,0.0,0.029999999329447746,1.5,[1.0,1.0,1.0,1.0],[0.0,0.0,0.0],0.0,0.5,[1.0,1.0,1.0,1.0],[1.0,1.0,1.0,1.0],0.0],"is_active_output":false,"name":"Principled BSDF.001","outputs":[[0,0,0,0]],"type":"BSDF_PRINCIPLED_BL"}]}}},"name":"noir"},{"alphaMode":"BLEND","extensions":{"S8S_v3d_materials":{"alphaToCoverage":true,"gtaoVisible":true,"materialIndex":0,"nodeGraph":{"edges":[{"fromNode":1,"fromOutput":0,"toInput":5,"toNode":5},{"fromNode":2,"fromOutput":0,"toInput":1,"toNode":1},{"fromNode":3,"fromOutput":0,"toInput":0,"toNode":2},{"fromNode":4,"fromOutput":2,"toInput":0,"toNode":3},{"fromNode":5,"fromOutput":0,"toInput":0,"toNode":0}],"nodes":[{"inputs":[[0,0,0,0],[0,0,0,0],[0.0,0.0,0.0],0.0],"is_active_output":true,"name":"Material Output.001","outputs":[],"type":"OUTPUT_MATERIAL_BL"},{"inputs":[1.0,[0.5,0.5,1.0,1.0]],"is_active_output":false,"name":"Normal Map.001","outputs":[[0.0,0.0,0.0]],"type":"NORMAL_MAP_BL","uvLayer":"UVMap"},{"alphaMode":"CHANNEL_PACKED","inputs":[[0.0,0.0,0.0]],"is_active_output":false,"name":"Image Texture.004","outputs":[[0.800000011920929,0.800000011920929,0.800000011920929,1.0],0.0],"projection":"FLAT","projectionBlend":0.0,"texture":9,"type":"TEX_IMAGE_BL"},{"inputs":[[0.0,0.0,0.0],[0.0,0.0,0.0],[0.0,0.0,0.0],[15.0,15.0,15.0]],"is_active_output":false,"name":"Mapping","outputs":[[0.0,0.0,0.0]],"type":"MAPPING_BL","vectorType":"POINT"},{"inputs":[],"is_active_output":false,"name":"Texture Coordinate","object":-1,"outputs":[[0.0,0.0,0.0],[0.0,0.0,0.0],[0.0,0.0,0.0],[0.0,0.0,0.0],[0.0,0.0,0.0],[0.0,0.0,0.0],[0.0,0.0,0.0]],"type":"TEX_COORD_BL"},{"inputs":[[0.06125633791089058,0.06124337017536163,0.061241623014211655,1.0],1.0,0.5,1.5,1.0,[0.0,0.0,0.0],0.0,[1.0,0.20000000298023224,0.10000000149011612],0.05000000074505806,1.399999976158142,0.0,0.5,[1.0,1.0,1.0,1.0],0.0,0.0,[0.0,0.0,0.0],0.0,0.0,0.029999999329447746,1.5,[1.0,1.0,1.0,1.0],[0.0,0.0,0.0],0.0,0.5,[1.0,1.0,1.0,1.0],[1.0,1.0,1.0,1.0],0.0],"is_active_output":false,"name":"Principled BSDF.001","outputs":[[0,0,0,0]],"type":"BSDF_PRINCIPLED_BL"}]}}},"name":"noir.001"},{"alphaMode":"BLEND","extensions":{"S8S_v3d_materials":{"depthPrepass":true,"gtaoVisible":false,"materialIndex":0,"nodeGraph":{"edges":[{"fromNode":3,"fromOutput":2,"toInput":4,"toNode":2},{"fromNode":2,"fromOutput":0,"toInput":0,"toNode":0},{"fromNode":1,"fromOutput":0,"toInput":6,"toNode":3}],"nodes":[{"inputs":[[0,0,0,0],[0,0,0,0],[0.0,0.0,0.0],0.0],"is_active_output":true,"name":"Material Output","outputs":[],"type":"OUTPUT_MATERIAL_BL"},{"alphaMode":"CHANNEL_PACKED","inputs":[[0.0,0.0,0.0]],"is_active_output":false,"name":"Image Texture.001","outputs":[[0.0,0.0,0.0,0.0],0.0],"projection":"FLAT","projectionBlend":0.0,"texture":10,"type":"TEX_IMAGE_BL"},{"inputs":[[0.0,0.0,0.0,1.0],0.0,0.5,1.4500000476837158,1.0,[0.0,0.0,0.0],0.0,[1.0,0.20000000298023224,0.10000000149011612],0.05000000074505806,1.399999976158142,0.0,0.5,[1.0,1.0,1.0,1.0],0.0,0.0,[0.0,0.0,0.0],0.0,0.0,0.029999999329447746,1.5,[1.0,1.0,1.0,1.0],[0.0,0.0,0.0],0.0,0.5,[1.0,1.0,1.0,1.0],[1.0,1.0,1.0,1.0],0.0],"is_active_output":false,"name":"Principled BSDF","outputs":[[0,0,0,0]],"type":"BSDF_PRINCIPLED_BL"},{"blendType":"MIX","clampFactor":true,"clampResult":false,"dataType":"RGBA","factorMode":"UNIFORM","inputs":[0.5,[0.5,0.5,0.5],0.0,0.0,[0.0,0.0,0.0],[0.0,0.0,0.0],[0.5,0.5,0.5,1.0],[0.0,0.0,0.0,1.0],0,0],"is_active_output":false,"name":"Mix","outputs":[0.0,[0.0,0.0,0.0],[0.0,0.0,0.0,0.0],0],"type":"MIX_BL"}]}}},"name":"Shadows"},{"alphaMode":"BLEND","extensions":{"S8S_v3d_materials":{"depthPrepass":true,"gtaoVisible":false,"materialIndex":0,"nodeGraph":{"edges":[{"fromNode":1,"fromOutput":0,"toInput":0,"toNode":0},{"fromNode":2,"fromOutput":0,"toInput":4,"toNode":1}],"nodes":[{"inputs":[[0,0,0,0],[0,0,0,0],[0.0,0.0,0.0],0.0],"is_active_output":true,"name":"Material Output","outputs":[],"type":"OUTPUT_MATERIAL_BL"},{"inputs":[[0.0,0.0,0.0,1.0],0.0,0.5,1.4500000476837158,1.0,[0.0,0.0,0.0],0.0,[1.0,0.20000000298023224,0.10000000149011612],0.05000000074505806,1.399999976158142,0.0,0.5,[1.0,1.0,1.0,1.0],0.0,0.0,[0.0,0.0,0.0],0.0,0.0,0.029999999329447746,1.5,[1.0,1.0,1.0,1.0],[0.0,0.0,0.0],0.0,0.5,[1.0,1.0,1.0,1.0],[1.0,1.0,1.0,1.0],0.0],"is_active_output":false,"name":"Principled BSDF","outputs":[[0,0,0,0]],"type":"BSDF_PRINCIPLED_BL"},{"alphaMode":"CHANNEL_PACKED","inputs":[[0.0,0.0,0.0]],"is_active_output":false,"name":"Image Texture","outputs":[[0.0,0.0,0.0,0.0],0.0],"projection":"FLAT","projectionBlend":0.0,"texture":11,"type":"TEX_IMAGE_BL"}]}}},"name":"Shadows2.001"},{"alphaMode":"OPAQUE","extensions":{"S8S_v3d_materials":{"gtaoVisible":true,"materialIndex":0,"nodeGraph":{"edges":[{"fromNode":2,"fromOutput":0,"toInput":0,"toNode":0},{"fromNode":1,"fromOutput":0,"toInput":0,"toNode":2}],"nodes":[{"inputs":[[0,0,0,0],[0,0,0,0]],"is_active_output":true,"name":"World Output","outputs":[],"type":"OUTPUT_WORLD_BL"},{"inputs":[[0.0,0.0,0.0]],"is_active_output":false,"name":"Environment Texture.001","outputs":[[0.0,0.0,0.0,0.0]],"projection":"EQUIRECTANGULAR","texture":12,"type":"TEX_ENVIRONMENT_BL"},{"inputs":[[0.05087608844041824,0.05087608844041824,0.05087608844041824,1.0],1.0],"is_active_output":false,"name":"Background","outputs":[[0,0,0,0]],"type":"BACKGROUND_BL"}]}}},"name":"Verge3D_Environment_World.001"}],"meshes":[{"extensions":{"S8S_v3d_mesh":{"colorLayers":{},"uvLayers":{"UVMap":"TEXCOORD_0"}}},"name":"Plane","primitives":[{"attributes":{"NORMAL":2,"POSITION":1,"TEXCOORD_0":3},"indices":0,"material":0,"mode":4}]},{"extensions":{"S8S_v3d_mesh":{"colorLayers":{},"uvLayers":{"UVMap":"TEXCOORD_0"}}},"name":"Plane.001","primitives":[{"attributes":{"NORMAL":6,"POSITION":5,"TEXCOORD_0":7},"indices":4,"material":6,"mode":4}]},{"extensions":{"S8S_v3d_mesh":{"colorLayers":{},"uvLayers":{"UVMap":"TEXCOORD_0"}}},"name":"Plane.002","primitives":[{"attributes":{"NORMAL":10,"POSITION":9,"TANGENT":11,"TEXCOORD_0":12},"indices":8,"material":4,"mode":4}]},{"extensions":{"S8S_v3d_mesh":{"colorLayers":{},"uvLayers":{"UVMap":"TEXCOORD_0"}}},"name":"Plane.003","primitives":[{"attributes":{"NORMAL":15,"POSITION":14,"TEXCOORD_0":16},"indices":13,"material":1,"mode":4}]},{"extensions":{"S8S_v3d_mesh":{"colorLayers":{},"uvLayers":{"UVMap":"TEXCOORD_0"}}},"name":"Plane.005","primitives":[{"attributes":{"NORMAL":19,"POSITION":18,"TEXCOORD_0":20},"indices":17,"material":7,"mode":4}]},{"extensions":{"S8S_v3d_mesh":{"colorLayers":{},"uvLayers":{"UVMap":"TEXCOORD_0"}}},"name":"sm_TAB_FUGACE_low","primitives":[{"attributes":{"NORMAL":23,"POSITION":22,"TANGENT":24,"TEXCOORD_0":25},"indices":21,"material":2,"mode":4}]},{"extensions":{"S8S_v3d_mesh":{"colorLayers":{},"uvLayers":{"UVMap":"TEXCOORD_0"}}},"name":"sm_TABFEET","primitives":[{"attributes":{"NORMAL":28,"POSITION":27,"TANGENT":29,"TEXCOORD_0":30},"indices":26,"material":4,"mode":4}]},{"extensions":{"S8S_v3d_mesh":{"colorLayers":{},"uvLayers":{"UVMap":"TEXCOORD_0"}}},"name":"sm_TABFEET.001","primitives":[{"attributes":{"NORMAL":33,"POSITION":32,"TANGENT":34,"TEXCOORD_0":35},"indices":31,"material":3,"mode":4}]},{"extensions":{"S8S_v3d_mesh":{"colorLayers":{},"uvLayers":{"UVMap":"TEXCOORD_0"}}},"name":"sm_TABFEET.002","primitives":[{"attributes":{"NORMAL":38,"POSITION":37,"TANGENT":39,"TEXCOORD_0":40},"indices":36,"material":3,"mode":4}]},{"extensions":{"S8S_v3d_mesh":{"colorLayers":{},"uvLayers":{"UVMap":"TEXCOORD_0"}}},"name":"tab_piston_01","primitives":[{"attributes":{"NORMAL":43,"POSITION":42,"TANGENT":44,"TEXCOORD_0":45},"indices":41,"material":5,"mode":4}]},{"extensions":{"S8S_v3d_mesh":{"colorLayers":{},"uvLayers":{"UVMap":"TEXCOORD_0"}}},"name":"tab_piston_01.001","primitives":[{"attributes":{"NORMAL":48,"POSITION":47,"TANGENT":49,"TEXCOORD_0":50},"indices":46,"material":5,"mode":4}]}],"nodes":[{"camera":0,"extensions":{"S8S_v3d_node":{"frustumCulling":true,"groupNames":[],"hidden":false,"hidpiCompositing":false,"objectColor":[1.0,1.0,1.0,1.0],"objectIndex":0,"renderOrder":0}},"name":"Camera","rotation":[-0.12802892923355103,-0.3340611755847931,-0.04585614800453186,0.9326891303062439],"scale":[1.0,0.9999998211860657,0.9999998211860657],"translation":[-2.159909963607788,1.4589157104492188,2.6283955574035645]},{"extensions":{"S8S_v3d_node":{"frustumCulling":true,"groupNames":[],"hidden":false,"hidpiCompositing":false,"objectColor":[1.0,1.0,1.0,1.0],"objectIndex":0,"renderOrder":0}},"mesh":2,"name":"Pietement color 2","scale":[0.010566351003944874,0.010566351003944874,0.010566351003944874],"translation":[0.0,0.6684538125991821,0.027416108176112175]},{"extensions":{"S8S_v3d_node":{"frustumCulling":true,"groupNames":[],"hidden":false,"hidpiCompositing":false,"objectColor":[1.0,1.0,1.0,1.0],"objectIndex":0,"renderOrder":0}},"mesh":5,"name":"sm_TAB_FUGACE_low.002","scale":[0.009999999776482582,0.009999999776482582,0.009999999776482582],"translation":[0.0,0.002148846397176385,-0.0]},{"children":[2],"name":"v3d_Proxy_Node_0_sm_TAB_FUGACE_low.002","translation":[-1.8626451075975936e-11,-0.40764057636260986,-0.030036339536309242]},{"extensions":{"S8S_v3d_node":{"frustumCulling":true,"groupNames":["Pietement 1"],"hidden":false,"hidpiCompositing":false,"objectColor":[1.0,1.0,1.0,1.0],"objectIndex":0,"renderOrder":0}},"mesh":6,"name":"Pietement 1","scale":[0.009999999776482582,0.009999999776482582,0.009999999776482582]},{"extensions":{"S8S_v3d_node":{"frustumCulling":true,"groupNames":["Pietement 1"],"hidden":false,"hidpiCompositing":false,"objectColor":[1.0,1.0,1.0,1.0],"objectIndex":0,"renderOrder":0}},"mesh":1,"name":"Shadow","rotation":[0.0,1.0,-0.0,1.6292067073209182e-07],"scale":[0.3056749999523163,0.3056749999523163,0.3056749999523163],"translation":[-0.001711157034151256,0.000942499260418117,0.01823936030268669]},{"extensions":{"S8S_v3d_node":{"frustumCulling":true,"groupNames":["Pietement 2"],"hidden":false,"hidpiCompositing":false,"objectColor":[1.0,1.0,1.0,1.0],"objectIndex":0,"renderOrder":0}},"mesh":10,"name":"tab_piston_01.002","rotation":[0.0,-8.742277657347586e-08,-0.0,1.0],"scale":[0.009999999776482582,0.009999999776482582,0.009999999776482582],"translation":[5.251720391896697e-09,0.0,-0.0]},{"children":[6],"name":"v3d_Proxy_Node_0_tab_piston_01.002","translation":[-1.8626451075975936e-11,-0.40764057636260986,-0.030036339536309242]},{"children":[10,14,3,7],"extensions":{"S8S_v3d_node":{"frustumCulling":true,"groupNames":[],"hidden":false,"hidpiCompositing":false,"objectColor":[1.0,1.0,1.0,1.0],"objectIndex":0,"renderOrder":0}},"name":"Empty","translation":[1.8626451075975936e-11,0.40764057636260986,0.030036339536309242]},{"extensions":{"S8S_v3d_node":{"frustumCulling":true,"groupNames":[],"hidden":false,"hidpiCompositing":false,"objectColor":[1.0,1.0,1.0,1.0],"objectIndex":0,"renderOrder":0}},"mesh":3,"name":"logotype","rotation":[0.012878753244876862,-0.025840019807219505,0.25964194536209106,0.9652733206748962],"translation":[-0.22823850810527802,0.7013487815856934,0.056397803127765656]},{"children":[9],"name":"v3d_Proxy_Node_0_logotype","translation":[-1.8626451075975936e-11,-0.40764057636260986,-0.030036339536309242]},{"extensions":{"S8S_v3d_node":{"frustumCulling":true,"groupNames":[],"hidden":false,"hidpiCompositing":false,"objectColor":[1.0,1.0,1.0,1.0],"objectIndex":0,"renderOrder":0}},"mesh":0,"name":"Pietement color","scale":[0.010566351003944874,0.010566351003944874,0.010566351003944874],"translation":[0.0,0.6722549200057983,0.027416108176112175]},{"extensions":{"S8S_v3d_node":{"frustumCulling":true,"groupNames":["Pietement 1"],"hidden":false,"hidpiCompositing":false,"objectColor":[1.0,1.0,1.0,1.0],"objectIndex":0,"renderOrder":0}},"mesh":7,"name":"Pivotant-1","scale":[0.009999999776482582,0.009999999776482582,0.009999999776482582]},{"extensions":{"S8S_v3d_node":{"frustumCulling":true,"groupNames":["Pietement 1"],"hidden":false,"hidpiCompositing":false,"objectColor":[1.0,1.0,1.0,1.0],"objectIndex":0,"renderOrder":0}},"mesh":8,"name":"Pivotant-1.001","scale":[0.009999999776482582,0.009999999776482582,0.009999999776482582]},{"children":[13],"name":"v3d_Proxy_Node_0_Pivotant-1.001","translation":[-1.8626451075975936e-11,-0.40764057636260986,-0.030036339536309242]},{"extensions":{"S8S_v3d_node":{"frustumCulling":true,"groupNames":["Pietement 2"],"hidden":false,"hidpiCompositing":false,"objectColor":[1.0,1.0,1.0,1.0],"objectIndex":0,"renderOrder":0}},"mesh":4,"name":"Shadow2","scale":[0.9292669892311096,0.9292669892311096,0.9292669892311096],"translation":[-0.005599783267825842,0.0,0.0120921665802598]},{"extensions":{"S8S_v3d_node":{"frustumCulling":true,"groupNames":["Pietement 2"],"hidden":false,"hidpiCompositing":false,"objectColor":[1.0,1.0,1.0,1.0],"objectIndex":0,"renderOrder":0}},"mesh":9,"name":"tab_piston_01.001","scale":[0.009999999776482582,0.009999999776482582,0.009999999776482582]}],"samplers":[{}],"scene":0,"scenes":[{"extensions":{"S8S_v3d_scene":{"aaMethod":"AUTO","iblEnvironmentMode":"PMREM","physicallyCorrectLights":true,"pmremMaxTileSize":512,"worldMaterial":8}},"extras":{"animFrameRate":30,"coordSystem":"Z_UP_RIGHT"},"name":"Scene","nodes":[0,11,1,8,4,12,5,15,16]}],"textures":[{"extensions":{"S8S_v3d_texture":{"colorSpace":"non-color"}},"name":"Pietement_Bois_ORM.jpg","sampler":0,"source":0},{"extensions":{"S8S_v3d_texture":{"colorSpace":"srgb"}},"name":"Pietement_Bois_Basecolor.jpg","sampler":0,"source":1},{"extensions":{"S8S_v3d_texture":{"colorSpace":"srgb"}},"name":"logotype.jpg","sampler":0,"source":2},{"extensions":{"S8S_v3d_texture":{"anisotropy":16,"colorSpace":"non-color"}},"name":"Mask.jpg","sampler":0,"source":3},{"extensions":{"S8S_v3d_texture":{"anisotropy":16,"colorSpace":"non-color"}},"name":"Furtif_ORM.jpg","sampler":0,"source":4},{"extensions":{"S8S_v3d_texture":{"anisotropy":16,"colorSpace":"non-color"}},"name":"Furtif_Normal.jpg","sampler":0,"source":5},{"extensions":{"S8S_v3d_texture":{"anisotropy":16,"colorSpace":"srgb"}},"name":"Furtif_Basecolor.jpg","sampler":0,"source":6},{"extensions":{"S8S_v3d_texture":{"colorSpace":"non-color"}},"name":"Noise_Optimized.jpg","sampler":0,"source":7},{"extensions":{"S8S_v3d_texture":{"colorSpace":"non-color"}},"name":"Noise_Optimized.jpg","sampler":0,"source":7},{"extensions":{"S8S_v3d_texture":{"colorSpace":"non-color"}},"name":"Noise_Optimized.jpg.001","sampler":0,"source":8},{"extensions":{"S8S_v3d_texture":{"colorSpace":"non-color"}},"name":"Shadows.jpg","sampler":0,"source":9},{"extensions":{"S8S_v3d_texture":{"colorSpace":"non-color"}},"name":"Shadows2.jpg.001","sampler":0,"source":10},{"extensions":{"S8S_v3d_texture":{"colorSpace":"linear rec.709","source":11}},"name":"Christmas_living_room.hdr","sampler":0}]}
